<svg width="104" height="232" viewBox="0 0 104 232" fill="none" xmlns="http://www.w3.org/2000/svg">
<g id="Clipboard" opacity="0.5">
<g id="Board_00000043436751827063725590000014950621575217693880_">
<g id="Window_16_">
<path id="Vector" d="M94.9413 0.418972L1.74426 54.2386C0.781181 54.7946 0.000976562 56.1478 0.000976562 57.2608V228.369C0.000976562 229.482 0.782826 230.833 1.74754 231.385L2.10178 231.588C3.0665 232.14 4.6291 232.137 5.59163 231.58L98.7903 177.691C99.7528 177.134 100.533 175.78 100.533 174.667V3.63144C100.533 2.5184 99.7512 1.16794 98.7864 0.615262L98.4322 0.412941C97.4669 -0.139741 95.9043 -0.137548 94.9413 0.418972Z" fill="#188983"/>
<path id="Vector_2" opacity="0.45" d="M94.9413 0.418972L1.74426 54.2386C0.781181 54.7946 0.000976562 56.1478 0.000976562 57.2608V228.369C0.000976562 229.482 0.782826 230.833 1.74754 231.385L2.10178 231.588C3.0665 232.14 4.6291 232.137 5.59163 231.58L98.7903 177.691C99.7528 177.134 100.533 175.78 100.533 174.667V3.63144C100.533 2.5184 99.7512 1.16794 98.7864 0.615262L98.4322 0.412941C97.4669 -0.139741 95.9043 -0.137548 94.9413 0.418972Z" fill="black"/>
<g id="XMLID_00000111171270640543197070000000991487099271001764_">
<path id="Vector_3" d="M100.532 174.793C100.532 176.327 99.4559 177.305 98.1233 178.073L6.25671 231.186C4.93064 231.953 3.84766 231.333 3.84766 229.792V60.2229C3.84766 58.5067 4.762 56.9211 6.24576 56.0624L98.1211 2.92709C99.1926 2.30751 100.532 3.0817 100.532 4.32085V174.793H100.532Z" fill="#188983"/>
</g>
<path id="XMLID_00000000911366107835880820000009670309326150020275_" opacity="0.3" d="M100.533 174.793C100.533 176.327 99.4569 177.305 98.1242 178.073L6.25769 231.186C4.93161 231.953 3.84863 231.333 3.84863 229.792V60.2229C3.84863 58.5067 4.76298 56.9211 6.24674 56.0624L98.1221 2.92709C99.1935 2.30751 100.533 3.0817 100.533 4.32085V174.793H100.533Z" fill="black"/>
<path id="Vector_4" d="M100.535 3.63303V4.3184C100.535 3.08199 99.1927 2.30944 98.1196 2.92792L6.24697 56.0649C5.50235 56.4882 4.90502 57.0995 4.49603 57.8184C4.48289 57.8386 4.47577 57.8518 4.4692 57.8721L0.493164 55.5725C0.815101 55.0149 1.25147 54.5242 1.74752 54.2424L94.9423 0.420016C95.9081 -0.137601 97.4713 -0.137602 98.4305 0.413435L98.7837 0.617401C99.75 1.16734 100.535 2.5178 100.535 3.63303Z" fill="#188983"/>
<path id="Vector_5" opacity="0.2" d="M100.535 3.63303V4.3184C100.535 3.08199 99.1927 2.30944 98.1196 2.92792L6.24697 56.0649C5.50235 56.4882 4.90502 57.0995 4.49603 57.8184C4.48289 57.8386 4.47577 57.8518 4.4692 57.8721L0.493164 55.5725C0.815101 55.0149 1.25147 54.5242 1.74752 54.2424L94.9423 0.420016C95.9081 -0.137601 97.4713 -0.137602 98.4305 0.413435L98.7837 0.617401C99.75 1.16734 100.535 2.5178 100.535 3.63303Z" fill="black"/>
</g>
</g>
<path id="Shadow_32_" opacity="0.25" d="M98.2596 167.725C98.2596 169.305 97.152 170.313 95.7783 171.103L8.95105 221.304C7.58556 222.094 6.46973 221.456 6.46973 219.868V69.1218C6.46973 67.3541 7.41145 65.7207 8.93956 64.8368L95.7761 14.6124C96.8799 13.9742 98.2596 14.7714 98.2596 16.0478V17.8934V167.725Z" fill="black"/>
<g id="Form">
<g id="Paper">
<path id="XMLID_1287_" d="M8.69391 66.7174L95.2047 16.6997C95.6137 16.4634 96.2767 16.4634 96.6857 16.6997L97.5201 17.1822C97.9291 17.4185 98.2609 17.9937 98.2609 18.4663V169.914C98.2609 170.387 97.9291 170.962 97.5207 171.198L11.011 221.216C10.602 221.453 9.93895 221.453 9.52996 221.216L8.69391 220.733C8.28492 220.496 7.95312 219.921 7.95312 219.448V68.0021C7.95312 67.5289 8.28492 66.9543 8.69391 66.7174Z" fill="#F5F5F5"/>
<path id="XMLID_965_" d="M10.8339 221.297C10.7485 221.331 10.6571 221.354 10.5601 221.371C10.5147 221.377 10.4632 221.383 10.4178 221.388C10.2694 221.4 10.1156 221.394 9.96773 221.371C9.87083 221.354 9.77939 221.331 9.69398 221.297C9.63704 221.274 9.5801 221.245 9.52863 221.217L8.69641 220.737C8.28578 220.498 7.95508 219.927 7.95508 219.453V68.0072C7.95508 67.7676 8.03502 67.505 8.1719 67.2764L10.4862 68.612C10.3554 68.8461 10.27 69.1088 10.27 69.3429V220.789C10.27 221.194 10.5092 221.394 10.8339 221.297Z" fill="#E0E0E0"/>
<g id="Group">
<g id="Group_2">
<path id="Vector_6" d="M97.5226 17.1812L96.6882 16.6987C96.2792 16.4624 95.6162 16.4624 95.2072 16.6987L8.69586 66.717C8.28687 66.9533 7.95508 67.5285 7.95508 68.0017V77.3539L10.2716 78.7017L98.2623 27.8275V18.4653C98.2629 17.9927 97.9311 17.4175 97.5226 17.1812Z" fill="#188983"/>
<path id="Vector_7" opacity="0.4" d="M97.5226 17.1812L96.6882 16.6987C96.2792 16.4624 95.6162 16.4624 95.2072 16.6987L8.69586 66.717C8.28687 66.9533 7.95508 67.5285 7.95508 68.0017V77.3539L10.2716 78.7017L98.2623 27.8275V18.4653C98.2629 17.9927 97.9311 17.4175 97.5226 17.1812Z" fill="white"/>
</g>
<g id="Group_3">
<path id="XMLID_961_" d="M98.2348 18.2415C98.1434 17.9388 97.8587 17.8418 97.5225 18.0359L11.0117 68.0552C10.8064 68.1753 10.618 68.3749 10.4872 68.609L8.17285 67.2734C8.30371 67.0392 8.49205 66.8336 8.69737 66.7196L95.2082 16.7002C95.6128 16.4606 96.2802 16.4606 96.6848 16.7002L97.523 17.18C97.8702 17.3856 98.1609 17.8248 98.2348 18.2415Z" fill="#188983"/>
<path id="XMLID_00000173852306930367634640000017539501489570949538_" opacity="0.6" d="M98.2348 18.2415C98.1434 17.9388 97.8587 17.8418 97.5225 18.0359L11.0117 68.0552C10.8064 68.1753 10.618 68.3749 10.4872 68.609L8.17285 67.2734C8.30371 67.0392 8.49205 66.8336 8.69737 66.7196L95.2082 16.7002C95.6128 16.4606 96.2802 16.4606 96.6848 16.7002L97.523 17.18C97.8702 17.3856 98.1609 17.8248 98.2348 18.2415Z" fill="white"/>
</g>
<path id="Vector_8" d="M7.95703 68.0043V77.3643L10.2714 78.7021V69.34C10.2714 69.1058 10.3568 68.8432 10.4876 68.6091L8.1733 67.2734C8.03697 67.5015 7.95703 67.7642 7.95703 68.0043Z" fill="#188983"/>
</g>
</g>
</g>
<g id="Clip">
<g id="Shadow_31_" opacity="0.25">
<path id="Vector_9" d="M78.247 22.9617V30.4092C78.247 32.2959 76.9609 34.5214 75.3304 35.4645L60.9347 43.7855C60.2223 44.1967 59.8177 45.0191 59.389 45.8838C59.0753 46.5187 58.749 47.1717 58.2781 47.7041C57.1607 48.974 54.7215 50.2981 53.0001 50.8486C52.4203 51.0361 51.8405 51.1694 51.2733 51.2478C51.0559 51.2839 50.8144 51.3141 50.567 51.3448C48.9967 51.5564 47.0404 51.8224 45.8934 52.488L29.0459 62.2241C28.5389 62.5202 28.0374 62.6655 27.5786 62.6655C27.2221 62.6655 26.8903 62.581 26.5941 62.4116C25.9059 62.0124 25.5254 61.2202 25.5254 60.1921V52.7446C25.5254 50.8579 26.8055 48.6324 28.442 47.6893L34.1 44.4176C34.1241 44.4056 34.1482 44.3935 34.1783 44.3875C34.4498 44.2663 34.7701 44.3754 34.9273 44.6413C35.0784 44.9012 35.0061 45.2401 34.7707 45.4095C34.7526 45.4336 34.7285 45.4517 34.7044 45.4638L29.0464 48.7355C27.7965 49.4614 26.7338 51.2993 26.7338 52.7446V60.1921C26.7338 60.7667 26.9029 61.19 27.1986 61.3594C27.4942 61.5349 27.9476 61.4625 28.4425 61.1779L45.29 51.4358C46.6424 50.6556 48.7322 50.3716 50.4044 50.1479C50.6518 50.1177 50.8878 50.0815 51.1046 50.0508C51.5996 49.9785 52.1192 49.8633 52.6382 49.6939C54.1658 49.2103 56.4363 47.9706 57.3725 46.9064C57.741 46.4951 58.0126 45.9326 58.3082 45.3465C58.7972 44.3546 59.3047 43.3326 60.3313 42.7399L74.7276 34.4189C75.9776 33.6935 77.0403 31.8551 77.0403 30.4098V22.9617C77.0403 22.3931 76.8711 21.9638 76.5754 21.7944C76.2798 21.619 75.8204 21.6913 75.3315 21.9759L70.428 24.8122C70.2648 24.4432 70.0535 24.0868 69.812 23.7721L74.7276 20.9297C75.6151 20.41 76.4906 20.3491 77.1794 20.7422C77.8665 21.1414 78.247 21.9337 78.247 22.9617Z" fill="black"/>
</g>
<g id="Clip_1_">
<g id="Group_4">
<g id="Group_5">
<path id="Vector_10" d="M67.7462 23.0998L67.7467 23.1009C68.1344 22.8729 68.6715 22.9025 69.2661 23.2462C70.4476 23.9294 71.4057 25.5913 71.4057 26.9577C71.4057 27.6452 71.1627 28.1261 70.7712 28.3481L70.7717 28.3492L36.6174 48.0999L33.5918 42.8506L67.7462 23.0998Z" fill="#37474F"/>
</g>
<path id="Vector_11" d="M35.1128 45.4863L70.7866 24.8572C70.3989 24.1806 69.8618 23.589 69.2672 23.2452C69.1966 23.2041 69.1298 23.1822 69.0608 23.1504L33.9434 43.4576L35.1128 45.4863Z" fill="#455A64"/>
<path id="Vector_12" d="M35.1123 42.9967C33.9308 42.3136 32.9727 42.8673 32.9727 44.2337C32.9727 45.6 33.9308 47.2619 35.1123 47.9451C36.2939 48.6283 37.252 48.0745 37.252 46.7081C37.252 45.3418 36.2939 43.6799 35.1123 42.9967Z" fill="#263238"/>
</g>
<g id="Group_6">
<path id="Vector_13" d="M78.8564 23.4922V30.9397C78.8564 32.8264 77.5703 35.0519 75.9398 35.995L61.544 44.3159C60.8317 44.7271 60.4271 45.5496 59.9979 46.4142C59.6841 47.0492 59.3578 47.7022 58.887 48.2346C57.77 49.5044 55.3303 50.8286 53.6095 51.379C53.0297 51.5666 52.4499 51.6998 51.8826 51.7782C51.6653 51.8144 51.4238 51.8446 51.1763 51.8753C49.6061 52.0869 47.6498 52.3528 46.5028 53.0179L29.6553 62.754C29.1483 63.0501 28.6468 63.1954 28.1879 63.1954C27.8315 63.1954 27.4997 63.1109 27.2035 62.9415C26.5153 62.5423 26.1348 61.7501 26.1348 60.722V53.2745C26.1348 51.3878 27.4149 49.1623 29.0514 48.2192L34.7094 44.9475C34.7335 44.9355 34.7575 44.9234 34.7876 44.9174C35.0592 44.7962 35.3795 44.9053 35.5361 45.1712C35.6872 45.4311 35.6149 45.77 35.379 45.9394C35.3609 45.9635 35.3368 45.9816 35.3127 45.9937L29.6547 49.2654C28.4047 49.9913 27.342 51.8292 27.342 53.2745V60.722C27.342 61.2966 27.5112 61.7199 27.8069 61.8893C28.1025 62.0648 28.5559 61.9924 29.0508 61.7078L45.8983 51.9657C47.2507 51.1855 49.34 50.9015 51.0132 50.6778C51.2607 50.6476 51.4961 50.6109 51.7134 50.5807C52.2084 50.5084 52.728 50.3932 53.247 50.2238C54.7746 49.7402 57.0451 48.5005 57.9814 47.4363C58.3498 47.025 58.6214 46.4625 58.9171 45.8764C59.406 44.8845 59.9135 43.8625 60.9401 43.2698L75.3359 34.9488C76.5858 34.2234 77.6486 32.385 77.6486 30.9397V23.4922C77.6486 22.9236 77.4794 22.4943 77.1837 22.3249C76.8881 22.1494 76.4287 22.2223 75.9398 22.5063L71.0363 25.3427C70.8731 24.9737 70.6618 24.6173 70.4203 24.3026L75.3359 21.4602C76.2234 20.9399 77.0994 20.8795 77.7876 21.2727C78.4759 21.6718 78.8564 22.4641 78.8564 23.4922Z" fill="#455A64"/>
</g>
</g>
</g>
<g id="Group_7">
<g id="Group_8">
<g id="Image">
<g id="Group_9" opacity="0.2">
<path id="Vector_14" d="M17.043 95.8888L99.2657 48.3291C99.6128 48.1284 99.8937 48.2913 99.8937 48.6926V68.3413C99.8937 68.7427 99.6123 69.2307 99.2657 69.4308L17.043 116.991C16.6959 117.191 16.415 117.028 16.415 116.628V96.9788C16.4145 96.5775 16.6959 96.0895 17.043 95.8888Z" fill="black"/>
</g>
<g id="XMLID_3827_">
<path id="XMLID_00000058565216822914025640000003909829283754977468_" d="M103.631 50.9304C103.436 50.8432 103.174 50.869 102.893 51.0329L21.6231 98.0416C21.0137 98.3958 20.5166 99.2577 20.5166 99.9656V118.596C20.5166 118.934 20.6294 119.181 20.8188 119.304C20.6294 119.181 18.954 118.232 18.7492 118.109C18.5543 117.991 18.4316 117.745 18.4316 117.395V98.7648C18.4316 98.057 18.9288 97.1951 19.5431 96.8409L100.808 49.8272C101.12 49.6479 101.402 49.6375 101.602 49.7554C101.781 49.8629 103.236 50.6892 103.631 50.9304Z" fill="#188983"/>
<g id="XMLID_3828_" opacity="0.2">
<path id="Vector_15" d="M103.63 50.9306C103.236 50.6893 101.781 49.8636 101.601 49.7556C101.402 49.6377 101.12 49.6476 100.807 49.8274L19.5429 96.841C19.2363 97.0176 18.9587 97.3208 18.7578 97.6684L20.8406 98.8725C21.0409 98.5238 21.318 98.2189 21.6229 98.0418L102.892 51.0331C103.174 50.8686 103.436 50.8434 103.63 50.9306Z" fill="white"/>
</g>
<g id="Group_10">
<path id="XMLID_3830_" d="M21.6229 98.0428L102.89 51.0335C103.503 50.6793 103.999 50.9666 103.999 51.675V70.3067C103.999 71.0151 103.503 71.8764 102.89 72.2306L21.6229 119.24C21.0103 119.594 20.5137 119.307 20.5137 118.598V99.9673C20.5137 99.2583 21.0103 98.397 21.6229 98.0428Z" fill="#FAFAFA"/>
</g>
<path id="XMLID_3829_" d="M20.8403 98.873L18.7575 97.6689C18.5555 98.0177 18.4307 98.4113 18.4307 98.7655V117.397C18.4307 117.745 18.5539 117.992 18.7482 118.11C18.953 118.233 20.6284 119.182 20.8178 119.305C20.6284 119.182 20.5156 118.936 20.5156 118.597V99.9663C20.5161 99.6127 20.6404 99.2206 20.8403 98.873Z" fill="#188983"/>
<path id="XMLID_00000013194044898479972820000017584842303494603962_" opacity="0.15" d="M20.8403 98.873L18.7575 97.6689C18.5555 98.0177 18.4307 98.4113 18.4307 98.7655V117.397C18.4307 117.745 18.5539 117.992 18.7482 118.11C18.953 118.233 20.6284 119.182 20.8178 119.305C20.6284 119.182 20.5156 118.936 20.5156 118.597V99.9663C20.5161 99.6127 20.6404 99.2206 20.8403 98.873Z" fill="black"/>
</g>
<path id="XMLID_3824_" d="M103.386 51.395C103.484 51.395 103.487 51.6462 103.487 51.6752V70.3069C103.487 70.8321 103.088 71.5235 102.634 71.7867L21.3667 118.796C21.2375 118.871 21.1564 118.879 21.1274 118.879C21.0289 118.879 21.0261 118.628 21.0261 118.599V99.9675C21.0261 99.4422 21.4247 98.7503 21.8792 98.4876L103.146 51.4784C103.276 51.4033 103.357 51.395 103.386 51.395ZM103.386 50.8818C103.237 50.8818 103.068 50.9306 102.89 51.0337L21.6229 98.043C21.0103 98.3972 20.5137 99.2585 20.5137 99.9669V118.598C20.5137 119.1 20.7633 119.391 21.1274 119.391C21.2764 119.391 21.445 119.342 21.6229 119.239L102.89 72.2297C103.503 71.8755 103.999 71.0142 103.999 70.3058V51.6741C103.999 51.1724 103.749 50.8818 103.386 50.8818Z" fill="#188983"/>
</g>
<g id="Group_11">
<g id="Group_12">
<path id="Vector_16" d="M36.1698 96.4328C37.2741 97.071 37.9569 98.4401 37.9569 100.389C37.9569 104.285 35.2248 109.024 31.8554 110.972C30.1707 111.946 28.6453 112.038 27.541 111.4C26.8703 111.013 26.2658 110.663 25.5957 110.276C24.4913 109.637 23.8086 108.268 23.8086 106.32C23.8086 102.423 26.5407 97.6845 29.9106 95.7359C31.5953 94.7616 33.1207 94.6695 34.225 95.3082C34.8952 95.6959 35.4996 96.0451 36.1698 96.4328Z" fill="#188983"/>
<path id="Vector_17" opacity="0.2" d="M36.1698 96.4328C37.2741 97.071 37.9569 98.4401 37.9569 100.389C37.9569 104.285 35.2248 109.024 31.8554 110.972C30.1707 111.946 28.6453 112.038 27.541 111.4C26.8703 111.013 26.2658 110.663 25.5957 110.276C24.4913 109.637 23.8086 108.268 23.8086 106.32C23.8086 102.423 26.5407 97.6845 29.9106 95.7359C31.5953 94.7616 33.1207 94.6695 34.225 95.3082C34.8952 95.6959 35.4996 96.0451 36.1698 96.4328Z" fill="black"/>
<path id="Vector_18" d="M31.8554 110.972C30.1707 111.946 28.6453 112.038 27.541 111.4C26.4367 110.762 25.7539 109.392 25.7539 107.444C25.7539 103.547 28.486 98.8087 31.8554 96.86C33.5401 95.8857 35.066 95.7936 36.1698 96.4318C37.2741 97.07 37.9569 98.4391 37.9569 100.388C37.9569 104.285 35.2253 109.023 31.8554 110.972Z" fill="#188983"/>
</g>
</g>
<path id="Vector_19" d="M42.1575 94.7986L99.3818 61.7002C100.136 61.2643 100.747 60.0942 100.747 59.0875C100.747 58.0803 100.136 57.6176 99.3818 58.054L42.1575 91.1524C41.4036 91.5883 40.792 92.7584 40.792 93.765C40.792 94.7717 41.4036 95.235 42.1575 94.7986ZM99.3818 65.729L42.1575 98.8275C41.4036 99.2634 40.792 100.433 40.792 101.44C40.792 102.447 41.4036 102.91 42.1575 102.474L99.3818 69.3752C100.136 68.9393 100.747 67.7692 100.747 66.7626C100.747 65.7559 100.136 65.2931 99.3818 65.729Z" fill="#E0E0E0"/>
</g>
<g id="Group_13">
<g id="Image_00000180358050758612745440000013239158506222870456_">
<g id="Group_14" opacity="0.2">
<path id="Vector_20" d="M17.043 125.814L99.2657 78.2539C99.6128 78.0532 99.8937 78.2161 99.8937 78.6174V98.2661C99.8937 98.6675 99.6123 99.1555 99.2657 99.3556L17.043 146.915C16.6959 147.116 16.415 146.953 16.415 146.552V126.903C16.4145 126.502 16.6959 126.014 17.043 125.814Z" fill="black"/>
</g>
<g id="XMLID_00000045619778887093191140000005521726163055697043_">
<path id="XMLID_00000124137004472259909160000008242059925686657209_" d="M103.631 80.8552C103.436 80.768 103.174 80.7938 102.893 80.9577L21.6231 127.966C21.0137 128.321 20.5166 129.183 20.5166 129.89V148.521C20.5166 148.86 20.6294 149.106 20.8188 149.229C20.6294 149.105 18.954 148.156 18.7492 148.034C18.5543 147.916 18.4316 147.669 18.4316 147.32V128.69C18.4316 127.982 18.9288 127.12 19.5431 126.766L100.808 79.752C101.12 79.5728 101.402 79.5623 101.602 79.6802C101.781 79.7882 103.236 80.614 103.631 80.8552Z" fill="#188983"/>
<g id="XMLID_00000165213969585195760390000005709824323905308600_" opacity="0.2">
<path id="Vector_21" d="M103.63 80.8554C103.236 80.6141 101.781 79.7884 101.601 79.6804C101.402 79.5625 101.12 79.5724 100.807 79.7522L19.5429 126.766C19.2363 126.942 18.9587 127.246 18.7578 127.593L20.8406 128.797C21.0409 128.449 21.318 128.144 21.6229 127.967L102.892 80.9579C103.174 80.794 103.436 80.7682 103.63 80.8554Z" fill="white"/>
</g>
<g id="Group_15">
<path id="XMLID_00000062164308427389708260000002196050764173846435_" d="M21.6229 127.968L102.89 80.9583C103.503 80.6041 103.999 80.8914 103.999 81.5998V100.231C103.999 100.94 103.503 101.801 102.89 102.155L21.6229 149.165C21.0103 149.519 20.5137 149.232 20.5137 148.523V129.892C20.5137 129.184 21.0103 128.322 21.6229 127.968Z" fill="#FAFAFA"/>
</g>
<path id="XMLID_00000088105658184771197660000001947039554586632870_" d="M20.8403 128.797L18.7575 127.593C18.5555 127.941 18.4307 128.335 18.4307 128.689V147.32C18.4307 147.669 18.5539 147.915 18.7482 148.033C18.953 148.157 20.6284 149.106 20.8178 149.229C20.6284 149.105 20.5156 148.859 20.5156 148.521V129.89C20.5161 129.537 20.6404 129.145 20.8403 128.797Z" fill="#188983"/>
<path id="XMLID_00000143599005638242608140000008427694130833330077_" opacity="0.15" d="M20.8403 128.797L18.7575 127.593C18.5555 127.941 18.4307 128.335 18.4307 128.689V147.32C18.4307 147.669 18.5539 147.915 18.7482 148.033C18.953 148.157 20.6284 149.106 20.8178 149.229C20.6284 149.105 20.5156 148.859 20.5156 148.521V129.89C20.5161 129.537 20.6404 129.145 20.8403 128.797Z" fill="black"/>
</g>
<path id="XMLID_00000097495358838513232150000012498245457521533080_" d="M103.386 81.3193C103.484 81.3193 103.487 81.5704 103.487 81.5995V100.231C103.487 100.756 103.088 101.448 102.634 101.711L21.3667 148.72C21.2375 148.795 21.1564 148.803 21.1274 148.803C21.0289 148.803 21.0261 148.552 21.0261 148.523V129.891C21.0261 129.366 21.4247 128.675 21.8792 128.411L103.146 81.4021C103.276 81.3275 103.357 81.3193 103.386 81.3193ZM103.386 80.8066C103.237 80.8066 103.068 80.8554 102.89 80.9585L21.6229 127.968C21.0103 128.322 20.5137 129.183 20.5137 129.892V148.523C20.5137 149.026 20.7633 149.316 21.1274 149.316C21.2764 149.316 21.445 149.267 21.6229 149.164L102.89 102.155C103.503 101.801 103.999 100.94 103.999 100.231V81.5995C103.999 81.0967 103.749 80.8066 103.386 80.8066Z" fill="#188983"/>
</g>
<g id="Group_16">
<g id="Group_17">
<path id="Vector_22" d="M36.1698 126.357C37.2741 126.995 37.9569 128.364 37.9569 130.313C37.9569 134.209 35.2248 138.948 31.8554 140.896C30.1707 141.87 28.6453 141.962 27.541 141.324C26.8703 140.936 26.2658 140.587 25.5957 140.199C24.4913 139.561 23.8086 138.192 23.8086 136.243C23.8086 132.346 26.5407 127.608 29.9106 125.66C31.5953 124.685 33.1207 124.593 34.225 125.232C34.8952 125.62 35.4996 125.969 36.1698 126.357Z" fill="#188983"/>
<path id="Vector_23" opacity="0.2" d="M36.1698 126.357C37.2741 126.995 37.9569 128.364 37.9569 130.313C37.9569 134.209 35.2248 138.948 31.8554 140.896C30.1707 141.87 28.6453 141.962 27.541 141.324C26.8703 140.936 26.2658 140.587 25.5957 140.199C24.4913 139.561 23.8086 138.192 23.8086 136.243C23.8086 132.346 26.5407 127.608 29.9106 125.66C31.5953 124.685 33.1207 124.593 34.225 125.232C34.8952 125.62 35.4996 125.969 36.1698 126.357Z" fill="black"/>
<path id="Vector_24" d="M31.8554 140.897C30.1707 141.871 28.6453 141.963 27.541 141.324C26.4367 140.686 25.7539 139.317 25.7539 137.368C25.7539 133.472 28.486 128.733 31.8554 126.785C33.5401 125.81 35.066 125.718 36.1698 126.357C37.2741 126.995 37.9569 128.364 37.9569 130.313C37.9569 134.21 35.2253 138.949 31.8554 140.897Z" fill="#188983"/>
</g>
</g>
<path id="Vector_25" d="M42.1575 124.723L99.3818 91.625C100.136 91.1891 100.747 90.019 100.747 89.0123C100.747 88.0051 100.136 87.5424 99.3818 87.9788L42.1575 121.077C41.4036 121.513 40.792 122.683 40.792 123.69C40.792 124.697 41.4036 125.159 42.1575 124.723ZM99.3818 95.6533L42.1575 128.752C41.4036 129.188 40.792 130.358 40.792 131.364C40.792 132.371 41.4036 132.834 42.1575 132.398L99.3818 99.2995C100.136 98.8636 100.747 97.6935 100.747 96.6868C100.747 95.6802 100.136 95.2174 99.3818 95.6533Z" fill="#E0E0E0"/>
</g>
<g id="Group_18">
<g id="Image_00000137842010518300455130000006215679231586806442_">
<g id="Group_19" opacity="0.2">
<path id="Vector_26" d="M17.043 155.737L99.2657 108.178C99.6128 107.977 99.8937 108.14 99.8937 108.541V128.19C99.8937 128.591 99.6123 129.079 99.2657 129.28L17.043 176.84C16.6959 177.04 16.415 176.878 16.415 176.476V156.827C16.4145 156.426 16.6959 155.938 17.043 155.737Z" fill="black"/>
</g>
<g id="XMLID_00000067934953401047872410000000668940622366822542_">
<path id="XMLID_00000062903267560388004420000004176506688672286611_" d="M103.631 110.779C103.436 110.692 103.174 110.718 102.893 110.882L21.6231 157.89C21.0137 158.244 20.5166 159.106 20.5166 159.814V178.445C20.5166 178.783 20.6294 179.03 20.8188 179.153C20.6294 179.029 18.954 178.08 18.7492 177.957C18.5543 177.839 18.4316 177.593 18.4316 177.244V158.613C18.4316 157.906 18.9288 157.044 19.5431 156.689L100.808 109.676C101.12 109.497 101.402 109.486 101.602 109.604C101.781 109.712 103.236 110.538 103.631 110.779Z" fill="#188983"/>
<g id="XMLID_00000087380354410882412240000000651894025690008709_" opacity="0.2">
<path id="Vector_27" d="M103.63 110.779C103.236 110.538 101.781 109.712 101.601 109.604C101.402 109.486 101.12 109.496 100.807 109.676L19.5429 156.69C19.2363 156.866 18.9587 157.169 18.7578 157.517L20.8406 158.721C21.0409 158.372 21.318 158.068 21.6229 157.89L102.892 110.882C103.174 110.718 103.436 110.692 103.63 110.779Z" fill="white"/>
</g>
<g id="Group_20">
<path id="XMLID_00000039128156273587809710000005874536224899947656_" d="M21.6229 157.891L102.89 110.882C103.503 110.528 103.999 110.815 103.999 111.524V130.155C103.999 130.864 103.503 131.725 102.89 132.079L21.6229 179.088C21.0103 179.443 20.5137 179.155 20.5137 178.447V159.815C20.5137 159.107 21.0103 158.246 21.6229 157.891Z" fill="#FAFAFA"/>
</g>
<path id="XMLID_00000137825674426992524910000015031501271737564324_" d="M20.8403 158.722L18.7575 157.518C18.5555 157.866 18.4307 158.259 18.4307 158.614V177.245C18.4307 177.593 18.5539 177.84 18.7482 177.958C18.953 178.081 20.6284 179.031 20.8178 179.153C20.6284 179.03 20.5156 178.784 20.5156 178.445V159.815C20.5161 159.461 20.6404 159.069 20.8403 158.722Z" fill="#188983"/>
<path id="XMLID_00000088845851459961615560000017156130802137725590_" opacity="0.15" d="M20.8403 158.722L18.7575 157.518C18.5555 157.866 18.4307 158.259 18.4307 158.614V177.245C18.4307 177.593 18.5539 177.84 18.7482 177.958C18.953 178.081 20.6284 179.031 20.8178 179.153C20.6284 179.03 20.5156 178.784 20.5156 178.445V159.815C20.5161 159.461 20.6404 159.069 20.8403 158.722Z" fill="black"/>
</g>
<path id="XMLID_00000067945569556013034600000017297500540690208923_" d="M103.386 111.243C103.484 111.243 103.487 111.494 103.487 111.523V130.155C103.487 130.68 103.088 131.371 102.634 131.634L21.3667 178.644C21.2375 178.719 21.1564 178.726 21.1274 178.726C21.0289 178.726 21.0261 178.475 21.0261 178.446V159.815C21.0261 159.289 21.4247 158.598 21.8792 158.335L103.146 111.325C103.276 111.251 103.357 111.243 103.386 111.243ZM103.386 110.729C103.237 110.729 103.068 110.778 102.89 110.881L21.6229 157.891C21.0103 158.245 20.5137 159.106 20.5137 159.815V178.446C20.5137 178.948 20.7633 179.239 21.1274 179.239C21.2764 179.239 21.445 179.19 21.6229 179.087L102.89 132.078C103.503 131.724 103.999 130.862 103.999 130.154V111.522C103.999 111.02 103.749 110.729 103.386 110.729Z" fill="#188983"/>
</g>
<g id="Group_21">
<g id="Group_22">
<path id="Vector_28" d="M36.1698 156.282C37.2741 156.92 37.9569 158.289 37.9569 160.238C37.9569 164.135 35.2248 168.873 31.8554 170.822C30.1707 171.796 28.6453 171.888 27.541 171.25C26.8703 170.862 26.2658 170.513 25.5957 170.125C24.4913 169.487 23.8086 168.117 23.8086 166.169C23.8086 162.273 26.5407 157.534 29.9106 155.586C31.5953 154.611 33.1207 154.519 34.225 155.158C34.8952 155.544 35.4996 155.894 36.1698 156.282Z" fill="#188983"/>
<path id="Vector_29" opacity="0.2" d="M36.1698 156.282C37.2741 156.92 37.9569 158.289 37.9569 160.238C37.9569 164.135 35.2248 168.873 31.8554 170.822C30.1707 171.796 28.6453 171.888 27.541 171.25C26.8703 170.862 26.2658 170.513 25.5957 170.125C24.4913 169.487 23.8086 168.117 23.8086 166.169C23.8086 162.273 26.5407 157.534 29.9106 155.586C31.5953 154.611 33.1207 154.519 34.225 155.158C34.8952 155.544 35.4996 155.894 36.1698 156.282Z" fill="black"/>
<path id="Vector_30" d="M31.8554 170.821C30.1707 171.795 28.6453 171.887 27.541 171.248C26.4367 170.61 25.7539 169.241 25.7539 167.292C25.7539 163.396 28.486 158.657 31.8554 156.709C33.5401 155.734 35.066 155.642 36.1698 156.28C37.2741 156.919 37.9569 158.288 37.9569 160.236C37.9569 164.134 35.2253 168.873 31.8554 170.821Z" fill="#188983"/>
</g>
</g>
<path id="Vector_31" d="M42.1575 154.647L99.3818 121.548C100.136 121.113 100.747 119.943 100.747 118.936C100.747 117.929 100.136 117.466 99.3818 117.902L42.1575 151.001C41.4036 151.437 40.792 152.607 40.792 153.613C40.792 154.62 41.4036 155.083 42.1575 154.647ZM99.3818 125.577L42.1575 158.676C41.4036 159.112 40.792 160.282 40.792 161.288C40.792 162.296 41.4036 162.758 42.1575 162.322L99.3818 129.224C100.136 128.788 100.747 127.618 100.747 126.611C100.747 125.604 100.136 125.141 99.3818 125.577Z" fill="#E0E0E0"/>
</g>
<g id="Group_23">
<g id="Image_00000009563351310336988450000016840850033163741613_">
<g id="Group_24" opacity="0.2">
<path id="Vector_32" d="M17.043 185.661L99.2657 138.102C99.6128 137.901 99.8937 138.064 99.8937 138.465V158.114C99.8937 158.515 99.6123 159.003 99.2657 159.204L17.043 206.764C16.6959 206.964 16.415 206.801 16.415 206.4V186.751C16.4145 186.349 16.6959 185.862 17.043 185.661Z" fill="black"/>
</g>
<g id="XMLID_00000030448826014601502000000013196023419603893152_">
<path id="XMLID_00000057137122318151470680000005480417761140786101_" d="M103.631 140.703C103.436 140.616 103.174 140.641 102.893 140.805L21.6231 187.814C21.0137 188.168 20.5166 189.03 20.5166 189.738V208.369C20.5166 208.707 20.6294 208.954 20.8188 209.076C20.6294 208.953 18.954 208.004 18.7492 207.881C18.5543 207.763 18.4316 207.517 18.4316 207.168V188.537C18.4316 187.829 18.9288 186.968 19.5431 186.613L100.808 139.6C101.12 139.42 101.402 139.41 101.602 139.528C101.781 139.636 103.236 140.462 103.631 140.703Z" fill="#188983"/>
<g id="XMLID_00000085949361643556058170000018074495394443546002_" opacity="0.2">
<path id="Vector_33" d="M103.63 140.703C103.236 140.462 101.781 139.636 101.601 139.528C101.402 139.41 101.12 139.42 100.807 139.6L19.5429 186.614C19.2363 186.79 18.9587 187.093 18.7578 187.441L20.8406 188.645C21.0409 188.296 21.318 187.991 21.6229 187.814L102.892 140.806C103.174 140.642 103.436 140.616 103.63 140.703Z" fill="white"/>
</g>
<g id="Group_25">
<path id="XMLID_00000129178473959322882020000006645496952610810803_" d="M21.6229 187.815L102.89 140.806C103.503 140.452 103.999 140.739 103.999 141.447V160.079C103.999 160.788 103.503 161.649 102.89 162.003L21.6229 209.012C21.0103 209.367 20.5137 209.079 20.5137 208.371V189.74C20.5137 189.031 21.0103 188.169 21.6229 187.815Z" fill="#FAFAFA"/>
</g>
<path id="XMLID_00000087377490724483173190000005480950546007107760_" d="M20.8403 188.645L18.7575 187.441C18.5555 187.79 18.4307 188.183 18.4307 188.538V207.169C18.4307 207.517 18.5539 207.763 18.7482 207.882C18.953 208.005 20.6284 208.954 20.8178 209.077C20.6284 208.954 20.5156 208.708 20.5156 208.369V189.739C20.5161 189.385 20.6404 188.993 20.8403 188.645Z" fill="#188983"/>
<path id="XMLID_00000119817875834381030410000013392333312555959425_" opacity="0.15" d="M20.8403 188.645L18.7575 187.441C18.5555 187.79 18.4307 188.183 18.4307 188.538V207.169C18.4307 207.517 18.5539 207.763 18.7482 207.882C18.953 208.005 20.6284 208.954 20.8178 209.077C20.6284 208.954 20.5156 208.708 20.5156 208.369V189.739C20.5161 189.385 20.6404 188.993 20.8403 188.645Z" fill="black"/>
</g>
<path id="XMLID_00000173855283048882211610000017987038803929516687_" d="M103.386 141.167C103.484 141.167 103.487 141.418 103.487 141.447V160.078C103.487 160.604 103.088 161.295 102.634 161.558L21.3667 208.567C21.2375 208.643 21.1564 208.65 21.1274 208.65C21.0289 208.65 21.0261 208.399 21.0261 208.37V189.739C21.0261 189.214 21.4247 188.522 21.8792 188.259L103.146 141.25C103.276 141.175 103.357 141.167 103.386 141.167ZM103.386 140.653C103.237 140.653 103.068 140.702 102.89 140.805L21.6229 187.814C21.0103 188.169 20.5137 189.03 20.5137 189.738V208.37C20.5137 208.872 20.7633 209.162 21.1274 209.162C21.2764 209.162 21.445 209.114 21.6229 209.01L102.89 162.001C103.503 161.647 103.999 160.786 103.999 160.077V141.446C103.999 140.944 103.749 140.653 103.386 140.653Z" fill="#188983"/>
</g>
<g id="Group_26">
<g id="Group_27">
<path id="Vector_34" d="M36.1698 186.205C37.2741 186.843 37.9569 188.212 37.9569 190.161C37.9569 194.058 35.2248 198.796 31.8554 200.744C30.1707 201.718 28.6453 201.811 27.541 201.172C26.8703 200.785 26.2658 200.435 25.5957 200.048C24.4913 199.41 23.8086 198.04 23.8086 196.092C23.8086 192.195 26.5407 187.457 29.9106 185.508C31.5953 184.534 33.1207 184.442 34.225 185.08C34.8952 185.468 35.4996 185.817 36.1698 186.205Z" fill="#188983"/>
<path id="Vector_35" opacity="0.2" d="M36.1698 186.205C37.2741 186.843 37.9569 188.212 37.9569 190.161C37.9569 194.058 35.2248 198.796 31.8554 200.744C30.1707 201.718 28.6453 201.811 27.541 201.172C26.8703 200.785 26.2658 200.435 25.5957 200.048C24.4913 199.41 23.8086 198.04 23.8086 196.092C23.8086 192.195 26.5407 187.457 29.9106 185.508C31.5953 184.534 33.1207 184.442 34.225 185.08C34.8952 185.468 35.4996 185.817 36.1698 186.205Z" fill="black"/>
<path id="Vector_36" d="M31.8554 200.744C30.1707 201.719 28.6453 201.811 27.541 201.172C26.4367 200.534 25.7539 199.165 25.7539 197.216C25.7539 193.319 28.486 188.581 31.8554 186.632C33.5401 185.658 35.066 185.566 36.1698 186.205C37.2741 186.843 37.9569 188.212 37.9569 190.161C37.9569 194.057 35.2253 198.796 31.8554 200.744Z" fill="#188983"/>
</g>
</g>
<path id="Vector_37" d="M42.1575 184.571L99.3818 151.473C100.136 151.037 100.747 149.867 100.747 148.86C100.747 147.853 100.136 147.39 99.3818 147.826L42.1575 180.925C41.4036 181.361 40.792 182.531 40.792 183.538C40.792 184.544 41.4036 185.007 42.1575 184.571ZM99.3818 155.501L42.1575 188.599C41.4036 189.035 40.792 190.205 40.792 191.212C40.792 192.219 41.4036 192.682 42.1575 192.246L99.3818 159.147C100.136 158.711 100.747 157.541 100.747 156.535C100.747 155.528 100.136 155.065 99.3818 155.501Z" fill="#E0E0E0"/>
</g>
</g>
</g>
</svg>
