<svg width="166" height="188" viewBox="0 0 166 188" fill="none" xmlns="http://www.w3.org/2000/svg">
<g id="Calendar" opacity="0.5">
<g id="Calendar_2_">
<g id="Group">
<path id="XMLID_2195_" d="M1.39137 164.806C0.747545 164.433 0.367245 163.503 0.542404 162.729L20.8837 72.4743C21.0581 71.7 21.7556 70.7501 22.442 70.3531L143.47 0.31122C144.156 -0.085806 145.234 -0.105578 145.877 0.266931C146.521 0.639439 146.901 1.56873 146.726 2.3438L126.385 92.5984C126.21 93.3727 125.513 94.3226 124.827 94.7196L3.79863 164.761C3.11298 165.158 2.0352 165.178 1.39137 164.806Z" fill="#188983"/>
<path id="XMLID_2174_" opacity="0.8" d="M1.39137 164.806C0.747545 164.433 0.367245 163.503 0.542404 162.729L20.8837 72.4743C21.0581 71.7 21.7556 70.7501 22.442 70.3531L143.47 0.31122C144.156 -0.085806 145.234 -0.105578 145.877 0.266931C146.521 0.639439 146.901 1.56873 146.726 2.3438L126.385 92.5984C126.21 93.3727 125.513 94.3226 124.827 94.7196L3.79863 164.761C3.11298 165.158 2.0352 165.178 1.39137 164.806Z" fill="#373636"/>
<path id="XMLID_2168_" d="M23.2151 73.8231L2.87455 164.078C2.70018 164.852 3.11441 165.158 3.80085 164.761L124.829 94.7183C125.515 94.3213 126.213 93.3715 126.387 92.5972L146.728 2.34252C146.903 1.56824 146.488 1.26217 145.802 1.6592L24.7734 71.7019C24.0877 72.0989 23.3903 73.0488 23.2151 73.8231Z" fill="#188983"/>
<path id="XMLID_2149_" opacity="0.6" d="M23.2151 73.8231L2.87455 164.078C2.70018 164.852 3.11441 165.158 3.80085 164.761L124.829 94.7183C125.515 94.3213 126.213 93.3715 126.387 92.5972L146.728 2.34252C146.903 1.56824 146.488 1.26217 145.802 1.6592L24.7734 71.7019C24.0877 72.0989 23.3903 73.0488 23.2151 73.8231Z" fill="#373636"/>
<path id="XMLID_2148_" opacity="0.05" d="M23.2151 73.8231L2.87455 164.078C2.70018 164.852 3.11441 165.158 3.80085 164.761L124.829 94.7183C125.515 94.3213 126.213 93.3715 126.387 92.5972L146.728 2.34252C146.903 1.56824 146.488 1.26217 145.802 1.6592L24.7734 71.7019C24.0877 72.0989 23.3903 73.0488 23.2151 73.8231Z" fill="black"/>
</g>
<g id="Group_2">
<g id="Group_3">
<path id="XMLID_2147_" d="M148.207 1.61459C147.563 1.24208 146.485 1.26185 145.799 1.65888L24.7707 71.7016C24.085 72.0986 23.6195 73.0579 23.7308 73.8441L39.6395 185.635C39.7515 186.422 40.3638 187.36 41.0068 187.733C41.6499 188.105 42.7277 188.086 43.4141 187.689L164.443 117.646C165.128 117.249 165.594 116.29 165.483 115.504L149.575 3.71281C149.463 2.92667 148.85 1.9871 148.207 1.61459Z" fill="#188983"/>
<path id="XMLID_2145_" opacity="0.8" d="M148.207 1.61459C147.563 1.24208 146.485 1.26185 145.799 1.65888L24.7707 71.7016C24.085 72.0986 23.6195 73.0579 23.7308 73.8441L39.6395 185.635C39.7515 186.422 40.3638 187.36 41.0068 187.733C41.6499 188.105 42.7277 188.086 43.4141 187.689L164.443 117.646C165.128 117.249 165.594 116.29 165.483 115.504L149.575 3.71281C149.463 2.92667 148.85 1.9871 148.207 1.61459Z" fill="#373636"/>
</g>
<g id="Group_4">
<path id="XMLID_2143_" d="M26.0625 75.1929L41.9705 186.984C42.0825 187.77 42.7287 188.086 43.4151 187.689L164.444 117.646C165.129 117.249 165.595 116.29 165.484 115.504L149.576 3.71315C149.464 2.927 148.817 2.61143 148.131 3.00846L27.1024 73.0504C26.416 73.4474 25.9505 74.4067 26.0625 75.1929Z" fill="#188983"/>
<path id="XMLID_2141_" opacity="0.95" d="M26.0625 75.1929L41.9705 186.984C42.0825 187.77 42.7287 188.086 43.4151 187.689L164.444 117.646C165.129 117.249 165.595 116.29 165.484 115.504L149.576 3.71315C149.464 2.927 148.817 2.61143 148.131 3.00846L27.1024 73.0504C26.416 73.4474 25.9505 74.4067 26.0625 75.1929Z" fill="#373636"/>
</g>
</g>
<g id="Group_5">
<g id="Group_6">
<path id="Vector" d="M34.8831 152.17L20.6723 160.389H20.6668C20.3701 160.321 20.0679 160.305 19.7917 160.357L3.02854 163.594C3.01276 163.6 3.0025 163.6 2.99698 163.6H2.9812L33.9552 145.663L34.8831 152.17Z" fill="#188983"/>
<path id="Vector_2" opacity="0.5" d="M34.8831 152.17L20.6723 160.389H20.6668C20.3701 160.321 20.0679 160.305 19.7917 160.357L3.02854 163.594C3.01276 163.6 3.0025 163.6 2.99698 163.6H2.9812L33.9552 145.663L34.8831 152.17Z" fill="#373636"/>
<path id="Vector_3" opacity="0.2" d="M34.8831 152.17L20.6723 160.389H20.6668C20.3701 160.321 20.0679 160.305 19.7917 160.357L3.02854 163.594C3.01276 163.6 3.0025 163.6 2.99698 163.6H2.9812L33.9552 145.663L34.8831 152.17Z" fill="black"/>
</g>
<g id="Group_7">
<path id="Vector_4" d="M39.5178 184.763L22.0563 161.182C21.7596 160.785 21.2594 160.482 20.7332 160.352L34.8816 152.17L39.5178 184.763Z" fill="#188983"/>
<path id="Vector_5" opacity="0.6" d="M39.5178 184.763L22.0563 161.182C21.7596 160.785 21.2594 160.482 20.7332 160.352L34.8816 152.17L39.5178 184.763Z" fill="#373636"/>
<path id="Vector_6" opacity="0.1" d="M39.5178 184.763L22.0563 161.182C21.7596 160.785 21.2594 160.482 20.7332 160.352L34.8816 152.17L39.5178 184.763Z" fill="black"/>
</g>
<g id="Group_8">
<path id="XMLID_2139_" d="M38.9696 185.865L22.0754 163.867C21.5926 163.237 20.5653 162.82 19.781 162.933L3.97724 165.219C3.19297 165.332 2.0355 165.123 1.39247 164.75C0.748637 164.378 0.857519 163.954 1.63548 163.804L19.7921 160.301C20.57 160.151 21.5831 160.547 22.0549 161.184L41.3193 187.197C41.7919 187.835 41.653 188.05 41.0092 187.677C40.3662 187.306 39.4533 186.493 38.9696 185.865Z" fill="#188983"/>
<path id="XMLID_2138_" opacity="0.8" d="M38.9696 185.865L22.0754 163.867C21.5926 163.237 20.5653 162.82 19.781 162.933L3.97724 165.219C3.19297 165.332 2.0355 165.123 1.39247 164.75C0.748637 164.378 0.857519 163.954 1.63548 163.804L19.7921 160.301C20.57 160.151 21.5831 160.547 22.0549 161.184L41.3193 187.197C41.7919 187.835 41.653 188.05 41.0092 187.677C40.3662 187.306 39.4533 186.493 38.9696 185.865Z" fill="#373636"/>
</g>
</g>
<g id="XMLID_2107_">
<path id="XMLID_2136_" d="M146.765 1.89751C146.753 1.24187 146.404 0.563295 145.881 0.264339C145.233 -0.103424 144.16 -0.0868164 143.472 0.31021L22.4429 70.3545C22.1099 70.5443 21.777 70.8717 21.4961 71.2403C21.2034 71.631 20.9738 72.0802 20.8822 72.4764L18.0134 85.2263L20.3434 86.5669L143.856 15.088L146.729 2.34279C146.766 2.1767 146.763 2.03355 146.765 1.89751Z" fill="#188983"/>
<path id="XMLID_2135_" opacity="0.6" d="M146.728 2.34252C146.902 1.56824 146.488 1.26217 145.801 1.6592L24.7736 71.7011C24.0871 72.0981 23.3897 73.048 23.2153 73.8223L20.3425 86.5674L143.855 15.0877L146.728 2.34252Z" fill="black"/>
<path id="XMLID_2133_" opacity="0.5" d="M23.8233 72.5919C23.5306 72.9825 23.301 73.4254 23.215 73.8225L20.3414 86.5677L18.0115 85.2263L20.8803 72.4764C20.9726 72.0794 21.2014 71.6309 21.4941 71.2402L23.8233 72.5919Z" fill="black"/>
<path id="XMLID_2132_" opacity="0.2" d="M146.764 1.89753C146.706 1.46649 146.334 1.35102 145.8 1.66184L24.7703 71.7006C24.4374 71.8904 24.0989 72.2178 23.8235 72.5919L21.4944 71.2403C21.7753 70.8725 22.1082 70.5443 22.4412 70.3545L143.471 0.31021C144.159 -0.0868164 145.232 -0.103424 145.88 0.264339C146.402 0.563295 146.752 1.24188 146.764 1.89753Z" fill="black"/>
</g>
<g id="XMLID_2097_">
<path id="XMLID_2104_" d="M149.722 4.78308L149.726 4.7807L149.574 3.71221C149.567 3.66159 149.552 3.6086 149.541 3.5572C149.537 3.54296 149.536 3.52714 149.532 3.51369L149.53 3.51053C149.354 2.77184 148.795 1.95644 148.206 1.61556C147.562 1.24305 146.484 1.26283 145.798 1.65985L24.7704 71.701C24.4185 71.905 24.1257 72.257 23.9388 72.6572L23.9364 72.6595C23.7581 73.0391 23.6784 73.4591 23.7297 73.8443L26.0131 89.8606L28.3422 91.2122L151.856 19.7364L149.722 4.78308Z" fill="#188983"/>
<path id="Vector_7" opacity="0.2" d="M151.857 19.7372L28.3428 91.2121L26.061 75.1919C26.0089 74.8107 26.087 74.3876 26.2693 74.0064C26.4571 73.6046 26.7537 73.2542 27.1025 73.051L148.133 3.00829C148.737 2.65318 149.31 2.86198 149.518 3.4678C149.524 3.48362 149.528 3.49944 149.534 3.51525C149.534 3.52553 149.54 3.54135 149.54 3.55717C149.555 3.60936 149.566 3.66157 149.576 3.71377L149.727 4.7791L149.721 4.78463L151.857 19.7372Z" fill="black"/>
<path id="XMLID_2103_" opacity="0.5" d="M28.3425 91.2128L26.0134 89.8612L23.73 73.8449C23.6779 73.4598 23.7584 73.0398 23.9367 72.6602L26.2714 74.0063C26.0875 74.3859 26.007 74.8114 26.0591 75.191L28.3425 91.2128Z" fill="black"/>
<path id="XMLID_2099_" opacity="0.3" d="M149.531 3.51357C149.342 2.87532 148.751 2.64517 148.132 3.0074L27.1023 73.0517C26.752 73.2534 26.4538 73.6037 26.2707 74.0063L23.936 72.6602C24.1254 72.2576 24.4181 71.9073 24.7676 71.7L145.797 1.66131C146.485 1.26429 147.564 1.24135 148.207 1.61544C148.798 1.96106 149.359 2.77172 149.531 3.51357Z" fill="black"/>
</g>
<g id="Group_9">
<g id="Group_10" opacity="0.2">
<path id="XMLID_2095_" d="M37.1595 75.3232C36.9638 73.9471 37.8475 72.2277 39.1335 71.4827C40.4196 70.7377 41.6213 71.2502 41.817 72.6263C42.0126 74.0025 41.1289 75.7219 39.8429 76.4669C38.5568 77.2111 37.3551 76.6994 37.1595 75.3232Z" fill="black"/>
<path id="XMLID_2094_" d="M53.4861 65.876C53.2904 64.4998 54.1741 62.7804 55.4602 62.0354C56.7463 61.2904 57.9479 61.8029 58.1436 63.1791C58.3393 64.5552 57.4556 66.2746 56.1695 67.0196C54.8834 67.7646 53.6826 67.2521 53.4861 65.876Z" fill="black"/>
<path id="XMLID_2092_" d="M69.7876 56.4395C69.592 55.0633 70.4756 53.3439 71.7617 52.5989C73.0478 51.8539 74.2495 52.3664 74.4451 53.7425C74.6408 55.1187 73.7571 56.8381 72.471 57.5831C71.185 58.3281 69.9833 57.8164 69.7876 56.4395Z" fill="black"/>
<path id="XMLID_2091_" d="M102.406 37.5625C102.21 36.1864 103.094 34.467 104.38 33.7219C105.666 32.9769 106.868 33.4894 107.064 34.8656C107.259 36.2417 106.376 37.9611 105.089 38.7061C103.803 39.4511 102.602 38.9387 102.406 37.5625Z" fill="black"/>
<path id="XMLID_2090_" d="M118.735 28.1162C118.539 26.7401 119.423 25.0207 120.709 24.2757C121.995 23.5306 123.197 24.0431 123.392 25.4193C123.588 26.7954 122.704 28.5148 121.418 29.2598C120.132 30.0041 118.931 29.4924 118.735 28.1162Z" fill="black"/>
<path id="XMLID_2089_" d="M135.034 18.6797C134.839 17.3035 135.722 15.5834 137.008 14.8391C138.294 14.0941 139.496 14.6066 139.692 15.9828C139.887 17.3589 139.004 19.0783 137.718 19.8233C136.432 20.5675 135.23 20.0558 135.034 18.6797Z" fill="black"/>
</g>
<g id="Group_11">
<path id="Vector_8" d="M42.1028 70.3931C42.1028 70.8787 42.061 71.3541 41.9782 71.808C41.9316 72.0532 41.874 72.2937 41.8014 72.5183C41.4527 73.6935 40.786 74.5865 39.8534 75.1243C39.2387 75.4849 38.546 75.6676 37.7901 75.6676C37.6023 75.6676 37.4153 75.6573 37.222 75.6312C37.196 75.5323 37.1755 75.4327 37.1597 75.3235C37.0761 74.728 37.196 74.0652 37.4619 73.4491C37.9566 73.5116 38.3945 73.4333 38.759 73.2245C39.4936 72.7967 39.7697 71.8982 39.8636 71.188C39.8739 71.1516 39.8739 71.12 39.8794 71.0891C39.8999 70.8859 39.9157 70.6557 39.9157 70.3947C39.9157 68.3685 39.0565 66.0709 37.738 64.1965C37.2694 63.533 36.7478 62.928 36.1908 62.4004C35.6961 61.9409 35.1801 61.5439 34.6388 61.2307C33.4459 60.5521 32.3523 60.4003 31.6122 60.8234C30.8619 61.2568 30.4508 62.2644 30.4508 63.6532C30.4508 64.259 30.5344 64.9068 30.6906 65.5853L28.7323 66.7187L28.696 66.5882C28.4096 65.5592 28.2637 64.573 28.2637 63.654C28.2637 61.445 29.0661 59.7636 30.5194 58.9229C31.9673 58.0822 33.8167 58.2285 35.734 59.3357C36.5829 59.8269 37.3956 60.4896 38.1404 61.2726C38.6667 61.8318 39.1669 62.4479 39.6143 63.1107C41.1237 65.3338 42.1028 68.0173 42.1028 70.3931Z" fill="#263238"/>
<path id="Vector_9" d="M58.4301 60.9481C58.4301 61.4337 58.3883 61.909 58.3102 62.363C58.2629 62.6137 58.2061 62.8589 58.1327 63.089C57.7784 64.2532 57.1117 65.1414 56.1791 65.6792C55.57 66.0398 54.8717 66.2225 54.1159 66.2225C53.9336 66.2225 53.7458 66.2122 53.5588 66.1861C53.5273 66.092 53.5068 65.9876 53.491 65.8785C53.4073 65.2829 53.5225 64.6202 53.7876 64.0041C54.2879 64.0618 54.725 63.9883 55.0848 63.7795C55.8248 63.3516 56.0955 62.4531 56.1894 61.7429C56.1949 61.7113 56.1996 61.6749 56.2051 61.6441C56.2312 61.44 56.2414 61.2162 56.2414 60.9497C56.2414 58.9234 55.3822 56.6259 54.0638 54.7515C53.5999 54.0879 53.0791 53.4774 52.5166 52.9554C52.0266 52.4959 51.5058 52.0988 50.9646 51.7856C49.7771 51.1071 48.678 50.9552 47.938 51.3783C47.1931 51.8117 46.7765 52.8146 46.7765 54.2081C46.7765 54.8084 46.8602 55.4561 47.0211 56.1347L45.0573 57.2681L45.021 57.1376C44.7346 56.1142 44.5886 55.1271 44.5886 54.2081C44.5886 51.9992 45.391 50.3177 46.8491 49.477C48.2922 48.6363 50.1464 48.7826 52.0581 49.8844C52.9126 50.3802 53.7253 51.0438 54.4646 51.8268C54.9956 52.3851 55.4911 53.0068 55.9385 53.6648C57.4557 55.8888 58.4301 58.5722 58.4301 60.9481Z" fill="#263238"/>
<path id="Vector_10" d="M74.7281 51.5118C74.7281 51.9974 74.6863 52.4727 74.6082 52.9267C74.5609 53.1774 74.504 53.4178 74.4315 53.6472C74.0772 54.8169 73.4105 55.7043 72.4779 56.2421C71.8688 56.6027 71.1705 56.7854 70.4154 56.7854C70.2332 56.7854 70.0454 56.7752 69.8576 56.7491C69.826 56.655 69.8055 56.5505 69.7897 56.4406C69.7061 55.8451 69.8205 55.1823 70.0864 54.5662C70.5866 54.6239 71.0237 54.5504 71.3835 54.3416C72.1284 53.9137 72.399 53.0097 72.4881 52.3003C72.4984 52.2687 72.4984 52.2378 72.5039 52.2062C72.53 52.0021 72.5402 51.7728 72.5402 51.5118C72.5402 49.4855 71.681 47.1935 70.3626 45.3191C69.8986 44.6556 69.3779 44.045 68.8153 43.5175C68.3261 43.058 67.8046 42.661 67.2633 42.3478C66.0759 41.6692 64.9768 41.5173 64.2367 41.9405C63.4919 42.3739 63.0753 43.3767 63.0753 44.7703C63.0753 45.3761 63.1589 46.023 63.3152 46.7024L61.3569 47.8357L61.3206 47.6997C61.0341 46.6763 60.8882 45.6893 60.8882 44.7703C60.8882 42.5613 61.6906 40.8799 63.144 40.0392C64.5926 39.1984 66.4467 39.3448 68.3585 40.4512C69.2075 40.9424 70.0201 41.6051 70.7649 42.3881C71.2959 42.9465 71.7914 43.5634 72.2443 44.2261C73.7545 46.4517 74.7281 49.136 74.7281 51.5118Z" fill="#263238"/>
<path id="Vector_11" d="M107.355 32.6625C107.355 33.1426 107.318 33.6235 107.235 34.0774C107.187 34.3337 107.131 34.5733 107.057 34.8082C106.703 35.9677 106.036 36.855 105.104 37.3928C104.495 37.748 103.801 37.9306 103.046 37.9306C102.858 37.9306 102.671 37.9204 102.483 37.8943C102.452 37.7899 102.426 37.6799 102.411 37.5653C102.328 36.9753 102.442 36.3228 102.697 35.7114C103.202 35.7739 103.645 35.7011 104.015 35.4923C104.76 35.0589 105.03 34.1455 105.12 33.4242C105.125 33.3981 105.125 33.3775 105.13 33.3514C105.156 33.1529 105.166 32.9235 105.166 32.6625C105.166 30.626 104.301 28.3237 102.978 26.4438C102.509 25.781 101.988 25.1752 101.421 24.6477C100.936 24.1984 100.42 23.807 99.8892 23.4993C98.7017 22.8152 97.6027 22.6689 96.8626 23.092C96.1177 23.5199 95.7059 24.5282 95.7059 25.9218C95.7059 26.5118 95.7785 27.1492 95.9347 27.8223L93.9764 28.9556L93.9448 28.8512C93.6584 27.8223 93.5125 26.8361 93.5125 25.9218C93.5125 23.7081 94.3149 22.0314 95.773 21.1907C97.2208 20.35 99.0702 20.4908 100.982 21.598C101.826 22.0836 102.633 22.7416 103.373 23.5199C103.904 24.0782 104.405 24.6951 104.853 25.3579C106.376 27.5866 107.355 30.2764 107.355 32.6625Z" fill="#263238"/>
<path id="Vector_12" d="M123.684 23.2109C123.684 23.702 123.642 24.1774 123.559 24.6313C123.513 24.8876 123.455 25.1272 123.382 25.3621C123.028 26.5216 122.361 27.4089 121.434 27.942C120.819 28.3018 120.127 28.4853 119.371 28.4853C119.189 28.4853 118.997 28.475 118.809 28.4489C118.777 28.3445 118.751 28.2346 118.736 28.1144C118.653 27.5244 118.768 26.8767 119.028 26.2661C119.533 26.3286 119.976 26.2558 120.341 26.0415C121.086 25.6136 121.362 24.6993 121.45 23.9788C121.456 23.9528 121.456 23.9314 121.461 23.9061C121.481 23.702 121.497 23.4782 121.497 23.2117C121.497 21.1807 120.632 18.8729 119.304 16.9977C118.836 16.3341 118.315 15.7236 117.752 15.196C117.268 14.7468 116.752 14.3553 116.221 14.0469C115.033 13.3683 113.934 13.2164 113.194 13.6451C112.444 14.073 112.033 15.0813 112.033 16.4749C112.033 17.0649 112.111 17.7016 112.267 18.3707L110.303 19.5088L110.277 19.4044C109.991 18.3754 109.845 17.3939 109.845 16.4749C109.845 14.2612 110.647 12.5798 112.101 11.7438C113.549 10.8975 115.404 11.0439 117.315 12.1511C118.159 12.6422 118.967 13.3003 119.696 14.073H119.701C120.238 14.6313 120.732 15.2482 121.181 15.911C122.699 18.1405 123.684 20.8295 123.684 23.2109Z" fill="#263238"/>
<path id="Vector_13" d="M139.984 13.776C139.984 14.2671 139.942 14.7416 139.858 15.1964C139.812 15.4416 139.754 15.682 139.681 15.9066C139.333 17.0763 138.666 17.9692 137.733 18.5126C137.119 18.8677 136.426 19.0504 135.67 19.0504C135.488 19.0504 135.3 19.0401 135.113 19.014C135.082 18.9096 135.056 18.7949 135.041 18.6795C134.957 18.0895 135.072 17.4417 135.327 16.8312C135.827 16.8936 136.27 16.8209 136.64 16.6065C137.385 16.1787 137.655 15.2644 137.744 14.5439C137.75 14.5178 137.75 14.4972 137.755 14.4711C137.781 14.2671 137.797 14.0433 137.797 13.7767C137.797 11.7457 136.932 9.43792 135.604 7.56273C135.135 6.89917 134.609 6.28861 134.046 5.76662C133.562 5.31265 133.051 4.9259 132.52 4.61746C131.328 3.93334 130.233 3.78703 129.494 4.21015C128.744 4.63802 128.332 5.64641 128.332 7.03995C128.332 7.62996 128.411 8.26662 128.567 8.94046L126.603 10.0738L126.577 9.9694C126.291 8.94046 126.145 7.95422 126.145 7.03995C126.145 4.82626 126.947 3.14958 128.4 2.30886C129.848 1.46815 131.698 1.60892 133.615 2.71617C134.459 3.20177 135.261 3.85978 136.001 4.63248C136.532 5.19085 137.032 5.8125 137.48 6.47605C138.999 8.70557 139.984 11.3946 139.984 13.776Z" fill="#263238"/>
</g>
</g>
<g id="XMLID_363_">
<g id="XMLID_2081_">
<g id="XMLID_2087_">
<path id="XMLID_2088_" d="M31.0373 110.038L154.541 38.6229L151.855 19.7373L28.3413 91.1601L31.0373 110.038Z" fill="#188983"/>
</g>
<g id="XMLID_2084_" opacity="0.65">
<path id="XMLID_2085_" d="M31.0373 110.038L154.541 38.6221L151.855 19.7373L28.3413 91.1601L31.0373 110.038Z" fill="#373636"/>
</g>
</g>
<g id="XMLID_1914_">
<g id="XMLID_2046_">
<path id="XMLID_2077_" d="M40.7757 114.621C40.924 115.663 41.8874 116.021 42.9265 115.419L52.1949 110.057C53.2348 109.456 53.9568 108.123 53.8077 107.081C53.6585 106.038 52.6952 105.681 51.656 106.283L42.3884 111.644C41.3493 112.246 40.6273 113.578 40.7757 114.621Z" fill="#188983"/>
</g>
<g id="XMLID_2044_">
<path id="XMLID_2045_" d="M56.409 105.574C56.5573 106.616 57.5207 106.974 58.5598 106.372L67.8282 101.011C68.8681 100.409 69.5901 99.0761 69.441 98.0337C69.2919 96.9913 68.3285 96.6338 67.2894 97.2357L58.0217 102.597C56.9826 103.199 56.2606 104.532 56.409 105.574Z" fill="#188983"/>
</g>
<g id="XMLID_2038_">
<path id="XMLID_2043_" d="M72.0403 96.5261C72.1886 97.5685 73.152 97.926 74.1911 97.3241L83.4596 91.9627C84.4995 91.3608 85.2214 90.0282 85.0723 88.9858C84.924 87.9434 83.9598 87.5859 82.9207 88.1878L73.653 93.5492C72.6139 94.1511 71.892 95.4837 72.0403 96.5261Z" fill="#188983"/>
</g>
<g id="XMLID_1989_">
<path id="XMLID_1990_" d="M87.6738 87.4783C87.8222 88.5207 88.7856 88.8782 89.8247 88.2763L99.0931 82.9149C100.132 82.3138 100.855 80.9803 100.706 79.938C100.557 78.8956 99.5934 78.5381 98.5542 79.1399L89.2866 84.5014C88.2482 85.1032 87.5255 86.4359 87.6738 87.4783Z" fill="#188983"/>
</g>
<g id="XMLID_1981_">
<path id="XMLID_1988_" d="M103.309 78.4304C103.458 79.4728 104.421 79.8303 105.46 79.2284L114.729 73.867C115.768 73.2652 116.49 71.9325 116.341 70.8901C116.192 69.8477 115.229 69.4902 114.19 70.0921L104.923 75.4543C103.883 76.0554 103.16 77.388 103.309 78.4304Z" fill="#188983"/>
</g>
<g id="XMLID_1943_">
<path id="XMLID_1979_" d="M118.939 69.3826C119.087 70.425 120.05 70.7825 121.09 70.1806L130.359 64.8192C131.398 64.2173 132.12 62.8846 131.971 61.8423C131.823 60.7999 130.86 60.4424 129.82 61.0442L120.552 66.4057C119.512 67.0075 118.79 68.3402 118.939 69.3826Z" fill="#188983"/>
</g>
<g id="XMLID_1915_">
<path id="XMLID_1922_" d="M134.57 60.3347C134.718 61.3771 135.682 61.7346 136.721 61.1327L145.989 55.7713C147.029 55.1694 147.751 53.8368 147.602 52.7944C147.453 51.752 146.489 51.3945 145.45 51.9964L136.183 57.3578C135.144 57.9597 134.422 59.2923 134.57 60.3347Z" fill="#188983"/>
</g>
</g>
<g id="Group_12">
<g id="XMLID_1481_" opacity="0.17">
<g id="XMLID_1910_">
<path id="XMLID_1912_" d="M157.884 114.73C157.625 114.741 157.39 114.569 157.358 114.347L149.808 61.4903C149.777 61.2681 149.96 61.0791 150.219 61.0688C150.478 61.0585 150.713 61.2293 150.744 61.4524L158.294 114.309C158.326 114.53 158.142 114.72 157.884 114.73Z" fill="#188983"/>
</g>
<g id="XMLID_1907_">
<path id="XMLID_1909_" d="M142.244 123.781C141.985 123.791 141.75 123.621 141.718 123.398L134.167 70.5401C134.136 70.3179 134.319 70.1289 134.578 70.1186C134.836 70.1083 135.072 70.2792 135.103 70.5022L142.654 123.36C142.685 123.582 142.502 123.771 142.244 123.781Z" fill="#188983"/>
</g>
<g id="XMLID_1902_">
<path id="XMLID_1906_" d="M126.604 132.832C126.346 132.843 126.111 132.671 126.079 132.448L118.528 79.5909C118.497 79.3687 118.68 79.1797 118.938 79.1694C119.197 79.1591 119.432 79.3299 119.464 79.5522L127.015 132.41C127.046 132.633 126.862 132.821 126.604 132.832Z" fill="#188983"/>
</g>
<g id="XMLID_1878_">
<path id="XMLID_1901_" d="M110.965 141.883C110.706 141.893 110.472 141.722 110.44 141.499L102.889 88.6417C102.857 88.4195 103.041 88.2304 103.299 88.2202C103.558 88.2099 103.793 88.3807 103.825 88.6038L111.376 141.461C111.407 141.683 111.224 141.872 110.965 141.883Z" fill="#188983"/>
</g>
<g id="XMLID_1874_">
<path id="XMLID_1877_" d="M95.325 150.935C95.0662 150.945 94.831 150.774 94.7995 150.552L87.2479 97.6944C87.2164 97.4722 87.4002 97.2832 87.6582 97.2729C87.917 97.2626 88.1521 97.4334 88.1837 97.6565L95.736 150.515C95.7668 150.735 95.5838 150.924 95.325 150.935Z" fill="#188983"/>
</g>
<g id="XMLID_1844_">
<path id="XMLID_1845_" d="M79.6853 159.985C79.4265 159.996 79.1913 159.825 79.1598 159.602L71.609 106.744C71.5774 106.522 71.7605 106.333 72.0193 106.323C72.2781 106.312 72.5132 106.483 72.5448 106.706L80.0956 159.563C80.1271 159.786 79.9441 159.974 79.6853 159.985Z" fill="#188983"/>
</g>
<g id="XMLID_1813_">
<path id="XMLID_1843_" d="M64.0459 169.037C63.7871 169.047 63.5519 168.877 63.5204 168.653L55.9696 115.796C55.938 115.574 56.1211 115.385 56.3799 115.374C56.6387 115.364 56.873 115.535 56.9054 115.758L64.4561 168.616C64.4877 168.837 64.3047 169.026 64.0459 169.037Z" fill="#188983"/>
</g>
<g id="XMLID_1811_">
<path id="XMLID_1812_" d="M48.4075 178.088C48.1487 178.098 47.9136 177.927 47.882 177.704L40.3304 124.846C40.2989 124.624 40.4819 124.435 40.7407 124.424C40.9995 124.414 41.2339 124.585 41.2662 124.808L48.8186 177.666C48.8493 177.888 48.6663 178.077 48.4075 178.088Z" fill="#188983"/>
</g>
<g id="XMLID_1694_">
<path id="XMLID_1736_" d="M42.7444 138.445C42.5835 138.451 42.4154 138.385 42.3105 138.26C42.1535 138.073 42.1945 137.824 42.4028 137.704L151.879 74.3462C152.085 74.2244 152.382 74.279 152.538 74.4672C152.695 74.6546 152.654 74.9038 152.446 75.024L42.9709 138.381C42.9014 138.421 42.8241 138.441 42.7444 138.445Z" fill="#188983"/>
</g>
<g id="XMLID_1578_">
<path id="XMLID_1693_" d="M44.6316 151.658C44.4706 151.664 44.3025 151.599 44.1984 151.474C44.0414 151.286 44.0824 151.037 44.2907 150.917L153.767 87.5604C153.973 87.4378 154.27 87.4932 154.426 87.6814C154.583 87.8689 154.542 88.118 154.334 88.2382L44.858 151.595C44.7894 151.634 44.7113 151.655 44.6316 151.658Z" fill="#188983"/>
</g>
<g id="XMLID_1488_">
<path id="XMLID_1489_" d="M46.5183 164.872C46.3574 164.879 46.1893 164.813 46.0844 164.688C45.9274 164.501 45.9684 164.251 46.1767 164.131L155.654 100.775C155.859 100.653 156.157 100.708 156.313 100.896C156.47 101.083 156.428 101.332 156.221 101.453L46.7448 164.808C46.6761 164.849 46.598 164.869 46.5183 164.872Z" fill="#188983"/>
</g>
<g id="XMLID_1482_">
<path id="XMLID_1483_" d="M48.4075 178.087C48.327 178.091 48.2434 178.076 48.166 178.042C48.0114 177.977 47.9025 177.848 47.882 177.704L40.3304 124.846C40.3099 124.702 40.3801 124.566 40.5143 124.488L149.991 61.1316C150.125 61.0533 150.304 61.0462 150.459 61.1126C150.614 61.1783 150.722 61.3072 150.743 61.4511L158.293 114.308C158.314 114.452 158.243 114.588 158.108 114.665L48.6339 178.023C48.5669 178.063 48.4879 178.084 48.4075 178.087ZM41.2993 125.041L48.7183 176.969L157.324 114.114L149.907 62.1874L41.2993 125.041Z" fill="#188983"/>
</g>
</g>
<g id="XMLID_1233_" opacity="0.17">
<g id="XMLID_1470_">
<path id="XMLID_1480_" d="M157.884 114.73C157.625 114.741 157.39 114.569 157.358 114.347L149.808 61.4903C149.777 61.2681 149.96 61.0791 150.219 61.0688C150.478 61.0585 150.713 61.2293 150.744 61.4524L158.294 114.309C158.326 114.53 158.142 114.72 157.884 114.73Z" fill="black"/>
</g>
<g id="XMLID_1431_">
<path id="XMLID_1463_" d="M142.244 123.781C141.985 123.791 141.75 123.621 141.718 123.398L134.167 70.5401C134.136 70.3179 134.319 70.1289 134.578 70.1186C134.836 70.1083 135.072 70.2792 135.103 70.5022L142.654 123.36C142.685 123.582 142.502 123.771 142.244 123.781Z" fill="black"/>
</g>
<g id="XMLID_1428_">
<path id="XMLID_1429_" d="M126.604 132.832C126.346 132.843 126.111 132.671 126.079 132.448L118.528 79.5909C118.497 79.3687 118.68 79.1797 118.938 79.1694C119.197 79.1591 119.432 79.3299 119.464 79.5522L127.015 132.41C127.046 132.633 126.862 132.821 126.604 132.832Z" fill="black"/>
</g>
<g id="XMLID_1426_">
<path id="XMLID_1427_" d="M110.965 141.883C110.706 141.893 110.472 141.722 110.44 141.499L102.889 88.6417C102.857 88.4195 103.041 88.2304 103.299 88.2202C103.558 88.2099 103.793 88.3807 103.825 88.6038L111.376 141.461C111.407 141.683 111.224 141.872 110.965 141.883Z" fill="black"/>
</g>
<g id="XMLID_1424_">
<path id="XMLID_1425_" d="M95.325 150.935C95.0662 150.945 94.831 150.774 94.7995 150.552L87.2479 97.6944C87.2164 97.4722 87.4002 97.2832 87.6582 97.2729C87.917 97.2626 88.1521 97.4334 88.1837 97.6565L95.736 150.515C95.7668 150.735 95.5838 150.924 95.325 150.935Z" fill="black"/>
</g>
<g id="XMLID_1422_">
<path id="XMLID_1423_" d="M79.6853 159.985C79.4265 159.996 79.1913 159.825 79.1598 159.602L71.609 106.744C71.5774 106.522 71.7605 106.333 72.0193 106.323C72.2781 106.312 72.5132 106.483 72.5448 106.706L80.0956 159.563C80.1271 159.786 79.9441 159.974 79.6853 159.985Z" fill="black"/>
</g>
<g id="XMLID_1420_">
<path id="XMLID_1421_" d="M64.0459 169.037C63.7871 169.047 63.5519 168.877 63.5204 168.653L55.9696 115.796C55.938 115.574 56.1211 115.385 56.3799 115.374C56.6387 115.364 56.873 115.535 56.9054 115.758L64.4561 168.616C64.4877 168.837 64.3047 169.026 64.0459 169.037Z" fill="black"/>
</g>
<g id="XMLID_1418_">
<path id="XMLID_1419_" d="M48.4075 178.088C48.1487 178.098 47.9136 177.927 47.882 177.704L40.3304 124.846C40.2989 124.624 40.4819 124.435 40.7407 124.424C40.9995 124.414 41.2339 124.585 41.2662 124.808L48.8186 177.666C48.8493 177.888 48.6663 178.077 48.4075 178.088Z" fill="black"/>
</g>
<g id="XMLID_1416_">
<path id="XMLID_1417_" d="M42.7444 138.445C42.5835 138.451 42.4154 138.385 42.3105 138.26C42.1535 138.073 42.1945 137.824 42.4028 137.704L151.879 74.3462C152.085 74.2244 152.382 74.279 152.538 74.4672C152.695 74.6546 152.654 74.9038 152.446 75.024L42.9709 138.381C42.9014 138.421 42.8241 138.441 42.7444 138.445Z" fill="black"/>
</g>
<g id="XMLID_1414_">
<path id="XMLID_1415_" d="M44.6316 151.658C44.4706 151.664 44.3025 151.599 44.1984 151.474C44.0414 151.286 44.0824 151.037 44.2907 150.917L153.767 87.5604C153.973 87.4378 154.27 87.4932 154.426 87.6814C154.583 87.8689 154.542 88.118 154.334 88.2382L44.858 151.595C44.7894 151.634 44.7113 151.655 44.6316 151.658Z" fill="black"/>
</g>
<g id="XMLID_1362_">
<path id="XMLID_1413_" d="M46.5183 164.872C46.3574 164.879 46.1893 164.813 46.0844 164.688C45.9274 164.501 45.9684 164.251 46.1767 164.131L155.654 100.775C155.859 100.653 156.157 100.708 156.313 100.896C156.47 101.083 156.428 101.332 156.221 101.453L46.7448 164.808C46.6761 164.849 46.598 164.869 46.5183 164.872Z" fill="black"/>
</g>
<g id="XMLID_1234_">
<path id="XMLID_1236_" d="M48.4075 178.087C48.327 178.091 48.2434 178.076 48.166 178.042C48.0114 177.977 47.9025 177.848 47.882 177.704L40.3304 124.846C40.3099 124.702 40.3801 124.566 40.5143 124.488L149.991 61.1316C150.125 61.0533 150.304 61.0462 150.459 61.1126C150.614 61.1783 150.722 61.3072 150.743 61.4511L158.293 114.308C158.314 114.452 158.243 114.588 158.108 114.665L48.6339 178.023C48.5669 178.063 48.4879 178.084 48.4075 178.087ZM41.2993 125.041L48.7183 176.969L157.324 114.114L149.907 62.1874L41.2993 125.041Z" fill="black"/>
</g>
</g>
</g>
</g>
<g id="Group_13">
<g id="Group_14">
<g id="Group_15">
<path id="Vector_14" d="M61.1988 130.736C64.8392 131.476 68.5081 132.092 72.1683 132.723C72.622 132.802 73.0749 132.88 73.5285 132.958C74.1645 133.068 74.4193 132.167 73.74 132.05C70.2755 131.452 66.8078 130.87 63.337 130.31C62.6837 130.204 62.0304 130.105 61.3747 130.014C60.8287 129.937 60.6307 130.62 61.1988 130.736Z" fill="#455A64"/>
</g>
<g id="Group_16">
<path id="Vector_15" d="M71.6232 124.242C71.1538 124.721 70.779 125.286 70.4121 125.846C69.7107 126.917 69.0061 127.986 68.3031 129.056C66.7488 131.424 65.2149 133.805 63.674 136.183C63.1974 136.918 62.6578 137.64 62.2333 138.407C62.1528 138.553 62.1757 138.754 62.3193 138.857C62.354 138.882 62.3887 138.907 62.4226 138.933C62.3871 138.811 62.3524 138.69 62.3169 138.568C62.3145 138.571 62.3122 138.575 62.3106 138.578C62.1646 138.804 62.5781 139.189 62.743 138.935C62.7154 138.977 62.9828 138.841 63.0317 138.781C63.0673 138.738 63.0949 138.683 63.1256 138.637C63.2132 138.502 63.3 138.368 63.3868 138.232C63.6393 137.842 63.8918 137.451 64.145 137.06C64.8843 135.917 65.6244 134.773 66.3637 133.63C67.9425 131.188 69.5063 128.739 71.0741 126.29C71.426 125.74 71.7984 125.178 72.0146 124.557C72.0856 124.352 71.8031 124.059 71.6232 124.242Z" fill="#455A64"/>
</g>
</g>
<g id="Group_17">
<g id="Group_18">
<path id="Vector_16" d="M76.5161 121.308C80.1565 122.048 83.8254 122.665 87.4856 123.296C87.9393 123.374 88.3922 123.452 88.8458 123.531C89.4818 123.64 89.7366 122.74 89.0573 122.623C85.5928 122.025 82.1251 121.442 78.6543 120.882C78.001 120.777 77.3477 120.677 76.692 120.586C76.1468 120.509 75.9488 121.193 76.5161 121.308Z" fill="#455A64"/>
</g>
<g id="Group_19">
<path id="Vector_17" d="M86.9411 114.815C86.4716 115.293 86.0969 115.859 85.73 116.418C85.0285 117.489 84.324 118.558 83.621 119.628C82.0666 121.996 80.5328 124.377 78.9919 126.755C78.5153 127.49 77.9756 128.212 77.5511 128.979C77.4707 129.125 77.4935 129.326 77.6371 129.429C77.6719 129.454 77.7066 129.479 77.7405 129.505C77.705 129.384 77.6703 129.262 77.6348 129.14C77.6324 129.143 77.63 129.147 77.6285 129.15C77.4825 129.376 77.8959 129.761 78.0608 129.507C78.0332 129.549 78.3007 129.412 78.3496 129.354C78.3851 129.31 78.4127 129.255 78.4435 129.209C78.5311 129.074 78.6179 128.94 78.7047 128.805C78.9571 128.414 79.2096 128.023 79.4629 127.633C80.2022 126.489 80.9423 125.345 81.6816 124.202C83.2604 121.761 84.8242 119.311 86.392 116.862C86.7439 116.313 87.1171 115.75 87.3324 115.129C87.4035 114.925 87.121 114.631 86.9411 114.815Z" fill="#455A64"/>
</g>
</g>
<g id="Group_20">
<g id="Group_21">
<path id="Vector_18" d="M92.3577 112.266C95.9982 113.006 99.667 113.623 103.327 114.254C103.781 114.332 104.234 114.41 104.687 114.489C105.323 114.598 105.578 113.698 104.899 113.581C101.434 112.983 97.9667 112.4 94.4959 111.84C93.8426 111.735 93.1893 111.635 92.5337 111.544C91.9884 111.467 91.7896 112.151 92.3577 112.266Z" fill="#455A64"/>
</g>
<g id="Group_22">
<path id="Vector_19" d="M102.78 105.773C102.311 106.251 101.936 106.816 101.569 107.376C100.868 108.447 100.163 109.516 99.4603 110.586C97.906 112.954 96.3722 115.335 94.8312 117.713C94.3547 118.448 93.8142 119.17 93.3905 119.938C93.31 120.083 93.3329 120.284 93.4765 120.388C93.5112 120.412 93.5459 120.437 93.5799 120.463C93.5444 120.342 93.5096 120.22 93.4741 120.098C93.4718 120.101 93.4694 120.105 93.4678 120.108C93.3219 120.334 93.7353 120.719 93.9002 120.465C93.8726 120.508 94.1401 120.371 94.189 120.312C94.2245 120.268 94.2521 120.214 94.2829 120.167C94.3705 120.032 94.4572 119.897 94.544 119.763C94.7965 119.372 95.0498 118.981 95.3023 118.591C96.0416 117.447 96.7816 116.303 97.5209 115.16C99.0997 112.718 100.664 110.269 102.231 107.82C102.583 107.271 102.956 106.708 103.172 106.088C103.243 105.883 102.96 105.589 102.78 105.773Z" fill="#455A64"/>
</g>
</g>
<g id="Group_23">
<g id="Group_24">
<path id="Vector_20" d="M108.1 103.099C111.741 103.839 115.41 104.456 119.07 105.087C119.524 105.165 119.976 105.243 120.43 105.322C121.066 105.432 121.321 104.531 120.642 104.414C117.177 103.817 113.709 103.233 110.239 102.673C109.585 102.568 108.932 102.468 108.276 102.377C107.731 102.3 107.532 102.984 108.1 103.099Z" fill="#455A64"/>
</g>
<g id="Group_25">
<path id="Vector_21" d="M118.524 96.6067C118.055 97.0852 117.68 97.6499 117.314 98.2098C116.612 99.2815 115.908 100.35 115.205 101.421C113.65 103.789 112.117 106.17 110.576 108.548C110.099 109.282 109.559 110.005 109.135 110.772C109.054 110.918 109.077 111.119 109.221 111.222C109.256 111.247 109.29 111.272 109.324 111.298C109.289 111.176 109.254 111.055 109.219 110.933C109.216 110.936 109.214 110.94 109.212 110.943C109.066 111.169 109.48 111.554 109.645 111.3C109.617 111.343 109.884 111.206 109.933 111.146C109.969 111.103 109.996 111.048 110.027 111.002C110.115 110.867 110.202 110.733 110.288 110.598C110.541 110.207 110.794 109.816 111.047 109.425C111.786 108.282 112.526 107.138 113.265 105.995C114.844 103.554 116.408 101.104 117.976 98.6551C118.328 98.1054 118.7 97.5431 118.916 96.9223C118.987 96.7166 118.704 96.4232 118.524 96.6067Z" fill="#455A64"/>
</g>
</g>
<g id="Group_26">
<g id="Group_27">
<path id="Vector_22" d="M123.739 94.0533C127.379 94.7935 131.048 95.4096 134.708 96.0408C135.162 96.1191 135.615 96.1974 136.069 96.2757C136.705 96.3856 136.959 95.4848 136.28 95.3677C132.816 94.7698 129.348 94.1869 125.877 93.627C125.224 93.5218 124.57 93.4221 123.915 93.3312C123.37 93.2545 123.171 93.9378 123.739 94.0533Z" fill="#455A64"/>
</g>
<g id="Group_28">
<path id="Vector_23" d="M134.162 87.5597C133.692 88.0382 133.317 88.6037 132.95 89.1629C132.249 90.2337 131.544 91.303 130.841 92.3731C129.287 94.741 127.753 97.1224 126.212 99.4998C125.736 100.235 125.196 100.957 124.772 101.725C124.691 101.87 124.714 102.071 124.858 102.175C124.892 102.199 124.927 102.224 124.961 102.25C124.925 102.129 124.891 102.007 124.855 101.885C124.853 101.888 124.851 101.892 124.849 101.895C124.703 102.121 125.116 102.506 125.281 102.252C125.254 102.295 125.521 102.158 125.57 102.099C125.606 102.055 125.633 102.001 125.664 101.954C125.752 101.819 125.838 101.684 125.925 101.55C126.178 101.159 126.43 100.768 126.683 100.378C127.423 99.2341 128.163 98.0904 128.902 96.9468C130.481 94.5061 132.045 92.0559 133.612 89.6073C133.964 89.0577 134.338 88.4953 134.553 87.8745C134.624 87.6705 134.341 87.3763 134.162 87.5597Z" fill="#455A64"/>
</g>
</g>
<g id="Group_29">
<g id="Group_30">
<path id="Vector_24" d="M63.2591 142.927C66.8995 143.668 70.5684 144.284 74.2286 144.915C74.6823 144.993 75.1352 145.071 75.5888 145.15C76.2248 145.26 76.4796 144.359 75.8003 144.242C72.3358 143.644 68.8681 143.061 65.3973 142.501C64.744 142.396 64.0907 142.296 63.435 142.205C62.8898 142.128 62.691 142.812 63.2591 142.927Z" fill="#455A64"/>
</g>
<g id="Group_31">
<path id="Vector_25" d="M73.6838 136.435C73.2143 136.913 72.8395 137.479 72.4726 138.038C71.7712 139.11 71.0666 140.178 70.3636 141.249C68.8093 143.617 67.2755 145.998 65.7345 148.376C65.258 149.111 64.7183 149.833 64.2938 150.6C64.2133 150.746 64.2362 150.947 64.3798 151.05C64.4145 151.075 64.4493 151.1 64.4832 151.126C64.4477 151.004 64.413 150.883 64.3775 150.761C64.3751 150.764 64.3727 150.768 64.3704 150.771C64.2244 150.997 64.6378 151.382 64.8027 151.128C64.7751 151.171 65.0426 151.034 65.0915 150.974C65.127 150.931 65.1546 150.876 65.1854 150.83C65.273 150.695 65.3598 150.561 65.4466 150.426C65.699 150.035 65.9515 149.644 66.2048 149.253C66.9441 148.11 67.6842 146.966 68.4235 145.823C70.0023 143.381 71.5661 140.932 73.1338 138.483C73.4857 137.933 73.8581 137.371 74.0743 136.75C74.1461 136.545 73.8637 136.251 73.6838 136.435Z" fill="#455A64"/>
</g>
</g>
<path id="Vector_26" d="M110.837 120.407C109.963 119.571 108.753 119.16 107.578 118.985C105.222 118.632 102.736 119.364 101.036 121.049C100.811 121.272 101.243 121.693 101.48 121.489C103.027 120.163 105.116 119.449 107.149 119.655C108.125 119.754 109.161 120.056 109.934 120.684C110.741 121.341 111.031 122.326 110.974 123.34C110.872 125.152 110.01 126.983 109.05 128.494C108.055 130.059 106.78 131.423 105.322 132.563C103.876 133.694 102.238 134.606 100.512 135.23C98.7336 135.874 96.5899 136.406 94.7586 135.662C92.9754 134.938 92.0673 133.085 91.9852 131.233C91.8882 129.042 92.7466 126.816 93.8457 124.986C95.1231 122.858 96.8913 121.283 98.8867 119.817C99.8642 119.098 100.921 118.404 102.022 117.894C103.456 117.23 104.538 116.989 105.709 116.678C106.273 116.529 105.588 116.127 105.035 116.22C103.771 116.43 103.552 116.432 101.929 117.109C100.772 117.592 99.2212 118.456 98.2018 119.186C96.1835 120.631 94.2568 122.306 92.9533 124.425C91.7296 126.413 90.8877 128.735 90.9398 131.128C90.9824 133.118 91.8827 135.112 93.6342 136.143C95.5571 137.276 98.003 136.977 100.036 136.341C102.002 135.726 103.854 134.789 105.522 133.581C107.137 132.41 108.571 130.961 109.69 129.305C110.808 127.65 111.788 125.623 111.928 123.601C112.009 122.416 111.711 121.246 110.837 120.407Z" fill="#188983"/>
</g>
</g>
</g>
</svg>
