<svg width="275" height="275" viewBox="0 0 275 275" fill="none" xmlns="http://www.w3.org/2000/svg">
<path d="M229.059 135.993C279.623 165.186 279.622 212.519 229.056 241.713C178.489 270.906 96.5064 270.906 45.9422 241.713C-4.62265 212.519 -4.62155 165.187 45.9449 135.993C96.5108 106.799 178.494 106.799 229.059 135.993Z" fill="#2F2E2E"/>
<path d="M239.929 246.624L233.798 243.081C233.798 243.081 230.149 227.919 231.603 214.277C233.647 195.095 246.274 187.878 251.075 189.532C255.875 191.187 257.266 196.768 249.322 208.192C244.635 214.932 238.877 228.972 239.929 246.624Z" fill="#3AC7BA"/>
<g opacity="0.65">
<path d="M239.929 246.624L233.798 243.081C233.798 243.081 230.149 227.919 231.603 214.277C233.647 195.095 246.274 187.878 251.075 189.532C255.875 191.187 257.266 196.768 249.322 208.192C244.635 214.932 238.877 228.972 239.929 246.624Z" fill="white"/>
</g>
<path d="M237.388 239.176C237.408 239.174 237.427 239.172 237.447 239.168C237.677 239.124 237.829 238.902 237.785 238.672C234.424 220.98 240.605 201.1 248.258 192.827C248.418 192.655 248.407 192.385 248.234 192.226C248.062 192.069 247.793 192.077 247.633 192.25C239.841 200.673 233.539 220.878 236.95 238.83C236.989 239.041 237.179 239.186 237.388 239.176Z" fill="white"/>
<path d="M255.359 255.532C256.274 255.998 258.71 253.913 259.389 253.406C260.551 252.538 261.469 251.346 262.05 250.021C262.728 248.478 262.836 246.857 262.517 245.204C262.351 244.347 262.067 243.518 261.784 242.692C261.505 241.881 261.228 241.071 260.95 240.26C260.675 239.46 260.398 238.633 260.463 237.789C260.594 236.091 262.032 234.833 263.342 233.744C264.792 232.541 266.285 230.973 266.174 228.942C266.088 227.374 265.203 225.96 264.169 224.778C263.136 223.596 261.928 222.568 260.984 221.313C260.305 220.41 259.756 219.336 259.802 218.207C259.831 217.506 260.087 216.833 260.39 216.2C261.041 214.841 261.926 213.582 262.349 212.135C262.773 210.689 262.613 208.925 261.452 207.964C260.499 207.175 259.14 207.127 257.912 207.271C256.776 207.404 255.688 207.974 254.718 208.579C251.583 210.535 249.935 214.449 246.582 216.001C245.288 216.6 243.848 216.79 242.49 217.223C241.132 217.656 239.764 218.429 239.191 219.735C238.061 222.308 240.549 225.283 239.8 227.991C239.137 230.388 236.892 231.406 235.712 233.596C235.196 234.553 235.121 235.634 235.266 236.712C235.512 238.537 235.848 239.868 236.83 241.862C237.642 243.509 239.927 246.623 239.927 246.623C239.927 246.623 255.218 255.46 255.359 255.532Z" fill="#3AC7BA"/>
<g opacity="0.3">
<path d="M255.359 255.532C256.274 255.998 258.71 253.913 259.389 253.406C260.551 252.538 261.469 251.346 262.05 250.021C262.728 248.478 262.836 246.857 262.517 245.204C262.351 244.347 262.067 243.518 261.784 242.692C261.505 241.881 261.228 241.071 260.95 240.26C260.675 239.46 260.398 238.633 260.463 237.789C260.594 236.091 262.032 234.833 263.342 233.744C264.792 232.541 266.285 230.973 266.174 228.942C266.088 227.374 265.203 225.96 264.169 224.778C263.136 223.596 261.928 222.568 260.984 221.313C260.305 220.41 259.756 219.336 259.802 218.207C259.831 217.506 260.087 216.833 260.39 216.2C261.041 214.841 261.926 213.582 262.349 212.135C262.773 210.689 262.613 208.925 261.452 207.964C260.499 207.175 259.14 207.127 257.912 207.271C256.776 207.404 255.688 207.974 254.718 208.579C251.583 210.535 249.935 214.449 246.582 216.001C245.288 216.6 243.848 216.79 242.49 217.223C241.132 217.656 239.764 218.429 239.191 219.735C238.061 222.308 240.549 225.283 239.8 227.991C239.137 230.388 236.892 231.406 235.712 233.596C235.196 234.553 235.121 235.634 235.266 236.712C235.512 238.537 235.848 239.868 236.83 241.862C237.642 243.509 239.927 246.623 239.927 246.623C239.927 246.623 255.218 255.46 255.359 255.532Z" fill="white"/>
</g>
<path d="M246.484 250.907C246.49 250.906 246.495 250.906 246.495 250.906C246.723 250.885 246.885 250.689 246.865 250.468C245.397 234.556 252.023 216.572 257.228 211.182C257.382 211.022 257.378 210.768 257.218 210.613C257.058 210.459 256.804 210.464 256.65 210.623C251.339 216.121 244.575 234.405 246.063 250.542C246.083 250.757 246.27 250.917 246.484 250.907Z" fill="white"/>
<path d="M248.065 231.286C248.104 231.284 248.144 231.277 248.183 231.262C253.226 229.42 259.597 228.818 259.661 228.813C259.882 228.792 260.045 228.596 260.025 228.375C260.004 228.154 259.827 227.988 259.587 228.011C259.522 228.018 253.05 228.627 247.907 230.506C247.698 230.582 247.59 230.813 247.667 231.022C247.729 231.192 247.893 231.294 248.065 231.286Z" fill="white"/>
<path d="M138.23 15.1537L231.85 69.1406C232.818 69.6983 233.602 71.0557 233.602 72.1722V243.812C233.602 244.929 232.816 246.283 231.847 246.838L231.491 247.041C230.522 247.595 228.952 247.592 227.986 247.034L134.363 192.976C133.397 192.418 132.613 191.06 132.613 189.944V18.3761C132.613 17.2596 133.398 15.905 134.367 15.3506L134.723 15.1476C135.693 14.5932 137.262 14.5954 138.23 15.1537Z" fill="#3AC7BA"/>
<path opacity="0.45" d="M138.23 15.1537L231.85 69.1406C232.818 69.6983 233.602 71.0557 233.602 72.1722V243.812C233.602 244.929 232.816 246.283 231.847 246.838L231.491 247.041C230.522 247.595 228.952 247.592 227.986 247.034L134.363 192.976C133.397 192.418 132.613 191.06 132.613 189.944V18.3761C132.613 17.2596 133.398 15.905 134.367 15.3506L134.723 15.1476C135.693 14.5932 137.262 14.5954 138.23 15.1537Z" fill="black"/>
<path d="M132.614 190.069C132.614 191.609 133.695 192.589 135.033 193.359L227.317 246.638C228.649 247.407 229.737 246.786 229.737 245.239V75.1434C229.737 73.4219 228.819 71.8313 227.328 70.97L135.036 17.6695C133.959 17.048 132.613 17.8246 132.613 19.0676V190.069H132.614Z" fill="#3AC7BA"/>
<path opacity="0.3" d="M132.613 190.069C132.613 191.609 133.694 192.589 135.032 193.359L227.316 246.638C228.648 247.407 229.736 246.786 229.736 245.239V75.1434C229.736 73.4219 228.818 71.8313 227.327 70.97L135.035 17.6695C133.958 17.048 132.612 17.8246 132.612 19.0676V190.069H132.613Z" fill="black"/>
<path d="M132.611 18.3777V19.0652C132.611 17.825 133.959 17.05 135.037 17.6704L227.327 70.9726C228.075 71.3972 228.676 72.0104 229.086 72.7315C229.1 72.7518 229.107 72.765 229.113 72.7854L233.107 70.4787C232.784 69.9193 232.346 69.4271 231.847 69.1444L138.229 15.1547C137.259 14.5954 135.689 14.5954 134.725 15.1481L134.37 15.3527C133.4 15.9044 132.611 17.259 132.611 18.3777Z" fill="#3AC7BA"/>
<path opacity="0.2" d="M132.611 18.3777V19.0652C132.611 17.825 133.959 17.05 135.037 17.6704L227.327 70.9726C228.075 71.3972 228.676 72.0104 229.086 72.7315C229.1 72.7518 229.107 72.765 229.113 72.7854L233.107 70.4787C232.784 69.9193 232.346 69.4271 231.847 69.1444L138.229 15.1547C137.259 14.5954 135.689 14.5954 134.725 15.1481L134.37 15.3527C133.4 15.9044 132.611 17.259 132.611 18.3777Z" fill="black"/>
<path opacity="0.25" d="M134.897 182.979C134.897 184.565 136.009 185.575 137.389 186.368L224.611 236.725C225.983 237.518 227.104 236.877 227.104 235.285V84.0697C227.104 82.2965 226.158 80.6581 224.622 79.7715L137.391 29.3909C136.283 28.7507 134.897 29.5504 134.897 30.8308V32.6821V182.979Z" fill="black"/>
<path d="M224.869 81.6581L137.965 31.4849C137.554 31.2479 136.888 31.2479 136.478 31.4849L135.639 31.9689C135.228 32.206 134.895 32.7829 134.895 33.257V185.175C134.895 185.65 135.228 186.226 135.639 186.464L222.542 236.637C222.952 236.874 223.618 236.874 224.029 236.637L224.869 236.152C225.28 235.915 225.613 235.338 225.613 234.863V82.9468C225.613 82.4721 225.28 81.8957 224.869 81.6581Z" fill="#F5F5F5"/>
<path d="M222.719 236.718C222.805 236.752 222.897 236.775 222.994 236.792C223.04 236.798 223.092 236.804 223.137 236.809C223.286 236.821 223.441 236.815 223.59 236.792C223.687 236.775 223.779 236.752 223.865 236.718C223.922 236.695 223.979 236.666 224.031 236.638L224.867 236.157C225.279 235.916 225.611 235.344 225.611 234.868V82.9519C225.611 82.7115 225.531 82.4481 225.394 82.2188L223.069 83.5585C223.2 83.7934 223.286 84.0568 223.286 84.2917V236.208C223.286 236.615 223.046 236.815 222.719 236.718Z" fill="#E0E0E0"/>
<path d="M135.637 31.9684L136.475 31.4844C136.886 31.2474 137.552 31.2474 137.963 31.4844L224.867 81.6582C225.278 81.8952 225.611 82.4722 225.611 82.9468V92.3282L223.284 93.6801L134.894 42.6478V33.2565C134.893 32.7824 135.227 32.2055 135.637 31.9684Z" fill="#3AC7BA"/>
<path opacity="0.4" d="M135.637 31.9684L136.475 31.4844C136.886 31.2474 137.552 31.2474 137.963 31.4844L224.867 81.6582C225.278 81.8952 225.611 82.4722 225.611 82.9468V92.3282L223.284 93.6801L134.894 42.6478V33.2565C134.893 32.7824 135.227 32.2055 135.637 31.9684Z" fill="white"/>
<path d="M134.921 33.0315C135.013 32.7279 135.299 32.6305 135.637 32.8252L222.541 83.0001C222.747 83.1205 222.936 83.3207 223.068 83.5556L225.393 82.2158C225.261 81.9809 225.072 81.7747 224.866 81.6603L137.962 31.4854C137.555 31.2451 136.885 31.2451 136.478 31.4854L135.636 31.9667C135.288 32.1729 134.996 32.6135 134.921 33.0315Z" fill="#3AC7BA"/>
<path opacity="0.6" d="M134.921 33.0315C135.013 32.7279 135.299 32.6305 135.637 32.8252L222.541 83.0001C222.747 83.1205 222.936 83.3207 223.068 83.5556L225.393 82.2158C225.261 81.9809 225.072 81.7747 224.866 81.6603L137.962 31.4854C137.555 31.2451 136.885 31.2451 136.478 31.4854L135.636 31.9667C135.288 32.1729 134.996 32.6135 134.921 33.0315Z" fill="white"/>
<path d="M225.609 82.949V92.338L223.285 93.68V84.2888C223.285 84.0539 223.199 83.7905 223.067 83.5556L225.392 82.2158C225.529 82.4446 225.609 82.7081 225.609 82.949Z" fill="#3AC7BA"/>
<g opacity="0.25">
<path d="M155.001 37.7663V45.2369C155.001 47.1295 156.293 49.3619 157.931 50.3079L172.392 58.6547C173.107 59.0672 173.514 59.8922 173.944 60.7596C174.26 61.3965 174.587 62.0515 175.06 62.5856C176.183 63.8594 178.633 65.1876 180.362 65.7398C180.945 65.9279 181.527 66.0616 182.097 66.1402C182.315 66.1765 182.558 66.2068 182.807 66.2376C184.384 66.4499 186.349 66.7166 187.501 67.3843L204.425 77.1507C204.935 77.4477 205.439 77.5934 205.899 77.5934C206.257 77.5934 206.591 77.5087 206.888 77.3388C207.58 76.9384 207.962 76.1436 207.962 75.1124V67.6417C207.962 65.7492 206.676 63.5167 205.032 62.5707L199.348 59.2889C199.324 59.2768 199.3 59.2647 199.27 59.2586C198.997 59.1371 198.675 59.2465 198.517 59.5133C198.366 59.774 198.438 60.1139 198.675 60.2838C198.693 60.308 198.717 60.3262 198.741 60.3383L204.425 63.6201C205.681 64.3483 206.748 66.1919 206.748 67.6417V75.1124C206.748 75.6888 206.578 76.1134 206.281 76.2833C205.984 76.4593 205.529 76.3867 205.032 76.1013L188.107 66.3289C186.749 65.5462 184.65 65.2613 182.97 65.0369C182.721 65.0067 182.484 64.9704 182.266 64.9396C181.769 64.867 181.247 64.7515 180.726 64.5815C179.191 64.0964 176.911 62.8529 175.97 61.7853C175.6 61.3728 175.327 60.8085 175.03 60.2206C174.539 59.2256 174.029 58.2004 172.998 57.6059L158.536 49.2591C157.281 48.5314 156.213 46.6873 156.213 45.2375V37.7663C156.213 37.1959 156.383 36.7653 156.68 36.5953C156.977 36.4193 157.438 36.4919 157.93 36.7774L162.855 39.6225C163.019 39.2524 163.232 38.8949 163.474 38.5792L158.536 35.728C157.645 35.2066 156.765 35.1455 156.073 35.5399C155.383 35.9403 155.001 36.735 155.001 37.7663Z" fill="black"/>
</g>
<path d="M165.549 37.905L165.548 37.9061C165.159 37.6773 164.619 37.707 164.022 38.0518C162.835 38.7371 161.873 40.4042 161.873 41.7748C161.873 42.4645 162.117 42.9468 162.51 43.1696L162.51 43.1707L196.819 62.9828L199.858 57.7171L165.549 37.905Z" fill="#37474F"/>
<path d="M198.33 60.3614L162.494 39.6682C162.884 38.9895 163.423 38.3961 164.021 38.0512C164.091 38.01 164.159 37.988 164.228 37.9561L199.505 58.3264L198.33 60.3614Z" fill="#455A64"/>
<path d="M198.331 57.8634C199.518 57.1781 200.48 57.7336 200.48 59.1042C200.48 60.4748 199.518 62.1418 198.331 62.8271C197.144 63.5124 196.182 62.9569 196.182 61.5863C196.182 60.2157 197.144 58.5487 198.331 57.8634Z" fill="#263238"/>
<path d="M154.389 38.2982V45.7689C154.389 47.6614 155.681 49.8939 157.319 50.8399L171.78 59.1867C172.496 59.5992 172.902 60.4242 173.334 61.2915C173.649 61.9284 173.977 62.5835 174.45 63.1175C175.572 64.3913 178.022 65.7196 179.751 66.2718C180.333 66.4599 180.916 66.5935 181.486 66.6722C181.704 66.7085 181.947 66.7387 182.195 66.7695C183.773 66.9818 185.738 67.2486 186.89 67.9157L203.814 77.6821C204.323 77.9791 204.827 78.1248 205.288 78.1248C205.646 78.1248 205.979 78.0401 206.277 77.8702C206.968 77.4698 207.351 76.675 207.351 75.6438V68.1731C207.351 66.2806 206.065 64.0481 204.421 63.1021L198.737 59.8203C198.713 59.8082 198.689 59.7961 198.658 59.79C198.386 59.6685 198.064 59.7779 197.907 60.0447C197.755 60.3054 197.827 60.6453 198.064 60.8152C198.083 60.8394 198.107 60.8576 198.131 60.8697L203.815 64.1515C205.07 64.8797 206.138 66.7233 206.138 68.1731V75.6438C206.138 76.2202 205.968 76.6448 205.671 76.8147C205.374 76.9907 204.918 76.9181 204.421 76.6327L187.497 66.8603C186.139 66.0776 184.04 65.7927 182.359 65.5683C182.111 65.5381 181.874 65.5012 181.656 65.471C181.158 65.3984 180.637 65.2829 180.115 65.1129C178.581 64.6278 176.3 63.3843 175.359 62.3167C174.989 61.9042 174.716 61.3399 174.419 60.752C173.928 59.757 173.418 58.7318 172.387 58.1373L157.926 49.7905C156.67 49.0628 155.603 47.2187 155.603 45.7689V38.2982C155.603 37.7279 155.773 37.2972 156.07 37.1273C156.367 36.9513 156.828 37.0244 157.319 37.3093L162.245 40.1545C162.409 39.7843 162.621 39.4268 162.864 39.1111L157.926 36.2599C157.034 35.738 156.154 35.6775 155.463 36.0718C154.772 36.4722 154.389 37.267 154.389 38.2982Z" fill="#455A64"/>
<g opacity="0.2">
<path d="M216.48 110.921L133.884 63.2131C133.536 63.0118 133.253 63.1752 133.253 63.5778V83.2876C133.253 83.6902 133.536 84.1797 133.884 84.3804L216.48 132.088C216.829 132.289 217.111 132.126 217.111 131.724V112.014C217.112 111.611 216.829 111.122 216.48 110.921Z" fill="black"/>
</g>
<path d="M129.5 65.823C129.696 65.7355 129.958 65.7614 130.241 65.9258L211.88 113.081C212.492 113.436 212.992 114.301 212.992 115.011V133.699C212.992 134.038 212.878 134.286 212.688 134.409C212.878 134.285 214.561 133.333 214.767 133.21C214.963 133.092 215.086 132.845 215.086 132.495V113.806C215.086 113.096 214.587 112.231 213.969 111.876L132.336 64.7164C132.022 64.5365 131.739 64.5261 131.538 64.6443C131.358 64.7521 129.896 65.581 129.5 65.823Z" fill="#3AC7BA"/>
<g opacity="0.2">
<path d="M129.5 65.8231C129.896 65.5811 131.357 64.7528 131.538 64.6445C131.739 64.5262 132.022 64.5361 132.335 64.7165L213.969 111.876C214.277 112.053 214.556 112.358 214.758 112.706L212.666 113.914C212.464 113.564 212.186 113.258 211.88 113.081L130.241 65.926C129.958 65.761 129.695 65.7357 129.5 65.8231Z" fill="white"/>
</g>
<path d="M211.88 113.081L130.243 65.9261C129.628 65.5708 129.129 65.859 129.129 66.5696V85.2591C129.129 85.9697 129.628 86.8338 130.243 87.1891L211.88 134.344C212.495 134.7 212.994 134.412 212.994 133.701V115.012C212.994 114.301 212.495 113.437 211.88 113.081Z" fill="#FAFAFA"/>
<path d="M212.666 113.914L214.759 112.707C214.962 113.056 215.087 113.451 215.087 113.807V132.496C215.087 132.845 214.963 133.092 214.768 133.211C214.562 133.335 212.879 134.287 212.689 134.41C212.879 134.286 212.993 134.039 212.993 133.7V115.011C212.992 114.656 212.867 114.263 212.666 113.914Z" fill="#3AC7BA"/>
<path opacity="0.15" d="M212.666 113.914L214.759 112.707C214.962 113.056 215.087 113.451 215.087 113.807V132.496C215.087 132.845 214.963 133.092 214.768 133.211C214.562 133.335 212.879 134.287 212.689 134.41C212.879 134.286 212.993 134.039 212.993 133.7V115.011C212.992 114.656 212.867 114.263 212.666 113.914Z" fill="black"/>
<path d="M129.746 66.2882C129.647 66.2882 129.644 66.5401 129.644 66.5693V85.2588C129.644 85.7857 130.044 86.4793 130.501 86.7433L212.137 133.899C212.267 133.973 212.348 133.982 212.378 133.982C212.477 133.982 212.479 133.73 212.479 133.701V115.012C212.479 114.485 212.079 113.791 211.622 113.527L129.986 66.3718C129.856 66.2965 129.775 66.2882 129.746 66.2882ZM129.746 65.7734C129.895 65.7734 130.065 65.8224 130.243 65.9258L211.88 113.081C212.495 113.436 212.994 114.3 212.994 115.011V133.7C212.994 134.204 212.743 134.495 212.378 134.495C212.228 134.495 212.059 134.446 211.88 134.343L130.243 87.1877C129.628 86.8324 129.129 85.9683 129.129 85.2577V66.5682C129.129 66.0649 129.38 65.7734 129.746 65.7734Z" fill="#3AC7BA"/>
<path d="M197.267 111.466C196.158 112.107 195.472 113.48 195.472 115.435C195.472 119.343 198.217 124.097 201.601 126.051C203.294 127.028 204.826 127.12 205.935 126.48C206.609 126.091 207.216 125.741 207.889 125.352C208.999 124.712 209.685 123.338 209.685 121.384C209.685 117.475 206.94 112.722 203.555 110.767C201.862 109.79 200.33 109.698 199.221 110.338C198.548 110.727 197.94 111.077 197.267 111.466Z" fill="#3AC7BA"/>
<path opacity="0.2" d="M197.267 111.466C196.158 112.107 195.472 113.48 195.472 115.435C195.472 119.343 198.217 124.097 201.601 126.051C203.294 127.028 204.826 127.12 205.935 126.48C206.609 126.091 207.216 125.741 207.889 125.352C208.999 124.712 209.685 123.338 209.685 121.384C209.685 117.475 206.94 112.722 203.555 110.767C201.862 109.79 200.33 109.698 199.221 110.338C198.548 110.727 197.94 111.077 197.267 111.466Z" fill="black"/>
<path d="M201.601 126.051C203.294 127.029 204.826 127.121 205.935 126.48C207.045 125.84 207.73 124.467 207.73 122.512C207.73 118.603 204.986 113.85 201.601 111.895C199.909 110.918 198.376 110.826 197.267 111.466C196.158 112.106 195.472 113.479 195.472 115.434C195.472 119.343 198.216 124.097 201.601 126.051Z" fill="#3AC7BA"/>
<path d="M191.252 109.827L133.768 76.6261C133.011 76.1888 132.396 75.0151 132.396 74.0053C132.396 72.995 133.01 72.5308 133.768 72.9686L191.252 106.17C192.01 106.607 192.624 107.781 192.624 108.791C192.624 109.8 192.01 110.265 191.252 109.827ZM133.768 80.6675L191.252 113.869C192.01 114.306 192.624 115.48 192.624 116.49C192.624 117.499 192.01 117.964 191.252 117.526L133.768 84.325C133.011 83.8877 132.396 82.714 132.396 81.7042C132.396 80.6944 133.01 80.2302 133.768 80.6675Z" fill="#E0E0E0"/>
<g opacity="0.2">
<path d="M216.48 140.938L133.884 93.2307C133.536 93.0294 133.253 93.1928 133.253 93.5954V113.305C133.253 113.708 133.536 114.197 133.884 114.398L216.48 162.106C216.829 162.307 217.111 162.144 217.111 161.741V142.031C217.112 141.629 216.829 141.14 216.48 140.938Z" fill="black"/>
</g>
<path d="M129.5 95.8396C129.696 95.7521 129.958 95.778 130.241 95.9424L211.88 143.097C212.492 143.453 212.992 144.317 212.992 145.027V163.716C212.992 164.056 212.878 164.302 212.688 164.426C212.878 164.302 214.561 163.35 214.767 163.227C214.963 163.108 215.086 162.861 215.086 162.511V143.823C215.086 143.113 214.587 142.248 213.969 141.893L132.336 94.733C132.022 94.5531 131.739 94.5427 131.538 94.6609C131.358 94.7693 129.896 95.5976 129.5 95.8396Z" fill="#3AC7BA"/>
<g opacity="0.2">
<path d="M129.5 95.8397C129.896 95.5977 131.357 94.7694 131.538 94.6611C131.739 94.5428 132.022 94.5528 132.335 94.7332L213.969 141.893C214.277 142.07 214.556 142.374 214.758 142.723L212.666 143.931C212.464 143.581 212.186 143.275 211.88 143.097L130.241 95.9426C129.958 95.7781 129.695 95.7523 129.5 95.8397Z" fill="white"/>
</g>
<path d="M211.88 143.098L130.243 95.9427C129.628 95.5874 129.129 95.8756 129.129 96.5862V115.276C129.129 115.986 129.628 116.85 130.243 117.206L211.88 164.361C212.495 164.716 212.994 164.428 212.994 163.718V145.028C212.994 144.318 212.495 143.453 211.88 143.098Z" fill="#FAFAFA"/>
<path d="M212.666 143.93L214.759 142.723C214.962 143.072 215.087 143.467 215.087 143.823V162.511C215.087 162.861 214.963 163.108 214.768 163.227C214.562 163.35 212.879 164.302 212.689 164.426C212.879 164.302 212.993 164.055 212.993 163.716V145.027C212.992 144.673 212.867 144.28 212.666 143.93Z" fill="#3AC7BA"/>
<path opacity="0.15" d="M212.666 143.93L214.759 142.723C214.962 143.072 215.087 143.467 215.087 143.823V162.511C215.087 162.861 214.963 163.108 214.768 163.227C214.562 163.35 212.879 164.302 212.689 164.426C212.879 164.302 212.993 164.055 212.993 163.716V145.027C212.992 144.673 212.867 144.28 212.666 143.93Z" fill="black"/>
<path d="M129.746 96.3053C129.647 96.3053 129.644 96.5572 129.644 96.5863V115.276C129.644 115.803 130.044 116.496 130.501 116.76L212.137 163.916C212.267 163.991 212.348 163.999 212.378 163.999C212.477 163.999 212.479 163.747 212.479 163.718V145.028C212.479 144.501 212.079 143.808 211.622 143.544L129.986 96.3883C129.856 96.3135 129.775 96.3053 129.746 96.3053ZM129.746 95.791C129.895 95.791 130.065 95.84 130.243 95.9434L211.88 143.099C212.495 143.454 212.994 144.318 212.994 145.029V163.718C212.994 164.222 212.743 164.514 212.378 164.514C212.228 164.514 212.059 164.465 211.88 164.361L130.243 117.206C129.628 116.851 129.129 115.986 129.129 115.276V96.5863C129.129 96.082 129.38 95.791 129.746 95.791Z" fill="#3AC7BA"/>
<path d="M197.267 141.483C196.158 142.124 195.472 143.497 195.472 145.452C195.472 149.361 198.217 154.114 201.601 156.068C203.294 157.045 204.826 157.138 205.935 156.497C206.609 156.108 207.216 155.758 207.889 155.369C208.999 154.729 209.685 153.355 209.685 151.401C209.685 147.492 206.94 142.739 203.555 140.784C201.862 139.807 200.33 139.715 199.221 140.355C198.548 140.744 197.94 141.095 197.267 141.483Z" fill="#3AC7BA"/>
<path opacity="0.2" d="M197.267 141.483C196.158 142.124 195.472 143.497 195.472 145.452C195.472 149.361 198.217 154.114 201.601 156.068C203.294 157.045 204.826 157.138 205.935 156.497C206.609 156.108 207.216 155.758 207.889 155.369C208.999 154.729 209.685 153.355 209.685 151.401C209.685 147.492 206.94 142.739 203.555 140.784C201.862 139.807 200.33 139.715 199.221 140.355C198.548 140.744 197.94 141.095 197.267 141.483Z" fill="black"/>
<path d="M201.601 156.068C203.294 157.046 204.826 157.138 205.935 156.497C207.045 155.857 207.73 154.484 207.73 152.529C207.73 148.62 204.986 143.867 201.601 141.912C199.909 140.935 198.376 140.843 197.267 141.483C196.158 142.124 195.472 143.497 195.472 145.452C195.472 149.36 198.216 154.114 201.601 156.068Z" fill="#3AC7BA"/>
<path d="M191.252 139.845L133.768 106.644C133.011 106.206 132.396 105.033 132.396 104.023C132.396 103.013 133.01 102.548 133.768 102.986L191.252 136.187C192.01 136.625 192.624 137.798 192.624 138.808C192.624 139.818 192.01 140.282 191.252 139.845ZM133.768 110.685L191.252 143.886C192.01 144.323 192.624 145.497 192.624 146.507C192.624 147.516 192.01 147.981 191.252 147.543L133.768 114.342C133.011 113.905 132.396 112.731 132.396 111.721C132.396 110.711 133.01 110.247 133.768 110.685Z" fill="#E0E0E0"/>
<g opacity="0.2">
<path d="M216.48 170.955L133.884 123.248C133.536 123.047 133.253 123.21 133.253 123.612V143.322C133.253 143.725 133.536 144.214 133.884 144.416L216.48 192.123C216.829 192.325 217.111 192.161 217.111 191.759V172.049C217.112 171.646 216.829 171.157 216.48 170.955Z" fill="black"/>
</g>
<path d="M129.5 125.857C129.696 125.77 129.958 125.796 130.241 125.96L211.88 173.115C212.492 173.47 212.992 174.335 212.992 175.045V193.733C212.992 194.073 212.878 194.32 212.688 194.443C212.878 194.32 214.561 193.367 214.767 193.244C214.963 193.126 215.086 192.879 215.086 192.529V173.84C215.086 173.13 214.587 172.266 213.969 171.91L132.336 124.751C132.022 124.571 131.739 124.56 131.538 124.679C131.358 124.787 129.896 125.616 129.5 125.857Z" fill="#3AC7BA"/>
<g opacity="0.2">
<path d="M129.5 125.857C129.896 125.615 131.357 124.787 131.538 124.679C131.739 124.56 132.022 124.57 132.335 124.751L213.969 171.91C214.277 172.088 214.556 172.392 214.758 172.74L212.666 173.948C212.464 173.598 212.186 173.293 211.88 173.115L130.241 125.96C129.958 125.796 129.695 125.77 129.5 125.857Z" fill="white"/>
</g>
<path d="M211.88 173.116L130.243 125.961C129.628 125.605 129.129 125.894 129.129 126.604V145.294C129.129 146.004 129.628 146.868 130.243 147.224L211.88 194.379C212.495 194.734 212.994 194.446 212.994 193.736V175.046C212.994 174.335 212.495 173.471 211.88 173.116Z" fill="#FAFAFA"/>
<path d="M212.666 173.949L214.759 172.741C214.962 173.091 215.087 173.485 215.087 173.841V192.53C215.087 192.879 214.963 193.126 214.768 193.245C214.562 193.369 212.879 194.321 212.689 194.444C212.879 194.32 212.993 194.074 212.993 193.734V175.046C212.992 174.691 212.867 174.298 212.666 173.949Z" fill="#3AC7BA"/>
<path opacity="0.15" d="M212.666 173.949L214.759 172.741C214.962 173.091 215.087 173.485 215.087 173.841V192.53C215.087 192.879 214.963 193.126 214.768 193.245C214.562 193.369 212.879 194.321 212.689 194.444C212.879 194.32 212.993 194.074 212.993 193.734V175.046C212.992 174.691 212.867 174.298 212.666 173.949Z" fill="black"/>
<path d="M129.746 126.322C129.647 126.322 129.644 126.574 129.644 126.603V145.293C129.644 145.82 130.044 146.513 130.501 146.777L212.137 193.933C212.267 194.008 212.348 194.016 212.378 194.016C212.477 194.016 212.479 193.764 212.479 193.735V175.045C212.479 174.518 212.079 173.825 211.622 173.561L129.986 126.405C129.856 126.331 129.775 126.322 129.746 126.322ZM129.746 125.808C129.895 125.808 130.065 125.857 130.243 125.96L211.88 173.115C212.495 173.471 212.994 174.335 212.994 175.045V193.735C212.994 194.239 212.743 194.53 212.378 194.53C212.228 194.53 212.059 194.481 211.88 194.378L130.243 147.222C129.628 146.867 129.129 146.003 129.129 145.292V126.603C129.129 126.099 129.38 125.808 129.746 125.808Z" fill="#3AC7BA"/>
<path d="M197.267 171.501C196.158 172.141 195.472 173.514 195.472 175.469C195.472 179.378 198.217 184.131 201.601 186.086C203.294 187.063 204.826 187.156 205.935 186.515C206.609 186.127 207.216 185.776 207.889 185.387C208.999 184.747 209.685 183.373 209.685 181.419C209.685 177.51 206.94 172.757 203.555 170.802C201.862 169.825 200.33 169.733 199.221 170.373C198.548 170.761 197.94 171.112 197.267 171.501Z" fill="#3AC7BA"/>
<path opacity="0.2" d="M197.267 171.501C196.158 172.141 195.472 173.514 195.472 175.469C195.472 179.378 198.217 184.131 201.601 186.086C203.294 187.063 204.826 187.156 205.935 186.515C206.609 186.127 207.216 185.776 207.889 185.387C208.999 184.747 209.685 183.373 209.685 181.419C209.685 177.51 206.94 172.757 203.555 170.802C201.862 169.825 200.33 169.733 199.221 170.373C198.548 170.761 197.94 171.112 197.267 171.501Z" fill="black"/>
<path d="M201.601 186.085C203.294 187.063 204.826 187.155 205.935 186.514C207.045 185.874 207.73 184.501 207.73 182.546C207.73 178.637 204.986 173.884 201.601 171.93C199.909 170.952 198.376 170.86 197.267 171.5C196.158 172.141 195.472 173.514 195.472 175.468C195.472 179.378 198.216 184.131 201.601 186.085Z" fill="#3AC7BA"/>
<path d="M191.252 169.862L133.768 136.66C133.011 136.223 132.396 135.049 132.396 134.04C132.396 133.03 133.01 132.566 133.768 133.003L191.252 166.204C192.01 166.641 192.624 167.815 192.624 168.825C192.624 169.835 192.01 170.299 191.252 169.862ZM133.768 140.702L191.252 173.903C192.01 174.34 192.624 175.514 192.624 176.524C192.624 177.534 192.01 177.998 191.252 177.561L133.768 144.359C133.011 143.922 132.396 142.748 132.396 141.739C132.396 140.729 133.01 140.264 133.768 140.702Z" fill="#E0E0E0"/>
<g opacity="0.2">
<path d="M216.48 200.972L133.884 153.265C133.536 153.064 133.253 153.227 133.253 153.63V173.339C133.253 173.742 133.536 174.231 133.884 174.433L216.48 222.14C216.829 222.342 217.111 222.178 217.111 221.776V202.066C217.112 201.663 216.829 201.174 216.48 200.972Z" fill="black"/>
</g>
<path d="M129.5 155.874C129.696 155.786 129.958 155.812 130.241 155.977L211.88 203.131C212.492 203.487 212.992 204.351 212.992 205.061V223.75C212.992 224.09 212.878 224.337 212.688 224.46C212.878 224.336 214.561 223.384 214.767 223.261C214.963 223.143 215.086 222.896 215.086 222.545V203.857C215.086 203.147 214.587 202.282 213.969 201.927L132.336 154.767C132.022 154.587 131.739 154.577 131.538 154.695C131.358 154.803 129.896 155.632 129.5 155.874Z" fill="#3AC7BA"/>
<g opacity="0.2">
<path d="M129.5 155.874C129.896 155.632 131.357 154.804 131.538 154.695C131.739 154.577 132.022 154.587 132.335 154.767L213.969 201.927C214.277 202.104 214.556 202.408 214.758 202.757L212.666 203.965C212.464 203.615 212.186 203.309 211.88 203.132L130.241 155.977C129.958 155.812 129.695 155.786 129.5 155.874Z" fill="white"/>
</g>
<path d="M211.88 203.132L130.243 155.977C129.628 155.622 129.129 155.91 129.129 156.62V175.31C129.129 176.021 129.628 176.885 130.243 177.24L211.88 224.395C212.495 224.751 212.994 224.462 212.994 223.752V205.063C212.994 204.352 212.495 203.488 211.88 203.132Z" fill="#FAFAFA"/>
<path d="M212.666 203.965L214.759 202.757C214.962 203.107 215.087 203.501 215.087 203.857V222.546C215.087 222.896 214.963 223.143 214.768 223.261C214.562 223.385 212.879 224.337 212.689 224.46C212.879 224.337 212.993 224.09 212.993 223.75V205.062C212.992 204.707 212.867 204.314 212.666 203.965Z" fill="#3AC7BA"/>
<path opacity="0.15" d="M212.666 203.965L214.759 202.757C214.962 203.107 215.087 203.501 215.087 203.857V222.546C215.087 222.896 214.963 223.143 214.768 223.261C214.562 223.385 212.879 224.337 212.689 224.46C212.879 224.337 212.993 224.09 212.993 223.75V205.062C212.992 204.707 212.867 204.314 212.666 203.965Z" fill="black"/>
<path d="M129.746 156.339C129.647 156.339 129.644 156.591 129.644 156.62V175.31C129.644 175.837 130.044 176.53 130.501 176.794L212.137 223.949C212.267 224.025 212.348 224.032 212.378 224.032C212.477 224.032 212.479 223.781 212.479 223.751V205.062C212.479 204.536 212.079 203.842 211.622 203.578L129.986 156.423C129.856 156.347 129.775 156.339 129.746 156.339ZM129.746 155.824C129.895 155.824 130.065 155.873 130.243 155.977L211.88 203.132C212.495 203.487 212.994 204.351 212.994 205.062V223.751C212.994 224.255 212.743 224.546 212.378 224.546C212.228 224.546 212.059 224.497 211.88 224.394L130.243 177.238C129.628 176.883 129.129 176.019 129.129 175.309V156.619C129.129 156.116 129.38 155.824 129.746 155.824Z" fill="#3AC7BA"/>
<path d="M197.267 201.518C196.158 202.158 195.472 203.531 195.472 205.486C195.472 209.395 198.217 214.148 201.601 216.102C203.294 217.08 204.826 217.172 205.935 216.532C206.609 216.143 207.216 215.793 207.889 215.404C208.999 214.764 209.685 213.39 209.685 211.435C209.685 207.526 206.94 202.774 203.555 200.819C201.862 199.841 200.33 199.75 199.221 200.39C198.548 200.779 197.94 201.129 197.267 201.518Z" fill="#3AC7BA"/>
<path opacity="0.2" d="M197.267 201.518C196.158 202.158 195.472 203.531 195.472 205.486C195.472 209.395 198.217 214.148 201.601 216.102C203.294 217.08 204.826 217.172 205.935 216.532C206.609 216.143 207.216 215.793 207.889 215.404C208.999 214.764 209.685 213.39 209.685 211.435C209.685 207.526 206.94 202.774 203.555 200.819C201.862 199.841 200.33 199.75 199.221 200.39C198.548 200.779 197.94 201.129 197.267 201.518Z" fill="black"/>
<path d="M201.601 216.102C203.294 217.08 204.826 217.172 205.935 216.531C207.045 215.891 207.73 214.518 207.73 212.563C207.73 208.654 204.986 203.901 201.601 201.946C199.909 200.969 198.376 200.877 197.267 201.517C196.158 202.158 195.472 203.531 195.472 205.486C195.472 209.395 198.216 214.148 201.601 216.102Z" fill="#3AC7BA"/>
<path d="M191.252 199.879L133.768 166.678C133.011 166.241 132.396 165.067 132.396 164.057C132.396 163.047 133.01 162.583 133.768 163.02L191.252 196.222C192.01 196.659 192.624 197.833 192.624 198.842C192.624 199.852 192.01 200.316 191.252 199.879ZM133.768 170.719L191.252 203.92C192.01 204.357 192.624 205.531 192.624 206.541C192.624 207.551 192.01 208.015 191.252 207.577L133.768 174.376C133.011 173.939 132.396 172.765 132.396 171.755C132.396 170.746 133.01 170.281 133.768 170.719Z" fill="#E0E0E0"/>
<path d="M79.3643 181.146L74.4717 183.438L69.6045 185.768L59.9099 190.485L50.2714 195.285L45.4717 197.715L40.6984 200.182L45.591 197.891L50.4582 195.561L60.1528 190.843L69.7904 186.042L74.5901 183.613L79.3643 181.146Z" fill="#E0E0E0"/>
<path d="M71.4844 190.851C70.3868 191.338 69.3054 191.847 68.2152 192.345L64.9715 193.876C62.8115 194.901 60.6737 195.957 58.5235 196.996C56.3931 198.064 54.252 199.117 52.1318 200.199L48.9556 201.831C47.9057 202.388 46.8479 202.932 45.8054 203.5C46.9029 203.014 47.9848 202.504 49.075 202.007L52.3191 200.476C54.4782 199.45 56.6174 198.395 58.7667 197.355C60.8967 196.285 63.0382 195.234 65.1584 194.151L68.3346 192.52C69.3836 191.963 70.4418 191.419 71.4844 190.851Z" fill="#E0E0E0"/>
<path d="M91.4256 165.913L95.4389 163.866C98.1178 162.505 100.817 161.175 103.506 159.829C106.214 158.513 107.689 157.782 110.408 156.48L113.3 155.1V155.375L110.594 156.755C107.916 158.116 106.437 158.841 103.749 160.188C101.041 161.505 98.344 162.838 95.6262 164.141L91.5449 166.088C90.1753 166.725 88.8146 167.373 87.4381 167.998C88.7596 167.292 90.0967 166.609 91.4256 165.913Z" fill="#E0E0E0"/>
<path d="M111.937 161.724C111.216 162.028 110.512 162.354 109.799 162.668L107.688 163.65C106.28 164.305 104.892 164.988 103.504 165.671C102.121 166.363 100.74 167.055 99.3766 167.775L97.3327 168.857C96.6607 169.23 95.9798 169.591 95.3152 169.976C96.0353 169.673 96.7398 169.347 97.453 169.033L99.5649 168.051C100.972 167.396 102.36 166.713 103.748 166.029C105.13 165.337 106.512 164.645 107.875 163.925L109.919 162.843C110.591 162.47 111.271 162.108 111.937 161.724Z" fill="#E0E0E0"/>
<rect width="66" height="5.5" rx="2.75" transform="matrix(-0.864254 -0.503056 -0.503056 0.864254 207.87 91.0527)" fill="#455A64"/>
</svg>
