<svg width="275" height="235" viewBox="0 0 275 235" fill="none" xmlns="http://www.w3.org/2000/svg">
<path d="M143.418 235C71.9424 235 14 208.254 14 175.26C14 142.267 71.9424 115.521 143.418 115.521C214.894 115.521 272.836 142.267 272.836 175.26C272.836 208.254 214.894 235 143.418 235Z" fill="#2F2E2E"/>
<path d="M34.681 154.663C34.3698 154.483 34.2141 154.248 34.2135 154.013C34.213 153.776 34.2135 153.009 34.2135 153.009L89.6689 121.615C90.2926 121.255 91.3036 121.255 91.9273 121.615L135.531 146.79L78.2663 179.829L34.681 154.663Z" fill="#3AC7BA"/>
<path opacity="0.2" d="M34.681 154.663C34.3698 154.483 34.2141 154.248 34.2135 154.013C34.213 153.776 34.2135 153.009 34.2135 153.009L89.6689 121.615C90.2926 121.255 91.3036 121.255 91.9273 121.615L135.531 146.79L78.2663 179.829L34.681 154.663Z" fill="#F0ECEC"/>
<path d="M34.6805 153.685C34.0568 153.325 34.0573 152.741 34.6805 152.382L89.6684 120.637C90.2921 120.277 91.3025 120.277 91.9267 120.637L135.531 145.812L78.2663 178.851L34.6805 153.685Z" fill="#3AC7BA"/>
<path opacity="0.5" d="M34.6805 153.685C34.0568 153.325 34.0573 152.741 34.6805 152.382L89.6684 120.637C90.2921 120.277 91.3025 120.277 91.9267 120.637L135.531 145.812L78.2663 178.851L34.6805 153.685Z" fill="black"/>
<path d="M125.494 139.232L93.2115 120.604C92.5883 120.244 91.5769 120.244 90.9532 120.603L39.6965 150.194L35.4978 147.749V152.721L35.5764 152.768C35.4367 153.074 35.5495 153.412 35.9658 153.652L72.9363 174.988L130.201 141.949V136.517L125.494 139.232Z" fill="#EBEBEB"/>
<path d="M35.9662 148.22C35.3425 147.86 35.3431 147.276 35.9662 146.917L90.9536 115.172C91.5773 114.812 92.5882 114.812 93.2124 115.172L130.202 136.517L72.9372 169.556L35.9662 148.22Z" fill="#2F2E2E"/>
<path d="M72.9363 169.556V174.988L130.201 141.949V136.517L72.9363 169.556Z" fill="#E6E6E6"/>
<path d="M73.5343 167.435C73.4039 167.5 73.2736 167.552 73.1168 167.578C72.8952 167.63 72.6477 167.63 72.4519 167.565C72.3738 167.552 72.3083 167.526 72.2429 167.487C71.9041 167.304 71.9431 166.965 72.3342 166.744C72.5036 166.652 72.712 166.587 72.9205 166.574C73.1812 166.548 73.4419 166.587 73.6245 166.691C73.6509 166.704 73.6767 166.717 73.6899 166.743C73.9517 166.94 73.8989 167.226 73.5343 167.435Z" fill="#263238"/>
<path d="M79.2324 171.685C79.2324 172.454 79.0366 173.093 78.6588 173.562C78.2677 174.058 77.6941 174.332 77.0423 174.331C77.0291 174.332 77.0291 174.332 77.0291 174.332C76.5341 174.331 75.999 174.175 75.4649 173.862C75.3736 173.81 75.2697 173.758 75.1778 173.693L75.8169 173.328C77.3553 174.189 78.5807 173.458 78.5807 171.685C78.5807 169.912 77.3294 167.735 75.7905 166.849C74.9562 166.366 74.1999 166.352 73.6917 166.744C73.431 166.914 73.2352 167.201 73.1181 167.578C72.8964 167.631 72.6489 167.631 72.4531 167.565C72.5444 167.174 72.7006 166.835 72.9223 166.574C73.3133 166.092 73.8743 165.818 74.5393 165.818C75.0475 165.818 75.5689 165.975 76.1167 166.288C77.8629 167.291 79.2324 169.664 79.2324 171.685Z" fill="#263238"/>
<path d="M77.6123 166.552L34.2129 145.343L34.2134 146.051C34.2134 146.411 34.4659 146.849 34.7777 147.029L77.6118 167.536L77.6123 166.552Z" fill="#3AC7BA"/>
<path opacity="0.2" d="M77.6123 166.552L34.2129 145.343L34.2134 146.051C34.2134 146.411 34.4659 146.849 34.7777 147.029L77.6118 167.536L77.6123 166.552Z" fill="#F0ECEC"/>
<path d="M34.6806 145.989C34.0569 145.629 34.0569 145.045 34.6806 144.685L89.668 112.941C90.2917 112.58 91.3026 112.58 91.9263 112.94L135.53 133.875L78.2654 166.914L34.6806 145.989Z" fill="#3AC7BA"/>
<path opacity="0.2" d="M34.6806 145.989C34.0569 145.629 34.0569 145.045 34.6806 144.685L89.668 112.941C90.2917 112.58 91.3026 112.58 91.9263 112.94L135.53 133.875L78.2654 166.914L34.6806 145.989Z" fill="black"/>
<path d="M78.2654 179.828L135.53 146.789V133.858L78.267 166.919L78.2654 179.828Z" fill="#3AC7BA"/>
<path d="M88.1929 171.535C87.5401 171.535 86.962 171.261 86.5677 170.766C86.1931 170.297 85.9957 169.647 85.9957 168.887C85.9968 166.868 87.368 164.494 89.1175 163.483C89.6576 163.172 90.1867 163.014 90.6927 163.014C92.0077 163.014 92.8916 164.077 92.8916 165.661C92.8916 167.683 91.5193 170.056 89.7687 171.067C89.2291 171.377 88.6995 171.535 88.1952 171.535C88.1952 171.535 88.1946 171.535 88.1929 171.535Z" fill="#455A64"/>
<path d="M86.647 168.888C86.6459 170.67 87.8971 171.392 89.4421 170.502C90.9865 169.611 92.2383 167.444 92.2383 165.661C92.2383 163.878 90.987 163.156 89.4432 164.048C87.8999 164.939 86.6481 167.106 86.647 168.888Z" fill="#F5F5F5"/>
<path d="M96.8009 162.38V163.357C96.8009 165.315 98.1753 166.109 99.871 165.13L128.618 148.533C130.313 147.554 131.688 145.173 131.688 143.216V142.238C131.688 140.281 130.314 139.487 128.618 140.466L99.8715 157.063C98.1753 158.041 96.8009 160.422 96.8009 162.38Z" fill="#F5F5F5"/>
<path d="M77.5923 179.44V166.592L78.2666 166.92L78.2649 179.829L77.5923 179.44Z" fill="#3AC7BA"/>
<path opacity="0.2" d="M77.5923 179.44V166.592L78.2666 166.92L78.2649 179.829L77.5923 179.44Z" fill="#F0ECEC"/>
<path d="M135.062 131.081C135.062 131.354 134.843 131.702 134.571 131.858L78.2887 164.33C78.017 164.487 77.5776 164.486 77.3059 164.33L33.0842 141.961V140.979L90.3288 107.929L134.571 130.304C134.843 130.462 135.062 130.809 135.062 131.081Z" fill="#3AC7BA"/>
<path opacity="0.5" d="M33.085 140.979L77.3017 163.35C77.4436 163.436 77.6279 163.464 77.7978 163.464C77.9821 163.464 78.1526 163.436 78.2945 163.35L134.569 130.869C134.839 130.713 134.839 130.458 134.569 130.301L90.3257 107.93L33.085 140.979Z" fill="black"/>
<path opacity="0.2" d="M33.0841 140.979V141.961L77.3002 164.329C77.4416 164.414 77.6264 164.442 77.7969 164.442V163.464C77.6269 163.464 77.4427 163.436 77.3008 163.35L33.0841 140.979Z" fill="#F0ECEC"/>
<path d="M33.7556 141.37L91.0205 108.331V95.4004L33.7572 128.591L33.7556 141.37Z" fill="#3AC7BA"/>
<path opacity="0.7" d="M33.7556 141.37L91.0205 108.331V95.4004L33.7572 128.591L33.7556 141.37Z" fill="black"/>
<path d="M134.452 124.127C134.79 124.322 135.066 124.799 135.065 125.19V127.806C135.065 128.198 134.79 128.673 134.451 128.869L78.4143 161.199C78.0755 161.395 77.5255 161.395 77.1862 161.199L39.6998 140.924V136.889L96.946 103.84L134.452 124.127Z" fill="#EBEBEB"/>
<path d="M96.9457 103.841L134.451 124.126C134.79 124.322 134.79 124.639 134.451 124.835L78.4146 157.165C78.0752 157.361 77.5252 157.36 77.1864 157.165L39.7001 136.889L96.9457 103.841Z" fill="#2F2E2E"/>
<path d="M44.4779 137.216C44.3475 137.282 44.2172 137.334 44.061 137.36C43.8393 137.411 43.5913 137.411 43.396 137.346C43.3179 137.334 43.2525 137.308 43.187 137.268C42.8482 137.086 42.8873 136.747 43.2783 136.525C43.4477 136.435 43.6562 136.369 43.8646 136.356C44.1253 136.33 44.386 136.369 44.5686 136.474C44.5945 136.487 44.6209 136.499 44.6335 136.525C44.8948 136.721 44.8425 137.008 44.4779 137.216Z" fill="#263238"/>
<path d="M77.7972 157.301V161.342C78.0244 161.342 78.251 161.3 78.4215 161.201L134.455 128.875C134.795 128.676 135.065 128.194 135.065 127.811L135.065 125.188C135.065 124.861 134.867 124.464 134.597 124.238C134.782 124.422 134.739 124.663 134.455 124.833L78.422 157.159C78.2515 157.259 78.0244 157.315 77.7972 157.301Z" fill="#E6E6E6"/>
<path d="M37.9132 131.621C38.6381 131.191 39.5384 131.241 40.4536 131.769C41.9881 132.655 43.3109 134.694 43.9258 136.91C43.6244 136.954 43.2537 137.007 43.0876 137.034C42.5183 135.068 41.3534 133.251 40.0373 132.491C39.7458 132.323 39.3674 132.164 38.9802 132.164C38.7657 132.164 38.5479 132.213 38.3405 132.337C37.6701 132.737 37.2944 133.809 37.3357 135.202C37.4154 137.881 38.9488 140.909 40.7561 141.952C41.0993 142.151 41.563 142.335 42.0195 142.263L42.9341 142.787C42.916 142.799 42.8978 142.811 42.8791 142.821C42.5546 143.016 42.1949 143.111 41.8143 143.111C41.3452 143.111 40.8441 142.966 40.3398 142.674C38.2773 141.483 36.5921 138.212 36.5035 135.228C36.4518 133.501 36.9661 132.187 37.9132 131.621Z" fill="#263238"/>
<path d="M135.062 122.871C135.062 123.143 134.843 123.491 134.571 123.648L78.2893 156.12C78.0176 156.276 77.5782 156.276 77.3065 156.119L33.0848 129.093V128.111L90.3288 95.0625L134.571 122.094C134.843 122.251 135.062 122.599 135.062 122.871Z" fill="#3AC7BA"/>
<path d="M33.0846 128.111L77.3013 155.14C77.4432 155.225 77.6274 155.253 77.7974 155.253C77.9822 155.254 78.1521 155.225 78.294 155.14L134.568 122.658C134.838 122.503 134.838 122.247 134.568 122.091L90.3247 95.0625L33.0846 128.111Z" fill="#3AC7BA"/>
<path opacity="0.35" d="M33.0846 128.111L77.3013 155.14C77.4432 155.225 77.6274 155.253 77.7974 155.253C77.9822 155.254 78.1521 155.225 78.294 155.14L134.568 122.658C134.838 122.503 134.838 122.247 134.568 122.091L90.3247 95.0625L33.0846 128.111Z" fill="#F0ECEC"/>
<path opacity="0.2" d="M33.0841 128.111V129.094L77.3008 156.119C77.4427 156.204 77.6269 156.232 77.7969 156.232V155.253C77.6269 155.253 77.4427 155.225 77.3008 155.14L33.0841 128.111Z" fill="#F0ECEC"/>
<path d="M33.0841 140.979L33.083 128.134L33.7578 128.591L33.7562 141.371L33.0841 140.979Z" fill="#3AC7BA"/>
<path opacity="0.2" d="M33.0841 140.979L33.083 128.134L33.7578 128.591L33.7562 141.371L33.0841 140.979Z" fill="#F0ECEC"/>
<path opacity="0.4" d="M127.174 118.477L89.8096 96.9067L35.9123 128.081L73.2755 149.653L127.174 118.477Z" fill="#3AC7BA"/>
<path d="M122.395 118.431L73.0754 146.959V116.708L122.396 88.1797L122.395 118.431Z" fill="#AAA6A6"/>
<path d="M38.8866 127.22L73.0752 146.959V116.708L38.8855 96.9688L38.8866 127.22Z" fill="#AAA6A6"/>
<path d="M121.859 88.1802L88.2054 68.752L39.4226 96.9686L73.0755 116.398L121.859 88.1802Z" fill="#F0ECEC"/>
<path d="M88.2059 69.0617L39.9588 96.9682L73.0754 116.088L121.324 88.1803L88.2059 69.0617ZM88.2053 68.4419L122.396 88.1797L73.0754 116.708L38.8857 96.9687L88.2053 68.4419Z" fill="#AAA6A6"/>
<path opacity="0.1" d="M96.6924 113.192L73.0748 126.828L58.9041 118.647L73.0748 127.673L96.6924 113.192Z" fill="black"/>
<path opacity="0.1" d="M110.865 112.632L73.0769 134.449L44.7349 118.087L73.0764 135.274L110.865 112.632Z" fill="black"/>
<path opacity="0.1" d="M117.65 99.4043C117.65 99.4043 118.431 103.817 118.039 106.05C118.039 106.05 111.855 105.898 101.417 108.777L117.65 99.4043Z" fill="black"/>
<path d="M117.651 99.4043L101.417 108.777L119.379 103.592L117.651 99.4043Z" fill="#F0ECEC"/>
<path opacity="0.1" d="M96.6924 125.552L78.8949 141.915C78.8949 141.915 78.401 139.666 74.985 138.085L96.6924 125.552Z" fill="black"/>
<path d="M96.6924 125.552L79.9784 139.626L74.985 138.085L96.6924 125.552Z" fill="#F0ECEC"/>
<path opacity="0.1" d="M44.5818 108.999C44.6748 108.855 44.7325 108.777 44.7325 108.777L55.9795 115.271L43.3201 114.231C42.8851 111.881 44.1363 109.687 44.5818 108.999Z" fill="black"/>
<path d="M55.9805 115.27L44.7335 108.776L40.9886 110.752L55.9805 115.27Z" fill="#2F2E2E"/>
<g opacity="0.15">
<path d="M113.705 90.2834C113.855 90.2834 114.001 90.2053 114.083 90.0656C114.204 89.8572 114.132 89.5904 113.923 89.47L85.5821 73.1064C85.3742 72.9881 85.1075 73.0574 84.9859 73.2659C84.8655 73.4743 84.937 73.7411 85.146 73.8615L113.487 90.2246C113.555 90.2647 113.631 90.2834 113.705 90.2834Z" fill="black"/>
<path d="M108.983 93.0104C109.132 93.0104 109.279 92.9323 109.36 92.7926C109.481 92.5842 109.409 92.3174 109.2 92.197L80.8595 75.8339C80.6527 75.7146 80.3848 75.785 80.2633 75.9934C80.1428 76.2019 80.2143 76.4686 80.4233 76.5891L108.764 92.9521C108.832 92.9923 108.909 93.0104 108.983 93.0104Z" fill="black"/>
<path d="M104.259 95.7379C104.409 95.7379 104.555 95.6598 104.637 95.5201C104.757 95.3117 104.686 95.0449 104.477 94.9245L76.1353 78.5614C75.9274 78.441 75.6606 78.5125 75.5391 78.7209C75.4186 78.9294 75.4901 79.1961 75.6991 79.3166L104.04 95.6791C104.109 95.7192 104.185 95.7379 104.259 95.7379Z" fill="black"/>
<path d="M99.5344 98.4653C99.6845 98.4653 99.8308 98.3873 99.9122 98.2476C100.033 98.0391 99.9612 97.7724 99.7522 97.6519L71.4123 81.2889C71.2088 81.1695 70.9399 81.2383 70.8161 81.4484C70.6957 81.6568 70.7672 81.9236 70.9762 82.044L99.316 98.4076C99.3848 98.4467 99.4607 98.4653 99.5344 98.4653Z" fill="black"/>
<path d="M94.8111 101.193C94.9613 101.193 95.1076 101.115 95.1896 100.975C95.31 100.767 95.2385 100.5 95.0295 100.38L66.6886 84.0171C66.4818 83.8972 66.2139 83.9687 66.0924 84.1766C65.9719 84.3851 66.0434 84.6518 66.2524 84.7723L94.5933 101.135C94.6615 101.174 94.7374 101.193 94.8111 101.193Z" fill="black"/>
<path d="M90.0875 103.92C90.2377 103.92 90.384 103.841 90.4659 103.702C90.5864 103.494 90.5149 103.227 90.3059 103.107L61.966 86.7436C61.7581 86.6237 61.4914 86.6957 61.3698 86.9031C61.2494 87.1115 61.3209 87.3783 61.5299 87.4987L89.8703 103.862C89.9374 103.901 90.0138 103.92 90.0875 103.92Z" fill="black"/>
<path d="M85.3639 106.648C85.514 106.648 85.6603 106.57 85.7423 106.43C85.8627 106.221 85.7912 105.955 85.5822 105.834L57.2407 89.4706C57.0328 89.3513 56.7661 89.4217 56.6445 89.6301C56.5241 89.8386 56.5956 90.1053 56.8046 90.2258L85.1455 106.589C85.2137 106.629 85.2896 106.648 85.3639 106.648Z" fill="black"/>
<path d="M80.6393 109.375C80.7894 109.375 80.9357 109.296 81.0177 109.157C81.1381 108.948 81.0666 108.682 80.8576 108.561L52.5161 92.198C52.3093 92.0787 52.0415 92.1496 51.9199 92.3575C51.7995 92.566 51.871 92.8327 52.08 92.9532L80.4215 109.316C80.4897 109.356 80.5656 109.375 80.6393 109.375Z" fill="black"/>
<path d="M75.9156 112.102C76.0658 112.102 76.2121 112.023 76.294 111.884C76.4145 111.676 76.343 111.409 76.134 111.289L47.7925 94.925C47.5846 94.8067 47.3178 94.8771 47.1963 95.0845C47.0758 95.2929 47.1473 95.5597 47.3563 95.6801L75.6978 112.043C75.766 112.083 75.8419 112.102 75.9156 112.102Z" fill="black"/>
</g>
<path opacity="0.1" d="M44.0216 96.1362L75.1588 115.503L75.1566 120.866L122.396 93.9021V88.1804L89.7255 69.3198L44.0216 96.1362Z" fill="black"/>
<path d="M128.949 87.4175L79.63 115.945V85.6949L128.95 57.167L128.949 87.4175Z" fill="#AAA6A6"/>
<path d="M45.4423 96.2062L79.6309 115.945V85.6946L45.4412 65.9551L45.4423 96.2062Z" fill="#AAA6A6"/>
<path d="M128.413 57.167L94.7597 37.7388L45.9769 65.956L79.6297 85.3853L128.413 57.167Z" fill="#F0ECEC"/>
<path d="M94.76 38.049L46.5129 65.956L79.6295 85.0757L127.878 57.1681L94.76 38.049ZM94.76 37.4292L128.95 57.1676L79.63 85.6955L45.4404 65.9566L94.76 37.4292Z" fill="#AAA6A6"/>
<path opacity="0.1" d="M103.249 82.1782L79.6315 95.8138L65.4607 87.6326L79.6315 96.6586L103.249 82.1782Z" fill="black"/>
<path opacity="0.1" d="M117.421 81.6182L79.6326 103.436L51.2911 87.0731L79.6326 104.261L117.421 81.6182Z" fill="black"/>
<path opacity="0.1" d="M124.207 68.3906C124.207 68.3906 124.988 72.8033 124.596 75.0363C124.596 75.0363 118.411 74.8839 107.973 77.7632L124.207 68.3906Z" fill="black"/>
<path d="M124.206 68.3906L107.973 77.7632L125.935 72.5778L124.206 68.3906Z" fill="#F0ECEC"/>
<path opacity="0.1" d="M103.249 94.5386L85.4516 110.902C85.4516 110.902 84.9577 108.652 81.5416 107.071L103.249 94.5386Z" fill="black"/>
<path d="M103.249 94.5386L86.5345 108.613L81.5416 107.071L103.249 94.5386Z" fill="#2F2E2E"/>
<path opacity="0.1" d="M51.1395 77.9853C51.2324 77.8418 51.2902 77.7637 51.2902 77.7637L62.5371 84.257L49.8778 83.2175C49.4422 80.8679 50.694 78.6734 51.1395 77.9853Z" fill="black"/>
<path d="M62.5371 84.257L51.2902 77.7637L47.5458 79.7387L62.5371 84.257Z" fill="#2F2E2E"/>
<g opacity="0.15">
<path d="M120.26 59.2697C120.411 59.2697 120.557 59.1916 120.639 59.0519C120.759 58.8435 120.688 58.5767 120.479 58.4563L92.1378 42.0927C91.9299 41.9744 91.6631 42.0437 91.5416 42.2522C91.4211 42.4606 91.4926 42.7274 91.7016 42.8478L120.043 59.2114C120.11 59.2516 120.187 59.2697 120.26 59.2697Z" fill="black"/>
<path d="M115.539 61.9968C115.689 61.9968 115.836 61.9181 115.917 61.7784C116.038 61.57 115.966 61.3032 115.757 61.1828L87.4161 44.8197C87.2093 44.7004 86.9414 44.7708 86.8199 44.9792C86.6994 45.1877 86.7709 45.4544 86.9799 45.5749L115.321 61.9379C115.389 61.9781 115.465 61.9968 115.539 61.9968Z" fill="black"/>
<path d="M110.815 64.7243C110.965 64.7243 111.111 64.6462 111.192 64.5065C111.313 64.298 111.241 64.0313 111.032 63.9108L82.6909 47.5478C82.483 47.4273 82.2163 47.4988 82.0947 47.7073C81.9743 47.9157 82.0458 48.1825 82.2548 48.3029L110.596 64.6654C110.664 64.7056 110.741 64.7243 110.815 64.7243Z" fill="black"/>
<path d="M106.091 67.4522C106.241 67.4522 106.387 67.3741 106.469 67.2344C106.589 67.026 106.518 66.7592 106.309 66.6388L77.969 50.2752C77.7655 50.1558 77.4965 50.2246 77.3727 50.4347C77.2523 50.6431 77.3238 50.9099 77.5328 51.0303L105.873 67.3934C105.941 67.4335 106.017 67.4522 106.091 67.4522Z" fill="black"/>
<path d="M101.368 70.1794C101.518 70.1794 101.664 70.1013 101.746 69.9616C101.867 69.7532 101.795 69.4864 101.586 69.366L73.2452 53.0035C73.0384 52.8836 72.7705 52.9551 72.649 53.163C72.5285 53.3714 72.6 53.6382 72.809 53.7586L101.15 70.1217C101.218 70.1607 101.294 70.1794 101.368 70.1794Z" fill="black"/>
<path d="M96.6432 72.9066C96.7928 72.9066 96.9396 72.8285 97.0216 72.6882C97.142 72.4798 97.0705 72.213 96.8615 72.0926L68.5211 55.7295C68.3132 55.6096 68.0465 55.6811 67.9249 55.889C67.8045 56.0975 67.876 56.3642 68.085 56.4847L96.4248 72.8477C96.493 72.8879 96.5689 72.9066 96.6432 72.9066Z" fill="black"/>
<path d="M91.9195 75.6341C92.0691 75.6341 92.216 75.5554 92.298 75.4157C92.4184 75.2073 92.3469 74.9405 92.1379 74.8201L63.7964 58.4565C63.5885 58.3371 63.3218 58.4075 63.2002 58.616C63.0798 58.8244 63.1512 59.0912 63.3602 59.2116L91.7017 75.5752C91.7699 75.6154 91.8458 75.6341 91.9195 75.6341Z" fill="black"/>
<path d="M87.1949 78.3614C87.3451 78.3614 87.4914 78.2827 87.5733 78.1436C87.6938 77.9351 87.6223 77.6684 87.4133 77.5479L59.0718 61.1849C58.865 61.0655 58.5971 61.1365 58.4756 61.3444C58.3551 61.5528 58.4266 61.8196 58.6357 61.94L86.9766 78.3031C87.0453 78.3427 87.1212 78.3614 87.1949 78.3614Z" fill="black"/>
<path d="M82.4733 81.0884C82.6234 81.0884 82.7697 81.0103 82.8517 80.87C82.9721 80.6616 82.9006 80.3948 82.6916 80.2743L54.3507 63.9113C54.1428 63.793 53.876 63.8634 53.7545 64.0708C53.634 64.2792 53.7055 64.546 53.9145 64.6664L82.256 81.0295C82.3231 81.0697 82.3996 81.0884 82.4733 81.0884Z" fill="black"/>
</g>
<path d="M158.496 37.7189L176.987 27.0429C177.009 27.0297 177.032 27.0165 177.055 27.0033L177.189 26.9257L177.191 26.9318C186.157 21.8536 198.487 22.6363 212.102 30.4969C239.504 46.3176 261.717 84.7918 261.717 116.432C261.717 132.154 256.228 143.224 247.348 148.449L247.352 148.454L247.217 148.532C247.195 148.544 247.173 148.557 247.151 148.57L228.658 159.246L225.504 150.945C221.145 149.874 216.546 148.01 211.784 145.261C184.383 129.441 162.17 90.9666 162.171 59.3262C162.171 53.8735 162.844 48.995 164.076 44.7105L158.496 37.7189Z" fill="#3AC7BA"/>
<path opacity="0.4" d="M158.496 37.7189L176.987 27.0429C177.009 27.0297 177.032 27.0165 177.055 27.0033L177.189 26.9257L177.191 26.9318C186.157 21.8536 198.487 22.6363 212.102 30.4969C239.504 46.3176 261.717 84.7918 261.717 116.432C261.717 132.154 256.228 143.224 247.348 148.449L247.352 148.454L247.217 148.532C247.195 148.544 247.173 148.557 247.151 148.57L228.658 159.246L225.504 150.945C221.145 149.874 216.546 148.01 211.784 145.261C184.383 129.441 162.17 90.9666 162.171 59.3262C162.171 53.8735 162.844 48.995 164.076 44.7105L158.496 37.7189Z" fill="#F0ECEC"/>
<path opacity="0.4" d="M261.282 108.697C261.558 111.309 261.717 113.894 261.717 116.432C261.717 132.154 256.228 143.225 247.347 148.449L247.351 148.454L247.216 148.532C247.194 148.545 247.172 148.557 247.15 148.57L228.657 159.246L225.503 150.945C224.473 150.692 223.427 150.387 222.371 150.044L217.682 133.87L261.282 108.697Z" fill="#3AC7BA"/>
<path d="M158.33 118.836C138.954 85.2776 138.954 49.0046 158.329 37.818C177.704 26.6314 209.118 44.7674 228.494 78.3259C247.869 111.884 247.869 148.157 228.494 159.344C209.119 170.531 177.705 152.395 158.33 118.836Z" fill="#3AC7BA"/>
<path opacity="0.6" d="M158.33 118.837C138.954 85.2781 138.954 49.005 158.329 37.8184C177.704 26.6319 209.118 44.7679 228.494 78.3263C247.869 111.885 247.869 148.158 228.494 159.344C209.119 170.531 177.705 152.395 158.33 118.837Z" fill="#F0ECEC"/>
<path d="M155.765 51.2594C161.917 40.6026 174.531 39.403 189.505 48.049C214.286 62.3562 235.22 98.6138 235.219 127.224C235.218 134.722 233.778 141.18 231.053 145.899C224.9 156.556 212.287 157.755 197.312 149.109C172.532 134.805 151.6 98.5478 151.599 69.9341C151.6 62.4365 153.04 55.9784 155.764 51.261C155.765 51.2594 155.765 51.2594 155.765 51.2594Z" fill="#3AC7BA"/>
<path d="M155.078 51.6556C162.049 40.5264 175.547 38.8159 191.187 47.0785C217.066 60.751 238 97.0086 236.9 126.254C236.611 133.918 234.827 140.574 231.74 145.503C224.769 156.632 211.27 158.342 195.631 150.08C169.753 136.411 148.82 100.154 149.918 70.9051C150.207 63.2408 151.991 56.5847 155.078 51.6578C155.078 51.6556 155.078 51.6556 155.078 51.6556Z" fill="#3AC7BA"/>
<path opacity="0.4" d="M155.078 51.6556C162.049 40.5264 175.547 38.8159 191.187 47.0785C217.066 60.751 238 97.0086 236.9 126.254C236.611 133.918 234.827 140.574 231.74 145.503C224.769 156.632 211.27 158.342 195.631 150.08C169.753 136.411 148.82 100.154 149.918 70.9051C150.207 63.2408 151.991 56.5847 155.078 51.6578C155.078 51.6556 155.078 51.6556 155.078 51.6556Z" fill="#F0ECEC"/>
<path d="M200.671 147.247C210.629 152.508 219.71 153.708 226.799 151.026C228.679 149.559 230.345 147.728 231.738 145.503C234.826 140.574 236.609 133.918 236.898 126.254C237.999 97.0084 217.064 60.7507 191.185 47.0783C181.226 41.8175 172.146 40.6163 165.056 43.2992C163.176 44.7666 161.511 46.5976 160.117 48.8223C160.117 48.8223 160.117 48.8224 160.116 48.8246C157.03 53.7515 155.246 60.4081 154.957 68.0718C153.86 97.3203 174.792 133.578 200.671 147.247Z" fill="#2F2E2E"/>
<path opacity="0.3" d="M193.282 98.5798L220.646 96.7384C213.988 83.7326 205.759 73.9151 195.928 67.3486L193.282 98.5798Z" fill="#3AC7BA"/>
<path d="M196.449 54.2845C197.026 54.6211 197.494 55.4753 197.494 56.1925L197.5 61.5676C197.5 62.2848 197.032 62.5928 196.454 62.2557C195.877 61.9191 195.409 61.0649 195.409 60.3477L195.403 54.9726C195.404 54.2559 195.872 53.9474 196.449 54.2845Z" fill="#3AC7BA"/>
<path d="M160.8 74.866C160.803 75.5343 161.309 76.367 161.93 76.725L166.582 79.4173C167.203 79.7759 167.704 79.5245 167.701 78.8563C167.698 78.188 167.192 77.3553 166.571 76.9973L161.919 74.305C161.299 73.9464 160.798 74.1978 160.8 74.866Z" fill="#3AC7BA"/>
<path d="M233.401 118.291C233.398 117.623 232.893 116.79 232.272 116.432L227.619 113.74C226.998 113.381 226.497 113.632 226.501 114.301C226.504 114.969 227.009 115.802 227.63 116.16L232.283 118.852C232.903 119.21 233.404 118.959 233.401 118.291Z" fill="#3AC7BA"/>
<path d="M197.754 138.872C197.176 138.535 196.708 137.682 196.709 136.965L196.703 131.589C196.703 130.872 197.171 130.564 197.749 130.901C198.326 131.238 198.794 132.092 198.794 132.809L198.8 138.184C198.799 138.901 198.331 139.209 197.754 138.872Z" fill="#3AC7BA"/>
<path d="M194.341 100.518L220.647 96.7388H192.278L194.341 100.518Z" fill="#3AC7BA"/>
<path d="M193.331 67.8546C193.331 67.8546 190.894 90.4546 190.138 95.6945C190.065 95.9711 190.023 96.2791 190.023 96.6245C190.023 98.7844 191.539 101.411 193.41 102.491C194.345 103.031 195.191 103.082 195.804 102.727C196.116 102.547 197.307 101.852 197.615 101.681C198.241 101.333 198.629 100.57 198.629 99.4768C198.937 94.0659 196.928 68.068 196.928 68.068L195.163 66.7964L193.331 67.8546Z" fill="#37474F"/>
<path d="M190.022 96.6249C190.022 98.7847 191.539 101.412 193.409 102.491C195.28 103.571 196.796 102.696 196.796 100.536C197.104 95.125 195.095 69.1271 195.095 69.1271L193.33 67.8555C193.33 67.8555 190.029 94.4557 190.022 96.6249Z" fill="#455A64"/>
<path d="M191.879 97.6956C191.879 98.6718 192.564 99.8593 193.41 100.347C194.256 100.836 194.941 100.44 194.941 99.4633C194.941 98.487 194.256 97.2996 193.41 96.8117C192.564 96.3233 191.879 96.7193 191.879 97.6956Z" fill="#263238"/>
<path d="M166.047 95.6295L171.494 96.2852L171.44 96.7384L165.992 96.0827L166.047 95.6295Z" fill="#37474F"/>
<path d="M184.153 118.775L184.573 118.954L182.417 124L181.998 123.82L184.153 118.775Z" fill="#37474F"/>
<path d="M211.594 69.3328L212.014 69.5122L209.858 74.5579L209.438 74.3785L211.594 69.3328Z" fill="#37474F"/>
<path d="M222.583 96.585L228.03 97.2412L227.976 97.6944L222.528 97.0382L222.583 96.585Z" fill="#37474F"/>
<path d="M162.375 58.52L167.268 64.0059L166.926 64.3101L162.034 58.8242L162.375 58.52Z" fill="#37474F"/>
<path d="M181.93 47.3259L184.239 54.3042L183.805 54.4478L181.496 47.4695L181.93 47.3259Z" fill="#37474F"/>
<path d="M210.423 138.757L212.732 145.735L212.298 145.879L209.989 138.901L210.423 138.757Z" fill="#37474F"/>
<path d="M227.313 128.914L232.205 134.399L231.864 134.704L226.972 129.218L227.313 128.914Z" fill="#37474F"/>
<path d="M197.556 24.184C197.556 23.6862 197.886 23.1879 198.543 22.8079C199.859 22.0478 201.994 22.0478 203.31 22.8079C203.968 23.1879 204.297 23.6857 204.297 24.184C204.297 24.4177 204.297 36.8741 204.297 37.1079C204.297 37.6056 203.968 38.1039 203.31 38.484C201.993 39.2441 199.859 39.2441 198.543 38.484C197.886 38.1039 197.556 37.6062 197.556 37.1079C197.556 36.8736 197.556 24.4177 197.556 24.184Z" fill="#455A64"/>
<path d="M203.31 25.5596C203.968 25.1795 204.297 24.6818 204.297 24.1835C204.297 23.6857 203.968 23.1874 203.31 22.8074C201.993 22.0473 199.859 22.0473 198.543 22.8074C197.885 23.1874 197.556 23.6852 197.556 24.1835C197.556 24.6812 197.884 25.1795 198.543 25.5596C199.859 26.3197 201.993 26.3197 203.31 25.5596Z" fill="#37474F"/>
<path d="M191.298 16.2776C191.298 14.8553 192.238 13.4336 194.117 12.3484C197.876 10.1781 203.969 10.1781 207.727 12.3484C209.606 13.4336 210.546 14.8553 210.546 16.2776C210.546 16.9448 210.546 27.3975 210.546 28.0652C210.546 29.487 209.606 30.9093 207.727 31.9939C203.969 34.1642 197.875 34.1642 194.117 31.9939C192.238 30.9093 191.298 29.487 191.298 28.0647C191.298 27.3975 191.298 16.9448 191.298 16.2776Z" fill="#3AC7BA"/>
<path opacity="0.3" d="M207.728 20.2064C209.607 19.1213 210.547 17.6995 210.547 16.2772C210.547 14.8549 209.607 13.4332 207.728 12.348C203.969 10.1783 197.876 10.1783 194.117 12.348C192.238 13.4332 191.299 14.8549 191.299 16.2772C191.299 17.6995 192.238 19.1213 194.117 20.2064C197.876 22.3767 203.969 22.3767 207.728 20.2064Z" fill="#F0ECEC"/>
<path opacity="0.2" d="M207.309 20.4173V32.195C207.041 32.3292 206.756 32.4629 206.471 32.5806V20.8029C206.756 20.6852 207.041 20.568 207.309 20.4173ZM204.361 21.4563V33.2505C204.093 33.3005 203.808 33.3511 203.523 33.3847V21.607C203.808 21.5734 204.093 21.5228 204.361 21.4563ZM209.654 18.5913V30.369C209.42 30.6704 209.135 30.9553 208.817 31.2232V19.4455C209.152 19.1776 209.437 18.8927 209.654 18.5913ZM195.481 20.8529V32.6306C195.18 32.5135 194.912 32.3793 194.644 32.2451V20.4674C194.912 20.6186 195.196 20.7358 195.481 20.8529ZM193.136 19.5296V31.3073C192.818 31.0395 192.533 30.7711 192.298 30.4862V18.742C192.533 19.0269 192.818 19.2948 193.136 19.5296ZM198.43 21.6235V33.4012C198.145 33.3676 197.86 33.3176 197.592 33.267V21.4728C197.877 21.5399 198.145 21.5899 198.43 21.6235ZM201.345 21.8077V33.6019H200.507V21.8077C200.792 21.8413 201.06 21.8413 201.345 21.8077Z" fill="black"/>
<path d="M236.002 52.7735C236.381 52.4512 236.974 52.3802 237.69 52.636C239.121 53.148 240.502 54.7749 240.773 56.2704C240.909 57.0184 240.743 57.5915 240.363 57.9132C240.185 58.0645 230.687 66.1236 230.509 66.2749C230.129 66.5972 229.536 66.6681 228.821 66.4124C227.39 65.9009 226.009 64.2734 225.737 62.778C225.601 62.0305 225.768 61.4574 226.147 61.1351C226.326 60.9839 235.823 52.9247 236.002 52.7735Z" fill="#455A64"/>
<path d="M238.675 58.0507C239.391 58.3065 239.983 58.2355 240.363 57.9132C240.742 57.5909 240.91 57.0178 240.773 56.2704C240.501 54.7749 239.121 53.148 237.689 52.636C236.974 52.3802 236.382 52.4512 236.001 52.7735C235.621 53.0958 235.455 53.6689 235.591 54.4163C235.863 55.9118 237.244 57.5392 238.675 58.0507Z" fill="#37474F"/>
<path d="M236.654 48.0844C237.387 47.4623 238.532 47.3248 239.914 47.8187C242.678 48.8071 245.344 51.9498 245.869 54.8373C246.132 56.281 245.81 57.3882 245.077 58.0102C244.732 58.3023 239.342 62.8761 238.998 63.1681C238.265 63.7902 237.12 63.9282 235.739 63.4338C232.976 62.4454 230.309 59.3027 229.783 56.4152C229.521 54.9715 229.843 53.8649 230.576 53.2423C230.92 52.9502 236.31 48.3764 236.654 48.0844Z" fill="#3AC7BA"/>
<path opacity="0.3" d="M241.817 58.2766C243.199 58.7711 244.344 58.633 245.077 58.011C245.81 57.3889 246.132 56.2818 245.869 54.838C245.343 51.9505 242.677 48.8078 239.913 47.8195C238.532 47.325 237.387 47.4631 236.653 48.0851C235.92 48.7072 235.598 49.8143 235.861 51.2581C236.387 54.1456 239.054 57.2877 241.817 58.2766Z" fill="#F0ECEC"/>
<path opacity="0.2" d="M241.525 58.152L235.452 63.3055C235.265 63.2258 235.072 63.1378 234.886 63.0421L240.96 57.8886C241.145 57.9843 241.33 58.08 241.525 58.152ZM239.699 57.0861L233.617 62.2468C233.474 62.1307 233.324 62.0059 233.182 61.8733L239.255 56.7198C239.397 56.8524 239.547 56.9772 239.699 57.0861ZM243.493 58.5623L237.42 63.7158C237.162 63.7268 236.89 63.7043 236.612 63.6575L242.686 58.504C242.971 58.5601 243.242 58.5821 243.493 58.5623ZM236.125 52.2434L230.051 57.3969C229.98 57.1901 229.932 56.9932 229.883 56.7963L235.957 51.6428C235.997 51.8474 236.061 52.0454 236.125 52.2434ZM235.781 50.4548L229.707 55.6083C229.706 55.3267 229.72 55.0627 229.764 54.8174L235.82 49.6787C235.777 49.924 235.763 50.188 235.781 50.4548ZM237.018 54.1013L230.944 59.2548C230.837 59.0931 230.738 58.9242 230.647 58.7642L236.729 53.603C236.819 53.7795 236.91 53.9396 237.018 54.1013ZM238.198 55.6847L232.116 60.8454L231.75 60.4136L237.832 55.253C237.939 55.4147 238.056 55.5527 238.198 55.6847Z" fill="black"/>
<path d="M170.123 30.9909L164.318 34.3423L161.609 29.6488L167.413 26.2974L170.123 30.9909Z" fill="#455A64"/>
<path d="M165.329 18.2908L155.666 23.8694C155.19 24.1444 155.027 24.7533 155.302 25.229L158.294 30.4128C158.569 30.8891 159.178 31.0519 159.655 30.7774L169.317 25.1988C169.794 24.9238 169.957 24.3149 169.682 23.8392L166.69 18.6554C166.415 18.1791 165.806 18.0158 165.329 18.2908Z" fill="#3AC7BA"/>
<path opacity="0.2" d="M159.035 21.9291L163.023 28.8369L162.533 29.1202L158.545 22.2124L159.035 21.9291Z" fill="black"/>
<path opacity="0.2" d="M155.463 24.0316L159.413 30.8731C159.496 30.8511 159.578 30.8219 159.656 30.7768L159.923 30.6228L155.935 23.7148L155.668 23.8688C155.59 23.9145 155.523 23.9711 155.463 24.0316Z" fill="black"/>
<path opacity="0.2" d="M157.306 22.9282L161.294 29.8359L160.803 30.1192L156.815 23.2114L157.306 22.9282Z" fill="black"/>
<path opacity="0.2" d="M169.568 24.9876L165.638 18.1797C165.533 18.2 165.429 18.2336 165.331 18.2902L165.119 18.4123L169.107 25.3203L169.319 25.1982C169.417 25.1421 169.498 25.0684 169.568 24.9876Z" fill="black"/>
<path opacity="0.2" d="M160.804 20.9057L164.792 27.8135L164.301 28.0967L160.313 21.1889L160.804 20.9057Z" fill="black"/>
<path opacity="0.2" d="M164.239 18.9228L168.228 25.8306L167.737 26.1138L163.749 19.206L164.239 18.9228Z" fill="black"/>
<path opacity="0.2" d="M162.512 19.9199L166.5 26.8276L166.009 27.1109L162.021 20.2031L162.512 19.9199Z" fill="black"/>
<path d="M124.251 176.578L119.803 178.662L115.378 180.78L106.565 185.068L97.8029 189.432L93.4396 191.641L89.1002 193.884L93.548 191.801L97.9727 189.683L106.786 185.394L115.547 181.029L119.911 178.821L124.251 176.578Z" fill="#E0E0E0"/>
<path d="M117.087 185.401C116.089 185.843 115.106 186.307 114.115 186.759L111.166 188.151C109.203 189.082 107.259 190.043 105.304 190.987C103.368 191.958 101.421 192.915 99.4937 193.899L96.6062 195.382C95.6518 195.889 94.6901 196.383 93.7424 196.9C94.7402 196.458 95.7237 195.994 96.7147 195.542L99.664 194.15C101.627 193.218 103.571 192.259 105.525 191.313C107.462 190.341 109.409 189.386 111.336 188.401L114.223 186.918C115.177 186.412 116.139 185.917 117.087 185.401Z" fill="#E0E0E0"/>
<path d="M135.216 162.73L138.864 160.868C141.3 159.632 143.754 158.423 146.198 157.199C148.66 156.002 150.001 155.338 152.472 154.154L155.102 152.9V153.149L152.642 154.404C150.207 155.641 148.863 156.301 146.419 157.525C143.958 158.722 141.505 159.934 139.035 161.119L135.324 162.889C134.079 163.468 132.842 164.057 131.591 164.625C132.792 163.983 134.008 163.362 135.216 162.73Z" fill="#E0E0E0"/>
<path d="M153.862 158.922C153.208 159.198 152.567 159.494 151.919 159.78L150 160.673C148.72 161.268 147.458 161.889 146.196 162.51C144.939 163.139 143.683 163.768 142.444 164.423L140.586 165.406C139.975 165.746 139.356 166.074 138.752 166.424C139.407 166.148 140.047 165.851 140.695 165.566L142.615 164.673C143.895 164.078 145.157 163.457 146.419 162.836C147.675 162.206 148.931 161.577 150.17 160.922L152.028 159.939C152.639 159.6 153.258 159.271 153.862 158.922Z" fill="#E0E0E0"/>
<path d="M41.0235 70.5776L52.6246 72.6638L51.0296 76.4241L60.2861 77.9311L46.7655 79.0344L48.9396 74.4733L41.0235 70.5776Z" fill="#3AC7BA"/>
<path d="M49.4585 50.5444L60.8056 63.6922L56.8841 65.5781L61.5635 73.524L52.1596 64.3175L56.1069 61.8557L49.4585 50.5444Z" fill="#3AC7BA"/>
<path opacity="0.65" d="M49.4585 50.5444L60.8056 63.6922L56.8841 65.5781L61.5635 73.524L52.1596 64.3175L56.1069 61.8557L49.4585 50.5444Z" fill="#F0ECEC"/>
</svg>
