<svg width="104" height="232" viewBox="0 0 104 232" fill="none" xmlns="http://www.w3.org/2000/svg">
<g id="Clipboard" opacity="0.5">
<g id="Board_00000043436751827063725590000014950621575217693880_">
<g id="Window_16_">
<path id="Vector" d="M94.9408 0.418972L1.74377 54.2386C0.780692 54.7946 0.000488281 56.1478 0.000488281 57.2608V228.369C0.000488281 229.482 0.782337 230.833 1.74705 231.385L2.10129 231.588C3.06601 232.14 4.62861 232.137 5.59114 231.58L98.7898 177.691C99.7523 177.134 100.533 175.78 100.533 174.667V3.63144C100.533 2.5184 99.7507 1.16794 98.786 0.615262L98.4317 0.412941C97.4665 -0.139741 95.9039 -0.137548 94.9408 0.418972Z" fill="#188983"/>
<path id="Vector_2" opacity="0.45" d="M94.9408 0.418972L1.74377 54.2386C0.780692 54.7946 0.000488281 56.1478 0.000488281 57.2608V228.369C0.000488281 229.482 0.782337 230.833 1.74705 231.385L2.10129 231.588C3.06601 232.14 4.62861 232.137 5.59114 231.58L98.7898 177.691C99.7523 177.134 100.533 175.78 100.533 174.667V3.63144C100.533 2.5184 99.7507 1.16794 98.786 0.615262L98.4317 0.412941C97.4665 -0.139741 95.9039 -0.137548 94.9408 0.418972Z" fill="black"/>
<g id="XMLID_00000111171270640543197070000000991487099271001764_">
<path id="Vector_3" d="M100.531 174.793C100.531 176.327 99.4554 177.305 98.1228 178.073L6.25622 231.186C4.93015 231.953 3.84717 231.333 3.84717 229.792V60.2229C3.84717 58.5067 4.76152 56.9211 6.24528 56.0624L98.1206 2.92709C99.1921 2.30751 100.532 3.0817 100.532 4.32085V174.793H100.531Z" fill="#188983"/>
</g>
<path id="XMLID_00000000911366107835880820000009670309326150020275_" opacity="0.3" d="M100.532 174.793C100.532 176.327 99.4564 177.305 98.1238 178.073L6.2572 231.186C4.93112 231.953 3.84814 231.333 3.84814 229.792V60.2229C3.84814 58.5067 4.76249 56.9211 6.24625 56.0624L98.1216 2.92709C99.193 2.30751 100.533 3.0817 100.533 4.32085V174.793H100.532Z" fill="black"/>
<path id="Vector_4" d="M100.534 3.63303V4.3184C100.534 3.08199 99.1917 2.30944 98.1186 2.92792L6.24599 56.0649C5.50138 56.4882 4.90404 57.0995 4.49505 57.8184C4.48191 57.8386 4.47479 57.8518 4.46822 57.8721L0.492188 55.5725C0.814125 55.0149 1.25049 54.5242 1.74654 54.2424L94.9414 0.420016C95.9072 -0.137601 97.4703 -0.137602 98.4296 0.413435L98.7827 0.617401C99.7491 1.16734 100.534 2.5178 100.534 3.63303Z" fill="#188983"/>
<path id="Vector_5" opacity="0.2" d="M100.534 3.63303V4.3184C100.534 3.08199 99.1917 2.30944 98.1186 2.92792L6.24599 56.0649C5.50138 56.4882 4.90404 57.0995 4.49505 57.8184C4.48191 57.8386 4.47479 57.8518 4.46822 57.8721L0.492188 55.5725C0.814125 55.0149 1.25049 54.5242 1.74654 54.2424L94.9414 0.420016C95.9072 -0.137601 97.4703 -0.137602 98.4296 0.413435L98.7827 0.617401C99.7491 1.16734 100.534 2.5178 100.534 3.63303Z" fill="black"/>
</g>
</g>
<path id="Shadow_32_" opacity="0.25" d="M98.2591 167.725C98.2591 169.305 97.1515 170.313 95.7778 171.103L8.95056 221.304C7.58507 222.094 6.46924 221.456 6.46924 219.868V69.1218C6.46924 67.3541 7.41096 65.7207 8.93907 64.8368L95.7756 14.6124C96.8794 13.9742 98.2591 14.7714 98.2591 16.0478V17.8934V167.725Z" fill="black"/>
<g id="Form">
<g id="Paper">
<path id="XMLID_1287_" d="M8.69342 66.7174L95.2042 16.6997C95.6132 16.4634 96.2762 16.4634 96.6852 16.6997L97.5196 17.1822C97.9286 17.4185 98.2604 17.9937 98.2604 18.4663V169.914C98.2604 170.387 97.9286 170.962 97.5202 171.198L11.0105 221.216C10.6015 221.453 9.93846 221.453 9.52947 221.216L8.69342 220.733C8.28443 220.496 7.95264 219.921 7.95264 219.448V68.0021C7.95264 67.5289 8.28443 66.9543 8.69342 66.7174Z" fill="#F5F5F5"/>
<path id="XMLID_965_" d="M10.8334 221.297C10.748 221.331 10.6566 221.354 10.5597 221.371C10.5142 221.377 10.4627 221.383 10.4173 221.388C10.2689 221.4 10.1151 221.394 9.96725 221.371C9.87034 221.354 9.7789 221.331 9.69349 221.297C9.63655 221.274 9.57961 221.245 9.52814 221.217L8.69592 220.737C8.28529 220.498 7.95459 219.927 7.95459 219.453V68.0072C7.95459 67.7676 8.03453 67.505 8.17141 67.2764L10.4857 68.612C10.3549 68.8461 10.2695 69.1088 10.2695 69.3429V220.789C10.2695 221.194 10.5087 221.394 10.8334 221.297Z" fill="#E0E0E0"/>
<g id="Group">
<g id="Group_2">
<path id="Vector_6" d="M97.5221 17.1812L96.6877 16.6987C96.2787 16.4624 95.6157 16.4624 95.2067 16.6987L8.69537 66.717C8.28638 66.9533 7.95459 67.5285 7.95459 68.0017V77.3539L10.2711 78.7017L98.2618 27.8275V18.4653C98.2624 17.9927 97.9306 17.4175 97.5221 17.1812Z" fill="#188983"/>
<path id="Vector_7" opacity="0.4" d="M97.5221 17.1812L96.6877 16.6987C96.2787 16.4624 95.6157 16.4624 95.2067 16.6987L8.69537 66.717C8.28638 66.9533 7.95459 67.5285 7.95459 68.0017V77.3539L10.2711 78.7017L98.2618 27.8275V18.4653C98.2624 17.9927 97.9306 17.4175 97.5221 17.1812Z" fill="white"/>
</g>
<g id="Group_3">
<path id="XMLID_961_" d="M98.2343 18.2415C98.1429 17.9388 97.8582 17.8418 97.522 18.0359L11.0112 68.0552C10.8059 68.1753 10.6176 68.3749 10.4867 68.609L8.17236 67.2734C8.30322 67.0392 8.49156 66.8336 8.69688 66.7196L95.2077 16.7002C95.6123 16.4606 96.2797 16.4606 96.6843 16.7002L97.5225 17.18C97.8697 17.3856 98.1604 17.8248 98.2343 18.2415Z" fill="#188983"/>
<path id="XMLID_00000173852306930367634640000017539501489570949538_" opacity="0.6" d="M98.2343 18.2415C98.1429 17.9388 97.8582 17.8418 97.522 18.0359L11.0112 68.0552C10.8059 68.1753 10.6176 68.3749 10.4867 68.609L8.17236 67.2734C8.30322 67.0392 8.49156 66.8336 8.69688 66.7196L95.2077 16.7002C95.6123 16.4606 96.2797 16.4606 96.6843 16.7002L97.5225 17.18C97.8697 17.3856 98.1604 17.8248 98.2343 18.2415Z" fill="white"/>
</g>
<path id="Vector_8" d="M7.95654 68.0043V77.3643L10.2709 78.7021V69.34C10.2709 69.1058 10.3563 68.8432 10.4871 68.6091L8.17281 67.2734C8.03648 67.5015 7.95654 67.7642 7.95654 68.0043Z" fill="#188983"/>
</g>
</g>
</g>
<g id="Clip">
<g id="Shadow_31_" opacity="0.25">
<path id="Vector_9" d="M78.2465 22.9617V30.4092C78.2465 32.2959 76.9604 34.5214 75.3299 35.4645L60.9342 43.7855C60.2219 44.1967 59.8172 45.0191 59.3885 45.8838C59.0748 46.5187 58.7485 47.1717 58.2776 47.7041C57.1602 48.974 54.721 50.2981 52.9996 50.8486C52.4198 51.0361 51.84 51.1694 51.2728 51.2478C51.0554 51.2839 50.814 51.3141 50.5665 51.3448C48.9962 51.5564 47.0399 51.8224 45.8929 52.488L29.0454 62.2241C28.5384 62.5202 28.0369 62.6655 27.5781 62.6655C27.2216 62.6655 26.8899 62.581 26.5936 62.4116C25.9054 62.0124 25.5249 61.2202 25.5249 60.1921V52.7446C25.5249 50.8579 26.805 48.6324 28.4415 47.6893L34.0995 44.4176C34.1236 44.4056 34.1477 44.3935 34.1778 44.3875C34.4494 44.2663 34.7697 44.3754 34.9268 44.6413C35.0779 44.9012 35.0056 45.2401 34.7702 45.4095C34.7521 45.4336 34.728 45.4517 34.704 45.4638L29.046 48.7355C27.796 49.4614 26.7333 51.2993 26.7333 52.7446V60.1921C26.7333 60.7667 26.9024 61.19 27.1981 61.3594C27.4938 61.5349 27.9471 61.4625 28.442 61.1779L45.2896 51.4358C46.6419 50.6556 48.7318 50.3716 50.4039 50.1479C50.6513 50.1177 50.8873 50.0815 51.1041 50.0508C51.5991 49.9785 52.1187 49.8633 52.6377 49.6939C54.1653 49.2103 56.4358 47.9706 57.3721 46.9064C57.7405 46.4951 58.0121 45.9326 58.3078 45.3465C58.7967 44.3546 59.3042 43.3326 60.3308 42.7399L74.7271 34.4189C75.9771 33.6935 77.0398 31.8551 77.0398 30.4098V22.9617C77.0398 22.3931 76.8706 21.9638 76.575 21.7944C76.2793 21.619 75.8199 21.6913 75.331 21.9759L70.4275 24.8122C70.2643 24.4432 70.053 24.0868 69.8115 23.7721L74.7271 20.9297C75.6146 20.41 76.4901 20.3491 77.1789 20.7422C77.866 21.1414 78.2465 21.9337 78.2465 22.9617Z" fill="black"/>
</g>
<g id="Clip_1_">
<g id="Group_4">
<g id="Group_5">
<path id="Vector_10" d="M67.7462 23.0998L67.7467 23.1009C68.1344 22.8729 68.6715 22.9025 69.2661 23.2462C70.4476 23.9294 71.4057 25.5913 71.4057 26.9577C71.4057 27.6452 71.1627 28.1261 70.7712 28.3481L70.7717 28.3492L36.6174 48.0999L33.5918 42.8506L67.7462 23.0998Z" fill="#37474F"/>
</g>
<path id="Vector_11" d="M35.1133 45.4863L70.7871 24.8572C70.3994 24.1806 69.8623 23.589 69.2677 23.2452C69.1971 23.2041 69.1303 23.1822 69.0613 23.1504L33.9438 43.4576L35.1133 45.4863Z" fill="#455A64"/>
<path id="Vector_12" d="M35.1123 42.9967C33.9308 42.3136 32.9727 42.8673 32.9727 44.2337C32.9727 45.6 33.9308 47.2619 35.1123 47.9451C36.2939 48.6283 37.252 48.0745 37.252 46.7081C37.252 45.3418 36.2939 43.6799 35.1123 42.9967Z" fill="#263238"/>
</g>
<g id="Group_6">
<path id="Vector_13" d="M78.8559 23.4922V30.9397C78.8559 32.8264 77.5698 35.0519 75.9393 35.995L61.5435 44.3159C60.8312 44.7271 60.4266 45.5496 59.9974 46.4142C59.6836 47.0492 59.3573 47.7022 58.8865 48.2346C57.7695 49.5044 55.3298 50.8286 53.609 51.379C53.0292 51.5666 52.4494 51.6998 51.8821 51.7782C51.6648 51.8144 51.4233 51.8446 51.1758 51.8753C49.6056 52.0869 47.6493 52.3528 46.5023 53.0179L29.6548 62.754C29.1478 63.0501 28.6463 63.1954 28.1874 63.1954C27.831 63.1954 27.4992 63.1109 27.203 62.9415C26.5148 62.5423 26.1343 61.7501 26.1343 60.722V53.2745C26.1343 51.3878 27.4144 49.1623 29.0509 48.2192L34.7089 44.9475C34.733 44.9355 34.757 44.9234 34.7872 44.9174C35.0587 44.7962 35.379 44.9053 35.5356 45.1712C35.6867 45.4311 35.6145 45.77 35.3785 45.9394C35.3604 45.9635 35.3363 45.9816 35.3122 45.9937L29.6542 49.2654C28.4043 49.9913 27.3415 51.8292 27.3415 53.2745V60.722C27.3415 61.2966 27.5107 61.7199 27.8064 61.8893C28.102 62.0648 28.5554 61.9924 29.0503 61.7078L45.8978 51.9657C47.2502 51.1855 49.3395 50.9015 51.0127 50.6778C51.2602 50.6476 51.4956 50.6109 51.713 50.5807C52.2079 50.5084 52.7275 50.3932 53.2465 50.2238C54.7741 49.7402 57.0446 48.5005 57.9809 47.4363C58.3494 47.025 58.6209 46.4625 58.9166 45.8764C59.4055 44.8845 59.9131 43.8625 60.9396 43.2698L75.3354 34.9488C76.5854 34.2234 77.6481 32.385 77.6481 30.9397V23.4922C77.6481 22.9236 77.4789 22.4943 77.1832 22.3249C76.8876 22.1494 76.4282 22.2223 75.9393 22.5063L71.0358 25.3427C70.8726 24.9737 70.6613 24.6173 70.4198 24.3026L75.3354 21.4602C76.2229 20.9399 77.0989 20.8795 77.7871 21.2727C78.4754 21.6718 78.8559 22.4641 78.8559 23.4922Z" fill="#455A64"/>
</g>
</g>
</g>
<g id="Group_7">
<g id="Group_8">
<g id="Image">
<g id="Group_9" opacity="0.2">
<path id="Vector_14" d="M17.0425 95.8888L99.2652 48.3291C99.6124 48.1284 99.8932 48.2913 99.8932 48.6926V68.3413C99.8932 68.7427 99.6118 69.2307 99.2652 69.4308L17.0425 116.991C16.6954 117.191 16.4146 117.028 16.4146 116.628V96.9788C16.414 96.5775 16.6954 96.0895 17.0425 95.8888Z" fill="black"/>
</g>
<g id="XMLID_3827_">
<path id="XMLID_00000058565216822914025640000003909829283754977468_" d="M103.63 50.9304C103.435 50.8432 103.174 50.869 102.892 51.0329L21.6221 98.0416C21.0127 98.3958 20.5156 99.2577 20.5156 99.9656V118.596C20.5156 118.934 20.6284 119.181 20.8178 119.304C20.6284 119.181 18.953 118.232 18.7482 118.109C18.5533 117.991 18.4307 117.745 18.4307 117.395V98.7648C18.4307 98.057 18.9278 97.1951 19.5421 96.8409L100.807 49.8272C101.119 49.6479 101.401 49.6375 101.601 49.7554C101.78 49.8629 103.235 50.6892 103.63 50.9304Z" fill="#188983"/>
<g id="XMLID_3828_" opacity="0.2">
<path id="Vector_15" d="M103.63 50.9306C103.235 50.6893 101.78 49.8636 101.601 49.7556C101.401 49.6377 101.119 49.6476 100.807 49.8274L19.5425 96.841C19.2358 97.0176 18.9583 97.3208 18.7573 97.6684L20.8401 98.8725C21.0405 98.5238 21.3175 98.2189 21.6225 98.0418L102.892 51.0331C103.174 50.8686 103.435 50.8434 103.63 50.9306Z" fill="white"/>
</g>
<g id="Group_10">
<path id="XMLID_3830_" d="M21.6224 98.0428L102.89 51.0335C103.502 50.6793 103.999 50.9666 103.999 51.675V70.3067C103.999 71.0151 103.502 71.8764 102.89 72.2306L21.6224 119.24C21.0098 119.594 20.5132 119.307 20.5132 118.598V99.9673C20.5132 99.2583 21.0098 98.397 21.6224 98.0428Z" fill="#FAFAFA"/>
</g>
<path id="XMLID_3829_" d="M20.8398 98.873L18.757 97.6689C18.555 98.0177 18.4302 98.4113 18.4302 98.7655V117.397C18.4302 117.745 18.5534 117.992 18.7477 118.11C18.9525 118.233 20.6279 119.182 20.8173 119.305C20.6279 119.182 20.5151 118.936 20.5151 118.597V99.9663C20.5156 99.6127 20.6399 99.2206 20.8398 98.873Z" fill="#188983"/>
<path id="XMLID_00000013194044898479972820000017584842303494603962_" opacity="0.15" d="M20.8398 98.873L18.757 97.6689C18.555 98.0177 18.4302 98.4113 18.4302 98.7655V117.397C18.4302 117.745 18.5534 117.992 18.7477 118.11C18.9525 118.233 20.6279 119.182 20.8173 119.305C20.6279 119.182 20.5151 118.936 20.5151 118.597V99.9663C20.5156 99.6127 20.6399 99.2206 20.8398 98.873Z" fill="black"/>
</g>
<path id="XMLID_3824_" d="M103.386 51.395C103.484 51.395 103.487 51.6462 103.487 51.6752V70.3069C103.487 70.8321 103.088 71.5235 102.634 71.7867L21.3667 118.796C21.2375 118.871 21.1564 118.879 21.1274 118.879C21.0289 118.879 21.0261 118.628 21.0261 118.599V99.9675C21.0261 99.4422 21.4247 98.7503 21.8792 98.4876L103.146 51.4784C103.276 51.4033 103.357 51.395 103.386 51.395ZM103.386 50.8818C103.237 50.8818 103.068 50.9306 102.89 51.0337L21.6229 98.043C21.0103 98.3972 20.5137 99.2585 20.5137 99.9669V118.598C20.5137 119.1 20.7633 119.391 21.1274 119.391C21.2764 119.391 21.445 119.342 21.6229 119.239L102.89 72.2297C103.503 71.8755 103.999 71.0142 103.999 70.3058V51.6741C103.999 51.1724 103.749 50.8818 103.386 50.8818Z" fill="#188983"/>
</g>
<g id="Group_11">
<g id="Group_12">
<path id="Vector_16" d="M36.1698 96.4328C37.2741 97.071 37.9569 98.4401 37.9569 100.389C37.9569 104.285 35.2248 109.024 31.8554 110.972C30.1707 111.946 28.6453 112.038 27.541 111.4C26.8703 111.013 26.2658 110.663 25.5957 110.276C24.4913 109.637 23.8086 108.268 23.8086 106.32C23.8086 102.423 26.5407 97.6845 29.9106 95.7359C31.5953 94.7616 33.1207 94.6695 34.225 95.3082C34.8952 95.6959 35.4996 96.0451 36.1698 96.4328Z" fill="#188983"/>
<path id="Vector_17" opacity="0.2" d="M36.1698 96.4328C37.2741 97.071 37.9569 98.4401 37.9569 100.389C37.9569 104.285 35.2248 109.024 31.8554 110.972C30.1707 111.946 28.6453 112.038 27.541 111.4C26.8703 111.013 26.2658 110.663 25.5957 110.276C24.4913 109.637 23.8086 108.268 23.8086 106.32C23.8086 102.423 26.5407 97.6845 29.9106 95.7359C31.5953 94.7616 33.1207 94.6695 34.225 95.3082C34.8952 95.6959 35.4996 96.0451 36.1698 96.4328Z" fill="black"/>
<path id="Vector_18" d="M31.8554 110.972C30.1707 111.946 28.6453 112.038 27.541 111.4C26.4367 110.762 25.7539 109.392 25.7539 107.444C25.7539 103.547 28.486 98.8087 31.8554 96.86C33.5401 95.8857 35.066 95.7936 36.1698 96.4318C37.2741 97.07 37.9569 98.4391 37.9569 100.388C37.9569 104.285 35.2253 109.023 31.8554 110.972Z" fill="#188983"/>
</g>
</g>
<path id="Vector_19" d="M42.1575 94.7986L99.3818 61.7002C100.136 61.2643 100.747 60.0942 100.747 59.0875C100.747 58.0803 100.136 57.6176 99.3818 58.054L42.1575 91.1524C41.4036 91.5883 40.792 92.7584 40.792 93.765C40.792 94.7717 41.4036 95.235 42.1575 94.7986ZM99.3818 65.729L42.1575 98.8275C41.4036 99.2634 40.792 100.433 40.792 101.44C40.792 102.447 41.4036 102.91 42.1575 102.474L99.3818 69.3752C100.136 68.9393 100.747 67.7692 100.747 66.7626C100.747 65.7559 100.136 65.2931 99.3818 65.729Z" fill="#E0E0E0"/>
</g>
<g id="Group_13">
<g id="Image_00000180358050758612745440000013239158506222870456_">
<g id="Group_14" opacity="0.2">
<path id="Vector_20" d="M17.0425 125.814L99.2652 78.2539C99.6124 78.0532 99.8932 78.2161 99.8932 78.6174V98.2661C99.8932 98.6675 99.6118 99.1555 99.2652 99.3556L17.0425 146.915C16.6954 147.116 16.4146 146.953 16.4146 146.552V126.903C16.414 126.502 16.6954 126.014 17.0425 125.814Z" fill="black"/>
</g>
<g id="XMLID_00000045619778887093191140000005521726163055697043_">
<path id="XMLID_00000124137004472259909160000008242059925686657209_" d="M103.63 80.8552C103.435 80.768 103.174 80.7938 102.892 80.9577L21.6221 127.966C21.0127 128.321 20.5156 129.183 20.5156 129.89V148.521C20.5156 148.86 20.6284 149.106 20.8178 149.229C20.6284 149.105 18.953 148.156 18.7482 148.034C18.5533 147.916 18.4307 147.669 18.4307 147.32V128.69C18.4307 127.982 18.9278 127.12 19.5421 126.766L100.807 79.752C101.119 79.5728 101.401 79.5623 101.601 79.6802C101.78 79.7882 103.235 80.614 103.63 80.8552Z" fill="#188983"/>
<g id="XMLID_00000165213969585195760390000005709824323905308600_" opacity="0.2">
<path id="Vector_21" d="M103.63 80.8554C103.235 80.6141 101.78 79.7884 101.601 79.6804C101.401 79.5625 101.119 79.5724 100.807 79.7522L19.5425 126.766C19.2358 126.942 18.9583 127.246 18.7573 127.593L20.8401 128.797C21.0405 128.449 21.3175 128.144 21.6225 127.967L102.892 80.9579C103.174 80.794 103.435 80.7682 103.63 80.8554Z" fill="white"/>
</g>
<g id="Group_15">
<path id="XMLID_00000062164308427389708260000002196050764173846435_" d="M21.6224 127.968L102.89 80.9583C103.502 80.6041 103.999 80.8914 103.999 81.5998V100.231C103.999 100.94 103.502 101.801 102.89 102.155L21.6224 149.165C21.0098 149.519 20.5132 149.232 20.5132 148.523V129.892C20.5132 129.184 21.0098 128.322 21.6224 127.968Z" fill="#FAFAFA"/>
</g>
<path id="XMLID_00000088105658184771197660000001947039554586632870_" d="M20.8398 128.797L18.757 127.593C18.555 127.941 18.4302 128.335 18.4302 128.689V147.32C18.4302 147.669 18.5534 147.915 18.7477 148.033C18.9525 148.157 20.6279 149.106 20.8173 149.229C20.6279 149.105 20.5151 148.859 20.5151 148.521V129.89C20.5156 129.537 20.6399 129.145 20.8398 128.797Z" fill="#188983"/>
<path id="XMLID_00000143599005638242608140000008427694130833330077_" opacity="0.15" d="M20.8398 128.797L18.757 127.593C18.555 127.941 18.4302 128.335 18.4302 128.689V147.32C18.4302 147.669 18.5534 147.915 18.7477 148.033C18.9525 148.157 20.6279 149.106 20.8173 149.229C20.6279 149.105 20.5151 148.859 20.5151 148.521V129.89C20.5156 129.537 20.6399 129.145 20.8398 128.797Z" fill="black"/>
</g>
<path id="XMLID_00000097495358838513232150000012498245457521533080_" d="M103.386 81.3193C103.484 81.3193 103.487 81.5704 103.487 81.5995V100.231C103.487 100.756 103.088 101.448 102.634 101.711L21.3667 148.72C21.2375 148.795 21.1564 148.803 21.1274 148.803C21.0289 148.803 21.0261 148.552 21.0261 148.523V129.891C21.0261 129.366 21.4247 128.675 21.8792 128.411L103.146 81.4021C103.276 81.3275 103.357 81.3193 103.386 81.3193ZM103.386 80.8066C103.237 80.8066 103.068 80.8554 102.89 80.9585L21.6229 127.968C21.0103 128.322 20.5137 129.183 20.5137 129.892V148.523C20.5137 149.026 20.7633 149.316 21.1274 149.316C21.2764 149.316 21.445 149.267 21.6229 149.164L102.89 102.155C103.503 101.801 103.999 100.94 103.999 100.231V81.5995C103.999 81.0967 103.749 80.8066 103.386 80.8066Z" fill="#188983"/>
</g>
<g id="Group_16">
<g id="Group_17">
<path id="Vector_22" d="M36.1698 126.357C37.2741 126.995 37.9569 128.364 37.9569 130.313C37.9569 134.209 35.2248 138.948 31.8554 140.896C30.1707 141.87 28.6453 141.962 27.541 141.324C26.8703 140.936 26.2658 140.587 25.5957 140.199C24.4913 139.561 23.8086 138.192 23.8086 136.243C23.8086 132.346 26.5407 127.608 29.9106 125.66C31.5953 124.685 33.1207 124.593 34.225 125.232C34.8952 125.62 35.4996 125.969 36.1698 126.357Z" fill="#188983"/>
<path id="Vector_23" opacity="0.2" d="M36.1698 126.357C37.2741 126.995 37.9569 128.364 37.9569 130.313C37.9569 134.209 35.2248 138.948 31.8554 140.896C30.1707 141.87 28.6453 141.962 27.541 141.324C26.8703 140.936 26.2658 140.587 25.5957 140.199C24.4913 139.561 23.8086 138.192 23.8086 136.243C23.8086 132.346 26.5407 127.608 29.9106 125.66C31.5953 124.685 33.1207 124.593 34.225 125.232C34.8952 125.62 35.4996 125.969 36.1698 126.357Z" fill="black"/>
<path id="Vector_24" d="M31.8554 140.897C30.1707 141.871 28.6453 141.963 27.541 141.324C26.4367 140.686 25.7539 139.317 25.7539 137.368C25.7539 133.472 28.486 128.733 31.8554 126.785C33.5401 125.81 35.066 125.718 36.1698 126.357C37.2741 126.995 37.9569 128.364 37.9569 130.313C37.9569 134.21 35.2253 138.949 31.8554 140.897Z" fill="#188983"/>
</g>
</g>
<path id="Vector_25" d="M42.1575 124.723L99.3818 91.625C100.136 91.1891 100.747 90.019 100.747 89.0123C100.747 88.0051 100.136 87.5424 99.3818 87.9788L42.1575 121.077C41.4036 121.513 40.792 122.683 40.792 123.69C40.792 124.697 41.4036 125.159 42.1575 124.723ZM99.3818 95.6533L42.1575 128.752C41.4036 129.188 40.792 130.358 40.792 131.364C40.792 132.371 41.4036 132.834 42.1575 132.398L99.3818 99.2995C100.136 98.8636 100.747 97.6935 100.747 96.6868C100.747 95.6802 100.136 95.2174 99.3818 95.6533Z" fill="#E0E0E0"/>
</g>
<g id="Group_18">
<g id="Image_00000137842010518300455130000006215679231586806442_">
<g id="Group_19" opacity="0.2">
<path id="Vector_26" d="M17.0425 155.737L99.2652 108.178C99.6124 107.977 99.8932 108.14 99.8932 108.541V128.19C99.8932 128.591 99.6118 129.079 99.2652 129.28L17.0425 176.84C16.6954 177.04 16.4146 176.878 16.4146 176.476V156.827C16.414 156.426 16.6954 155.938 17.0425 155.737Z" fill="black"/>
</g>
<g id="XMLID_00000067934953401047872410000000668940622366822542_">
<path id="XMLID_00000062903267560388004420000004176506688672286611_" d="M103.63 110.779C103.435 110.692 103.174 110.718 102.892 110.882L21.6221 157.89C21.0127 158.244 20.5156 159.106 20.5156 159.814V178.445C20.5156 178.783 20.6284 179.03 20.8178 179.153C20.6284 179.029 18.953 178.08 18.7482 177.957C18.5533 177.839 18.4307 177.593 18.4307 177.244V158.613C18.4307 157.906 18.9278 157.044 19.5421 156.689L100.807 109.676C101.119 109.497 101.401 109.486 101.601 109.604C101.78 109.712 103.235 110.538 103.63 110.779Z" fill="#188983"/>
<g id="XMLID_00000087380354410882412240000000651894025690008709_" opacity="0.2">
<path id="Vector_27" d="M103.63 110.779C103.235 110.538 101.78 109.712 101.601 109.604C101.401 109.486 101.119 109.496 100.807 109.676L19.5425 156.69C19.2358 156.866 18.9583 157.169 18.7573 157.517L20.8401 158.721C21.0405 158.372 21.3175 158.068 21.6225 157.89L102.892 110.882C103.174 110.718 103.435 110.692 103.63 110.779Z" fill="white"/>
</g>
<g id="Group_20">
<path id="XMLID_00000039128156273587809710000005874536224899947656_" d="M21.6224 157.891L102.89 110.882C103.502 110.528 103.999 110.815 103.999 111.524V130.155C103.999 130.864 103.502 131.725 102.89 132.079L21.6224 179.088C21.0098 179.443 20.5132 179.155 20.5132 178.447V159.815C20.5132 159.107 21.0098 158.246 21.6224 157.891Z" fill="#FAFAFA"/>
</g>
<path id="XMLID_00000137825674426992524910000015031501271737564324_" d="M20.8398 158.722L18.757 157.518C18.555 157.866 18.4302 158.259 18.4302 158.614V177.245C18.4302 177.593 18.5534 177.84 18.7477 177.958C18.9525 178.081 20.6279 179.031 20.8173 179.153C20.6279 179.03 20.5151 178.784 20.5151 178.445V159.815C20.5156 159.461 20.6399 159.069 20.8398 158.722Z" fill="#188983"/>
<path id="XMLID_00000088845851459961615560000017156130802137725590_" opacity="0.15" d="M20.8398 158.722L18.757 157.518C18.555 157.866 18.4302 158.259 18.4302 158.614V177.245C18.4302 177.593 18.5534 177.84 18.7477 177.958C18.9525 178.081 20.6279 179.031 20.8173 179.153C20.6279 179.03 20.5151 178.784 20.5151 178.445V159.815C20.5156 159.461 20.6399 159.069 20.8398 158.722Z" fill="black"/>
</g>
<path id="XMLID_00000067945569556013034600000017297500540690208923_" d="M103.386 111.243C103.484 111.243 103.487 111.494 103.487 111.523V130.155C103.487 130.68 103.088 131.371 102.634 131.634L21.3667 178.644C21.2375 178.719 21.1564 178.726 21.1274 178.726C21.0289 178.726 21.0261 178.475 21.0261 178.446V159.815C21.0261 159.289 21.4247 158.598 21.8792 158.335L103.146 111.325C103.276 111.251 103.357 111.243 103.386 111.243ZM103.386 110.729C103.237 110.729 103.068 110.778 102.89 110.881L21.6229 157.891C21.0103 158.245 20.5137 159.106 20.5137 159.815V178.446C20.5137 178.948 20.7633 179.239 21.1274 179.239C21.2764 179.239 21.445 179.19 21.6229 179.087L102.89 132.078C103.503 131.724 103.999 130.862 103.999 130.154V111.522C103.999 111.02 103.749 110.729 103.386 110.729Z" fill="#188983"/>
</g>
<g id="Group_21">
<g id="Group_22">
<path id="Vector_28" d="M36.1698 156.282C37.2741 156.92 37.9569 158.289 37.9569 160.238C37.9569 164.135 35.2248 168.873 31.8554 170.822C30.1707 171.796 28.6453 171.888 27.541 171.25C26.8703 170.862 26.2658 170.513 25.5957 170.125C24.4913 169.487 23.8086 168.117 23.8086 166.169C23.8086 162.273 26.5407 157.534 29.9106 155.586C31.5953 154.611 33.1207 154.519 34.225 155.158C34.8952 155.544 35.4996 155.894 36.1698 156.282Z" fill="#188983"/>
<path id="Vector_29" opacity="0.2" d="M36.1698 156.282C37.2741 156.92 37.9569 158.289 37.9569 160.238C37.9569 164.135 35.2248 168.873 31.8554 170.822C30.1707 171.796 28.6453 171.888 27.541 171.25C26.8703 170.862 26.2658 170.513 25.5957 170.125C24.4913 169.487 23.8086 168.117 23.8086 166.169C23.8086 162.273 26.5407 157.534 29.9106 155.586C31.5953 154.611 33.1207 154.519 34.225 155.158C34.8952 155.544 35.4996 155.894 36.1698 156.282Z" fill="black"/>
<path id="Vector_30" d="M31.8554 170.821C30.1707 171.795 28.6453 171.887 27.541 171.248C26.4367 170.61 25.7539 169.241 25.7539 167.292C25.7539 163.396 28.486 158.657 31.8554 156.709C33.5401 155.734 35.066 155.642 36.1698 156.28C37.2741 156.919 37.9569 158.288 37.9569 160.236C37.9569 164.134 35.2253 168.873 31.8554 170.821Z" fill="#188983"/>
</g>
</g>
<path id="Vector_31" d="M42.1575 154.647L99.3818 121.548C100.136 121.113 100.747 119.943 100.747 118.936C100.747 117.929 100.136 117.466 99.3818 117.902L42.1575 151.001C41.4036 151.437 40.792 152.607 40.792 153.613C40.792 154.62 41.4036 155.083 42.1575 154.647ZM99.3818 125.577L42.1575 158.676C41.4036 159.112 40.792 160.282 40.792 161.288C40.792 162.296 41.4036 162.758 42.1575 162.322L99.3818 129.224C100.136 128.788 100.747 127.618 100.747 126.611C100.747 125.604 100.136 125.141 99.3818 125.577Z" fill="#E0E0E0"/>
</g>
<g id="Group_23">
<g id="Image_00000009563351310336988450000016840850033163741613_">
<g id="Group_24" opacity="0.2">
<path id="Vector_32" d="M17.0425 185.661L99.2652 138.102C99.6124 137.901 99.8932 138.064 99.8932 138.465V158.114C99.8932 158.515 99.6118 159.003 99.2652 159.204L17.0425 206.764C16.6954 206.964 16.4146 206.801 16.4146 206.4V186.751C16.414 186.349 16.6954 185.862 17.0425 185.661Z" fill="black"/>
</g>
<g id="XMLID_00000030448826014601502000000013196023419603893152_">
<path id="XMLID_00000057137122318151470680000005480417761140786101_" d="M103.63 140.703C103.435 140.616 103.174 140.641 102.892 140.805L21.6221 187.814C21.0127 188.168 20.5156 189.03 20.5156 189.738V208.369C20.5156 208.707 20.6284 208.954 20.8178 209.076C20.6284 208.953 18.953 208.004 18.7482 207.881C18.5533 207.763 18.4307 207.517 18.4307 207.168V188.537C18.4307 187.829 18.9278 186.968 19.5421 186.613L100.807 139.6C101.119 139.42 101.401 139.41 101.601 139.528C101.78 139.636 103.235 140.462 103.63 140.703Z" fill="#188983"/>
<g id="XMLID_00000085949361643556058170000018074495394443546002_" opacity="0.2">
<path id="Vector_33" d="M103.63 140.703C103.235 140.462 101.78 139.636 101.601 139.528C101.401 139.41 101.119 139.42 100.807 139.6L19.5425 186.614C19.2358 186.79 18.9583 187.093 18.7573 187.441L20.8401 188.645C21.0405 188.296 21.3175 187.991 21.6225 187.814L102.892 140.806C103.174 140.642 103.435 140.616 103.63 140.703Z" fill="white"/>
</g>
<g id="Group_25">
<path id="XMLID_00000129178473959322882020000006645496952610810803_" d="M21.6224 187.815L102.89 140.806C103.502 140.452 103.999 140.739 103.999 141.447V160.079C103.999 160.788 103.502 161.649 102.89 162.003L21.6224 209.012C21.0098 209.367 20.5132 209.079 20.5132 208.371V189.74C20.5132 189.031 21.0098 188.169 21.6224 187.815Z" fill="#FAFAFA"/>
</g>
<path id="XMLID_00000087377490724483173190000005480950546007107760_" d="M20.8398 188.645L18.757 187.441C18.555 187.79 18.4302 188.183 18.4302 188.538V207.169C18.4302 207.517 18.5534 207.763 18.7477 207.882C18.9525 208.005 20.6279 208.954 20.8173 209.077C20.6279 208.954 20.5151 208.708 20.5151 208.369V189.739C20.5156 189.385 20.6399 188.993 20.8398 188.645Z" fill="#188983"/>
<path id="XMLID_00000119817875834381030410000013392333312555959425_" opacity="0.15" d="M20.8398 188.645L18.757 187.441C18.555 187.79 18.4302 188.183 18.4302 188.538V207.169C18.4302 207.517 18.5534 207.763 18.7477 207.882C18.9525 208.005 20.6279 208.954 20.8173 209.077C20.6279 208.954 20.5151 208.708 20.5151 208.369V189.739C20.5156 189.385 20.6399 188.993 20.8398 188.645Z" fill="black"/>
</g>
<path id="XMLID_00000173855283048882211610000017987038803929516687_" d="M103.386 141.167C103.484 141.167 103.487 141.418 103.487 141.447V160.078C103.487 160.604 103.088 161.295 102.634 161.558L21.3667 208.567C21.2375 208.643 21.1564 208.65 21.1274 208.65C21.0289 208.65 21.0261 208.399 21.0261 208.37V189.739C21.0261 189.214 21.4247 188.522 21.8792 188.259L103.146 141.25C103.276 141.175 103.357 141.167 103.386 141.167ZM103.386 140.653C103.237 140.653 103.068 140.702 102.89 140.805L21.6229 187.814C21.0103 188.169 20.5137 189.03 20.5137 189.738V208.37C20.5137 208.872 20.7633 209.162 21.1274 209.162C21.2764 209.162 21.445 209.114 21.6229 209.01L102.89 162.001C103.503 161.647 103.999 160.786 103.999 160.077V141.446C103.999 140.944 103.749 140.653 103.386 140.653Z" fill="#188983"/>
</g>
<g id="Group_26">
<g id="Group_27">
<path id="Vector_34" d="M36.1698 186.205C37.2741 186.843 37.9569 188.212 37.9569 190.161C37.9569 194.058 35.2248 198.796 31.8554 200.744C30.1707 201.718 28.6453 201.811 27.541 201.172C26.8703 200.785 26.2658 200.435 25.5957 200.048C24.4913 199.41 23.8086 198.04 23.8086 196.092C23.8086 192.195 26.5407 187.457 29.9106 185.508C31.5953 184.534 33.1207 184.442 34.225 185.08C34.8952 185.468 35.4996 185.817 36.1698 186.205Z" fill="#188983"/>
<path id="Vector_35" opacity="0.2" d="M36.1698 186.205C37.2741 186.843 37.9569 188.212 37.9569 190.161C37.9569 194.058 35.2248 198.796 31.8554 200.744C30.1707 201.718 28.6453 201.811 27.541 201.172C26.8703 200.785 26.2658 200.435 25.5957 200.048C24.4913 199.41 23.8086 198.04 23.8086 196.092C23.8086 192.195 26.5407 187.457 29.9106 185.508C31.5953 184.534 33.1207 184.442 34.225 185.08C34.8952 185.468 35.4996 185.817 36.1698 186.205Z" fill="black"/>
<path id="Vector_36" d="M31.8554 200.744C30.1707 201.719 28.6453 201.811 27.541 201.172C26.4367 200.534 25.7539 199.165 25.7539 197.216C25.7539 193.319 28.486 188.581 31.8554 186.632C33.5401 185.658 35.066 185.566 36.1698 186.205C37.2741 186.843 37.9569 188.212 37.9569 190.161C37.9569 194.057 35.2253 198.796 31.8554 200.744Z" fill="#188983"/>
</g>
</g>
<path id="Vector_37" d="M42.1575 184.571L99.3818 151.473C100.136 151.037 100.747 149.867 100.747 148.86C100.747 147.853 100.136 147.39 99.3818 147.826L42.1575 180.925C41.4036 181.361 40.792 182.531 40.792 183.538C40.792 184.544 41.4036 185.007 42.1575 184.571ZM99.3818 155.501L42.1575 188.599C41.4036 189.035 40.792 190.205 40.792 191.212C40.792 192.219 41.4036 192.682 42.1575 192.246L99.3818 159.147C100.136 158.711 100.747 157.541 100.747 156.535C100.747 155.528 100.136 155.065 99.3818 155.501Z" fill="#E0E0E0"/>
</g>
</g>
</g>
</svg>
