<svg width="275" height="275" viewBox="0 0 275 275" fill="none" xmlns="http://www.w3.org/2000/svg">
<path d="M137.5 271.795C212.245 271.795 272.837 236.812 272.837 193.658C272.837 150.504 212.245 115.521 137.5 115.521C62.7562 115.521 2.16406 150.504 2.16406 193.658C2.16406 236.812 62.7562 271.795 137.5 271.795Z" fill="#2F2E2E"/>
<path d="M240.321 154.662C240.632 154.482 240.788 154.247 240.788 154.012C240.789 153.775 240.788 153.008 240.788 153.008L185.333 121.614C184.709 121.254 183.698 121.254 183.075 121.614L139.471 146.789L196.736 179.828L240.321 154.662Z" fill="#3AC7BA"/>
<path opacity="0.2" d="M240.321 154.662C240.632 154.482 240.788 154.247 240.788 154.012C240.789 153.775 240.788 153.008 240.788 153.008L185.333 121.614C184.709 121.254 183.698 121.254 183.075 121.614L139.471 146.789L196.736 179.828L240.321 154.662Z" fill="white"/>
<path d="M240.321 153.685C240.945 153.325 240.945 152.741 240.321 152.381L185.334 120.636C184.71 120.276 183.699 120.276 183.075 120.636L139.471 145.812L196.736 178.851L240.321 153.685Z" fill="#3AC7BA"/>
<path opacity="0.5" d="M240.321 153.685C240.945 153.325 240.945 152.741 240.321 152.381L185.334 120.636C184.71 120.276 183.699 120.276 183.075 120.636L139.471 145.812L196.736 178.851L240.321 153.685Z" fill="black"/>
<path d="M149.51 139.232L181.792 120.604C182.416 120.244 183.427 120.244 184.051 120.603L235.307 150.194L239.506 147.749V152.721L239.427 152.768C239.567 153.074 239.454 153.412 239.038 153.652L202.068 174.988L144.803 141.949V136.517L149.51 139.232Z" fill="#EBEBEB"/>
<path d="M239.037 148.22C239.66 147.859 239.66 147.276 239.037 146.916L184.049 115.171C183.426 114.811 182.415 114.811 181.79 115.171L144.801 136.517L202.066 169.556L239.037 148.22Z" fill="#2F2E2E"/>
<path d="M202.068 169.556V174.987L144.803 141.948V136.517L202.068 169.556Z" fill="#E6E6E6"/>
<path d="M201.468 167.434C201.598 167.499 201.728 167.552 201.885 167.577C202.107 167.63 202.354 167.63 202.55 167.564C202.628 167.551 202.694 167.525 202.759 167.486C203.098 167.304 203.059 166.964 202.668 166.743C202.498 166.652 202.29 166.586 202.081 166.573C201.821 166.547 201.56 166.586 201.377 166.691C201.351 166.704 201.325 166.717 201.312 166.743C201.05 166.939 201.103 167.226 201.468 167.434Z" fill="#263238"/>
<path d="M195.77 171.685C195.77 172.454 195.965 173.093 196.343 173.562C196.734 174.058 197.308 174.332 197.96 174.331C197.973 174.332 197.973 174.332 197.973 174.332C198.468 174.331 199.003 174.175 199.537 173.862C199.628 173.81 199.732 173.758 199.824 173.693L199.185 173.328C197.647 174.189 196.421 173.458 196.421 171.685C196.421 169.912 197.673 167.735 199.211 166.849C200.046 166.366 200.802 166.352 201.31 166.744C201.571 166.914 201.767 167.201 201.884 167.578C202.106 167.631 202.353 167.631 202.549 167.565C202.458 167.174 202.301 166.835 202.08 166.574C201.689 166.092 201.128 165.818 200.463 165.818C199.954 165.818 199.433 165.975 198.885 166.288C197.139 167.291 195.77 169.664 195.77 171.685Z" fill="#263238"/>
<path d="M197.389 166.551L240.788 145.342L240.788 146.05C240.788 146.41 240.535 146.848 240.223 147.028L197.389 167.535L197.389 166.551Z" fill="#3AC7BA"/>
<path opacity="0.2" d="M197.389 166.551L240.788 145.342L240.788 146.05C240.788 146.41 240.535 146.848 240.223 147.028L197.389 167.535L197.389 166.551Z" fill="white"/>
<path d="M240.32 145.989C240.944 145.628 240.944 145.044 240.32 144.685L185.333 112.94C184.709 112.58 183.698 112.58 183.075 112.94L139.471 133.875L196.736 166.914L240.32 145.989Z" fill="#3AC7BA"/>
<path opacity="0.2" d="M240.32 145.989C240.944 145.628 240.944 145.044 240.32 144.685L185.333 112.94C184.709 112.58 183.698 112.58 183.075 112.94L139.471 133.875L196.736 166.914L240.32 145.989Z" fill="black"/>
<path d="M196.738 179.828L139.473 146.788V133.857L196.736 166.918L196.738 179.828Z" fill="#3AC7BA"/>
<path d="M186.81 171.534C187.463 171.534 188.041 171.26 188.435 170.765C188.81 170.296 189.007 169.646 189.007 168.886C189.006 166.867 187.635 164.493 185.885 163.482C185.345 163.171 184.816 163.013 184.31 163.013C182.995 163.013 182.111 164.076 182.111 165.66C182.111 167.682 183.484 170.055 185.234 171.066C185.774 171.376 186.303 171.534 186.808 171.534C186.808 171.534 186.808 171.534 186.81 171.534Z" fill="#455A64"/>
<path d="M188.355 168.888C188.356 170.67 187.105 171.392 185.56 170.501C184.015 169.611 182.764 167.443 182.764 165.661C182.764 163.878 184.015 163.155 185.559 164.047C187.102 164.939 188.354 167.106 188.355 168.888Z" fill="#F5F5F5"/>
<path d="M178.202 162.379V163.356C178.202 165.314 176.828 166.108 175.132 165.129L146.385 148.532C144.689 147.553 143.315 145.172 143.314 143.215V142.237C143.314 140.28 144.689 139.486 146.385 140.465L175.131 157.062C176.828 158.04 178.202 160.421 178.202 162.379Z" fill="#F5F5F5"/>
<path d="M197.411 179.439V166.591L196.736 166.919L196.738 179.828L197.411 179.439Z" fill="#3AC7BA"/>
<path opacity="0.2" d="M197.411 179.439V166.591L196.736 166.919L196.738 179.828L197.411 179.439Z" fill="white"/>
<path d="M139.939 131.08C139.939 131.352 140.159 131.7 140.431 131.857L196.713 164.329C196.985 164.485 197.424 164.485 197.696 164.329L241.918 141.96V140.977L184.673 107.928L140.431 130.303C140.159 130.46 139.939 130.807 139.939 131.08Z" fill="#3AC7BA"/>
<path opacity="0.5" d="M241.917 140.978L197.7 163.349C197.558 163.435 197.374 163.463 197.204 163.463C197.02 163.463 196.849 163.435 196.708 163.349L140.433 130.868C140.163 130.712 140.163 130.457 140.433 130.301L184.676 107.929L241.917 140.978Z" fill="black"/>
<path opacity="0.2" d="M241.918 140.978V141.96L197.702 164.328C197.56 164.413 197.376 164.441 197.205 164.441V163.463C197.375 163.463 197.559 163.435 197.701 163.349L241.918 140.978Z" fill="white"/>
<path d="M241.245 141.37L183.98 108.33V95.3994L241.244 128.59L241.245 141.37Z" fill="#3AC7BA"/>
<path opacity="0.7" d="M241.245 141.37L183.98 108.33V95.3994L241.244 128.59L241.245 141.37Z" fill="black"/>
<path d="M140.549 124.126C140.211 124.321 139.935 124.798 139.936 125.189V127.806C139.936 128.197 140.211 128.673 140.55 128.869L196.587 161.199C196.925 161.395 197.475 161.395 197.815 161.199L235.301 140.923V136.888L178.055 103.84L140.549 124.126Z" fill="#EBEBEB"/>
<path d="M178.054 103.841L140.549 124.126C140.21 124.321 140.21 124.639 140.549 124.834L196.585 157.164C196.925 157.36 197.475 157.36 197.814 157.164L235.3 136.889L178.054 103.841Z" fill="#2F2E2E"/>
<path d="M230.522 137.216C230.652 137.281 230.783 137.333 230.939 137.359C231.161 137.411 231.409 137.411 231.604 137.346C231.682 137.333 231.748 137.307 231.813 137.268C232.152 137.085 232.113 136.746 231.722 136.525C231.552 136.434 231.344 136.369 231.135 136.355C230.875 136.33 230.614 136.369 230.431 136.473C230.406 136.486 230.379 136.499 230.366 136.525C230.105 136.72 230.157 137.007 230.522 137.216Z" fill="#263238"/>
<path d="M197.204 157.301V161.342C196.977 161.342 196.75 161.299 196.58 161.2L140.546 128.874C140.206 128.676 139.936 128.193 139.936 127.811L139.936 125.187C139.936 124.861 140.134 124.464 140.404 124.237C140.219 124.422 140.262 124.662 140.546 124.833L196.579 157.159C196.749 157.258 196.977 157.315 197.204 157.301Z" fill="#E6E6E6"/>
<path d="M237.089 131.62C236.364 131.19 235.464 131.24 234.548 131.768C233.014 132.654 231.691 134.693 231.076 136.909C231.378 136.953 231.748 137.006 231.914 137.033C232.484 135.067 233.649 133.25 234.965 132.49C235.256 132.322 235.635 132.163 236.022 132.163C236.236 132.163 236.454 132.212 236.661 132.336C237.332 132.736 237.708 133.808 237.666 135.201C237.587 137.88 236.053 140.908 234.246 141.951C233.903 142.15 233.439 142.334 232.982 142.262L232.068 142.786C232.086 142.798 232.104 142.81 232.123 142.821C232.447 143.015 232.807 143.11 233.188 143.11C233.657 143.11 234.158 142.965 234.662 142.673C236.725 141.482 238.41 138.211 238.498 135.227C238.55 133.5 238.036 132.186 237.089 131.62Z" fill="#263238"/>
<path d="M139.939 122.87C139.939 123.142 140.159 123.49 140.431 123.647L196.713 156.119C196.984 156.275 197.424 156.275 197.695 156.118L241.917 129.092V128.11L184.673 95.0615L140.431 122.093C140.159 122.25 139.939 122.598 139.939 122.87Z" fill="#3AC7BA"/>
<path d="M241.918 128.11L197.702 155.139C197.56 155.224 197.375 155.252 197.206 155.252C197.021 155.253 196.851 155.224 196.709 155.139L140.435 122.657C140.165 122.502 140.165 122.246 140.435 122.09L184.678 95.0615L241.918 128.11Z" fill="#3AC7BA"/>
<path opacity="0.35" d="M241.918 128.11L197.702 155.139C197.56 155.224 197.375 155.252 197.206 155.252C197.021 155.253 196.851 155.224 196.709 155.139L140.435 122.657C140.165 122.502 140.165 122.246 140.435 122.09L184.678 95.0615L241.918 128.11Z" fill="white"/>
<path opacity="0.2" d="M241.918 128.11V129.093L197.701 156.118C197.559 156.203 197.375 156.231 197.205 156.231V155.252C197.375 155.252 197.559 155.224 197.701 155.139L241.918 128.11Z" fill="white"/>
<path d="M241.918 140.978L241.919 128.133L241.244 128.59L241.246 141.37L241.918 140.978Z" fill="#3AC7BA"/>
<path opacity="0.2" d="M241.918 140.978L241.919 128.133L241.244 128.59L241.246 141.37L241.918 140.978Z" fill="white"/>
<path d="M3.645 223.887C2.99873 223.514 2.61699 222.583 2.79281 221.807L23.2113 131.426C23.3863 130.65 24.0865 129.699 24.7755 129.302L146.262 59.1613C146.951 58.7637 148.033 58.7439 148.679 59.1169C149.325 59.4899 149.707 60.4205 149.531 61.1967L129.113 151.578C128.938 152.354 128.237 153.305 127.548 153.702L6.06139 223.842C5.37314 224.239 4.29127 224.259 3.645 223.887Z" fill="#3AC7BA"/>
<path opacity="0.8" d="M3.645 223.887C2.99873 223.514 2.61699 222.583 2.79281 221.807L23.2113 131.426C23.3863 130.65 24.0865 129.699 24.7755 129.302L146.262 59.1613C146.951 58.7637 148.033 58.7439 148.679 59.1169C149.325 59.4899 149.707 60.4205 149.531 61.1967L129.113 151.578C128.938 152.354 128.237 153.305 127.548 153.702L6.06139 223.842C5.37314 224.239 4.29127 224.259 3.645 223.887Z" fill="#F0ECEC"/>
<path d="M25.5515 132.776L5.13374 223.158C4.95871 223.933 5.37451 224.24 6.06354 223.842L127.551 153.701C128.24 153.303 128.94 152.352 129.115 151.577L149.533 61.1953C149.708 60.4199 149.292 60.1134 148.603 60.511L27.1157 130.652C26.4274 131.05 25.7273 132.001 25.5515 132.776Z" fill="#3AC7BA"/>
<path opacity="0.6" d="M25.5515 132.776L5.13374 223.158C4.95871 223.933 5.37451 224.24 6.06354 223.842L127.551 153.701C128.24 153.303 128.94 152.352 129.115 151.577L149.533 61.1953C149.708 60.4199 149.292 60.1134 148.603 60.511L27.1157 130.652C26.4274 131.05 25.7273 132.001 25.5515 132.776Z" fill="#F0ECEC"/>
<path opacity="0.05" d="M25.5515 132.776L5.13374 223.158C4.95871 223.933 5.37451 224.24 6.06354 223.842L127.551 153.701C128.24 153.303 128.94 152.352 129.115 151.577L149.533 61.1953C149.708 60.4199 149.292 60.1134 148.603 60.511L27.1157 130.652C26.4274 131.05 25.7273 132.001 25.5515 132.776Z" fill="black"/>
<path d="M151.017 60.4665C150.371 60.0935 149.289 60.1133 148.6 60.5109L27.1131 130.652C26.4248 131.05 25.9576 132.01 26.0692 132.798L42.0383 244.746C42.1507 245.533 42.7653 246.473 43.4108 246.846C44.0563 247.219 45.1382 247.2 45.8272 246.802L167.315 176.661C168.003 176.263 168.471 175.303 168.359 174.516L152.391 62.5677C152.278 61.7805 151.663 60.8396 151.017 60.4665Z" fill="#3AC7BA"/>
<path opacity="0.8" d="M151.017 60.4665C150.371 60.0935 149.289 60.1133 148.6 60.5109L27.1131 130.652C26.4248 131.05 25.9576 132.01 26.0692 132.798L42.0383 244.746C42.1507 245.533 42.7653 246.473 43.4108 246.846C44.0563 247.219 45.1382 247.2 45.8272 246.802L167.315 176.661C168.003 176.263 168.471 175.303 168.359 174.516L152.391 62.5677C152.278 61.7805 151.663 60.8396 151.017 60.4665Z" fill="#F0ECEC"/>
<path d="M28.4093 134.148L44.3776 246.096C44.49 246.884 45.1387 247.2 45.8277 246.802L167.315 176.661C168.004 176.263 168.471 175.303 168.359 174.516L152.391 62.5679C152.279 61.7806 151.629 61.4646 150.941 61.8622L29.4531 132.003C28.7641 132.4 28.2968 133.361 28.4093 134.148Z" fill="#3AC7BA"/>
<path opacity="0.95" d="M28.4093 134.148L44.3776 246.096C44.49 246.884 45.1387 247.2 45.8277 246.802L167.315 176.661C168.004 176.263 168.471 175.303 168.359 174.516L152.391 62.5679C152.279 61.7806 151.629 61.4646 150.941 61.8622L29.4531 132.003C28.7641 132.4 28.2968 133.361 28.4093 134.148Z" fill="#F0ECEC"/>
<path d="M37.2631 211.233L22.9984 219.463H22.9929C22.6951 219.395 22.3917 219.379 22.1145 219.431L5.28776 222.673C5.27192 222.679 5.26162 222.679 5.25607 222.679H5.24023L36.3317 204.717L37.2631 211.233Z" fill="#3AC7BA"/>
<path opacity="0.5" d="M37.2631 211.233L22.9984 219.463H22.9929C22.6951 219.395 22.3917 219.379 22.1145 219.431L5.28776 222.673C5.27192 222.679 5.26162 222.679 5.25607 222.679H5.24023L36.3317 204.717L37.2631 211.233Z" fill="#F0ECEC"/>
<path opacity="0.2" d="M37.2631 211.233L22.9984 219.463H22.9929C22.6951 219.395 22.3917 219.379 22.1145 219.431L5.28776 222.673C5.27192 222.679 5.26162 222.679 5.25607 222.679H5.24023L36.3317 204.717L37.2631 211.233Z" fill="black"/>
<path d="M41.9164 243.872L24.3887 220.257C24.0909 219.86 23.5888 219.556 23.0605 219.426L37.2627 211.232L41.9164 243.872Z" fill="#3AC7BA"/>
<path opacity="0.6" d="M41.9164 243.872L24.3887 220.257C24.0909 219.86 23.5888 219.556 23.0605 219.426L37.2627 211.232L41.9164 243.872Z" fill="#F0ECEC"/>
<path opacity="0.1" d="M41.9164 243.872L24.3887 220.257C24.0909 219.86 23.5888 219.556 23.0605 219.426L37.2627 211.232L41.9164 243.872Z" fill="black"/>
<path d="M41.3657 244.975L24.4075 222.946C23.9227 222.316 22.8916 221.897 22.1043 222.011L6.2406 224.3C5.45335 224.414 4.29149 224.204 3.64601 223.831C2.99974 223.458 3.10904 223.033 3.88995 222.883L22.1154 219.376C22.8963 219.225 23.9132 219.621 24.3869 220.26L43.7243 246.309C44.1987 246.948 44.0593 247.163 43.413 246.79C42.7676 246.418 41.8512 245.604 41.3657 244.975Z" fill="#3AC7BA"/>
<path opacity="0.8" d="M41.3657 244.975L24.4075 222.946C23.9227 222.316 22.8916 221.897 22.1043 222.011L6.2406 224.3C5.45335 224.414 4.29149 224.204 3.64601 223.831C2.99974 223.458 3.10904 223.033 3.88995 222.883L22.1154 219.376C22.8963 219.225 23.9132 219.621 24.3869 220.26L43.7243 246.309C44.1987 246.948 44.0593 247.163 43.413 246.79C42.7676 246.418 41.8512 245.604 41.3657 244.975Z" fill="#F0ECEC"/>
<path d="M149.57 60.7498C149.558 60.0932 149.207 59.4137 148.683 59.1143C148.032 58.746 146.956 58.7627 146.264 59.1603L24.7764 129.303C24.4421 129.493 24.1079 129.821 23.826 130.19C23.5321 130.581 23.3017 131.031 23.2098 131.428L20.3301 144.196L22.6688 145.538L146.65 73.9588L149.533 61.1957C149.571 61.0294 149.568 60.886 149.57 60.7498Z" fill="#3AC7BA"/>
<path opacity="0.6" d="M149.533 61.1953C149.708 60.4199 149.292 60.1134 148.603 60.511L27.1158 130.651C26.4268 131.049 25.7267 132 25.5516 132.775L22.668 145.539L146.649 73.9584L149.533 61.1953Z" fill="black"/>
<path opacity="0.5" d="M26.162 131.544C25.8682 131.935 25.6377 132.379 25.5514 132.776L22.6669 145.539L20.3281 144.196L23.2078 131.428C23.3005 131.031 23.5302 130.582 23.824 130.19L26.162 131.544Z" fill="black"/>
<path opacity="0.2" d="M149.569 60.7498C149.511 60.3182 149.137 60.2025 148.601 60.5138L27.1126 130.651C26.7784 130.841 26.4386 131.169 26.1622 131.543L23.8242 130.19C24.1062 129.822 24.4404 129.493 24.7746 129.303L146.263 59.1603C146.955 58.7627 148.031 58.746 148.682 59.1143C149.205 59.4137 149.557 60.0932 149.569 60.7498Z" fill="black"/>
<path d="M152.538 63.6395L152.542 63.6371L152.389 62.5671C152.382 62.5164 152.367 62.4633 152.356 62.4119C152.353 62.3976 152.351 62.3818 152.347 62.3683L152.346 62.3651C152.168 61.6254 151.608 60.8089 151.016 60.4675C150.37 60.0945 149.288 60.1143 148.6 60.5119L27.1128 130.651C26.7595 130.856 26.4657 131.208 26.278 131.609L26.2756 131.611C26.0966 131.991 26.0166 132.412 26.0681 132.798L28.3601 148.836L30.6981 150.19L154.681 78.6138L152.538 63.6395Z" fill="#3AC7BA"/>
<path opacity="0.2" d="M154.682 78.6144L30.6989 150.19L28.4085 134.147C28.3562 133.765 28.4346 133.342 28.6176 132.96C28.8061 132.558 29.1038 132.207 29.4539 132.003L150.943 61.862C151.55 61.5064 152.125 61.7155 152.334 62.3222C152.34 62.338 152.344 62.3539 152.35 62.3697C152.35 62.38 152.355 62.3959 152.355 62.4117C152.371 62.464 152.382 62.5163 152.392 62.5685L152.543 63.6353L152.538 63.6409L154.682 78.6144Z" fill="black"/>
<path opacity="0.5" d="M30.6984 150.191L28.3605 148.838L26.0684 132.799C26.0161 132.413 26.0969 131.992 26.2759 131.612L28.6194 132.96C28.4349 133.34 28.3541 133.767 28.4064 134.147L30.6984 150.191Z" fill="black"/>
<path opacity="0.3" d="M152.347 62.3682C152.157 61.729 151.564 61.4986 150.942 61.8613L29.4537 132.004C29.102 132.206 28.8027 132.557 28.6189 132.96L26.2754 131.612C26.4655 131.209 26.7593 130.858 27.1102 130.65L148.599 60.5133C149.289 60.1157 150.373 60.0928 151.017 60.4674C151.611 60.8135 152.175 61.6253 152.347 62.3682Z" fill="black"/>
<g opacity="0.2">
<path d="M39.5487 134.278C39.3523 132.9 40.2393 131.178 41.5303 130.432C42.8213 129.686 44.0275 130.2 44.2239 131.578C44.4203 132.956 43.5333 134.678 42.2423 135.424C40.9513 136.169 39.7451 135.656 39.5487 134.278Z" fill="black"/>
<path d="M55.9374 124.818C55.741 123.44 56.628 121.718 57.919 120.972C59.2099 120.226 60.4161 120.74 60.6126 122.118C60.809 123.496 59.9219 125.218 58.631 125.964C57.34 126.71 56.1346 126.196 55.9374 124.818Z" fill="black"/>
<path d="M72.3007 115.368C72.1043 113.99 72.9913 112.268 74.2823 111.522C75.5732 110.776 76.7794 111.289 76.9758 112.667C77.1723 114.046 76.2852 115.767 74.9943 116.513C73.7033 117.259 72.4971 116.747 72.3007 115.368Z" fill="black"/>
<path d="M105.043 96.4649C104.846 95.0868 105.733 93.365 107.024 92.6189C108.315 91.8728 109.522 92.3861 109.718 93.7641C109.914 95.1422 109.027 96.864 107.736 97.6101C106.445 98.3562 105.239 97.8429 105.043 96.4649Z" fill="black"/>
<path d="M121.433 87.0059C121.237 85.6278 122.124 83.906 123.415 83.1599C124.706 82.4139 125.912 82.9271 126.109 84.3052C126.305 85.6832 125.418 87.405 124.127 88.1511C122.836 88.8964 121.63 88.384 121.433 87.0059Z" fill="black"/>
<path d="M137.795 77.5557C137.598 76.1776 138.485 74.455 139.776 73.7097C141.067 72.9637 142.274 73.4769 142.47 74.855C142.666 76.233 141.779 77.9549 140.488 78.7009C139.197 79.4462 137.991 78.9338 137.795 77.5557Z" fill="black"/>
</g>
<path d="M44.5108 129.343C44.5108 129.829 44.4688 130.305 44.3857 130.76C44.3389 131.005 44.2811 131.246 44.2082 131.471C43.8582 132.648 43.1889 133.542 42.2528 134.08C41.6358 134.442 40.9405 134.624 40.1817 134.624C39.9932 134.624 39.8055 134.614 39.6115 134.588C39.5853 134.489 39.5648 134.389 39.5489 134.28C39.465 133.684 39.5854 133.02 39.8523 132.403C40.3488 132.465 40.7884 132.387 41.1543 132.178C41.8917 131.75 42.1688 130.85 42.2631 130.139C42.2734 130.102 42.2734 130.07 42.2789 130.04C42.2995 129.836 42.3154 129.606 42.3154 129.344C42.3154 127.315 41.4529 125.014 40.1295 123.137C39.659 122.473 39.1355 121.867 38.5763 121.339C38.0798 120.879 37.5618 120.481 37.0185 120.167C35.821 119.488 34.7233 119.336 33.9804 119.759C33.2272 120.193 32.8146 121.202 32.8146 122.593C32.8146 123.2 32.8985 123.849 33.0553 124.528L31.0896 125.663L31.0532 125.532C30.7657 124.502 30.6191 123.514 30.6191 122.594C30.6191 120.382 31.4246 118.698 32.8835 117.856C34.3368 117.014 36.1932 117.161 38.1178 118.27C38.97 118.762 39.7857 119.425 40.5334 120.209C41.0616 120.769 41.5638 121.386 42.0128 122.05C43.5279 124.276 44.5108 126.963 44.5108 129.343Z" fill="#263238"/>
<path d="M60.8999 119.883C60.8999 120.369 60.8579 120.845 60.7795 121.3C60.732 121.551 60.675 121.796 60.6013 122.027C60.2457 123.193 59.5765 124.082 58.6403 124.621C58.0289 124.982 57.328 125.165 56.5692 125.165C56.3863 125.165 56.1978 125.154 56.0101 125.128C55.9784 125.034 55.9578 124.93 55.942 124.82C55.858 124.224 55.9737 123.56 56.2398 122.943C56.7419 123.001 57.1807 122.927 57.5418 122.718C58.2847 122.29 58.5564 121.39 58.6506 120.679C58.6562 120.647 58.6609 120.611 58.6664 120.58C58.6926 120.376 58.7029 120.151 58.7029 119.885C58.7029 117.855 57.8404 115.555 56.517 113.678C56.0513 113.013 55.5286 112.402 54.9639 111.879C54.472 111.419 53.9493 111.021 53.406 110.708C52.214 110.028 51.1108 109.876 50.3679 110.3C49.6202 110.734 49.2021 111.738 49.2021 113.133C49.2021 113.735 49.286 114.383 49.4476 115.063L47.4763 116.198L47.4399 116.067C47.1524 115.042 47.0059 114.054 47.0059 113.133C47.0059 110.921 47.8113 109.238 49.2749 108.396C50.7235 107.554 52.5847 107.7 54.5037 108.804C55.3614 109.3 56.1772 109.965 56.9193 110.749C57.4523 111.308 57.9497 111.93 58.3988 112.589C59.9218 114.817 60.8999 117.504 60.8999 119.883Z" fill="#263238"/>
<path d="M77.2596 110.435C77.2596 110.921 77.2177 111.397 77.1392 111.852C77.0917 112.103 77.0347 112.344 76.9618 112.573C76.6062 113.745 75.937 114.633 75.0009 115.172C74.3894 115.533 73.6885 115.716 72.9306 115.716C72.7476 115.716 72.5591 115.706 72.3706 115.68C72.3389 115.585 72.3183 115.481 72.3025 115.371C72.2186 114.774 72.3334 114.111 72.6003 113.494C73.1024 113.551 73.5412 113.478 73.9023 113.269C74.65 112.84 74.9216 111.935 75.0111 111.225C75.0214 111.193 75.0214 111.162 75.027 111.13C75.0531 110.926 75.0634 110.696 75.0634 110.435C75.0634 108.406 74.2009 106.111 72.8775 104.234C72.4118 103.569 71.8891 102.958 71.3244 102.429C70.8334 101.969 70.3098 101.572 69.7665 101.258C68.5746 100.578 67.4713 100.426 66.7284 100.85C65.9808 101.284 65.5626 102.288 65.5626 103.684C65.5626 104.291 65.6466 104.938 65.8034 105.619L63.8376 106.754L63.8012 106.617C63.5137 105.593 63.3672 104.604 63.3672 103.684C63.3672 101.472 64.1727 99.7881 65.6315 98.9462C67.0856 98.1043 68.9468 98.2508 70.8658 99.3588C71.718 99.8506 72.5338 100.514 73.2814 101.298C73.8144 101.858 74.3118 102.475 74.7664 103.139C76.2823 105.368 77.2596 108.056 77.2596 110.435Z" fill="#263238"/>
<path d="M110.01 91.5583C110.01 92.0391 109.974 92.5206 109.89 92.9752C109.842 93.2318 109.785 93.4718 109.711 93.707C109.356 94.8681 108.687 95.7567 107.75 96.2953C107.139 96.6509 106.443 96.8338 105.685 96.8338C105.496 96.8338 105.309 96.8235 105.12 96.7974C105.089 96.6929 105.062 96.5828 105.047 96.4679C104.964 95.8771 105.079 95.2237 105.335 94.6115C105.842 94.6741 106.286 94.6012 106.658 94.3921C107.405 93.9581 107.677 93.0433 107.766 92.321C107.772 92.2949 107.772 92.2743 107.777 92.2482C107.803 92.0494 107.813 91.8197 107.813 91.5583C107.813 89.5189 106.945 87.2134 105.617 85.3308C105.146 84.6671 104.623 84.0605 104.053 83.5322C103.567 83.0823 103.049 82.6903 102.516 82.3822C101.324 81.6971 100.221 81.5506 99.4781 81.9743C98.7304 82.4028 98.317 83.4126 98.317 84.8081C98.317 85.3989 98.3898 86.0373 98.5467 86.7113L96.5809 87.8462L96.5493 87.7417C96.2618 86.7113 96.1152 85.7237 96.1152 84.8081C96.1152 82.5913 96.9207 80.9123 98.3843 80.0704C99.8376 79.2285 101.694 79.3694 103.613 80.4782C104.461 80.9645 105.271 81.6235 106.014 82.4028C106.547 82.962 107.049 83.5797 107.499 84.2434C109.027 86.4753 110.01 89.1689 110.01 91.5583Z" fill="#263238"/>
<path d="M126.401 82.094C126.401 82.5858 126.359 83.0618 126.276 83.5164C126.23 83.773 126.172 84.013 126.098 84.2482C125.742 85.4093 125.073 86.2979 124.143 86.8317C123.526 87.1921 122.83 87.3758 122.072 87.3758C121.889 87.3758 121.696 87.3655 121.508 87.3394C121.476 87.2348 121.45 87.1248 121.435 87.0044C121.351 86.4136 121.466 85.7649 121.728 85.1535C122.235 85.216 122.679 85.1432 123.046 84.9286C123.793 84.5001 124.071 83.5845 124.159 82.863C124.165 82.8369 124.165 82.8155 124.17 82.7902C124.19 82.5858 124.206 82.3617 124.206 82.0948C124.206 80.0609 123.338 77.7499 122.005 75.872C121.535 75.2075 121.012 74.5961 120.447 74.0679C119.961 73.618 119.443 73.226 118.91 72.9171C117.718 72.2375 116.615 72.0855 115.872 72.5147C115.119 72.9432 114.706 73.953 114.706 75.3485C114.706 75.9393 114.784 76.5769 114.941 77.2469L112.97 78.3866L112.944 78.2821C112.656 77.2517 112.51 76.2688 112.51 75.3485C112.51 73.1317 113.315 71.4479 114.774 70.6108C116.227 69.7633 118.089 69.9099 120.008 71.0187C120.855 71.5105 121.666 72.1694 122.398 72.9432H122.403C122.942 73.5024 123.439 74.1201 123.888 74.7838C125.413 77.0165 126.401 79.7093 126.401 82.094Z" fill="#263238"/>
<path d="M142.763 72.6454C142.763 73.1372 142.721 73.6124 142.637 74.0678C142.59 74.3133 142.532 74.5541 142.459 74.779C142.109 75.9504 141.44 76.8445 140.504 77.3886C139.887 77.7443 139.192 77.9272 138.433 77.9272C138.25 77.9272 138.061 77.9169 137.874 77.8908C137.842 77.7862 137.816 77.6714 137.801 77.5558C137.717 76.9649 137.833 76.3163 138.088 75.7049C138.59 75.7674 139.035 75.6946 139.406 75.4799C140.154 75.0515 140.426 74.1359 140.515 73.4144C140.521 73.3883 140.521 73.3677 140.525 73.3415C140.551 73.1372 140.567 72.9131 140.567 72.6462C140.567 70.6123 139.699 68.3012 138.366 66.4234C137.896 65.7589 137.368 65.1475 136.803 64.6248C136.317 64.1702 135.804 63.7829 135.271 63.474C134.074 62.7889 132.975 62.6424 132.233 63.0661C131.48 63.4946 131.067 64.5044 131.067 65.8999C131.067 66.4907 131.146 67.1283 131.303 67.8031L129.331 68.938L129.305 68.8335C129.018 67.8031 128.871 66.8155 128.871 65.8999C128.871 63.6831 129.677 62.0041 131.135 61.1622C132.589 60.3203 134.445 60.4612 136.37 61.57C137.217 62.0563 138.022 62.7153 138.765 63.489C139.298 64.0482 139.8 64.6707 140.25 65.3352C141.774 67.5679 142.763 70.2607 142.763 72.6454Z" fill="#263238"/>
<path d="M33.4035 169.042L157.376 97.5264L154.68 78.6143L30.6973 150.137L33.4035 169.042Z" fill="#3AC7BA"/>
<g opacity="0.65">
<path d="M33.4035 169.042L157.376 97.5256L154.68 78.6143L30.6973 150.137L33.4035 169.042Z" fill="#F0ECEC"/>
</g>
<path d="M43.1795 173.631C43.3284 174.675 44.2955 175.033 45.3385 174.43L54.6421 169.061C55.686 168.458 56.4107 167.124 56.261 166.08C56.1113 165.036 55.1443 164.678 54.1012 165.281L44.7984 170.65C43.7553 171.253 43.0307 172.587 43.1795 173.631Z" fill="#3AC7BA"/>
<path d="M58.871 164.571C59.0199 165.615 59.9869 165.973 61.0299 165.371L70.3335 160.002C71.3774 159.399 72.1021 158.064 71.9524 157.021C71.8027 155.977 70.8357 155.619 69.7926 156.221L60.4898 161.59C59.4467 162.193 58.7221 163.528 58.871 164.571Z" fill="#3AC7BA"/>
<path d="M74.5624 155.511C74.7113 156.555 75.6783 156.913 76.7213 156.31L86.025 150.941C87.0688 150.338 87.7935 149.004 87.6438 147.96C87.4949 146.916 86.5271 146.558 85.484 147.161L76.1812 152.53C75.1381 153.133 74.4135 154.467 74.5624 155.511Z" fill="#3AC7BA"/>
<path d="M90.2557 146.45C90.4046 147.494 91.3716 147.852 92.4147 147.25L101.718 141.881C102.761 141.279 103.487 139.943 103.337 138.899C103.187 137.856 102.22 137.498 101.177 138.1L91.8746 143.469C90.8323 144.072 90.1068 145.407 90.2557 146.45Z" fill="#3AC7BA"/>
<path d="M105.949 137.39C106.098 138.434 107.065 138.792 108.108 138.189L117.412 132.82C118.456 132.217 119.18 130.883 119.031 129.839C118.881 128.795 117.914 128.437 116.871 129.04L107.569 134.41C106.525 135.011 105.8 136.346 105.949 137.39Z" fill="#3AC7BA"/>
<path d="M121.639 128.329C121.787 129.373 122.754 129.731 123.798 129.128L133.102 123.759C134.146 123.157 134.87 121.822 134.721 120.778C134.572 119.735 133.605 119.377 132.561 119.979L123.258 125.348C122.214 125.951 121.49 127.285 121.639 128.329Z" fill="#3AC7BA"/>
<path d="M137.33 119.269C137.479 120.313 138.446 120.671 139.489 120.068L148.793 114.699C149.836 114.096 150.561 112.762 150.411 111.718C150.262 110.674 149.295 110.316 148.252 110.919L138.949 116.288C137.907 116.89 137.181 118.225 137.33 119.269Z" fill="#3AC7BA"/>
<g opacity="0.17">
<path d="M160.733 173.74C160.473 173.751 160.237 173.579 160.205 173.356L152.627 120.425C152.595 120.203 152.779 120.014 153.038 120.003C153.298 119.993 153.534 120.164 153.566 120.387L161.145 173.318C161.176 173.54 160.992 173.729 160.733 173.74Z" fill="#3AC7BA"/>
<path d="M145.032 182.805C144.773 182.815 144.537 182.644 144.505 182.421L136.925 129.489C136.894 129.266 137.077 129.077 137.337 129.067C137.597 129.057 137.833 129.228 137.865 129.451L145.444 182.383C145.476 182.605 145.292 182.795 145.032 182.805Z" fill="#3AC7BA"/>
<path d="M129.335 191.868C129.075 191.879 128.84 191.708 128.808 191.484L121.228 138.552C121.196 138.33 121.38 138.141 121.64 138.13C121.9 138.12 122.136 138.291 122.167 138.514L129.747 191.445C129.779 191.669 129.594 191.857 129.335 191.868Z" fill="#3AC7BA"/>
<path d="M113.636 200.932C113.376 200.942 113.141 200.771 113.108 200.548L105.529 147.616C105.497 147.393 105.681 147.204 105.941 147.194C106.201 147.184 106.437 147.355 106.468 147.578L114.048 200.51C114.079 200.732 113.896 200.921 113.636 200.932Z" fill="#3AC7BA"/>
<path d="M97.9374 209.996C97.6776 210.007 97.4416 209.836 97.4099 209.613L89.8297 156.681C89.798 156.459 89.9826 156.27 90.2416 156.259C90.5013 156.249 90.7373 156.42 90.769 156.643L98.35 209.576C98.3809 209.797 98.1972 209.985 97.9374 209.996Z" fill="#3AC7BA"/>
<path d="M82.2374 219.06C81.9776 219.07 81.7416 218.899 81.7099 218.676L74.1305 165.744C74.0988 165.521 74.2826 165.332 74.5423 165.322C74.8021 165.311 75.0381 165.483 75.0698 165.705L82.6492 218.637C82.6809 218.86 82.4972 219.049 82.2374 219.06Z" fill="#3AC7BA"/>
<path d="M66.5382 228.124C66.2784 228.134 66.0424 227.963 66.0107 227.74L58.4313 174.808C58.3996 174.586 58.5833 174.396 58.8431 174.386C59.1029 174.376 59.3381 174.547 59.3706 174.77L66.95 227.702C66.9817 227.924 66.798 228.113 66.5382 228.124Z" fill="#3AC7BA"/>
<path d="M50.8417 237.187C50.5819 237.198 50.3459 237.027 50.3142 236.803L42.734 183.871C42.7023 183.648 42.8861 183.459 43.1459 183.449C43.4056 183.438 43.6409 183.609 43.6733 183.833L51.2543 236.765C51.2852 236.988 51.1015 237.177 50.8417 237.187Z" fill="#3AC7BA"/>
<path d="M45.1563 197.489C44.9948 197.495 44.8261 197.429 44.7207 197.304C44.5631 197.117 44.6043 196.867 44.8134 196.747L154.705 133.3C154.911 133.178 155.21 133.233 155.367 133.422C155.524 133.609 155.482 133.859 155.274 133.979L45.3836 197.425C45.3139 197.465 45.2363 197.486 45.1563 197.489Z" fill="#3AC7BA"/>
<path d="M47.0501 210.721C46.8885 210.727 46.7198 210.661 46.6153 210.536C46.4577 210.349 46.4988 210.099 46.7079 209.979L156.599 146.533C156.806 146.41 157.105 146.466 157.261 146.654C157.419 146.842 157.378 147.092 157.169 147.212L47.2774 210.657C47.2085 210.697 47.1301 210.718 47.0501 210.721Z" fill="#3AC7BA"/>
<path d="M48.9454 223.954C48.7838 223.96 48.6151 223.894 48.5098 223.769C48.3522 223.581 48.3934 223.332 48.6025 223.212L158.495 159.766C158.701 159.644 159 159.7 159.157 159.887C159.314 160.075 159.272 160.324 159.064 160.445L49.1727 223.89C49.1038 223.93 49.0254 223.951 48.9454 223.954Z" fill="#3AC7BA"/>
<path d="M50.8417 237.187C50.7609 237.191 50.677 237.176 50.5993 237.142C50.4441 237.077 50.3348 236.947 50.3142 236.803L42.734 183.871C42.7134 183.727 42.7839 183.59 42.9185 183.513L152.811 120.067C152.945 119.989 153.125 119.982 153.28 120.048C153.436 120.114 153.544 120.243 153.565 120.387L161.144 173.318C161.165 173.462 161.094 173.599 160.959 173.676L51.069 237.123C51.0017 237.163 50.9225 237.184 50.8417 237.187ZM43.7066 184.066L51.1537 236.067L160.171 173.124L152.727 121.125L43.7066 184.066Z" fill="#3AC7BA"/>
</g>
<g opacity="0.17">
<path d="M160.733 173.74C160.473 173.751 160.237 173.579 160.205 173.356L152.627 120.425C152.595 120.203 152.779 120.014 153.038 120.003C153.298 119.993 153.534 120.164 153.566 120.387L161.145 173.318C161.176 173.54 160.992 173.729 160.733 173.74Z" fill="black"/>
<path d="M145.032 182.805C144.773 182.815 144.537 182.644 144.505 182.421L136.925 129.489C136.894 129.266 137.077 129.077 137.337 129.067C137.597 129.057 137.833 129.228 137.865 129.451L145.444 182.383C145.476 182.605 145.292 182.795 145.032 182.805Z" fill="black"/>
<path d="M129.335 191.868C129.075 191.879 128.84 191.708 128.808 191.484L121.228 138.552C121.196 138.33 121.38 138.141 121.64 138.13C121.9 138.12 122.136 138.291 122.167 138.514L129.747 191.445C129.779 191.669 129.594 191.857 129.335 191.868Z" fill="black"/>
<path d="M113.636 200.932C113.376 200.942 113.141 200.771 113.108 200.548L105.529 147.616C105.497 147.393 105.681 147.204 105.941 147.194C106.201 147.184 106.437 147.355 106.468 147.578L114.048 200.51C114.079 200.732 113.896 200.921 113.636 200.932Z" fill="black"/>
<path d="M97.9374 209.996C97.6776 210.007 97.4416 209.836 97.4099 209.613L89.8297 156.681C89.798 156.459 89.9826 156.27 90.2416 156.259C90.5013 156.249 90.7373 156.42 90.769 156.643L98.35 209.576C98.3809 209.797 98.1972 209.985 97.9374 209.996Z" fill="black"/>
<path d="M82.2374 219.06C81.9776 219.07 81.7416 218.899 81.7099 218.676L74.1305 165.744C74.0988 165.521 74.2826 165.332 74.5423 165.322C74.8021 165.311 75.0381 165.483 75.0698 165.705L82.6492 218.637C82.6809 218.86 82.4972 219.049 82.2374 219.06Z" fill="black"/>
<path d="M66.5382 228.124C66.2784 228.134 66.0424 227.963 66.0107 227.74L58.4313 174.808C58.3996 174.586 58.5833 174.396 58.8431 174.386C59.1029 174.376 59.3381 174.547 59.3706 174.77L66.95 227.702C66.9817 227.924 66.798 228.113 66.5382 228.124Z" fill="black"/>
<path d="M50.8417 237.187C50.5819 237.198 50.3459 237.027 50.3142 236.803L42.734 183.871C42.7023 183.648 42.8861 183.459 43.1459 183.449C43.4056 183.438 43.6409 183.609 43.6733 183.833L51.2543 236.765C51.2852 236.988 51.1015 237.177 50.8417 237.187Z" fill="black"/>
<path d="M45.1563 197.489C44.9948 197.495 44.8261 197.429 44.7207 197.304C44.5631 197.117 44.6043 196.867 44.8134 196.747L154.705 133.3C154.911 133.178 155.21 133.233 155.367 133.422C155.524 133.609 155.482 133.859 155.274 133.979L45.3836 197.425C45.3139 197.465 45.2363 197.486 45.1563 197.489Z" fill="black"/>
<path d="M47.0501 210.721C46.8885 210.727 46.7198 210.661 46.6153 210.536C46.4577 210.349 46.4988 210.099 46.7079 209.979L156.599 146.533C156.806 146.41 157.105 146.466 157.261 146.654C157.419 146.842 157.378 147.092 157.169 147.212L47.2774 210.657C47.2085 210.697 47.1301 210.718 47.0501 210.721Z" fill="black"/>
<path d="M48.9454 223.954C48.7838 223.96 48.6151 223.894 48.5098 223.769C48.3522 223.581 48.3934 223.332 48.6025 223.212L158.495 159.766C158.701 159.644 159 159.7 159.157 159.887C159.314 160.075 159.272 160.324 159.064 160.445L49.1727 223.89C49.1038 223.93 49.0254 223.951 48.9454 223.954Z" fill="black"/>
<path d="M50.8417 237.187C50.7609 237.191 50.677 237.176 50.5993 237.142C50.4441 237.077 50.3348 236.947 50.3142 236.803L42.734 183.871C42.7134 183.727 42.7839 183.59 42.9185 183.513L152.811 120.067C152.945 119.989 153.125 119.982 153.28 120.048C153.436 120.114 153.544 120.243 153.565 120.387L161.144 173.318C161.165 173.462 161.094 173.599 160.959 173.676L51.069 237.123C51.0017 237.163 50.9225 237.184 50.8417 237.187ZM43.7066 184.066L51.1537 236.067L160.171 173.124L152.727 121.125L43.7066 184.066Z" fill="black"/>
</g>
<path d="M63.6805 189.769C67.3348 190.51 71.0176 191.127 74.6917 191.759C75.1471 191.838 75.6017 191.916 76.0571 191.995C76.6954 192.105 76.9512 191.203 76.2693 191.085C72.7917 190.487 69.3108 189.903 65.8268 189.342C65.1711 189.237 64.5153 189.137 63.8571 189.046C63.3091 188.969 63.1103 189.653 63.6805 189.769Z" fill="#455A64"/>
<path d="M74.1436 183.267C73.6724 183.746 73.2962 184.312 72.9279 184.872C72.2238 185.945 71.5166 187.015 70.8109 188.087C69.2507 190.458 67.711 192.843 66.1643 195.224C65.6859 195.96 65.1442 196.683 64.7181 197.452C64.6373 197.597 64.6603 197.799 64.8044 197.902C64.8392 197.927 64.8741 197.952 64.9081 197.978C64.8725 197.856 64.8377 197.734 64.802 197.612C64.7996 197.616 64.7973 197.62 64.7957 197.623C64.6492 197.848 65.0642 198.234 65.2297 197.98C65.202 198.023 65.4705 197.886 65.5196 197.826C65.5552 197.783 65.5829 197.728 65.6138 197.681C65.7017 197.547 65.7888 197.412 65.876 197.277C66.1294 196.885 66.3828 196.494 66.6371 196.103C67.3792 194.958 68.1221 193.812 68.8642 192.667C70.449 190.222 72.0187 187.769 73.5924 185.317C73.9456 184.767 74.3195 184.204 74.5365 183.582C74.6077 183.377 74.3242 183.083 74.1436 183.267Z" fill="#455A64"/>
<path d="M79.0549 180.328C82.7092 181.069 86.392 181.686 90.0661 182.318C90.5215 182.396 90.9761 182.475 91.4315 182.553C92.0699 182.663 92.3257 181.761 91.6437 181.644C88.1661 181.046 84.6853 180.462 81.2013 179.901C80.5455 179.795 79.8897 179.696 79.2316 179.605C78.6843 179.528 78.4855 180.212 79.0549 180.328Z" fill="#455A64"/>
<path d="M89.5186 173.825C89.0474 174.305 88.6712 174.871 88.3029 175.431C87.5988 176.503 86.8916 177.574 86.1859 178.646C84.6257 181.017 83.086 183.402 81.5393 185.782C81.0609 186.519 80.5192 187.242 80.0931 188.01C80.0123 188.156 80.0353 188.357 80.1794 188.461C80.2142 188.485 80.2491 188.511 80.2831 188.537C80.2475 188.415 80.2127 188.293 80.177 188.171C80.1746 188.174 80.1723 188.178 80.1707 188.181C80.0242 188.407 80.4392 188.793 80.6047 188.538C80.577 188.58 80.8455 188.443 80.8946 188.385C80.9302 188.341 80.9579 188.287 80.9888 188.24C81.0767 188.105 81.1638 187.971 81.251 187.835C81.5044 187.444 81.7579 187.053 82.0121 186.661C82.7542 185.516 83.4971 184.371 84.2392 183.226C85.824 180.782 87.3937 178.328 88.9674 175.876C89.3206 175.325 89.6953 174.762 89.9115 174.141C89.9828 173.936 89.6992 173.642 89.5186 173.825Z" fill="#455A64"/>
<path d="M94.9557 171.273C98.6099 172.014 102.293 172.631 105.967 173.263C106.422 173.342 106.877 173.42 107.332 173.499C107.971 173.609 108.226 172.707 107.544 172.589C104.067 171.991 100.586 171.407 97.102 170.846C96.4462 170.741 95.7904 170.641 95.1323 170.55C94.585 170.473 94.3854 171.157 94.9557 171.273Z" fill="#455A64"/>
<path d="M105.419 164.771C104.948 165.25 104.572 165.816 104.203 166.376C103.499 167.449 102.792 168.519 102.086 169.591C100.526 171.962 98.9864 174.347 97.4396 176.728C96.9613 177.464 96.4188 178.187 95.9935 178.956C95.9127 179.101 95.9356 179.302 96.0798 179.406C96.1146 179.431 96.1495 179.456 96.1835 179.482C96.1479 179.36 96.1131 179.238 96.0774 179.116C96.075 179.12 96.0727 179.123 96.0711 179.127C95.9246 179.352 96.3396 179.738 96.5051 179.484C96.4774 179.527 96.7459 179.39 96.795 179.33C96.8306 179.287 96.8583 179.232 96.8892 179.185C96.9771 179.051 97.0642 178.915 97.1514 178.781C97.4048 178.389 97.659 177.998 97.9125 177.607C98.6546 176.462 99.3975 175.316 100.14 174.171C101.724 171.726 103.294 169.273 104.868 166.821C105.221 166.271 105.595 165.708 105.812 165.086C105.883 164.881 105.6 164.587 105.419 164.771Z" fill="#455A64"/>
<path d="M110.76 162.093C114.415 162.835 118.097 163.452 121.772 164.084C122.227 164.162 122.682 164.24 123.137 164.319C123.775 164.429 124.031 163.527 123.349 163.41C119.872 162.812 116.391 162.227 112.907 161.666C112.251 161.561 111.595 161.461 110.937 161.37C110.39 161.293 110.19 161.978 110.76 162.093Z" fill="#455A64"/>
<path d="M121.223 155.592C120.752 156.071 120.375 156.637 120.008 157.198C119.304 158.271 118.597 159.341 117.891 160.413C116.331 162.784 114.791 165.169 113.244 167.55C112.766 168.286 112.224 169.009 111.798 169.778C111.717 169.923 111.74 170.125 111.884 170.228C111.919 170.253 111.954 170.278 111.988 170.304C111.953 170.182 111.918 170.06 111.882 169.938C111.88 169.942 111.877 169.946 111.876 169.949C111.729 170.174 112.144 170.56 112.31 170.306C112.282 170.349 112.551 170.212 112.6 170.152C112.635 170.109 112.663 170.054 112.694 170.007C112.782 169.873 112.869 169.738 112.956 169.603C113.209 169.211 113.464 168.82 113.717 168.429C114.459 167.284 115.202 166.138 115.944 164.993C117.529 162.549 119.099 160.095 120.672 157.643C121.026 157.093 121.4 156.53 121.617 155.908C121.688 155.702 121.403 155.408 121.223 155.592Z" fill="#455A64"/>
<path d="M126.456 153.035C130.11 153.776 133.793 154.393 137.467 155.025C137.922 155.103 138.377 155.182 138.832 155.26C139.471 155.37 139.726 154.468 139.044 154.351C135.567 153.752 132.086 153.169 128.602 152.608C127.946 152.503 127.29 152.403 126.632 152.312C126.085 152.235 125.885 152.919 126.456 153.035Z" fill="#455A64"/>
<path d="M136.919 146.532C136.448 147.012 136.072 147.578 135.703 148.138C134.999 149.21 134.292 150.281 133.586 151.353C132.026 153.724 130.486 156.109 128.94 158.489C128.461 159.226 127.92 159.949 127.493 160.717C127.413 160.863 127.436 161.064 127.58 161.168C127.615 161.192 127.649 161.218 127.684 161.244C127.648 161.122 127.613 161 127.577 160.878C127.575 160.881 127.573 160.885 127.571 160.888C127.425 161.114 127.84 161.5 128.005 161.245C127.977 161.288 128.246 161.151 128.295 161.092C128.331 161.048 128.358 160.994 128.389 160.947C128.477 160.812 128.564 160.677 128.651 160.542C128.905 160.151 129.158 159.76 129.412 159.368C130.155 158.223 130.897 157.078 131.64 155.933C133.224 153.489 134.794 151.035 136.368 148.583C136.721 148.033 137.096 147.469 137.312 146.848C137.383 146.643 137.1 146.349 136.919 146.532Z" fill="#455A64"/>
<path d="M65.7486 201.979C69.4029 202.72 73.0857 203.337 76.7598 203.969C77.2152 204.048 77.6698 204.126 78.1252 204.205C78.7635 204.315 79.0194 203.413 78.3374 203.295C74.8598 202.697 71.379 202.113 67.895 201.552C67.2392 201.447 66.5834 201.347 65.9253 201.256C65.378 201.179 65.1784 201.863 65.7486 201.979Z" fill="#455A64"/>
<path d="M76.212 195.477C75.7408 195.956 75.3646 196.522 74.9963 197.082C74.2922 198.155 73.5849 199.225 72.8793 200.298C71.319 202.669 69.7794 205.054 68.2326 207.434C67.7542 208.171 67.2125 208.894 66.7864 209.662C66.7056 209.808 66.7286 210.009 66.8728 210.113C66.9076 210.138 66.9425 210.163 66.9765 210.189C66.9409 210.067 66.906 209.945 66.8704 209.823C66.868 209.826 66.8656 209.83 66.8633 209.833C66.7167 210.059 67.1317 210.445 67.2973 210.191C67.2695 210.233 67.538 210.096 67.5871 210.037C67.6228 209.993 67.6505 209.939 67.6814 209.892C67.7693 209.757 67.8564 209.623 67.9435 209.487C68.197 209.096 68.4504 208.705 68.7046 208.314C69.4467 207.168 70.1896 206.023 70.9317 204.878C72.5165 202.433 74.0863 199.98 75.66 197.528C76.0132 196.978 76.387 196.415 76.604 195.793C76.6761 195.588 76.3926 195.293 76.212 195.477Z" fill="#455A64"/>
<path d="M113.506 179.426C112.629 178.588 111.414 178.177 110.235 178.001C107.87 177.648 105.375 178.381 103.668 180.068C103.442 180.292 103.875 180.713 104.114 180.51C105.667 179.181 107.763 178.466 109.804 178.673C110.784 178.772 111.824 179.074 112.599 179.703C113.41 180.361 113.701 181.347 113.644 182.363C113.542 184.177 112.676 186.011 111.712 187.523C110.714 189.091 109.434 190.457 107.97 191.599C106.518 192.732 104.874 193.644 103.142 194.27C101.357 194.914 99.205 195.447 97.3668 194.702C95.5769 193.978 94.6653 192.121 94.5829 190.267C94.4855 188.073 95.3472 185.844 96.4505 184.011C97.7327 181.88 99.5076 180.303 101.511 178.834C102.492 178.115 103.553 177.42 104.658 176.909C106.097 176.244 107.183 176.003 108.359 175.692C108.924 175.542 108.237 175.14 107.683 175.232C106.414 175.443 106.194 175.445 104.565 176.123C103.403 176.607 101.846 177.472 100.823 178.202C98.7972 179.649 96.8631 181.328 95.5547 183.449C94.3263 185.441 93.4813 187.765 93.5335 190.162C93.5763 192.154 94.48 194.151 96.2382 195.184C98.1683 196.318 100.624 196.018 102.664 195.382C104.637 194.766 106.497 193.828 108.171 192.618C109.792 191.445 111.232 189.995 112.355 188.336C113.477 186.678 114.461 184.649 114.601 182.624C114.683 181.438 114.384 180.266 113.506 179.426Z" fill="#3AC7BA"/>
<path d="M191.236 224.046L196.129 226.338L200.996 228.668L210.691 233.385L220.329 238.185L225.129 240.615L229.902 243.082L225.01 240.791L220.142 238.461L210.448 233.743L200.81 228.942L196.011 226.513L191.236 224.046Z" fill="#E0E0E0"/>
<path d="M199.117 233.751C200.215 234.238 201.296 234.747 202.386 235.245L205.63 236.776C207.79 237.8 209.928 238.857 212.078 239.896C214.208 240.964 216.35 242.017 218.47 243.099L221.646 244.731C222.696 245.288 223.754 245.832 224.796 246.4C223.699 245.913 222.617 245.404 221.527 244.907L218.282 243.375C216.123 242.35 213.984 241.295 211.835 240.254C209.705 239.185 207.563 238.134 205.443 237.051L202.267 235.42C201.218 234.863 200.16 234.319 199.117 233.751Z" fill="#E0E0E0"/>
<path d="M179.175 208.813L175.162 206.765C172.483 205.405 169.783 204.075 167.095 202.729C164.386 201.413 162.911 200.682 160.193 199.38L157.301 198V198.275L160.007 199.655C162.685 201.016 164.163 201.741 166.851 203.088C169.559 204.405 172.257 205.738 174.974 207.041L179.056 208.988C180.425 209.625 181.786 210.273 183.162 210.898C181.841 210.192 180.504 209.509 179.175 208.813Z" fill="#E0E0E0"/>
<path d="M158.664 204.624C159.384 204.928 160.089 205.254 160.801 205.568L162.913 206.55C164.32 207.205 165.709 207.888 167.097 208.571C168.479 209.263 169.861 209.955 171.224 210.675L173.268 211.757C173.94 212.13 174.621 212.491 175.285 212.876C174.565 212.573 173.861 212.246 173.148 211.932L171.036 210.951C169.628 210.296 168.24 209.613 166.852 208.929C165.47 208.237 164.088 207.545 162.726 206.824L160.682 205.743C160.01 205.369 159.329 205.008 158.664 204.624Z" fill="#E0E0E0"/>
</svg>
