<svg width="275" height="275" viewBox="0 0 275 275" fill="none" xmlns="http://www.w3.org/2000/svg">
<path d="M45.9424 135.992C-4.62243 165.186 -4.62133 212.518 45.9451 241.712C96.5116 270.906 178.495 270.906 229.059 241.712C279.624 212.519 279.623 165.186 229.056 135.992C178.49 106.798 96.5072 106.798 45.9424 135.992Z" fill="#2F2E2E"/>
<path d="M35.0712 246.624L41.2021 243.082C41.2021 243.082 44.8508 227.92 43.3971 214.277C41.3528 195.096 28.7264 187.878 23.9255 189.533C19.1245 191.187 17.7341 196.768 25.6783 208.192C30.3649 214.933 36.1228 228.972 35.0712 246.624Z" fill="#3AC7BA"/>
<g opacity="0.65">
<path d="M35.0712 246.624L41.2021 243.082C41.2021 243.082 44.8508 227.92 43.3971 214.277C41.3528 195.096 28.7264 187.878 23.9255 189.533C19.1245 191.187 17.7341 196.768 25.6783 208.192C30.3649 214.933 36.1228 228.972 35.0712 246.624Z" fill="white"/>
</g>
<path d="M37.6122 239.176C37.5924 239.174 37.5731 239.172 37.5533 239.168C37.3229 239.124 37.1711 238.902 37.2151 238.672C40.5756 220.98 34.3952 201.1 26.742 192.827C26.5825 192.655 26.5929 192.385 26.7656 192.226C26.9383 192.069 27.2073 192.077 27.3668 192.25C35.1592 200.673 41.4605 220.878 38.05 238.83C38.0109 239.041 37.8206 239.186 37.6122 239.176Z" fill="white"/>
<path d="M19.6414 255.533C18.7256 255.999 16.2897 253.914 15.611 253.407C14.4488 252.539 13.5314 251.347 12.9495 250.022C12.2719 248.479 12.1636 246.858 12.4831 245.205C12.6492 244.348 12.933 243.519 13.2163 242.693C13.4946 241.882 13.7723 241.072 14.0501 240.261C14.3245 239.461 14.6023 238.634 14.5374 237.79C14.4065 236.092 12.9682 234.834 11.6576 233.745C10.2083 232.542 8.71505 230.974 8.82615 228.943C8.91195 227.375 9.7969 225.961 10.8309 224.779C11.8644 223.597 13.0722 222.569 14.016 221.314C14.6952 220.411 15.2436 219.337 15.1979 218.208C15.1693 217.507 14.913 216.834 14.61 216.201C13.9593 214.842 13.0738 213.583 12.6509 212.136C12.2274 210.69 12.3874 208.926 13.5479 207.965C14.5005 207.176 15.8596 207.128 17.0877 207.272C18.224 207.405 19.3119 207.975 20.2816 208.58C23.4166 210.536 25.0649 214.45 28.4183 216.002C29.7119 216.601 31.1523 216.791 32.5103 217.224C33.8682 217.657 35.2361 218.43 35.8092 219.736C36.9389 222.309 34.4512 225.284 35.2003 227.992C35.8631 230.389 38.1082 231.407 39.2879 233.597C39.8038 234.554 39.8792 235.635 39.734 236.713C39.4876 238.538 39.1515 239.869 38.1698 241.863C37.358 243.51 35.0727 246.624 35.0727 246.624C35.0727 246.624 19.7816 255.461 19.6414 255.533Z" fill="#3AC7BA"/>
<g opacity="0.3">
<path d="M19.6414 255.533C18.7256 255.999 16.2897 253.914 15.611 253.407C14.4488 252.539 13.5314 251.347 12.9495 250.022C12.2719 248.479 12.1636 246.858 12.4831 245.205C12.6492 244.348 12.933 243.519 13.2163 242.693C13.4946 241.882 13.7723 241.072 14.0501 240.261C14.3245 239.461 14.6023 238.634 14.5374 237.79C14.4065 236.092 12.9682 234.834 11.6576 233.745C10.2083 232.542 8.71505 230.974 8.82615 228.943C8.91195 227.375 9.7969 225.961 10.8309 224.779C11.8644 223.597 13.0722 222.569 14.016 221.314C14.6952 220.411 15.2436 219.337 15.1979 218.208C15.1693 217.507 14.913 216.834 14.61 216.201C13.9593 214.842 13.0738 213.583 12.6509 212.136C12.2274 210.69 12.3874 208.926 13.5479 207.965C14.5005 207.176 15.8596 207.128 17.0877 207.272C18.224 207.405 19.3119 207.975 20.2816 208.58C23.4166 210.536 25.0649 214.45 28.4183 216.002C29.7119 216.601 31.1523 216.791 32.5103 217.224C33.8682 217.657 35.2361 218.43 35.8092 219.736C36.9389 222.309 34.4512 225.284 35.2003 227.992C35.8631 230.389 38.1082 231.407 39.2879 233.597C39.8038 234.554 39.8792 235.635 39.734 236.713C39.4876 238.538 39.1515 239.869 38.1698 241.863C37.358 243.51 35.0727 246.624 35.0727 246.624C35.0727 246.624 19.7816 255.461 19.6414 255.533Z" fill="white"/>
</g>
<path d="M28.5146 250.908C28.5091 250.907 28.5036 250.907 28.5036 250.907C28.2764 250.887 28.1142 250.69 28.134 250.47C29.6019 234.557 22.9761 216.573 17.7709 211.183C17.6169 211.024 17.6213 210.769 17.7808 210.614C17.9414 210.46 18.1949 210.465 18.3495 210.624C23.6597 216.123 30.4236 234.406 28.9359 250.543C28.9155 250.759 28.7285 250.918 28.5146 250.908Z" fill="white"/>
<path d="M26.934 231.287C26.895 231.285 26.8548 231.278 26.8163 231.263C21.7728 229.421 15.4016 228.819 15.3384 228.814C15.1167 228.793 14.9545 228.597 14.9743 228.376C14.9952 228.155 15.1717 227.989 15.4121 228.012C15.477 228.019 21.9494 228.628 27.0924 230.507C27.3009 230.583 27.4087 230.814 27.3322 231.023C27.2701 231.193 27.1062 231.295 26.934 231.287Z" fill="white"/>
<path d="M136.77 15.1537L43.1496 69.1406C42.1822 69.6983 41.3984 71.0557 41.3984 72.1722V243.812C41.3984 244.929 42.1838 246.283 43.1529 246.838L43.5088 247.041C44.4779 247.595 46.0476 247.592 47.0145 247.034L140.637 192.976C141.603 192.418 142.387 191.06 142.387 189.944V18.3761C142.387 17.2596 141.602 15.905 140.633 15.3506L140.277 15.1476C139.307 14.5932 137.738 14.5954 136.77 15.1537Z" fill="#3AC7BA"/>
<path opacity="0.45" d="M136.77 15.1537L43.1496 69.1406C42.1822 69.6983 41.3984 71.0557 41.3984 72.1722V243.812C41.3984 244.929 42.1838 246.283 43.1529 246.838L43.5088 247.041C44.4779 247.595 46.0476 247.592 47.0145 247.034L140.637 192.976C141.603 192.418 142.387 191.06 142.387 189.944V18.3761C142.387 17.2596 141.602 15.905 140.633 15.3506L140.277 15.1476C139.307 14.5932 137.738 14.5954 136.77 15.1537Z" fill="black"/>
<path d="M142.387 190.069C142.387 191.608 141.306 192.589 139.968 193.359L47.6837 246.637C46.3516 247.407 45.2637 246.785 45.2637 245.239V75.1429C45.2637 73.4214 46.1822 71.8308 47.6727 70.9695L139.965 17.669C141.042 17.0475 142.388 17.8241 142.388 19.0671V190.069H142.387Z" fill="#3AC7BA"/>
<path opacity="0.3" d="M142.387 190.069C142.387 191.608 141.306 192.589 139.968 193.359L47.6837 246.637C46.3516 247.407 45.2637 246.785 45.2637 245.239V75.1429C45.2637 73.4214 46.1822 71.8308 47.6727 70.9695L139.965 17.669C141.042 17.0475 142.388 17.8241 142.388 19.0671V190.069H142.387Z" fill="black"/>
<path d="M142.389 18.3777V19.0652C142.389 17.825 141.041 17.05 139.963 17.6704L47.6725 70.9726C46.9245 71.3972 46.3245 72.0104 45.9136 72.7315C45.9004 72.7518 45.8933 72.765 45.8867 72.7854L41.8926 70.4787C42.216 69.9193 42.6543 69.4271 43.1526 69.1444L136.771 15.1547C137.741 14.5954 139.311 14.5954 140.275 15.1481L140.63 15.3527C141.6 15.9044 142.389 17.259 142.389 18.3777Z" fill="#3AC7BA"/>
<path opacity="0.2" d="M142.389 18.3777V19.0652C142.389 17.825 141.041 17.05 139.963 17.6704L47.6725 70.9726C46.9245 71.3972 46.3245 72.0104 45.9136 72.7315C45.9004 72.7518 45.8933 72.765 45.8867 72.7854L41.8926 70.4787C42.216 69.9193 42.6543 69.4271 43.1526 69.1444L136.771 15.1547C137.741 14.5954 139.311 14.5954 140.275 15.1481L140.63 15.3527C141.6 15.9044 142.389 17.259 142.389 18.3777Z" fill="black"/>
<path opacity="0.25" d="M140.103 182.979C140.103 184.565 138.991 185.575 137.611 186.368L50.3891 236.725C49.0174 237.518 47.8965 236.878 47.8965 235.285V84.0702C47.8965 82.297 48.8425 80.6586 50.3775 79.772L137.609 29.3914C138.717 28.7512 140.103 29.5509 140.103 30.8313V32.6826V182.979Z" fill="black"/>
<path d="M50.1309 81.6576L137.035 31.4844C137.446 31.2474 138.112 31.2474 138.522 31.4844L139.361 31.9684C139.772 32.2055 140.105 32.7824 140.105 33.2565V185.175C140.105 185.649 139.772 186.226 139.361 186.463L52.4585 236.637C52.0476 236.874 51.3816 236.874 50.9707 236.637L50.1309 236.152C49.72 235.914 49.3867 235.338 49.3867 234.863V82.9463C49.3867 82.4716 49.72 81.8952 50.1309 81.6576Z" fill="#F5F5F5"/>
<path d="M52.2806 236.717C52.1948 236.751 52.1029 236.774 52.0056 236.791C51.9599 236.797 51.9082 236.803 51.8626 236.808C51.7135 236.82 51.559 236.814 51.4105 236.791C51.3131 236.774 51.2213 236.751 51.1355 236.717C51.0783 236.694 51.0211 236.665 50.9694 236.637L50.1334 236.156C49.7209 235.915 49.3887 235.343 49.3887 234.868V82.9509C49.3887 82.7106 49.469 82.4471 49.6065 82.2178L51.9313 83.5576C51.7999 83.7924 51.7141 84.0559 51.7141 84.2907V236.207C51.7141 236.614 51.9544 236.814 52.2806 236.717Z" fill="#E0E0E0"/>
<path d="M139.363 31.9675L138.525 31.4835C138.114 31.2464 137.448 31.2464 137.037 31.4835L50.1328 81.6572C49.722 81.8943 49.3887 82.4712 49.3887 82.9459V92.3272L51.7157 93.6791L140.106 42.6468V33.2556C140.107 32.7815 139.773 32.2045 139.363 31.9675Z" fill="#3AC7BA"/>
<path opacity="0.4" d="M139.363 31.9675L138.525 31.4835C138.114 31.2464 137.448 31.2464 137.037 31.4835L50.1328 81.6572C49.722 81.8943 49.3887 82.4712 49.3887 82.9459V92.3272L51.7157 93.6791L140.106 42.6468V33.2556C140.107 32.7815 139.773 32.2045 139.363 31.9675Z" fill="white"/>
<path d="M140.079 33.031C139.987 32.7274 139.701 32.6301 139.363 32.8248L52.4592 82.9996C52.2529 83.12 52.0637 83.3203 51.9323 83.5551L49.6074 82.2153C49.7389 81.9804 49.9281 81.7742 50.1343 81.6598L137.038 31.485C137.445 31.2446 138.115 31.2446 138.522 31.485L139.364 31.9662C139.712 32.1725 140.004 32.613 140.079 33.031Z" fill="#3AC7BA"/>
<path opacity="0.6" d="M140.079 33.031C139.987 32.7274 139.701 32.6301 139.363 32.8248L52.4592 82.9996C52.2529 83.12 52.0637 83.3203 51.9323 83.5551L49.6074 82.2153C49.7389 81.9804 49.9281 81.7742 50.1343 81.6598L137.038 31.485C137.445 31.2446 138.115 31.2446 138.522 31.485L139.364 31.9662C139.712 32.1725 140.004 32.613 140.079 33.031Z" fill="white"/>
<path d="M49.3906 82.949V92.338L51.7155 93.68V84.2888C51.7155 84.0539 51.8013 83.7905 51.9327 83.5556L49.6079 82.2158C49.4709 82.4446 49.3906 82.7081 49.3906 82.949Z" fill="#3AC7BA"/>
<g opacity="0.25">
<path d="M120 37.7663V45.2369C120 47.1295 118.708 49.3619 117.07 50.3079L102.609 58.6547C101.894 59.0672 101.487 59.8922 101.057 60.7596C100.741 61.3965 100.414 62.0515 99.9406 62.5856C98.8181 63.8594 96.3678 65.1876 94.6386 65.7398C94.0562 65.9279 93.4737 66.0616 92.9039 66.1402C92.6856 66.1765 92.443 66.2068 92.1944 66.2376C90.617 66.4499 88.6519 66.7166 87.4996 67.3843L70.5756 77.1507C70.0663 77.4477 69.5625 77.5934 69.1016 77.5934C68.7435 77.5934 68.4102 77.5087 68.1127 77.3388C67.4213 76.9384 67.0391 76.1436 67.0391 75.1124V67.6417C67.0391 65.7492 68.325 63.5167 69.9689 62.5707L75.6526 59.2889C75.6768 59.2768 75.701 59.2647 75.7313 59.2586C76.0041 59.1371 76.3258 59.2465 76.4837 59.5133C76.6355 59.774 76.5629 60.1139 76.3264 60.2838C76.3082 60.308 76.284 60.3262 76.2598 60.3383L70.5761 63.6201C69.3205 64.3483 68.2529 66.1919 68.2529 67.6417V75.1124C68.2529 75.6888 68.4229 76.1134 68.7199 76.2833C69.0169 76.4593 69.4723 76.3867 69.9695 76.1013L86.8935 66.3289C88.252 65.5462 90.3514 65.2613 92.0311 65.0369C92.2797 65.0067 92.5167 64.9704 92.7345 64.9396C93.2317 64.867 93.7537 64.7515 94.2751 64.5815C95.8096 64.0964 98.0904 62.8529 99.0309 61.7853C99.4011 61.3728 99.6739 60.8085 99.9709 60.2206C100.462 59.2256 100.972 58.2004 102.003 57.6059L116.465 49.2591C117.72 48.5314 118.788 46.6873 118.788 45.2375V37.7663C118.788 37.1959 118.618 36.7653 118.321 36.5953C118.024 36.4193 117.563 36.4919 117.071 36.7774L112.146 39.6225C111.982 39.2524 111.769 38.8949 111.527 38.5792L116.465 35.728C117.356 35.2066 118.236 35.1455 118.928 35.5399C119.618 35.9403 120 36.735 120 37.7663Z" fill="black"/>
</g>
<path d="M109.452 37.904L109.453 37.9051C109.842 37.6763 110.382 37.706 110.979 38.0509C112.166 38.7362 113.128 40.4032 113.128 41.7738C113.128 42.4635 112.884 42.9459 112.491 43.1686L112.491 43.1697L78.1819 62.9818L75.1426 57.7161L109.452 37.904Z" fill="#37474F"/>
<path d="M76.6709 60.3604L112.507 39.6672C112.117 38.9885 111.578 38.3951 110.98 38.0502C110.91 38.009 110.842 37.987 110.773 37.9551L75.4961 58.3254L76.6709 60.3604Z" fill="#455A64"/>
<path d="M76.6709 57.8629C75.484 57.1776 74.5215 57.7331 74.5215 59.1037C74.5215 60.4743 75.484 62.1413 76.6709 62.8266C77.8578 63.5119 78.8203 62.9564 78.8203 61.5858C78.8203 60.2152 77.8578 58.5482 76.6709 57.8629Z" fill="#263238"/>
<path d="M120.612 38.2977V45.7684C120.612 47.6609 119.32 49.8934 117.682 50.8394L103.221 59.1862C102.505 59.5987 102.099 60.4237 101.667 61.291C101.352 61.9279 101.024 62.583 100.551 63.117C99.4294 64.3908 96.9786 65.7191 95.2499 66.2713C94.6675 66.4594 94.085 66.593 93.5152 66.6717C93.2969 66.708 93.0543 66.7382 92.8057 66.769C91.2283 66.9813 89.2632 67.2481 88.1109 67.9152L71.1869 77.6816C70.6776 77.9786 70.1738 78.1243 69.7129 78.1243C69.3548 78.1243 69.0215 78.0396 68.724 77.8697C68.0326 77.4693 67.6504 76.6745 67.6504 75.6433V68.1726C67.6504 66.2801 68.9363 64.0476 70.5802 63.1016L76.2639 59.8198C76.2881 59.8077 76.3123 59.7956 76.3426 59.7895C76.6154 59.668 76.9371 59.7774 77.0944 60.0442C77.2462 60.3049 77.1736 60.6448 76.9366 60.8147C76.9184 60.8389 76.8942 60.8571 76.87 60.8692L71.1863 64.151C69.9307 64.8792 68.8631 66.7228 68.8631 68.1726V75.6433C68.8631 76.2197 69.0331 76.6443 69.3301 76.8142C69.6271 76.9902 70.0825 76.9176 70.5797 76.6322L87.5037 66.8598C88.8622 66.0771 90.961 65.7922 92.6418 65.5678C92.8904 65.5376 93.1269 65.5007 93.3453 65.4705C93.8425 65.3979 94.3644 65.2824 94.8858 65.1124C96.4203 64.6273 98.7012 63.3838 99.6417 62.3162C100.012 61.9037 100.285 61.3394 100.582 60.7515C101.073 59.7565 101.583 58.7313 102.614 58.1368L117.075 49.79C118.331 49.0623 119.398 47.2182 119.398 45.7684V38.2977C119.398 37.7274 119.228 37.2967 118.931 37.1268C118.634 36.9508 118.173 37.0239 117.682 37.3088L112.756 40.154C112.592 39.7838 112.38 39.4263 112.137 39.1106L117.075 36.2594C117.967 35.7375 118.847 35.677 119.538 36.0713C120.229 36.4717 120.612 37.2665 120.612 38.2977Z" fill="#455A64"/>
<g opacity="0.2">
<path d="M58.5195 110.921L141.116 63.2131C141.464 63.0118 141.747 63.1752 141.747 63.5778V83.2876C141.747 83.6902 141.464 84.1797 141.116 84.3804L58.5195 132.088C58.1708 132.289 57.8887 132.126 57.8887 131.724V112.014C57.8881 111.611 58.1708 111.122 58.5195 110.921Z" fill="black"/>
</g>
<path d="M145.5 65.823C145.304 65.7355 145.042 65.7614 144.759 65.9258L63.12 113.081C62.5079 113.436 62.0085 114.301 62.0085 115.011V133.699C62.0085 134.038 62.1218 134.286 62.3121 134.409C62.1218 134.285 60.4388 133.333 60.2331 133.21C60.0373 133.092 59.9141 132.845 59.9141 132.495V113.806C59.9141 113.096 60.4135 112.231 61.0306 111.876L142.664 64.7164C142.978 64.5365 143.261 64.5261 143.462 64.6443C143.642 64.7521 145.104 65.581 145.5 65.823Z" fill="#3AC7BA"/>
<g opacity="0.2">
<path d="M145.498 65.8231C145.102 65.5811 143.641 64.7528 143.46 64.6445C143.259 64.5262 142.976 64.5361 142.663 64.7165L61.0289 111.876C60.7209 112.053 60.4421 112.358 60.2402 112.706L62.3324 113.914C62.5337 113.564 62.812 113.258 63.1184 113.081L144.757 65.926C145.04 65.761 145.303 65.7357 145.498 65.8231Z" fill="white"/>
</g>
<path d="M63.1182 113.081L144.755 65.9256C145.37 65.5703 145.869 65.8585 145.869 66.5691V85.2586C145.869 85.9692 145.37 86.8333 144.755 87.1886L63.1182 134.344C62.5028 134.699 62.0039 134.411 62.0039 133.7V115.011C62.0039 114.3 62.5028 113.436 63.1182 113.081Z" fill="#FAFAFA"/>
<path d="M62.3327 113.914L60.2405 112.706C60.0375 113.056 59.9121 113.451 59.9121 113.806V132.495C59.9121 132.845 60.0359 133.092 60.2311 133.211C60.4368 133.334 62.1198 134.286 62.3101 134.41C62.1198 134.286 62.0065 134.039 62.0065 133.7V115.011C62.0071 114.656 62.1319 114.263 62.3327 113.914Z" fill="#3AC7BA"/>
<path opacity="0.15" d="M62.3327 113.914L60.2405 112.706C60.0375 113.056 59.9121 113.451 59.9121 113.806V132.495C59.9121 132.845 60.0359 133.092 60.2311 133.211C60.4368 133.334 62.1198 134.286 62.3101 134.41C62.1198 134.286 62.0065 134.039 62.0065 133.7V115.011C62.0071 114.656 62.1319 114.263 62.3327 113.914Z" fill="black"/>
<path d="M145.254 66.2882C145.353 66.2882 145.356 66.5401 145.356 66.5693V85.2588C145.356 85.7857 144.956 86.4793 144.499 86.7433L62.8628 133.899C62.733 133.973 62.6516 133.982 62.6224 133.982C62.5234 133.982 62.5207 133.73 62.5207 133.701V115.012C62.5207 114.485 62.9211 113.791 63.3776 113.527L145.014 66.3718C145.144 66.2965 145.225 66.2882 145.254 66.2882ZM145.254 65.7734C145.105 65.7734 144.935 65.8224 144.757 65.9258L63.1202 113.081C62.5047 113.436 62.0059 114.3 62.0059 115.011V133.7C62.0059 134.204 62.2567 134.495 62.6224 134.495C62.772 134.495 62.9414 134.446 63.1202 134.343L144.757 87.1877C145.372 86.8324 145.871 85.9683 145.871 85.2577V66.5682C145.871 66.0649 145.62 65.7734 145.254 65.7734Z" fill="#3AC7BA"/>
<path d="M77.7318 111.466C78.8412 112.106 79.527 113.479 79.527 115.434C79.527 119.343 76.7825 124.096 73.3978 126.05C71.7055 127.028 70.1732 127.12 69.0638 126.48C68.3901 126.091 67.7829 125.741 67.1097 125.352C66.0003 124.712 65.3145 123.338 65.3145 121.383C65.3145 117.475 68.059 112.722 71.4442 110.767C73.1366 109.789 74.6689 109.697 75.7782 110.338C76.4514 110.727 77.0586 111.077 77.7318 111.466Z" fill="#3AC7BA"/>
<path opacity="0.2" d="M77.7318 111.466C78.8412 112.106 79.527 113.479 79.527 115.434C79.527 119.343 76.7825 124.096 73.3978 126.05C71.7055 127.028 70.1732 127.12 69.0638 126.48C68.3901 126.091 67.7829 125.741 67.1097 125.352C66.0003 124.712 65.3145 123.338 65.3145 121.383C65.3145 117.475 68.059 112.722 71.4442 110.767C73.1366 109.789 74.6689 109.697 75.7782 110.338C76.4514 110.727 77.0586 111.077 77.7318 111.466Z" fill="black"/>
<path d="M73.3968 126.051C71.7044 127.028 70.1721 127.12 69.0628 126.48C67.9534 125.84 67.2676 124.466 67.2676 122.511C67.2676 118.603 70.0121 113.85 73.3968 111.895C75.0891 110.917 76.622 110.825 77.7308 111.465C78.8401 112.105 79.526 113.479 79.526 115.434C79.526 119.343 76.782 124.096 73.3968 126.051Z" fill="#3AC7BA"/>
<path d="M83.7467 109.827L141.231 76.6261C141.988 76.1888 142.603 75.0151 142.603 74.0053C142.603 72.995 141.989 72.5308 141.231 72.9686L83.7467 106.17C82.9894 106.607 82.375 107.781 82.375 108.791C82.375 109.8 82.9894 110.265 83.7467 109.827ZM141.231 80.6675L83.7467 113.869C82.9894 114.306 82.375 115.48 82.375 116.49C82.375 117.499 82.9894 117.964 83.7467 117.526L141.231 84.325C141.988 83.8877 142.603 82.714 142.603 81.7042C142.603 80.6944 141.989 80.2302 141.231 80.6675Z" fill="#E0E0E0"/>
<g opacity="0.2">
<path d="M58.5195 140.938L141.116 93.2307C141.464 93.0294 141.747 93.1928 141.747 93.5954V113.305C141.747 113.708 141.464 114.197 141.116 114.398L58.5195 162.106C58.1708 162.307 57.8887 162.144 57.8887 161.741V142.031C57.8881 141.629 58.1708 141.14 58.5195 140.938Z" fill="black"/>
</g>
<path d="M145.5 95.8396C145.304 95.7521 145.042 95.778 144.759 95.9424L63.12 143.097C62.5079 143.453 62.0085 144.317 62.0085 145.027V163.716C62.0085 164.056 62.1218 164.302 62.3121 164.426C62.1218 164.302 60.4388 163.35 60.2331 163.227C60.0373 163.108 59.9141 162.861 59.9141 162.511V143.823C59.9141 143.113 60.4135 142.248 61.0306 141.893L142.664 94.733C142.978 94.5531 143.261 94.5427 143.462 94.6609C143.642 94.7693 145.104 95.5976 145.5 95.8396Z" fill="#3AC7BA"/>
<g opacity="0.2">
<path d="M145.498 95.8397C145.102 95.5977 143.641 94.7694 143.46 94.6611C143.259 94.5428 142.976 94.5528 142.663 94.7332L61.0289 141.893C60.7209 142.07 60.4421 142.374 60.2402 142.723L62.3324 143.931C62.5337 143.581 62.812 143.275 63.1184 143.097L144.757 95.9426C145.04 95.7781 145.303 95.7523 145.498 95.8397Z" fill="white"/>
</g>
<path d="M63.1182 143.098L144.755 95.9422C145.37 95.5869 145.869 95.8751 145.869 96.5857V115.275C145.869 115.986 145.37 116.85 144.755 117.205L63.1182 164.361C62.5028 164.716 62.0039 164.428 62.0039 163.717V145.028C62.0039 144.317 62.5028 143.453 63.1182 143.098Z" fill="#FAFAFA"/>
<path d="M62.3327 143.93L60.2405 142.723C60.0375 143.072 59.9121 143.467 59.9121 143.823V162.511C59.9121 162.861 60.0359 163.108 60.2311 163.227C60.4368 163.35 62.1198 164.302 62.3101 164.426C62.1198 164.302 62.0065 164.055 62.0065 163.716V145.027C62.0071 144.673 62.1319 144.28 62.3327 143.93Z" fill="#3AC7BA"/>
<path opacity="0.15" d="M62.3327 143.93L60.2405 142.723C60.0375 143.072 59.9121 143.467 59.9121 143.823V162.511C59.9121 162.861 60.0359 163.108 60.2311 163.227C60.4368 163.35 62.1198 164.302 62.3101 164.426C62.1198 164.302 62.0065 164.055 62.0065 163.716V145.027C62.0071 144.673 62.1319 144.28 62.3327 143.93Z" fill="black"/>
<path d="M145.254 96.3053C145.353 96.3053 145.356 96.5572 145.356 96.5863V115.276C145.356 115.803 144.956 116.496 144.499 116.76L62.8628 163.916C62.733 163.991 62.6516 163.999 62.6224 163.999C62.5234 163.999 62.5207 163.747 62.5207 163.718V145.028C62.5207 144.501 62.9211 143.808 63.3776 143.544L145.014 96.3883C145.144 96.3135 145.225 96.3053 145.254 96.3053ZM145.254 95.791C145.105 95.791 144.935 95.84 144.757 95.9434L63.1202 143.099C62.5047 143.454 62.0059 144.318 62.0059 145.029V163.718C62.0059 164.222 62.2567 164.514 62.6224 164.514C62.772 164.514 62.9414 164.465 63.1202 164.361L144.757 117.206C145.372 116.851 145.871 115.986 145.871 115.276V96.5863C145.871 96.082 145.62 95.791 145.254 95.791Z" fill="#3AC7BA"/>
<path d="M77.7318 141.483C78.8412 142.124 79.527 143.497 79.527 145.452C79.527 149.361 76.7825 154.114 73.3978 156.068C71.7055 157.045 70.1732 157.138 69.0638 156.497C68.3901 156.108 67.7829 155.758 67.1097 155.369C66.0003 154.729 65.3145 153.355 65.3145 151.401C65.3145 147.492 68.059 142.739 71.4442 140.784C73.1366 139.807 74.6689 139.715 75.7782 140.355C76.4514 140.744 77.0586 141.095 77.7318 141.483Z" fill="#3AC7BA"/>
<path opacity="0.2" d="M77.7318 141.483C78.8412 142.124 79.527 143.497 79.527 145.452C79.527 149.361 76.7825 154.114 73.3978 156.068C71.7055 157.045 70.1732 157.138 69.0638 156.497C68.3901 156.108 67.7829 155.758 67.1097 155.369C66.0003 154.729 65.3145 153.355 65.3145 151.401C65.3145 147.492 68.059 142.739 71.4442 140.784C73.1366 139.807 74.6689 139.715 75.7782 140.355C76.4514 140.744 77.0586 141.095 77.7318 141.483Z" fill="black"/>
<path d="M73.3968 156.068C71.7044 157.046 70.1721 157.138 69.0628 156.497C67.9534 155.857 67.2676 154.484 67.2676 152.529C67.2676 148.62 70.0121 143.867 73.3968 141.912C75.0891 140.935 76.622 140.843 77.7308 141.483C78.8401 142.124 79.526 143.497 79.526 145.452C79.526 149.36 76.782 154.114 73.3968 156.068Z" fill="#3AC7BA"/>
<path d="M83.7467 139.845L141.231 106.644C141.988 106.206 142.603 105.033 142.603 104.023C142.603 103.013 141.989 102.548 141.231 102.986L83.7467 136.187C82.9894 136.625 82.375 137.798 82.375 138.808C82.375 139.818 82.9894 140.282 83.7467 139.845ZM141.231 110.685L83.7467 143.886C82.9894 144.323 82.375 145.497 82.375 146.507C82.375 147.516 82.9894 147.981 83.7467 147.543L141.231 114.342C141.988 113.905 142.603 112.731 142.603 111.721C142.603 110.711 141.989 110.247 141.231 110.685Z" fill="#E0E0E0"/>
<g opacity="0.2">
<path d="M58.5195 170.955L141.116 123.247C141.464 123.046 141.747 123.209 141.747 123.612V143.322C141.747 143.724 141.464 144.214 141.116 144.415L58.5195 192.123C58.1708 192.324 57.8887 192.161 57.8887 191.758V172.048C57.8881 171.646 58.1708 171.156 58.5195 170.955Z" fill="black"/>
</g>
<path d="M145.5 125.856C145.304 125.769 145.042 125.795 144.759 125.959L63.12 173.114C62.5079 173.469 62.0085 174.334 62.0085 175.044V193.732C62.0085 194.072 62.1218 194.319 62.3121 194.442C62.1218 194.319 60.4388 193.366 60.2331 193.243C60.0373 193.125 59.9141 192.878 59.9141 192.528V173.839C59.9141 173.129 60.4135 172.265 61.0306 171.909L142.664 124.75C142.978 124.57 143.261 124.559 143.462 124.678C143.642 124.786 145.104 125.615 145.5 125.856Z" fill="#3AC7BA"/>
<g opacity="0.2">
<path d="M145.498 125.856C145.102 125.614 143.641 124.786 143.46 124.678C143.259 124.559 142.976 124.569 142.663 124.75L61.0289 171.909C60.7209 172.087 60.4421 172.391 60.2402 172.739L62.3324 173.947C62.5337 173.597 62.812 173.292 63.1184 173.114L144.757 125.959C145.04 125.795 145.303 125.769 145.498 125.856Z" fill="white"/>
</g>
<path d="M63.1182 173.115L144.755 125.96C145.37 125.604 145.869 125.893 145.869 126.603V145.293C145.869 146.003 145.37 146.867 144.755 147.223L63.1182 194.378C62.5028 194.733 62.0039 194.445 62.0039 193.735V175.045C62.0039 174.334 62.5028 173.47 63.1182 173.115Z" fill="#FAFAFA"/>
<path d="M62.3327 173.948L60.2405 172.74C60.0375 173.09 59.9121 173.484 59.9121 173.84V192.529C59.9121 192.878 60.0359 193.125 60.2311 193.244C60.4368 193.368 62.1198 194.32 62.3101 194.443C62.1198 194.319 62.0065 194.073 62.0065 193.733V175.045C62.0071 174.69 62.1319 174.297 62.3327 173.948Z" fill="#3AC7BA"/>
<path opacity="0.15" d="M62.3327 173.948L60.2405 172.74C60.0375 173.09 59.9121 173.484 59.9121 173.84V192.529C59.9121 192.878 60.0359 193.125 60.2311 193.244C60.4368 193.368 62.1198 194.32 62.3101 194.443C62.1198 194.319 62.0065 194.073 62.0065 193.733V175.045C62.0071 174.69 62.1319 174.297 62.3327 173.948Z" fill="black"/>
<path d="M145.254 126.322C145.353 126.322 145.356 126.574 145.356 126.603V145.293C145.356 145.82 144.956 146.513 144.499 146.777L62.8628 193.933C62.733 194.008 62.6516 194.016 62.6224 194.016C62.5234 194.016 62.5207 193.764 62.5207 193.735V175.045C62.5207 174.518 62.9211 173.825 63.3776 173.561L145.014 126.405C145.144 126.331 145.225 126.322 145.254 126.322ZM145.254 125.808C145.105 125.808 144.935 125.857 144.757 125.96L63.1202 173.115C62.5047 173.471 62.0059 174.335 62.0059 175.045V193.735C62.0059 194.239 62.2567 194.53 62.6224 194.53C62.772 194.53 62.9414 194.481 63.1202 194.378L144.757 147.222C145.372 146.867 145.871 146.003 145.871 145.292V126.603C145.871 126.099 145.62 125.808 145.254 125.808Z" fill="#3AC7BA"/>
<path d="M77.7318 171.5C78.8412 172.141 79.527 173.514 79.527 175.469C79.527 179.378 76.7825 184.131 73.3978 186.085C71.7055 187.063 70.1732 187.155 69.0638 186.515C68.3901 186.126 67.7829 185.776 67.1097 185.387C66.0003 184.747 65.3145 183.373 65.3145 181.419C65.3145 177.51 68.059 172.757 71.4442 170.802C73.1366 169.825 74.6689 169.732 75.7782 170.373C76.4514 170.761 77.0586 171.112 77.7318 171.5Z" fill="#3AC7BA"/>
<path opacity="0.2" d="M77.7318 171.5C78.8412 172.141 79.527 173.514 79.527 175.469C79.527 179.378 76.7825 184.131 73.3978 186.085C71.7055 187.063 70.1732 187.155 69.0638 186.515C68.3901 186.126 67.7829 185.776 67.1097 185.387C66.0003 184.747 65.3145 183.373 65.3145 181.419C65.3145 177.51 68.059 172.757 71.4442 170.802C73.1366 169.825 74.6689 169.732 75.7782 170.373C76.4514 170.761 77.0586 171.112 77.7318 171.5Z" fill="black"/>
<path d="M73.3968 186.085C71.7044 187.062 70.1721 187.155 69.0628 186.514C67.9534 185.874 67.2676 184.5 67.2676 182.546C67.2676 178.637 70.0121 173.884 73.3968 171.929C75.0891 170.952 76.622 170.859 77.7308 171.499C78.8401 172.14 79.526 173.513 79.526 175.468C79.526 179.378 76.782 184.131 73.3968 186.085Z" fill="#3AC7BA"/>
<path d="M83.7467 169.861L141.231 136.66C141.988 136.223 142.603 135.049 142.603 134.039C142.603 133.029 141.989 132.565 141.231 133.002L83.7467 166.204C82.9894 166.641 82.375 167.815 82.375 168.824C82.375 169.834 82.9894 170.298 83.7467 169.861ZM141.231 140.701L83.7467 173.903C82.9894 174.34 82.375 175.514 82.375 176.523C82.375 177.534 82.9894 177.998 83.7467 177.56L141.231 144.359C141.988 143.922 142.603 142.748 142.603 141.738C142.603 140.728 141.989 140.264 141.231 140.701Z" fill="#E0E0E0"/>
<g opacity="0.2">
<path d="M58.5195 200.972L141.116 153.265C141.464 153.064 141.747 153.227 141.747 153.63V173.339C141.747 173.742 141.464 174.231 141.116 174.433L58.5195 222.14C58.1708 222.342 57.8887 222.178 57.8887 221.776V202.066C57.8881 201.663 58.1708 201.174 58.5195 200.972Z" fill="black"/>
</g>
<path d="M145.5 155.874C145.304 155.786 145.042 155.812 144.759 155.977L63.12 203.131C62.5079 203.487 62.0085 204.351 62.0085 205.061V223.75C62.0085 224.09 62.1218 224.337 62.3121 224.46C62.1218 224.336 60.4388 223.384 60.2331 223.261C60.0373 223.143 59.9141 222.896 59.9141 222.545V203.857C59.9141 203.147 60.4135 202.282 61.0306 201.927L142.664 154.767C142.978 154.587 143.261 154.577 143.462 154.695C143.642 154.803 145.104 155.632 145.5 155.874Z" fill="#3AC7BA"/>
<g opacity="0.2">
<path d="M145.498 155.874C145.102 155.632 143.641 154.804 143.46 154.695C143.259 154.577 142.976 154.587 142.663 154.767L61.0289 201.927C60.7209 202.104 60.4421 202.408 60.2402 202.757L62.3324 203.965C62.5337 203.615 62.812 203.309 63.1184 203.132L144.757 155.977C145.04 155.812 145.303 155.786 145.498 155.874Z" fill="white"/>
</g>
<path d="M63.1182 203.132L144.755 155.976C145.37 155.621 145.869 155.909 145.869 156.62V175.309C145.869 176.02 145.37 176.884 144.755 177.239L63.1182 224.395C62.5028 224.75 62.0039 224.462 62.0039 223.751V205.062C62.0039 204.351 62.5028 203.487 63.1182 203.132Z" fill="#FAFAFA"/>
<path d="M62.3327 203.965L60.2405 202.757C60.0375 203.107 59.9121 203.501 59.9121 203.857V222.545C59.9121 222.895 60.0359 223.142 60.2311 223.261C60.4368 223.385 62.1198 224.337 62.3101 224.46C62.1198 224.336 62.0065 224.089 62.0065 223.75V205.061C62.0071 204.707 62.1319 204.313 62.3327 203.965Z" fill="#3AC7BA"/>
<path opacity="0.15" d="M62.3327 203.965L60.2405 202.757C60.0375 203.107 59.9121 203.501 59.9121 203.857V222.545C59.9121 222.895 60.0359 223.142 60.2311 223.261C60.4368 223.385 62.1198 224.337 62.3101 224.46C62.1198 224.336 62.0065 224.089 62.0065 223.75V205.061C62.0071 204.707 62.1319 204.313 62.3327 203.965Z" fill="black"/>
<path d="M145.254 156.339C145.353 156.339 145.356 156.591 145.356 156.62V175.31C145.356 175.837 144.956 176.53 144.499 176.794L62.8628 223.949C62.733 224.025 62.6516 224.032 62.6224 224.032C62.5234 224.032 62.5207 223.781 62.5207 223.751V205.062C62.5207 204.536 62.9211 203.842 63.3776 203.578L145.014 156.423C145.144 156.347 145.225 156.339 145.254 156.339ZM145.254 155.824C145.105 155.824 144.935 155.873 144.757 155.977L63.1202 203.132C62.5047 203.487 62.0059 204.351 62.0059 205.062V223.751C62.0059 224.255 62.2567 224.546 62.6224 224.546C62.772 224.546 62.9414 224.497 63.1202 224.394L144.757 177.238C145.372 176.883 145.871 176.019 145.871 175.309V156.619C145.871 156.116 145.62 155.824 145.254 155.824Z" fill="#3AC7BA"/>
<path d="M77.7318 201.517C78.8412 202.158 79.527 203.531 79.527 205.486C79.527 209.394 76.7825 214.148 73.3978 216.102C71.7055 217.079 70.1732 217.171 69.0638 216.531C68.3901 216.142 67.7829 215.792 67.1097 215.403C66.0003 214.763 65.3145 213.389 65.3145 211.435C65.3145 207.526 68.059 202.773 71.4442 200.818C73.1366 199.841 74.6689 199.749 75.7782 200.389C76.4514 200.778 77.0586 201.129 77.7318 201.517Z" fill="#3AC7BA"/>
<path opacity="0.2" d="M77.7318 201.517C78.8412 202.158 79.527 203.531 79.527 205.486C79.527 209.394 76.7825 214.148 73.3978 216.102C71.7055 217.079 70.1732 217.171 69.0638 216.531C68.3901 216.142 67.7829 215.792 67.1097 215.403C66.0003 214.763 65.3145 213.389 65.3145 211.435C65.3145 207.526 68.059 202.773 71.4442 200.818C73.1366 199.841 74.6689 199.749 75.7782 200.389C76.4514 200.778 77.0586 201.129 77.7318 201.517Z" fill="black"/>
<path d="M73.3968 216.102C71.7044 217.08 70.1721 217.172 69.0628 216.531C67.9534 215.891 67.2676 214.518 67.2676 212.563C67.2676 208.654 70.0121 203.901 73.3968 201.946C75.0891 200.969 76.622 200.877 77.7308 201.517C78.8401 202.158 79.526 203.531 79.526 205.486C79.526 209.395 76.782 214.148 73.3968 216.102Z" fill="#3AC7BA"/>
<path d="M83.7467 199.879L141.231 166.678C141.988 166.241 142.603 165.067 142.603 164.057C142.603 163.047 141.989 162.583 141.231 163.02L83.7467 196.222C82.9894 196.659 82.375 197.833 82.375 198.842C82.375 199.852 82.9894 200.316 83.7467 199.879ZM141.231 170.719L83.7467 203.92C82.9894 204.357 82.375 205.531 82.375 206.541C82.375 207.551 82.9894 208.015 83.7467 207.577L141.231 174.376C141.988 173.939 142.603 172.765 142.603 171.755C142.603 170.746 141.989 170.281 141.231 170.719Z" fill="#E0E0E0"/>
<path d="M195.635 181.146L200.527 183.437L205.395 185.767L215.089 190.484L224.728 195.285L229.527 197.714L234.301 200.182L229.408 197.89L224.541 195.561L214.846 190.843L205.209 186.042L200.409 183.613L195.635 181.146Z" fill="#E0E0E0"/>
<path d="M203.516 190.851C204.613 191.337 205.695 191.847 206.785 192.344L210.028 193.875C212.188 194.9 214.326 195.957 216.477 196.996C218.607 198.064 220.748 199.116 222.868 200.199L226.044 201.83C227.094 202.387 228.152 202.931 229.195 203.499C228.097 203.013 227.015 202.503 225.925 202.006L222.681 200.475C220.522 199.45 218.383 198.394 216.233 197.354C214.103 196.285 211.962 195.234 209.842 194.15L206.665 192.519C205.616 191.962 204.558 191.418 203.516 190.851Z" fill="#E0E0E0"/>
<path d="M183.573 165.912L179.56 163.865C176.881 162.505 174.182 161.175 171.493 159.829C168.785 158.512 167.31 157.782 164.591 156.48L161.699 155.1V155.374L164.405 156.754C167.083 158.115 168.562 158.841 171.25 160.187C173.958 161.504 176.655 162.838 179.373 164.141L183.454 166.088C184.824 166.724 186.184 167.372 187.561 167.997C186.239 167.291 184.902 166.608 183.573 165.912Z" fill="#E0E0E0"/>
<path d="M163.062 161.724C163.783 162.027 164.487 162.354 165.2 162.668L167.311 163.65C168.719 164.304 170.107 164.987 171.495 165.671C172.878 166.362 174.259 167.055 175.622 167.775L177.666 168.856C178.338 169.23 179.019 169.591 179.684 169.976C178.964 169.672 178.259 169.346 177.546 169.032L175.434 168.05C174.027 167.395 172.639 166.713 171.251 166.029C169.869 165.336 168.487 164.644 167.124 163.924L165.08 162.843C164.408 162.469 163.728 162.108 163.062 161.724Z" fill="#E0E0E0"/>
<rect x="67.1309" y="91.0527" width="66" height="5.5" rx="2.75" transform="rotate(-30.2024 67.1309 91.0527)" fill="#455A64"/>
</svg>
