<svg width="275" height="275" viewBox="0 0 275 275" fill="none" xmlns="http://www.w3.org/2000/svg">
<path d="M57.604 243.085C101.919 266.44 173.768 266.441 218.082 243.086C262.398 219.729 262.398 181.863 218.082 158.507C173.767 135.151 101.919 135.151 57.6035 158.507C13.2883 181.862 13.2883 219.73 57.604 243.085Z" fill="#2F2E2E"/>
<path d="M145.584 148.255C145.551 145.445 147.513 139.602 150.385 135.918C153.256 132.234 157.809 129.512 161.078 130.586C164.124 131.587 163.843 135.57 160.195 138.251C156.547 140.932 151.056 144.311 149.492 148.888L146.164 154.521L145.584 148.255Z" fill="#3AC7BA"/>
<path opacity="0.1" d="M145.584 148.255C145.551 145.445 147.513 139.602 150.385 135.918C153.256 132.234 157.809 129.512 161.078 130.586C164.124 131.587 163.843 135.57 160.195 138.251C156.547 140.932 151.056 144.311 149.492 148.888L146.164 154.521L145.584 148.255Z" fill="black"/>
<path d="M145.423 152.103C145.513 152.095 145.589 152.027 145.606 151.936C147.372 142.322 155.038 134.432 159.661 132.654C159.767 132.614 159.819 132.495 159.779 132.389C159.739 132.284 159.622 132.229 159.514 132.271C154.802 134.084 146.995 142.102 145.203 151.862C145.182 151.973 145.256 152.08 145.367 152.101C145.386 152.104 145.405 152.105 145.423 152.103Z" fill="white"/>
<path d="M146.928 158.225C147.36 156.64 149.258 154.01 152.353 151.82C155.776 149.397 160.131 148.25 161.115 146.384C162.298 144.142 160.396 142.061 156.855 142.543C153.315 143.025 147.14 147.938 146.23 155.233L146.928 158.225Z" fill="#3AC7BA"/>
<path d="M146.222 156.575C146.3 156.568 146.37 156.516 146.398 156.437C149.24 148.185 155.475 145.226 158.374 144.814C158.486 144.798 158.564 144.694 158.548 144.582C158.532 144.469 158.433 144.391 158.316 144.407C155.11 144.863 148.911 147.881 146.009 156.304C145.972 156.411 146.03 156.528 146.137 156.565C146.165 156.575 146.194 156.578 146.222 156.575Z" fill="white"/>
<path d="M41.1693 212.482L40.7519 212.241C40.0842 211.856 39.543 210.918 39.543 210.147V69.2076C39.543 68.4365 40.0842 67.4993 40.7519 67.1137L131.566 14.6866C132.234 14.3011 133.316 14.3011 133.984 14.6866L134.401 14.9275C135.069 15.3131 135.61 16.2503 135.61 17.0214V157.961C135.61 158.732 135.069 159.669 134.401 160.055L43.5871 212.482C42.9194 212.868 41.8365 212.868 41.1693 212.482Z" fill="#3AC7BA"/>
<path opacity="0.4" d="M135.599 16.8271C135.517 16.2001 135.01 15.9724 134.402 16.3205L43.5854 68.752C43.2499 68.9418 42.9523 69.2773 42.7307 69.6513L39.9004 68.0178C40.1154 67.6377 40.4196 67.3088 40.7551 67.1125L131.566 14.687C132.237 14.3009 133.32 14.3009 133.984 14.687L134.402 14.9279C135.011 15.2827 135.523 16.0994 135.599 16.8271Z" fill="white"/>
<path opacity="0.1" d="M43.3817 212.577C42.7168 212.862 41.7735 212.83 41.1718 212.482L40.7478 212.241C40.0828 211.855 39.5449 210.917 39.5449 210.145V69.2078C39.5449 68.8217 39.678 68.391 39.8997 68.0176L42.73 69.6511C42.5149 70.0311 42.3752 70.4612 42.3752 70.8413V211.785C42.3752 212.476 42.8119 212.798 43.3817 212.577Z" fill="black"/>
<path d="M53.0873 161.509L52.6698 161.268C52.0021 160.882 51.4609 159.944 51.4609 159.174V133.841C51.4609 133.07 52.0021 132.133 52.6698 131.748L135.119 84.1017C135.786 83.7161 136.869 83.7161 137.536 84.1017L137.954 84.3426C138.622 84.7281 139.163 85.6653 139.163 86.4364V111.769C139.163 112.54 138.622 113.477 137.954 113.863L55.5051 161.509C54.8374 161.894 53.755 161.894 53.0873 161.509Z" fill="#EBEBEB"/>
<path d="M139.152 86.2421C139.069 85.6151 138.563 85.3874 137.955 85.7356L55.5034 133.386C55.1679 133.576 54.8703 133.912 54.6487 134.286L51.8184 132.652C52.034 132.272 52.3376 131.943 52.6731 131.747L135.119 84.1021C135.79 83.716 136.873 83.716 137.537 84.1021L137.955 84.3424C138.563 84.6972 139.076 85.5139 139.152 86.2421Z" fill="#AAA6A6"/>
<path d="M55.2997 161.604C54.6347 161.889 53.6915 161.857 53.0898 161.509L52.6657 161.268C52.0008 160.882 51.4629 159.945 51.4629 159.173V133.843C51.4629 133.456 51.596 133.026 51.8176 132.652L54.6479 134.286C54.4329 134.666 54.2932 135.096 54.2932 135.476V160.812C54.2932 161.503 54.7299 161.825 55.2997 161.604Z" fill="#AAA6A6"/>
<path d="M67.1639 131.686C71.8664 128.971 75.6784 131.083 75.6779 136.405C75.6773 141.725 71.8609 148.196 67.154 150.856C62.4465 153.517 58.6306 151.403 58.6328 146.136C58.635 140.87 62.4614 134.401 67.1639 131.686Z" fill="#3AC7BA"/>
<path d="M53.0873 195.839L52.6698 195.598C52.0021 195.212 51.4609 194.275 51.4609 193.504V168.172C51.4609 167.4 52.0021 166.463 52.6698 166.078L135.119 118.432C135.786 118.046 136.869 118.046 137.536 118.432L137.954 118.673C138.622 119.058 139.163 119.995 139.163 120.766V146.099C139.163 146.87 138.622 147.807 137.954 148.193L55.5051 195.839C54.8374 196.224 53.755 196.224 53.0873 195.839Z" fill="#EBEBEB"/>
<path d="M139.152 120.572C139.069 119.945 138.563 119.718 137.955 120.066L55.5034 167.717C55.1679 167.906 54.8703 168.242 54.6487 168.616L51.8184 166.982C52.034 166.602 52.3376 166.273 52.6731 166.077L135.119 118.432C135.79 118.046 136.873 118.046 137.537 118.432L137.955 118.673C138.563 119.027 139.076 119.844 139.152 120.572Z" fill="#AAA6A6"/>
<path d="M55.2997 195.934C54.6347 196.219 53.6915 196.187 53.0898 195.839L52.6657 195.598C52.0008 195.212 51.4629 194.275 51.4629 193.503V168.173C51.4629 167.787 51.596 167.356 51.8176 166.982L54.6479 168.616C54.4329 168.996 54.2932 169.426 54.2932 169.806V195.142C54.2932 195.833 54.7299 196.156 55.2997 195.934Z" fill="#AAA6A6"/>
<path d="M67.1639 166.016C71.8664 163.301 75.6784 165.413 75.6779 170.734C75.6773 176.055 71.8609 182.526 67.154 185.186C62.4465 187.847 58.6306 185.732 58.6328 180.466C58.635 175.199 62.4614 168.731 67.1639 166.016Z" fill="#3AC7BA"/>
<path d="M53.0873 104.098L52.6698 103.857C52.0021 103.471 51.4609 102.533 51.4609 101.763V76.4303C51.4609 75.6592 52.0021 74.722 52.6698 74.3365L135.119 26.6905C135.786 26.305 136.869 26.305 137.536 26.6905L137.954 26.9314C138.622 27.317 139.163 28.2542 139.163 29.0253V54.3577C139.163 55.1288 138.622 56.066 137.954 56.4516L55.5051 104.098C54.8374 104.483 53.755 104.483 53.0873 104.098Z" fill="#EBEBEB"/>
<path d="M139.152 28.831C139.069 28.204 138.563 27.9763 137.955 28.3244L55.5034 75.9753C55.1679 76.1651 54.8703 76.5006 54.6487 76.8746L51.8184 75.2411C52.034 74.861 52.3376 74.5321 52.6731 74.3358L135.119 26.6909C135.79 26.3048 136.873 26.3048 137.537 26.6909L137.955 26.9318C138.563 27.286 139.076 28.1028 139.152 28.831Z" fill="#AAA6A6"/>
<path d="M55.2997 104.193C54.6347 104.478 53.6915 104.446 53.0898 104.098L52.6657 103.857C52.0008 103.471 51.4629 102.534 51.4629 101.762V76.4314C51.4629 76.0453 51.596 75.6147 51.8176 75.2412L54.6479 76.8747C54.4329 77.2548 54.2932 77.6849 54.2932 78.0649V103.401C54.2932 104.091 54.7299 104.414 55.2997 104.193Z" fill="#AAA6A6"/>
<path d="M67.1639 74.2748C71.8664 71.56 75.6784 73.672 75.6779 78.9932C75.6773 84.3139 71.8609 90.7847 67.154 93.445C62.4465 96.1059 58.6306 93.9912 58.6328 88.7249C58.635 83.4581 62.4614 76.9896 67.1639 74.2748Z" fill="#3AC7BA"/>
<path d="M58.8822 136.261L58.4648 136.02C57.7971 135.634 57.2559 134.696 57.2559 133.926V108.593C57.2559 107.822 57.7971 106.885 58.4648 106.5L140.914 58.8536C141.581 58.4681 142.664 58.4681 143.331 58.8536L143.749 59.0945C144.417 59.4801 144.958 60.4178 144.958 61.1884V86.5208C144.958 87.2919 144.417 88.2291 143.749 88.6147L61.3 136.261C60.6323 136.646 59.5499 136.646 58.8822 136.261Z" fill="#37474F"/>
<path d="M144.947 60.9941C144.864 60.3671 144.358 60.1394 143.75 60.4875L61.2983 108.138C60.9628 108.328 60.6652 108.664 60.4436 109.038L57.6133 107.404C57.8283 107.024 58.1325 106.695 58.468 106.499L140.914 58.854C141.585 58.4679 142.667 58.4679 143.332 58.854L143.75 59.0949C144.358 59.4491 144.871 60.2659 144.947 60.9941Z" fill="#455A64"/>
<path d="M61.096 136.356C60.4311 136.641 59.4878 136.609 58.8867 136.261L58.4626 136.02C57.7977 135.634 57.2598 134.697 57.2598 133.925V108.594C57.2598 108.208 57.3929 107.778 57.6145 107.404L60.4448 109.038C60.2298 109.418 60.0901 109.848 60.0901 110.228V135.564C60.089 136.255 60.5262 136.577 61.096 136.356Z" fill="#263238"/>
<path d="M72.9568 106.438C77.6593 103.723 81.4714 105.835 81.4708 111.157C81.4703 116.477 77.6538 122.948 72.9469 125.608C68.2395 128.269 64.4236 126.155 64.4258 120.888C64.4285 115.621 68.2543 109.153 72.9568 106.438Z" fill="#F5F5F5"/>
<path d="M144.94 98.6149L142.549 97.2344V97.2405C141.509 96.6432 140.238 97.2339 139.566 97.6469L138.074 96.7862C136.263 95.6928 133.747 97.9797 133.184 98.5286L132.539 98.1562L132.539 98.1573C130.62 96.9996 127.132 100.097 127.132 100.097V88.573L128.647 87.8388L126.236 86.4445C126.234 86.4434 126.233 86.4423 126.23 86.4412L126.214 86.4313L126.213 86.433C125.659 86.1244 124.902 86.1739 124.064 86.6574C122.369 87.6358 120.996 90.0151 120.996 91.9715V118.684C118.791 117.049 116.446 116.045 114.389 116.411C112.534 116.741 110.877 118.32 110.396 119.168C109.381 120.957 111.055 122.08 113.212 124.546C115.349 126.991 117.235 129.935 119.182 131.751C121.13 133.568 122.541 134.04 122.541 134.04V137.522L124.91 138.89L140.569 127.114V123.632C140.569 123.632 142.807 114.713 143.521 110.985C144.209 107.395 144.842 101.673 143.66 98.7013L144.939 98.6144L144.94 98.6149Z" fill="#3AC7BA"/>
<path opacity="0.4" d="M144.94 98.6149L142.549 97.2344V97.2405C141.509 96.6432 140.238 97.2339 139.566 97.6469L138.074 96.7862C136.263 95.6928 133.747 97.9797 133.184 98.5286L132.539 98.1562L132.539 98.1573C130.62 96.9996 127.132 100.097 127.132 100.097V88.573L128.647 87.8388L126.236 86.4445C126.234 86.4434 126.233 86.4423 126.23 86.4412L126.214 86.4313L126.213 86.433C125.659 86.1244 124.902 86.1739 124.064 86.6574C122.369 87.6358 120.996 90.0151 120.996 91.9715V118.684C118.791 117.049 116.446 116.045 114.389 116.411C112.534 116.741 110.877 118.32 110.396 119.168C109.381 120.957 111.055 122.08 113.212 124.546C115.349 126.991 117.235 129.935 119.182 131.751C121.13 133.568 122.541 134.04 122.541 134.04V137.522L124.91 138.89L140.569 127.114V123.632C140.569 123.632 142.807 114.713 143.521 110.985C144.209 107.395 144.842 101.673 143.66 98.7013L144.939 98.6144L144.94 98.6149Z" fill="white"/>
<path d="M127.277 129.317L115.431 122.479L110.243 119.483C109.583 121.097 111.183 122.228 113.211 124.548C115.348 126.993 117.234 129.937 119.181 131.753C121.129 133.569 122.54 134.042 122.54 134.042V137.524L124.909 138.892L128.369 136.29C127.921 133.331 127.277 129.317 127.277 129.317Z" fill="#3AC7BA"/>
<path d="M123.365 93.3405L120.996 91.9727V119.992L123.365 120.053V93.3405Z" fill="#3AC7BA"/>
<path d="M141.947 100.414L143.782 99.0602C143.743 98.9398 143.705 98.816 143.661 98.7033L144.327 98.6577L142.855 98.5905L140.395 97.2354C140.075 97.3608 139.786 97.5126 139.566 97.6479L140.335 98.095L141.947 100.414Z" fill="#3AC7BA"/>
<path d="M135.437 100.013L137.162 98.7004L134.785 97.2627C134.031 97.7346 133.426 98.2923 133.184 98.5288L134.834 99.483L135.437 100.013Z" fill="#3AC7BA"/>
<path d="M131.843 99.8858L129.492 98.5103L129.502 98.4883V101.465L132.242 100.46L131.843 99.8858Z" fill="#3AC7BA"/>
<g opacity="0.15">
<path d="M127.277 129.317L115.431 122.479L110.243 119.483C109.583 121.097 111.183 122.228 113.211 124.548C115.348 126.993 117.234 129.937 119.181 131.753C121.129 133.569 122.54 134.042 122.54 134.042V137.524L124.909 138.892L128.369 136.29C127.921 133.331 127.277 129.317 127.277 129.317Z" fill="black"/>
<path d="M123.365 93.3405L120.996 91.9727V119.992L123.365 120.053V93.3405Z" fill="black"/>
<path d="M141.947 100.414L143.782 99.0602C143.743 98.9398 143.705 98.816 143.661 98.7033L144.327 98.6577L142.855 98.5905L140.395 97.2354C140.075 97.3608 139.786 97.5126 139.566 97.6479L140.335 98.095L141.947 100.414Z" fill="black"/>
<path d="M135.437 100.013L137.162 98.7004L134.785 97.2627C134.031 97.7346 133.426 98.2923 133.184 98.5288L134.834 99.483L135.437 100.013Z" fill="black"/>
<path d="M131.843 99.8858L129.492 98.5103L129.502 98.4883V101.465L132.242 100.46L131.843 99.8858Z" fill="black"/>
</g>
<path d="M124.908 138.892V135.41C124.908 135.41 123.497 134.937 121.55 133.12C119.602 131.304 117.717 128.36 115.579 125.915C113.423 123.449 111.748 122.327 112.763 120.538C113.245 119.689 114.901 118.109 116.756 117.78C118.814 117.414 121.158 118.418 123.363 120.054V93.3406C123.363 91.3837 124.737 89.005 126.431 88.0265C128.126 87.0481 129.499 87.8412 129.499 89.7981V101.466C129.499 101.466 133.727 97.7109 135.435 100.014C135.435 100.014 139.589 95.6627 141.464 99.3378C141.464 99.3378 144.514 96.8749 145.889 99.7333C147.264 102.592 146.604 108.628 145.889 112.355C145.175 116.083 142.937 125.002 142.937 125.002V128.484L124.908 138.892Z" fill="#3AC7BA"/>
<path d="M129.498 106.475C129.498 106.475 129.883 101.152 131.839 99.8857C131.838 99.8857 131.811 99.894 131.769 99.9061C130.524 100.556 129.498 101.465 129.498 101.465V101.365C129.476 101.432 129.498 101.465 129.498 101.465V106.475Z" fill="#455A64"/>
<path d="M135.434 100.014V104.884C135.434 104.884 135.974 99.876 137.096 98.666C136.14 99.2754 135.438 100.01 135.434 100.014Z" fill="#455A64"/>
<path d="M141.463 99.3371V104.225C141.463 104.225 141.76 99.3008 142.821 98.5742C142.05 98.8646 141.467 99.3343 141.463 99.3371Z" fill="#455A64"/>
<path d="M124.047 83.2943C123.666 83.5138 123.357 83.3834 123.357 83.0028V79.138C123.357 78.7574 123.666 78.2706 124.047 78.0512C124.427 77.8312 124.736 77.9621 124.736 78.3421V82.207C124.736 82.5881 124.427 83.0749 124.047 83.2943Z" fill="#EBEBEB"/>
<path d="M118.274 89.3892C118.005 89.8551 117.568 90.107 117.299 89.9519L115.063 88.6605C114.794 88.5054 114.794 88.0016 115.063 87.5352C115.332 87.0693 115.769 86.8174 116.038 86.9725L118.274 88.2634C118.543 88.419 118.543 88.9228 118.274 89.3892Z" fill="#EBEBEB"/>
<path d="M115.882 97.3808V97.4913C115.882 97.9 115.55 98.423 115.142 98.659L112.082 100.426C111.673 100.662 111.342 100.521 111.342 100.113V100.002C111.342 99.5935 111.673 99.0704 112.082 98.8339L115.142 97.0673C115.551 96.8319 115.882 96.9722 115.882 97.3808Z" fill="#EBEBEB"/>
<path d="M132.211 88.0642V87.9537C132.211 87.545 132.543 87.022 132.951 86.7855L136.011 85.0189C136.42 84.7829 136.751 84.9232 136.751 85.3318V85.4424C136.751 85.851 136.42 86.3741 136.011 86.6106L132.951 88.3772C132.543 88.6131 132.211 88.4729 132.211 88.0642Z" fill="#EBEBEB"/>
<path d="M129.821 82.7221C129.552 82.5664 129.552 82.0626 129.821 81.5968L132.057 77.7236C132.326 77.2578 132.762 77.0059 133.032 77.161C133.301 77.3161 133.301 77.8199 133.032 78.2863L130.795 82.1594C130.526 82.6258 130.09 82.8777 129.821 82.7221Z" fill="#EBEBEB"/>
<path d="M124.135 227.346L129.027 229.638L133.895 231.967L143.589 236.685L153.228 241.485L158.027 243.915L162.801 246.382L157.908 244.09L153.041 241.761L143.346 237.043L133.709 232.242L128.909 229.813L124.135 227.346Z" fill="#E0E0E0"/>
<path d="M132.016 237.051C133.113 237.537 134.195 238.047 135.285 238.544L138.528 240.076C140.688 241.1 142.826 242.157 144.977 243.196C147.107 244.264 149.248 245.316 151.368 246.399L154.544 248.03C155.594 248.587 156.652 249.132 157.695 249.7C156.597 249.213 155.515 248.704 154.425 248.206L151.181 246.675C149.022 245.65 146.883 244.594 144.733 243.554C142.603 242.485 140.462 241.434 138.342 240.35L135.165 238.72C134.116 238.163 133.058 237.618 132.016 237.051Z" fill="#E0E0E0"/>
<path d="M112.073 212.113L108.06 210.065C105.381 208.705 102.682 207.375 99.9932 206.029C97.2847 204.713 95.8097 203.982 93.0914 202.68L90.1992 201.3V201.574L92.905 202.954C95.583 204.315 97.0617 205.041 99.7499 206.387C102.458 207.705 105.155 209.038 107.873 210.341L111.954 212.288C113.324 212.924 114.684 213.572 116.061 214.197C114.739 213.491 113.402 212.808 112.073 212.113Z" fill="#E0E0E0"/>
<path d="M91.5625 207.924C92.2827 208.228 92.9871 208.554 93.6998 208.868L95.8113 209.85C97.2187 210.504 98.6072 211.188 99.9953 211.871C101.378 212.563 102.759 213.255 104.122 213.975L106.166 215.056C106.838 215.43 107.519 215.791 108.184 216.176C107.464 215.872 106.759 215.546 106.046 215.232L103.934 214.251C102.527 213.595 101.139 212.913 99.7506 212.229C98.3686 211.537 96.9865 210.844 95.6239 210.124L93.58 209.043C92.9085 208.669 92.2276 208.308 91.5625 207.924Z" fill="#E0E0E0"/>
</svg>
