<svg width="275" height="235" viewBox="0 0 275 235" fill="none" xmlns="http://www.w3.org/2000/svg">
<path d="M131.582 235C203.058 235 261 208.254 261 175.261C261 142.268 203.058 115.521 131.582 115.521C60.1065 115.521 2.16406 142.268 2.16406 175.261C2.16406 208.254 60.1065 235 131.582 235Z" fill="#2F2E2E"/>
<path d="M240.319 154.663C240.63 154.483 240.786 154.248 240.786 154.013C240.787 153.776 240.786 153.009 240.786 153.009L185.331 121.615C184.707 121.255 183.696 121.255 183.073 121.615L139.469 146.79L196.734 179.829L240.319 154.663Z" fill="#3AC7BA"/>
<path opacity="0.2" d="M240.319 154.663C240.63 154.483 240.786 154.248 240.786 154.013C240.787 153.776 240.786 153.009 240.786 153.009L185.331 121.615C184.707 121.255 183.696 121.255 183.073 121.615L139.469 146.79L196.734 179.829L240.319 154.663Z" fill="#F0ECEC"/>
<path d="M240.32 153.686C240.943 153.326 240.943 152.742 240.32 152.382L185.332 120.637C184.708 120.277 183.698 120.277 183.073 120.637L139.469 145.813L196.734 178.852L240.32 153.686Z" fill="#3AC7BA"/>
<path opacity="0.5" d="M240.32 153.686C240.943 153.326 240.943 152.742 240.32 152.382L185.332 120.637C184.708 120.277 183.698 120.277 183.073 120.637L139.469 145.813L196.734 178.852L240.32 153.686Z" fill="black"/>
<path d="M149.506 139.233L181.789 120.605C182.412 120.245 183.423 120.245 184.047 120.604L235.304 150.195L239.502 147.75V152.722L239.424 152.769C239.563 153.075 239.451 153.413 239.034 153.653L202.064 174.989L144.799 141.95V136.518L149.506 139.233Z" fill="#EBEBEB"/>
<path d="M239.033 148.221C239.656 147.86 239.656 147.277 239.033 146.917L184.045 115.172C183.422 114.812 182.411 114.812 181.787 115.172L144.797 136.518L202.062 169.557L239.033 148.221Z" fill="#2F2E2E"/>
<path d="M202.064 169.557V174.988L144.799 141.949V136.518L202.064 169.557Z" fill="#E6E6E6"/>
<path d="M201.464 167.435C201.594 167.5 201.724 167.553 201.881 167.578C202.103 167.631 202.35 167.631 202.546 167.565C202.624 167.552 202.69 167.526 202.755 167.487C203.094 167.305 203.055 166.965 202.664 166.744C202.494 166.653 202.286 166.587 202.078 166.574C201.817 166.548 201.556 166.587 201.374 166.692C201.347 166.704 201.321 166.718 201.308 166.744C201.046 166.94 201.099 167.227 201.464 167.435Z" fill="#263238"/>
<path d="M195.766 171.686C195.766 172.455 195.961 173.094 196.339 173.563C196.73 174.059 197.304 174.333 197.956 174.332C197.969 174.333 197.969 174.333 197.969 174.333C198.464 174.332 198.999 174.176 199.533 173.863C199.624 173.811 199.728 173.759 199.82 173.694L199.181 173.329C197.643 174.19 196.417 173.459 196.417 171.686C196.417 169.913 197.669 167.736 199.208 166.849C200.042 166.367 200.798 166.353 201.306 166.745C201.567 166.915 201.763 167.201 201.88 167.579C202.102 167.632 202.349 167.632 202.545 167.566C202.454 167.175 202.297 166.836 202.076 166.575C201.685 166.093 201.124 165.819 200.459 165.819C199.951 165.819 199.429 165.976 198.881 166.289C197.135 167.292 195.766 169.665 195.766 171.686Z" fill="#263238"/>
<path d="M197.387 166.553L240.786 145.344L240.786 146.052C240.786 146.412 240.533 146.85 240.221 147.03L197.387 167.537L197.387 166.553Z" fill="#3AC7BA"/>
<path opacity="0.2" d="M197.387 166.553L240.786 145.344L240.786 146.052C240.786 146.412 240.533 146.85 240.221 147.03L197.387 167.537L197.387 166.553Z" fill="#F0ECEC"/>
<path d="M240.318 145.99C240.942 145.629 240.942 145.045 240.318 144.686L185.331 112.941C184.707 112.581 183.696 112.581 183.073 112.941L139.469 133.876L196.734 166.915L240.318 145.99Z" fill="#3AC7BA"/>
<path opacity="0.2" d="M240.318 145.99C240.942 145.629 240.942 145.045 240.318 144.686L185.331 112.941C184.707 112.581 183.696 112.581 183.073 112.941L139.469 133.876L196.734 166.915L240.318 145.99Z" fill="black"/>
<path d="M196.734 179.829L139.469 146.79V133.859L196.732 166.92L196.734 179.829Z" fill="#3AC7BA"/>
<path d="M186.806 171.536C187.459 171.536 188.037 171.262 188.431 170.767C188.806 170.298 189.003 169.648 189.003 168.888C189.002 166.869 187.631 164.495 185.882 163.484C185.341 163.172 184.812 163.015 184.306 163.015C182.991 163.015 182.107 164.078 182.107 165.662C182.107 167.684 183.48 170.057 185.23 171.068C185.77 171.378 186.3 171.536 186.804 171.536C186.804 171.536 186.804 171.536 186.806 171.536Z" fill="#455A64"/>
<path d="M188.351 168.89C188.352 170.672 187.101 171.394 185.556 170.503C184.012 169.613 182.76 167.445 182.76 165.663C182.76 163.88 184.011 163.157 185.555 164.049C187.098 164.941 188.35 167.108 188.351 168.89Z" fill="#F5F5F5"/>
<path d="M178.198 162.381V163.358C178.198 165.316 176.824 166.11 175.128 165.131L146.381 148.534C144.686 147.555 143.311 145.174 143.311 143.217V142.239C143.311 140.282 144.685 139.488 146.381 140.467L175.127 157.064C176.824 158.042 178.198 160.423 178.198 162.381Z" fill="#F5F5F5"/>
<path d="M197.407 179.441V166.593L196.732 166.921L196.734 179.83L197.407 179.441Z" fill="#3AC7BA"/>
<path opacity="0.2" d="M197.407 179.441V166.593L196.732 166.921L196.734 179.83L197.407 179.441Z" fill="#F0ECEC"/>
<path d="M139.938 131.082C139.938 131.354 140.157 131.702 140.429 131.859L196.711 164.331C196.983 164.487 197.422 164.487 197.694 164.331L241.916 141.961V140.979L184.671 107.93L140.429 130.305C140.157 130.462 139.938 130.809 139.938 131.082Z" fill="#3AC7BA"/>
<path opacity="0.5" d="M241.915 140.98L197.698 163.351C197.556 163.437 197.372 163.465 197.202 163.465C197.018 163.465 196.847 163.437 196.706 163.351L140.431 130.87C140.161 130.714 140.161 130.459 140.431 130.302L184.674 107.931L241.915 140.98Z" fill="black"/>
<path opacity="0.2" d="M241.916 140.979V141.962L197.7 164.33C197.558 164.415 197.374 164.443 197.203 164.443V163.465C197.373 163.465 197.557 163.437 197.699 163.351L241.916 140.979Z" fill="#F0ECEC"/>
<path d="M241.243 141.37L183.979 108.331V95.4004L241.242 128.591L241.243 141.37Z" fill="#3AC7BA"/>
<path opacity="0.7" d="M241.243 141.37L183.979 108.331V95.4004L241.242 128.591L241.243 141.37Z" fill="black"/>
<path d="M140.547 124.127C140.209 124.322 139.933 124.799 139.934 125.19V127.807C139.934 128.198 140.209 128.674 140.548 128.87L196.585 161.2C196.924 161.396 197.474 161.396 197.813 161.2L235.299 140.924V136.889L178.053 103.841L140.547 124.127Z" fill="#EBEBEB"/>
<path d="M178.052 103.842L140.547 124.127C140.208 124.322 140.208 124.639 140.547 124.835L196.583 157.165C196.923 157.361 197.473 157.361 197.812 157.165L235.298 136.89L178.052 103.842Z" fill="#2F2E2E"/>
<path d="M230.52 137.217C230.651 137.282 230.781 137.334 230.937 137.36C231.159 137.412 231.407 137.412 231.602 137.347C231.68 137.334 231.746 137.308 231.811 137.269C232.15 137.086 232.111 136.747 231.72 136.526C231.55 136.435 231.342 136.37 231.133 136.356C230.873 136.331 230.612 136.37 230.429 136.474C230.404 136.487 230.377 136.5 230.365 136.526C230.103 136.721 230.156 137.008 230.52 137.217Z" fill="#263238"/>
<path d="M197.202 157.302V161.343C196.975 161.343 196.748 161.3 196.578 161.201L140.544 128.875C140.204 128.677 139.934 128.194 139.934 127.812L139.934 125.188C139.934 124.862 140.132 124.465 140.402 124.238C140.217 124.423 140.26 124.663 140.544 124.834L196.577 157.16C196.747 157.259 196.975 157.316 197.202 157.302Z" fill="#E6E6E6"/>
<path d="M237.087 131.621C236.362 131.191 235.462 131.241 234.546 131.769C233.012 132.655 231.689 134.694 231.074 136.91C231.376 136.954 231.746 137.007 231.912 137.034C232.482 135.068 233.647 133.251 234.963 132.491C235.254 132.323 235.633 132.164 236.02 132.164C236.234 132.164 236.452 132.213 236.659 132.337C237.33 132.737 237.706 133.809 237.664 135.202C237.585 137.881 236.051 140.909 234.244 141.952C233.901 142.151 233.437 142.335 232.981 142.263L232.066 142.787C232.084 142.799 232.102 142.811 232.121 142.821C232.445 143.016 232.805 143.111 233.186 143.111C233.655 143.111 234.156 142.966 234.66 142.674C236.723 141.483 238.408 138.212 238.496 135.228C238.548 133.501 238.034 132.187 237.087 131.621Z" fill="#263238"/>
<path d="M139.938 122.871C139.938 123.143 140.157 123.491 140.429 123.648L196.711 156.12C196.982 156.276 197.422 156.276 197.694 156.119L241.915 129.093V128.111L184.671 95.0625L140.429 122.094C140.157 122.251 139.938 122.599 139.938 122.871Z" fill="#3AC7BA"/>
<path d="M241.916 128.111L197.7 155.14C197.558 155.225 197.374 155.253 197.204 155.253C197.019 155.254 196.849 155.225 196.707 155.14L140.433 122.658C140.163 122.503 140.163 122.247 140.433 122.091L184.676 95.0625L241.916 128.111Z" fill="#3AC7BA"/>
<path opacity="0.35" d="M241.916 128.111L197.7 155.14C197.558 155.225 197.374 155.253 197.204 155.253C197.019 155.254 196.849 155.225 196.707 155.14L140.433 122.658C140.163 122.503 140.163 122.247 140.433 122.091L184.676 95.0625L241.916 128.111Z" fill="#F0ECEC"/>
<path opacity="0.2" d="M241.916 128.111V129.094L197.699 156.119C197.557 156.204 197.373 156.232 197.203 156.232V155.253C197.373 155.253 197.557 155.225 197.699 155.14L241.916 128.111Z" fill="#F0ECEC"/>
<path d="M241.916 140.979L241.917 128.134L241.242 128.591L241.244 141.371L241.916 140.979Z" fill="#3AC7BA"/>
<path opacity="0.2" d="M241.916 140.979L241.917 128.134L241.242 128.591L241.244 141.371L241.916 140.979Z" fill="#F0ECEC"/>
<path opacity="0.4" d="M147.824 118.476L185.188 96.9062L239.086 128.081L201.723 149.652L147.824 118.476Z" fill="#3AC7BA"/>
<path d="M152.604 118.431L201.924 146.959V116.708L152.604 88.1797L152.604 118.431Z" fill="#AAA6A6"/>
<path d="M236.112 127.219L201.924 146.958V116.707L236.113 96.9678L236.112 127.219Z" fill="#AAA6A6"/>
<path d="M153.139 88.1802L186.793 68.752L235.575 96.9686L201.923 116.398L153.139 88.1802Z" fill="#F0ECEC"/>
<path d="M186.793 69.0613L235.04 96.9677L201.924 116.087L153.675 88.1798L186.793 69.0613ZM186.794 68.4414L152.604 88.1793L201.924 116.707L236.113 96.9683L186.794 68.4414Z" fill="#AAA6A6"/>
<path opacity="0.1" d="M178.307 113.191L201.924 126.827L216.095 118.646L201.924 127.672L178.307 113.191Z" fill="black"/>
<path opacity="0.1" d="M164.133 112.631L201.921 134.448L230.263 118.086L201.922 135.273L164.133 112.631Z" fill="black"/>
<path opacity="0.1" d="M157.349 99.4033C157.349 99.4033 156.568 103.816 156.96 106.049C156.96 106.049 163.145 105.897 173.582 108.776L157.349 99.4033Z" fill="black"/>
<path d="M157.347 99.4033L173.581 108.776L155.619 103.591L157.347 99.4033Z" fill="#F0ECEC"/>
<path opacity="0.1" d="M178.307 125.552L196.104 141.915C196.104 141.915 196.598 139.665 200.014 138.085L178.307 125.552Z" fill="black"/>
<path d="M178.307 125.552L195.021 139.626L200.014 138.085L178.307 125.552Z" fill="#F0ECEC"/>
<path opacity="0.1" d="M230.417 108.998C230.324 108.854 230.266 108.776 230.266 108.776L219.02 115.27L231.679 114.23C232.114 111.88 230.863 109.686 230.417 108.998Z" fill="black"/>
<path d="M219.02 115.27L230.266 108.776L234.011 110.752L219.02 115.27Z" fill="#2F2E2E"/>
<g opacity="0.15">
<path d="M161.294 90.2834C161.144 90.2834 160.998 90.2053 160.916 90.0656C160.795 89.8572 160.867 89.5904 161.076 89.47L189.417 73.1064C189.625 72.9881 189.892 73.0574 190.013 73.2659C190.134 73.4743 190.062 73.7411 189.853 73.8615L161.512 90.2246C161.444 90.2647 161.368 90.2834 161.294 90.2834Z" fill="black"/>
<path d="M166.016 93.0099C165.867 93.0099 165.72 92.9318 165.639 92.7921C165.518 92.5837 165.59 92.3169 165.799 92.1965L194.14 75.8334C194.346 75.7141 194.614 75.7845 194.736 75.9929C194.856 76.2014 194.785 76.4681 194.576 76.5886L166.235 92.9516C166.167 92.9918 166.09 93.0099 166.016 93.0099Z" fill="black"/>
<path d="M170.741 95.7379C170.591 95.7379 170.445 95.6598 170.363 95.5201C170.243 95.3117 170.314 95.0449 170.523 94.9245L198.865 78.5614C199.073 78.441 199.339 78.5125 199.461 78.7209C199.581 78.9294 199.51 79.1961 199.301 79.3166L170.96 95.6791C170.891 95.7192 170.815 95.7379 170.741 95.7379Z" fill="black"/>
<path d="M175.464 98.4653C175.314 98.4653 175.167 98.3873 175.086 98.2476C174.965 98.0391 175.037 97.7724 175.246 97.6519L203.586 81.2889C203.789 81.1695 204.058 81.2383 204.182 81.4484C204.302 81.6568 204.231 81.9236 204.022 82.044L175.682 98.4076C175.613 98.4467 175.537 98.4653 175.464 98.4653Z" fill="black"/>
<path d="M180.187 101.193C180.037 101.193 179.89 101.115 179.808 100.975C179.688 100.767 179.76 100.5 179.969 100.38L208.309 84.0171C208.516 83.8972 208.784 83.9687 208.906 84.1766C209.026 84.3851 208.955 84.6518 208.746 84.7723L180.405 101.135C180.336 101.174 180.261 101.193 180.187 101.193Z" fill="black"/>
<path d="M184.911 103.92C184.761 103.92 184.615 103.841 184.533 103.702C184.413 103.494 184.484 103.227 184.693 103.107L213.033 86.7436C213.241 86.6237 213.508 86.6957 213.629 86.9031C213.75 87.1115 213.678 87.3783 213.469 87.4987L185.129 103.862C185.062 103.901 184.985 103.92 184.911 103.92Z" fill="black"/>
<path d="M189.634 106.647C189.484 106.647 189.338 106.569 189.256 106.429C189.135 106.221 189.207 105.954 189.416 105.834L217.757 89.4701C217.965 89.3508 218.232 89.4212 218.354 89.6296C218.474 89.8381 218.402 90.1048 218.193 90.2253L189.853 106.589C189.784 106.628 189.708 106.647 189.634 106.647Z" fill="black"/>
<path d="M194.359 109.375C194.209 109.375 194.062 109.296 193.98 109.157C193.86 108.949 193.931 108.682 194.14 108.562L222.482 92.1985C222.689 92.0792 222.957 92.1501 223.078 92.358C223.199 92.5665 223.127 92.8332 222.918 92.9537L194.577 109.317C194.508 109.356 194.432 109.375 194.359 109.375Z" fill="black"/>
<path d="M199.083 112.102C198.933 112.102 198.787 112.023 198.705 111.884C198.585 111.675 198.656 111.409 198.865 111.288L227.207 94.9245C227.414 94.8062 227.681 94.8766 227.803 95.084C227.923 95.2924 227.852 95.5592 227.643 95.6796L199.301 112.043C199.233 112.083 199.157 112.102 199.083 112.102Z" fill="black"/>
</g>
<path opacity="0.1" d="M230.977 96.1357L199.84 115.503L199.842 120.866L152.604 93.9016V88.1799L185.274 69.3193L230.977 96.1357Z" fill="black"/>
<path d="M146.05 87.4166L195.369 115.945V85.694L146.049 57.166L146.05 87.4166Z" fill="#AAA6A6"/>
<path d="M229.556 96.2062L195.367 115.945V85.6946L229.557 65.9551L229.556 96.2062Z" fill="#AAA6A6"/>
<path d="M146.586 57.1665L180.239 37.7383L229.022 65.9555L195.369 85.3848L146.586 57.1665Z" fill="#F0ECEC"/>
<path d="M180.239 38.0486L228.486 65.9556L195.37 85.0752L147.121 57.1677L180.239 38.0486ZM180.239 37.4287L146.049 57.1671L195.369 85.6951L229.559 65.9561L180.239 37.4287Z" fill="#AAA6A6"/>
<path opacity="0.1" d="M171.75 82.1777L195.368 95.8133L209.538 87.6321L195.368 96.6581L171.75 82.1777Z" fill="black"/>
<path opacity="0.1" d="M157.578 81.6172L195.366 103.435L223.708 87.0721L195.366 104.26L157.578 81.6172Z" fill="black"/>
<path opacity="0.1" d="M150.792 68.3906C150.792 68.3906 150.011 72.8033 150.403 75.0363C150.403 75.0363 156.588 74.8839 167.026 77.7632L150.792 68.3906Z" fill="black"/>
<path d="M150.793 68.3906L167.026 77.7632L149.064 72.5778L150.793 68.3906Z" fill="#F0ECEC"/>
<path opacity="0.1" d="M171.75 94.5381L189.547 110.901C189.547 110.901 190.041 108.652 193.457 107.071L171.75 94.5381Z" fill="black"/>
<path d="M171.75 94.5381L188.465 108.612L193.457 107.071L171.75 94.5381Z" fill="#2F2E2E"/>
<path opacity="0.1" d="M223.859 77.9843C223.766 77.8408 223.708 77.7627 223.708 77.7627L212.461 84.256L225.12 83.2165C225.556 80.8669 224.304 78.6724 223.859 77.9843Z" fill="black"/>
<path d="M212.461 84.256L223.708 77.7627L227.452 79.7377L212.461 84.256Z" fill="#2F2E2E"/>
<g opacity="0.15">
<path d="M154.74 59.2697C154.589 59.2697 154.443 59.1916 154.361 59.0519C154.241 58.8435 154.312 58.5767 154.521 58.4563L182.862 42.0927C183.07 41.9744 183.337 42.0437 183.458 42.2522C183.579 42.4606 183.507 42.7274 183.298 42.8478L154.957 59.2114C154.89 59.2516 154.813 59.2697 154.74 59.2697Z" fill="black"/>
<path d="M159.46 61.9968C159.31 61.9968 159.163 61.9181 159.082 61.7784C158.961 61.57 159.033 61.3032 159.242 61.1828L187.583 44.8197C187.79 44.7004 188.058 44.7708 188.179 44.9792C188.3 45.1877 188.228 45.4544 188.019 45.5749L159.678 61.9379C159.61 61.9781 159.534 61.9968 159.46 61.9968Z" fill="black"/>
<path d="M164.186 64.7243C164.036 64.7243 163.89 64.6462 163.808 64.5065C163.688 64.298 163.76 64.0313 163.969 63.9108L192.31 47.5478C192.518 47.4273 192.785 47.4988 192.906 47.7073C193.027 47.9157 192.955 48.1825 192.746 48.3029L164.405 64.6654C164.336 64.7056 164.26 64.7243 164.186 64.7243Z" fill="black"/>
<path d="M168.909 67.4522C168.759 67.4522 168.613 67.3741 168.531 67.2344C168.411 67.026 168.482 66.7592 168.691 66.6388L197.031 50.2752C197.235 50.1558 197.504 50.2246 197.627 50.4347C197.748 50.6431 197.676 50.9099 197.467 51.0303L169.127 67.3934C169.059 67.4335 168.983 67.4522 168.909 67.4522Z" fill="black"/>
<path d="M173.632 70.1794C173.482 70.1794 173.336 70.1013 173.254 69.9616C173.133 69.7532 173.205 69.4864 173.414 69.366L201.755 53.0035C201.962 52.8836 202.229 52.9551 202.351 53.163C202.471 53.3714 202.4 53.6382 202.191 53.7586L173.85 70.1217C173.782 70.1607 173.706 70.1794 173.632 70.1794Z" fill="black"/>
<path d="M178.357 72.9071C178.207 72.9071 178.06 72.829 177.978 72.6887C177.858 72.4803 177.929 72.2135 178.138 72.0931L206.479 55.73C206.687 55.6101 206.954 55.6816 207.075 55.8895C207.196 56.098 207.124 56.3647 206.915 56.4852L178.575 72.8482C178.507 72.8884 178.431 72.9071 178.357 72.9071Z" fill="black"/>
<path d="M183.081 75.6341C182.932 75.6341 182.785 75.5554 182.703 75.4157C182.583 75.2073 182.654 74.9405 182.863 74.8201L211.205 58.4565C211.412 58.3371 211.679 58.4075 211.801 58.616C211.921 58.8244 211.85 59.0912 211.641 59.2116L183.299 75.5752C183.231 75.6154 183.155 75.6341 183.081 75.6341Z" fill="black"/>
<path d="M187.804 78.3614C187.654 78.3614 187.508 78.2827 187.426 78.1436C187.305 77.9351 187.377 77.6684 187.586 77.5479L215.927 61.1849C216.134 61.0655 216.402 61.1365 216.523 61.3444C216.644 61.5528 216.572 61.8196 216.363 61.94L188.022 78.3031C187.954 78.3427 187.878 78.3614 187.804 78.3614Z" fill="black"/>
<path d="M192.527 81.0879C192.377 81.0879 192.23 81.0098 192.148 80.8695C192.028 80.6611 192.099 80.3943 192.308 80.2739L220.649 63.9108C220.857 63.7926 221.124 63.863 221.246 64.0703C221.366 64.2788 221.294 64.5455 221.085 64.666L192.744 81.029C192.677 81.0692 192.6 81.0879 192.527 81.0879Z" fill="black"/>
</g>
<path d="M116.504 37.7199L98.0135 27.0439C97.9909 27.0307 97.9678 27.0175 97.9453 27.0043L97.8111 26.9267L97.8089 26.9328C88.8433 21.8546 76.5129 22.6373 62.8976 30.4979C35.4961 46.3186 13.2832 84.7928 13.2832 116.433C13.2832 132.155 18.7717 143.225 27.652 148.45L27.6481 148.455L27.7834 148.533C27.8054 148.545 27.8269 148.558 27.8489 148.571L46.3415 159.247L49.4958 150.946C53.8545 149.875 58.4542 148.011 63.2155 145.262C90.6171 129.442 112.83 90.9676 112.829 59.3272C112.829 53.8745 112.156 48.996 110.924 44.7115L116.504 37.7199Z" fill="#3AC7BA"/>
<path opacity="0.4" d="M116.504 37.7199L98.0135 27.0439C97.9909 27.0307 97.9678 27.0175 97.9453 27.0043L97.8111 26.9267L97.8089 26.9328C88.8433 21.8546 76.5129 22.6373 62.8976 30.4979C35.4961 46.3186 13.2832 84.7928 13.2832 116.433C13.2832 132.155 18.7717 143.225 27.652 148.45L27.6481 148.455L27.7834 148.533C27.8054 148.545 27.8269 148.558 27.8489 148.571L46.3415 159.247L49.4958 150.946C53.8545 149.875 58.4542 148.011 63.2155 145.262C90.6171 129.442 112.83 90.9676 112.829 59.3272C112.829 53.8745 112.156 48.996 110.924 44.7115L116.504 37.7199Z" fill="#F0ECEC"/>
<path opacity="0.4" d="M13.7183 108.697C13.4416 111.309 13.2832 113.894 13.2832 116.432C13.2832 132.154 18.7722 143.225 27.6525 148.449L27.6487 148.454L27.784 148.532C27.806 148.545 27.828 148.557 27.85 148.57L46.3426 159.246L49.4969 150.945C50.527 150.692 51.5726 150.387 52.6286 150.044L57.3184 133.87L13.7183 108.697Z" fill="#3AC7BA"/>
<path d="M116.67 118.837C136.046 85.2786 136.046 49.0055 116.671 37.8189C97.2957 26.6323 65.882 44.7683 46.5064 78.3268C27.1308 111.885 27.1305 148.158 46.5057 159.345C65.8809 170.532 97.2946 152.396 116.67 118.837Z" fill="#3AC7BA"/>
<path opacity="0.6" d="M116.67 118.837C136.046 85.2786 136.046 49.0055 116.671 37.8189C97.2957 26.6323 65.882 44.7683 46.5064 78.3268C27.1308 111.885 27.1305 148.158 46.5057 159.345C65.8809 170.532 97.2946 152.396 116.67 118.837Z" fill="#F0ECEC"/>
<path d="M119.235 51.2604C113.083 40.6036 100.469 39.404 85.4945 48.05C60.7143 62.3572 39.7802 98.6148 39.7813 127.225C39.7824 134.723 41.2222 141.181 43.9469 145.9C50.0998 156.557 62.713 157.756 77.6878 149.11C102.468 134.806 123.4 98.5488 123.401 69.9351C123.4 62.4375 121.96 55.9794 119.236 51.262C119.235 51.2604 119.235 51.2604 119.235 51.2604Z" fill="#3AC7BA"/>
<path d="M119.922 51.6566C112.951 40.5274 99.4526 38.8169 83.8133 47.0795C57.9342 60.752 36.9995 97.0096 38.1001 126.255C38.3894 133.919 40.173 140.575 43.2602 145.504C50.2314 156.633 63.7295 158.343 79.3688 150.081C105.247 136.412 126.18 100.155 125.082 70.9061C124.793 63.2418 123.009 56.5857 119.922 51.6588C119.922 51.6566 119.922 51.6566 119.922 51.6566Z" fill="#3AC7BA"/>
<path opacity="0.4" d="M119.922 51.6566C112.951 40.5274 99.4526 38.8169 83.8133 47.0795C57.9342 60.752 36.9995 97.0096 38.1001 126.255C38.3894 133.919 40.173 140.575 43.2602 145.504C50.2314 156.633 63.7295 158.343 79.3688 150.081C105.247 136.412 126.18 100.155 125.082 70.9061C124.793 63.2418 123.009 56.5857 119.922 51.6588C119.922 51.6566 119.922 51.6566 119.922 51.6566Z" fill="#F0ECEC"/>
<path d="M74.3294 147.248C64.3711 152.508 55.2901 153.709 48.2006 151.027C46.3207 149.559 44.6553 147.729 43.2621 145.503C40.1744 140.574 38.3908 133.918 38.102 126.254C37.0015 97.0089 57.9361 60.7512 83.8153 47.0788C93.7736 41.818 102.854 40.6168 109.944 43.2997C111.824 44.7671 113.489 46.5981 114.883 48.8228C114.883 48.8228 114.883 48.8228 114.884 48.825C117.97 53.7519 119.754 60.4086 120.043 68.0723C121.14 97.3207 100.208 133.578 74.3294 147.248Z" fill="#2F2E2E"/>
<path opacity="0.3" d="M81.7182 98.5798L54.3535 96.7384C61.0118 83.7326 69.2409 73.9151 79.0722 67.3486L81.7182 98.5798Z" fill="#3AC7BA"/>
<path d="M78.5511 54.285C77.9736 54.6216 77.5055 55.4758 77.5055 56.193L77.5 61.5681C77.5 62.2853 77.9681 62.5933 78.5456 62.2562C79.1231 61.9196 79.5911 61.0654 79.5911 60.3482L79.5966 54.9731C79.596 54.2564 79.128 53.9479 78.5511 54.285Z" fill="#3AC7BA"/>
<path d="M114.2 74.866C114.197 75.5343 113.691 76.367 113.07 76.725L108.418 79.4173C107.797 79.7759 107.296 79.5245 107.299 78.8563C107.302 78.188 107.808 77.3553 108.429 76.9973L113.081 74.305C113.701 73.9464 114.202 74.1978 114.2 74.866Z" fill="#3AC7BA"/>
<path d="M41.5977 118.291C41.601 117.623 42.1064 116.79 42.7274 116.432L47.3798 113.74C48.0008 113.381 48.5018 113.632 48.4985 114.301C48.4952 114.969 47.9898 115.802 47.3688 116.16L42.7164 118.852C42.096 119.21 41.5949 118.959 41.5977 118.291Z" fill="#3AC7BA"/>
<path d="M77.2453 138.872C77.8228 138.535 78.2909 137.682 78.2903 136.965L78.2958 131.589C78.2958 130.872 77.8278 130.564 77.2503 130.901C76.6728 131.238 76.2047 132.092 76.2047 132.809L76.1992 138.184C76.2003 138.901 76.6684 139.209 77.2453 138.872Z" fill="#3AC7BA"/>
<path d="M80.6581 100.519L54.3516 96.7393H82.7211L80.6581 100.519Z" fill="#3AC7BA"/>
<path d="M81.6701 67.8551C81.6701 67.8551 84.1072 90.4551 84.8634 95.695C84.936 95.9716 84.9784 96.2796 84.9784 96.625C84.9784 98.7849 83.462 101.412 81.5915 102.491C80.6565 103.031 79.81 103.082 79.1973 102.728C78.8855 102.547 77.6936 101.853 77.3862 101.682C76.7603 101.334 76.372 100.57 76.372 99.4773C76.064 94.0664 78.0726 68.0685 78.0726 68.0685L79.8375 66.7969L81.6701 67.8551Z" fill="#37474F"/>
<path d="M84.9778 96.6249C84.9778 98.7847 83.4614 101.412 81.5909 102.491C79.7203 103.571 78.204 102.696 78.204 100.536C77.896 95.125 79.9046 69.1271 79.9046 69.1271L81.6695 67.8555C81.6695 67.8555 84.9706 94.4557 84.9778 96.6249Z" fill="#455A64"/>
<path d="M83.121 97.6966C83.121 98.6728 82.4357 99.8603 81.5898 100.348C80.7444 100.837 80.0586 100.441 80.0586 99.4643C80.0586 98.488 80.7439 97.3006 81.5898 96.8127C82.4357 96.3243 83.121 96.7203 83.121 97.6966Z" fill="#263238"/>
<path d="M108.953 95.6295L103.506 96.2852L103.56 96.7384L109.008 96.0827L108.953 95.6295Z" fill="#37474F"/>
<path d="M90.8475 118.776L90.4277 118.955L92.5835 124.001L93.0033 123.821L90.8475 118.776Z" fill="#37474F"/>
<path d="M63.4061 69.3333L62.9863 69.5127L65.1421 74.5584L65.5619 74.379L63.4061 69.3333Z" fill="#37474F"/>
<path d="M52.416 96.586L46.9688 97.2422L47.0233 97.6954L52.4706 97.0392L52.416 96.586Z" fill="#37474F"/>
<path d="M112.625 58.521L107.732 64.0068L108.074 64.311L112.966 58.8252L112.625 58.521Z" fill="#37474F"/>
<path d="M93.0712 47.3264L90.7617 54.3047L91.1956 54.4483L93.5051 47.47L93.0712 47.3264Z" fill="#37474F"/>
<path d="M64.577 138.758L62.2676 145.736L62.7015 145.88L65.0109 138.902L64.577 138.758Z" fill="#37474F"/>
<path d="M47.6872 128.914L42.7949 134.399L43.136 134.704L48.0283 129.218L47.6872 128.914Z" fill="#37474F"/>
<path d="M77.4439 24.1845C77.4439 23.6867 77.1145 23.1884 76.4567 22.8084C75.1405 22.0483 73.006 22.0483 71.6904 22.8084C71.032 23.1884 70.7031 23.6862 70.7031 24.1845C70.7031 24.4182 70.7031 36.8746 70.7031 37.1084C70.7031 37.6061 71.032 38.1044 71.6904 38.4845C73.0065 39.2446 75.1405 39.2446 76.4567 38.4845C77.1145 38.1044 77.4439 37.6067 77.4439 37.1084C77.4439 36.8741 77.4439 24.4182 77.4439 24.1845Z" fill="#455A64"/>
<path d="M71.6904 25.5596C71.032 25.1795 70.7031 24.6818 70.7031 24.1835C70.7031 23.6857 71.032 23.1874 71.6904 22.8074C73.0065 22.0473 75.1405 22.0473 76.4572 22.8074C77.115 23.1874 77.4445 23.6852 77.4445 24.1835C77.4445 24.6812 77.1156 25.1795 76.4572 25.5596C75.1405 26.3197 73.0065 26.3197 71.6904 25.5596Z" fill="#37474F"/>
<path d="M83.7009 16.2776C83.7009 14.8553 82.761 13.4336 80.8822 12.3484C77.1235 10.1781 71.03 10.1781 67.2719 12.3484C65.3925 13.4336 64.4531 14.8553 64.4531 16.2776C64.4531 16.9448 64.4531 27.3975 64.4531 28.0652C64.4531 29.487 65.3925 30.9093 67.2719 31.9939C71.03 34.1642 77.124 34.1642 80.8822 31.9939C82.761 30.9093 83.7009 29.487 83.7009 28.0647C83.7009 27.3975 83.7009 16.9448 83.7009 16.2776Z" fill="#3AC7BA"/>
<path opacity="0.3" d="M67.2719 20.2064C65.3925 19.1213 64.4531 17.6995 64.4531 16.2772C64.4531 14.8549 65.3925 13.4332 67.2719 12.348C71.0306 10.1783 77.124 10.1783 80.8827 12.348C82.7621 13.4332 83.7015 14.8549 83.7015 16.2772C83.7015 17.6995 82.7621 19.1213 80.8827 20.2064C77.124 22.3767 71.0306 22.3767 67.2719 20.2064Z" fill="#F0ECEC"/>
<path opacity="0.2" d="M67.6909 20.4168V32.1945C67.9593 32.3287 68.2442 32.4624 68.5286 32.5801V20.8024C68.2437 20.6847 67.9593 20.5675 67.6909 20.4168ZM70.6395 21.4558V33.25C70.9073 33.3 71.1922 33.3506 71.4771 33.3842V21.6065C71.1922 21.5729 70.9073 21.5223 70.6395 21.4558ZM65.3457 18.5908V30.3685C65.58 30.6699 65.8649 30.9548 66.1834 31.2227V19.445C65.8479 19.1771 65.563 18.8922 65.3457 18.5908ZM79.5187 20.8524V32.6301C79.8201 32.513 80.0879 32.3788 80.3563 32.2446V20.4669C80.0879 20.6181 79.8036 20.7353 79.5187 20.8524ZM81.8639 19.5291V31.3068C82.1823 31.039 82.4672 30.7706 82.7015 30.4857V18.7415C82.4672 19.0264 82.1823 19.2943 81.8639 19.5291ZM76.5701 21.623V33.4007C76.855 33.3671 77.1399 33.3171 77.4078 33.2665V21.4723C77.1234 21.5394 76.855 21.5894 76.5701 21.623ZM73.6551 21.8072V33.6014H74.4928V21.8072C74.2079 21.8408 73.94 21.8408 73.6551 21.8072Z" fill="black"/>
<path d="M38.9964 52.774C38.6169 52.4517 38.024 52.3807 37.3084 52.6365C35.8773 53.1485 34.4963 54.7754 34.2246 56.2709C34.0887 57.0189 34.2554 57.592 34.6349 57.9137C34.8131 58.065 44.311 66.1241 44.4892 66.2754C44.8687 66.5977 45.4616 66.6686 46.1772 66.4129C47.6083 65.9014 48.9888 64.2739 49.261 62.7785C49.3969 62.031 49.2302 61.4579 48.8507 61.1356C48.6725 60.9844 39.1746 52.9252 38.9964 52.774Z" fill="#455A64"/>
<path d="M36.323 58.0512C35.6075 58.307 35.0151 58.236 34.6351 57.9137C34.2556 57.5914 34.0884 57.0183 34.2248 56.2709C34.497 54.7754 35.8775 53.1485 37.3086 52.6365C38.0242 52.3807 38.6165 52.4517 38.9966 52.774C39.3766 53.0963 39.5433 53.6694 39.4069 54.4168C39.1346 55.9123 37.7541 57.5397 36.323 58.0512Z" fill="#37474F"/>
<path d="M38.345 48.0844C37.6118 47.4623 36.4673 47.3248 35.0851 47.8187C32.3214 48.8071 29.655 51.9498 29.1297 54.8373C28.8668 56.281 29.1891 57.3882 29.9223 58.0102C30.2666 58.3023 35.6566 62.8761 36.0009 63.1681C36.734 63.7902 37.8786 63.9282 39.2602 63.4338C42.0234 62.4454 44.6903 59.3027 45.2156 56.4152C45.4785 54.9715 45.1562 53.8649 44.423 53.2423C44.0793 52.9502 38.6893 48.3764 38.345 48.0844Z" fill="#3AC7BA"/>
<path opacity="0.3" d="M33.1816 58.2761C31.8 58.7706 30.6554 58.6325 29.9223 58.0105C29.1891 57.3884 28.8668 56.2813 29.1297 54.8375C29.6555 51.95 32.3219 48.8073 35.0857 47.819C36.4673 47.3245 37.6118 47.4626 38.3455 48.0846C39.0787 48.7067 39.401 49.8138 39.1381 51.2576C38.6117 54.1451 35.9453 57.2872 33.1816 58.2761Z" fill="#F0ECEC"/>
<path opacity="0.2" d="M33.4738 58.152L39.5474 63.3055C39.7339 63.2258 39.9275 63.1378 40.1128 63.0421L34.0392 57.8886C33.8538 57.9843 33.669 58.08 33.4738 58.152ZM35.2998 57.0861L41.3817 62.2468C41.5247 62.1307 41.6754 62.0059 41.8173 61.8733L35.7436 56.7198C35.6023 56.8524 35.4516 56.9772 35.2998 57.0861ZM31.5059 58.5623L37.5795 63.7158C37.8375 63.7268 38.1092 63.7043 38.3869 63.6575L32.3133 58.504C32.0278 58.5601 31.7567 58.5821 31.5059 58.5623ZM38.8742 52.2434L44.9479 57.3969C45.0194 57.1901 45.0672 56.9932 45.1156 56.7963L39.042 51.6428C39.0024 51.8474 38.938 52.0454 38.8742 52.2434ZM39.218 50.4548L45.2916 55.6083C45.2927 55.3267 45.279 55.0627 45.235 54.8174L39.1789 49.6787C39.2224 49.924 39.2361 50.188 39.218 50.4548ZM37.981 54.1013L44.0547 59.2548C44.1619 59.0931 44.2609 58.9242 44.3522 58.7642L38.2703 53.603C38.1801 53.7795 38.0888 53.9396 37.981 54.1013ZM36.8007 55.6847L42.8826 60.8454L43.2495 60.4136L37.167 55.253C37.0598 55.4147 36.9426 55.5527 36.8007 55.6847Z" fill="black"/>
<path d="M104.877 30.9913L110.682 34.3428L113.391 29.6493L107.587 26.2979L104.877 30.9913Z" fill="#455A64"/>
<path d="M109.67 18.2908L119.333 23.8694C119.809 24.1444 119.972 24.7533 119.697 25.229L116.705 30.4128C116.43 30.8891 115.821 31.0519 115.344 30.7774L105.682 25.1988C105.205 24.9238 105.042 24.3149 105.317 23.8392L108.309 18.6554C108.584 18.1791 109.193 18.0158 109.67 18.2908Z" fill="#3AC7BA"/>
<path opacity="0.2" d="M115.965 21.9291L111.977 28.8369L112.467 29.1202L116.455 22.2124L115.965 21.9291Z" fill="black"/>
<path opacity="0.2" d="M119.536 24.0316L115.586 30.8731C115.503 30.8511 115.421 30.8219 115.343 30.7768L115.076 30.6228L119.064 23.7148L119.331 23.8688C119.409 23.9145 119.476 23.9711 119.536 24.0316Z" fill="black"/>
<path opacity="0.2" d="M117.695 22.9282L113.707 29.8359L114.198 30.1192L118.186 23.2114L117.695 22.9282Z" fill="black"/>
<path opacity="0.2" d="M105.432 24.9876L109.362 18.1797C109.467 18.2 109.571 18.2336 109.669 18.2902L109.881 18.4123L105.893 25.3203L105.681 25.1982C105.583 25.1421 105.502 25.0684 105.432 24.9876Z" fill="black"/>
<path opacity="0.2" d="M114.195 20.9057L110.207 27.8135L110.698 28.0967L114.686 21.1889L114.195 20.9057Z" fill="black"/>
<path opacity="0.2" d="M110.76 18.9223L106.771 25.8301L107.262 26.1133L111.25 19.2055L110.76 18.9223Z" fill="black"/>
<path opacity="0.2" d="M112.488 19.9203L108.5 26.8281L108.991 27.1114L112.979 20.2036L112.488 19.9203Z" fill="black"/>
<path d="M150.75 176.578L155.198 178.662L159.623 180.78L168.436 185.068L177.198 189.432L181.561 191.641L185.901 193.884L181.453 191.801L177.028 189.683L168.215 185.394L159.453 181.029L155.09 178.821L150.75 176.578Z" fill="#E0E0E0"/>
<path d="M157.914 185.401C158.912 185.844 159.895 186.307 160.886 186.759L163.835 188.151C165.798 189.083 167.742 190.043 169.697 190.988C171.633 191.959 173.58 192.916 175.507 193.9L178.395 195.383C179.349 195.889 180.311 196.384 181.259 196.9C180.261 196.458 179.277 195.995 178.286 195.543L175.337 194.151C173.374 193.219 171.43 192.259 169.476 191.314C167.539 190.342 165.592 189.386 163.665 188.401L160.778 186.918C159.824 186.412 158.862 185.917 157.914 185.401Z" fill="#E0E0E0"/>
<path d="M139.784 162.73L136.136 160.869C133.7 159.632 131.246 158.423 128.802 157.2C126.34 156.003 124.999 155.339 122.528 154.155L119.898 152.9V153.15L122.358 154.405C124.793 155.642 126.137 156.301 128.581 157.525C131.042 158.723 133.495 159.935 135.965 161.12L139.676 162.89C140.921 163.468 142.158 164.057 143.409 164.626C142.208 163.984 140.992 163.363 139.784 162.73Z" fill="#E0E0E0"/>
<path d="M121.137 158.922C121.791 159.198 122.432 159.494 123.08 159.78L124.999 160.673C126.279 161.268 127.541 161.889 128.803 162.51C130.06 163.139 131.316 163.768 132.555 164.423L134.413 165.406C135.024 165.746 135.643 166.074 136.247 166.424C135.592 166.148 134.952 165.851 134.304 165.566L132.384 164.673C131.104 164.078 129.842 163.457 128.58 162.836C127.324 162.206 126.068 161.577 124.829 160.922L122.971 159.939C122.36 159.6 121.741 159.271 121.137 158.922Z" fill="#E0E0E0"/>
<path d="M233.977 70.5781L222.376 72.6643L223.971 76.4246L214.715 77.9316L228.235 79.0349L226.061 74.4738L233.977 70.5781Z" fill="#3AC7BA"/>
<path d="M225.542 50.5449L214.195 63.6927L218.117 65.5786L213.438 73.5245L222.841 64.318L218.894 61.8562L225.542 50.5449Z" fill="#3AC7BA"/>
<path opacity="0.65" d="M225.542 50.5449L214.195 63.6927L218.117 65.5786L213.438 73.5245L222.841 64.318L218.894 61.8562L225.542 50.5449Z" fill="#F0ECEC"/>
</svg>
