<svg width="275" height="275" viewBox="0 0 275 275" fill="none" xmlns="http://www.w3.org/2000/svg">
<path d="M217.395 243.085C173.08 266.44 101.231 266.441 56.9165 243.086C12.6014 219.729 12.6014 181.863 56.9165 158.507C101.232 135.151 173.08 135.151 217.396 158.507C261.711 181.862 261.711 219.73 217.395 243.085Z" fill="#E5E5E5"/>
<path d="M129.415 148.256C129.448 145.446 127.486 139.602 124.614 135.918C121.743 132.235 117.19 129.512 113.921 130.587C110.875 131.588 111.156 135.571 114.804 138.252C118.452 140.932 123.943 144.311 125.507 148.888L128.835 154.521L129.415 148.256Z" fill="#188983"/>
<path opacity="0.1" d="M129.415 148.256C129.448 145.446 127.486 139.602 124.614 135.918C121.743 132.235 117.19 129.512 113.921 130.587C110.875 131.588 111.156 135.571 114.804 138.252C118.452 140.932 123.943 144.311 125.507 148.888L128.835 154.521L129.415 148.256Z" fill="black"/>
<path d="M129.576 152.103C129.486 152.095 129.41 152.027 129.393 151.936C127.627 142.322 119.961 134.432 115.338 132.654C115.232 132.614 115.18 132.495 115.22 132.389C115.26 132.284 115.377 132.229 115.485 132.271C120.197 134.084 128.004 142.102 129.796 151.862C129.817 151.973 129.743 152.08 129.632 152.101C129.613 152.104 129.594 152.105 129.576 152.103Z" fill="white"/>
<path d="M128.071 158.225C127.639 156.641 125.741 154.011 122.647 151.821C119.223 149.397 114.868 148.25 113.884 146.384C112.701 144.143 114.603 142.061 118.144 142.543C121.684 143.026 127.859 147.938 128.769 155.233L128.071 158.225Z" fill="#188983"/>
<path d="M128.778 156.576C128.7 156.569 128.63 156.517 128.602 156.438C125.76 148.186 119.525 145.227 116.626 144.815C116.514 144.799 116.436 144.695 116.452 144.583C116.468 144.47 116.567 144.392 116.684 144.408C119.89 144.864 126.089 147.882 128.991 156.305C129.028 156.412 128.97 156.529 128.863 156.566C128.835 156.576 128.806 156.579 128.778 156.576Z" fill="white"/>
<path d="M233.832 212.482L234.249 212.241C234.917 211.856 235.458 210.918 235.458 210.147V69.2076C235.458 68.4365 234.917 67.4993 234.249 67.1137L143.435 14.6866C142.767 14.3011 141.685 14.3011 141.017 14.6866L140.6 14.9275C139.932 15.3131 139.391 16.2503 139.391 17.0214V157.961C139.391 158.732 139.932 159.669 140.6 160.055L231.414 212.482C232.082 212.868 233.165 212.868 233.832 212.482Z" fill="#188983"/>
<path opacity="0.4" d="M139.403 16.8271C139.485 16.2001 139.992 15.9724 140.599 16.3205L231.417 68.752C231.752 68.9418 232.05 69.2773 232.271 69.6513L235.102 68.0178C234.887 67.6377 234.582 67.3088 234.247 67.1125L143.436 14.687C142.765 14.3009 141.682 14.3009 141.017 14.687L140.599 14.9279C139.991 15.2827 139.479 16.0994 139.403 16.8271Z" fill="white"/>
<path opacity="0.1" d="M231.619 212.577C232.284 212.862 233.227 212.83 233.829 212.482L234.253 212.241C234.918 211.855 235.456 210.918 235.456 210.146V69.2083C235.456 68.8222 235.323 68.3915 235.101 68.0181L232.271 69.6516C232.486 70.0316 232.626 70.4617 232.626 70.8418V211.785C232.626 212.476 232.189 212.799 231.619 212.577Z" fill="black"/>
<path d="M221.913 161.509L222.33 161.268C222.998 160.883 223.539 159.945 223.539 159.174V133.842C223.539 133.071 222.998 132.134 222.33 131.748L139.881 84.1022C139.214 83.7166 138.131 83.7166 137.464 84.1022L137.046 84.3431C136.378 84.7286 135.837 85.6658 135.837 86.4369V111.769C135.837 112.54 136.378 113.478 137.046 113.863L219.495 161.509C220.163 161.895 221.245 161.895 221.913 161.509Z" fill="#EBEBEB"/>
<path d="M135.849 86.2426C135.932 85.6156 136.438 85.3879 137.046 85.7361L219.498 133.387C219.833 133.577 220.131 133.913 220.352 134.286L223.183 132.653C222.967 132.273 222.663 131.944 222.328 131.747L139.882 84.1026C139.211 83.7165 138.128 83.7165 137.464 84.1026L137.046 84.3429C136.438 84.6977 135.925 85.5144 135.849 86.2426Z" fill="#777777"/>
<path d="M219.7 161.604C220.365 161.889 221.309 161.857 221.91 161.509L222.334 161.269C222.999 160.883 223.537 159.945 223.537 159.173V133.843C223.537 133.457 223.404 133.026 223.182 132.653L220.352 134.286C220.567 134.666 220.707 135.096 220.707 135.477V160.813C220.707 161.503 220.27 161.826 219.7 161.604Z" fill="#777777"/>
<path d="M207.837 131.687C203.135 128.971 199.323 131.084 199.323 136.405C199.324 141.726 203.14 148.197 207.847 150.857C212.554 153.518 216.37 151.403 216.368 146.137C216.366 140.87 212.54 134.401 207.837 131.687Z" fill="#188983"/>
<path d="M221.913 195.839L222.33 195.598C222.998 195.213 223.539 194.275 223.539 193.504V168.172C223.539 167.401 222.998 166.464 222.33 166.078L139.881 118.432C139.214 118.047 138.131 118.047 137.464 118.432L137.046 118.673C136.378 119.059 135.837 119.996 135.837 120.767V146.099C135.837 146.871 136.378 147.808 137.046 148.193L219.495 195.839C220.163 196.225 221.245 196.225 221.913 195.839Z" fill="#EBEBEB"/>
<path d="M135.849 120.573C135.932 119.946 136.438 119.718 137.046 120.067L219.498 167.718C219.833 167.907 220.131 168.243 220.352 168.617L223.183 166.983C222.967 166.603 222.663 166.274 222.328 166.078L139.882 118.433C139.211 118.047 138.128 118.047 137.464 118.433L137.046 118.673C136.438 119.028 135.925 119.845 135.849 120.573Z" fill="#777777"/>
<path d="M219.7 195.935C220.365 196.22 221.309 196.188 221.91 195.84L222.334 195.599C222.999 195.213 223.537 194.276 223.537 193.503V168.173C223.537 167.787 223.404 167.356 223.182 166.983L220.352 168.616C220.567 168.996 220.707 169.427 220.707 169.807V195.143C220.707 195.834 220.27 196.157 219.7 195.935Z" fill="#777777"/>
<path d="M207.837 166.017C203.135 163.302 199.323 165.414 199.323 170.735C199.324 176.056 203.14 182.527 207.847 185.187C212.554 187.848 216.37 185.733 216.368 180.467C216.366 175.2 212.54 168.732 207.837 166.017Z" fill="#188983"/>
<path d="M221.913 104.098L222.33 103.857C222.998 103.471 223.539 102.533 223.539 101.763V76.4303C223.539 75.6592 222.998 74.722 222.33 74.3365L139.881 26.6905C139.214 26.305 138.131 26.305 137.464 26.6905L137.046 26.9314C136.378 27.317 135.837 28.2542 135.837 29.0253V54.3577C135.837 55.1288 136.378 56.066 137.046 56.4516L219.495 104.098C220.163 104.483 221.245 104.483 221.913 104.098Z" fill="#EBEBEB"/>
<path d="M135.849 28.831C135.932 28.204 136.438 27.9763 137.046 28.3244L219.498 75.9753C219.833 76.1651 220.131 76.5006 220.352 76.8746L223.183 75.2411C222.967 74.861 222.663 74.5321 222.328 74.3358L139.882 26.6909C139.211 26.3048 138.128 26.3048 137.464 26.6909L137.046 26.9318C136.438 27.286 135.925 28.1028 135.849 28.831Z" fill="#777777"/>
<path d="M219.7 104.193C220.365 104.478 221.309 104.446 221.91 104.098L222.334 103.857C222.999 103.471 223.537 102.534 223.537 101.762V76.4314C223.537 76.0453 223.404 75.6147 223.182 75.2412L220.352 76.8747C220.567 77.2548 220.707 77.6849 220.707 78.0649V103.401C220.707 104.091 220.27 104.414 219.7 104.193Z" fill="#777777"/>
<path d="M207.837 74.2748C203.135 71.56 199.323 73.672 199.323 78.9932C199.324 84.3139 203.14 90.7847 207.847 93.445C212.554 96.1059 216.37 93.9912 216.368 88.7249C216.366 83.4581 212.54 76.9896 207.837 74.2748Z" fill="#188983"/>
<path d="M216.118 136.26L216.535 136.019C217.203 135.634 217.744 134.696 217.744 133.925V108.593C217.744 107.822 217.203 106.885 216.535 106.499L134.086 58.8531C133.419 58.4676 132.336 58.4676 131.669 58.8531L131.251 59.094C130.583 59.4796 130.042 60.4173 130.042 61.1879V86.5203C130.042 87.2914 130.583 88.2286 131.251 88.6142L213.7 136.26C214.368 136.646 215.45 136.646 216.118 136.26Z" fill="#37474F"/>
<path d="M130.053 60.9936C130.136 60.3666 130.642 60.1389 131.25 60.487L213.702 108.138C214.037 108.328 214.335 108.664 214.556 109.037L217.387 107.404C217.172 107.024 216.868 106.695 216.532 106.498L134.086 58.8535C133.415 58.4674 132.333 58.4674 131.668 58.8535L131.25 59.0944C130.642 59.4486 130.129 60.2654 130.053 60.9936Z" fill="#455A64"/>
<path d="M213.905 136.355C214.57 136.64 215.513 136.608 216.114 136.26L216.538 136.02C217.203 135.634 217.741 134.696 217.741 133.924V108.594C217.741 108.208 217.608 107.777 217.386 107.404L214.556 109.037C214.771 109.417 214.911 109.847 214.911 110.228V135.564C214.912 136.254 214.475 136.577 213.905 136.355Z" fill="#263238"/>
<path d="M202.042 106.438C197.34 103.722 193.528 105.835 193.528 111.156C193.529 116.477 197.345 122.948 202.052 125.608C206.76 128.269 210.575 126.154 210.573 120.888C210.57 115.621 206.745 109.152 202.042 106.438Z" fill="#F5F5F5"/>
<path d="M130.06 98.6154L132.451 97.2349V97.241C133.491 96.6437 134.762 97.2344 135.434 97.6474L136.926 96.7867C138.737 95.6933 141.253 97.9802 141.816 98.5291L142.461 98.1567L142.461 98.1578C144.38 97.0001 147.868 100.097 147.868 100.097V88.5735L146.353 87.8393L148.764 86.445C148.766 86.4439 148.767 86.4428 148.77 86.4417L148.786 86.4318L148.787 86.4335C149.341 86.1249 150.098 86.1744 150.936 86.6579C152.631 87.6363 154.004 90.0156 154.004 91.972V118.685C156.209 117.049 158.554 116.045 160.611 116.411C162.466 116.741 164.123 118.321 164.604 119.169C165.619 120.958 163.945 122.08 161.788 124.547C159.651 126.992 157.765 129.936 155.818 131.752C153.87 133.568 152.459 134.041 152.459 134.041V137.523L150.09 138.891L134.431 127.114V123.632C134.431 123.632 132.193 114.713 131.479 110.985C130.791 107.396 130.158 101.673 131.34 98.7018L130.061 98.6149L130.06 98.6154Z" fill="#188983"/>
<path opacity="0.4" d="M130.06 98.6154L132.451 97.2349V97.241C133.491 96.6437 134.762 97.2344 135.434 97.6474L136.926 96.7867C138.737 95.6933 141.253 97.9802 141.816 98.5291L142.461 98.1567L142.461 98.1578C144.38 97.0001 147.868 100.097 147.868 100.097V88.5735L146.353 87.8393L148.764 86.445C148.766 86.4439 148.767 86.4428 148.77 86.4417L148.786 86.4318L148.787 86.4335C149.341 86.1249 150.098 86.1744 150.936 86.6579C152.631 87.6363 154.004 90.0156 154.004 91.972V118.685C156.209 117.049 158.554 116.045 160.611 116.411C162.466 116.741 164.123 118.321 164.604 119.169C165.619 120.958 163.945 122.08 161.788 124.547C159.651 126.992 157.765 129.936 155.818 131.752C153.87 133.568 152.459 134.041 152.459 134.041V137.523L150.09 138.891L134.431 127.114V123.632C134.431 123.632 132.193 114.713 131.479 110.985C130.791 107.396 130.158 101.673 131.34 98.7018L130.061 98.6149L130.06 98.6154Z" fill="white"/>
<path d="M147.723 129.317L159.569 122.479L164.757 119.483C165.417 121.097 163.817 122.228 161.789 124.548C159.652 126.993 157.766 129.937 155.819 131.753C153.871 133.569 152.46 134.042 152.46 134.042V137.524L150.091 138.892L146.631 136.29C147.079 133.331 147.723 129.317 147.723 129.317Z" fill="#188983"/>
<path d="M151.635 93.341L154.005 91.9731V119.993L151.635 120.054V93.341Z" fill="#188983"/>
<path d="M133.053 100.414L131.218 99.0602C131.257 98.9398 131.295 98.816 131.339 98.7033L130.673 98.6577L132.145 98.5905L134.605 97.2354C134.925 97.3608 135.214 97.5126 135.434 97.6479L134.665 98.095L133.053 100.414Z" fill="#188983"/>
<path d="M139.563 100.013L137.838 98.7009L140.215 97.2632C140.969 97.7351 141.574 98.2928 141.816 98.5293L140.166 99.4835L139.563 100.013Z" fill="#188983"/>
<path d="M143.157 99.8863L145.508 98.5108L145.498 98.4888V101.466L142.758 100.461L143.157 99.8863Z" fill="#188983"/>
<g opacity="0.15">
<path d="M147.723 129.317L159.569 122.479L164.757 119.483C165.417 121.097 163.817 122.228 161.789 124.548C159.652 126.993 157.766 129.937 155.819 131.753C153.871 133.569 152.46 134.042 152.46 134.042V137.524L150.091 138.892L146.631 136.29C147.079 133.331 147.723 129.317 147.723 129.317Z" fill="black"/>
<path d="M151.635 93.341L154.005 91.9731V119.993L151.635 120.054V93.341Z" fill="black"/>
<path d="M133.053 100.414L131.218 99.0602C131.257 98.9398 131.295 98.816 131.339 98.7033L130.673 98.6577L132.145 98.5905L134.605 97.2354C134.925 97.3608 135.214 97.5126 135.434 97.6479L134.665 98.095L133.053 100.414Z" fill="black"/>
<path d="M139.563 100.013L137.838 98.7009L140.215 97.2632C140.969 97.7351 141.574 98.2928 141.816 98.5293L140.166 99.4835L139.563 100.013Z" fill="black"/>
<path d="M143.157 99.8863L145.508 98.5108L145.498 98.4888V101.466L142.758 100.461L143.157 99.8863Z" fill="black"/>
</g>
<path d="M150.092 138.892V135.41C150.092 135.41 151.503 134.937 153.45 133.12C155.398 131.304 157.283 128.36 159.421 125.915C161.577 123.449 163.252 122.327 162.237 120.538C161.755 119.689 160.099 118.109 158.244 117.78C156.186 117.414 153.842 118.418 151.637 120.054V93.3406C151.637 91.3837 150.263 89.005 148.569 88.0265C146.874 87.0481 145.501 87.8412 145.501 89.7981V101.466C145.501 101.466 141.273 97.7109 139.565 100.014C139.565 100.014 135.411 95.6627 133.536 99.3378C133.536 99.3378 130.486 96.8749 129.111 99.7333C127.736 102.592 128.396 108.628 129.111 112.355C129.825 116.083 132.063 125.002 132.063 125.002V128.484L150.092 138.892Z" fill="#188983"/>
<path d="M145.501 106.475C145.501 106.475 145.116 101.152 143.16 99.8857C143.161 99.8857 143.188 99.894 143.23 99.9061C144.475 100.556 145.501 101.465 145.501 101.465V101.365C145.523 101.432 145.501 101.465 145.501 101.465V106.475Z" fill="#455A64"/>
<path d="M139.565 100.013V104.883C139.565 104.883 139.025 99.875 137.903 98.665C138.859 99.2744 139.561 100.009 139.565 100.013Z" fill="#455A64"/>
<path d="M133.536 99.3366V104.224C133.536 104.224 133.239 99.3003 132.178 98.5737C132.949 98.8641 133.532 99.3338 133.536 99.3366Z" fill="#455A64"/>
<path d="M150.952 83.2938C151.333 83.5133 151.642 83.3829 151.642 83.0023V79.1375C151.642 78.7569 151.333 78.2701 150.952 78.0507C150.572 77.8307 150.263 77.9616 150.263 78.3416V82.2065C150.263 82.5876 150.572 83.0744 150.952 83.2938Z" fill="#EBEBEB"/>
<path d="M156.727 89.3892C156.996 89.8551 157.433 90.107 157.702 89.9519L159.938 88.6605C160.207 88.5054 160.207 88.0016 159.938 87.5352C159.669 87.0693 159.232 86.8174 158.963 86.9725L156.727 88.2634C156.458 88.419 156.458 88.9228 156.727 89.3892Z" fill="#EBEBEB"/>
<path d="M159.118 97.3813V97.4918C159.118 97.9005 159.45 98.4235 159.858 98.6595L162.918 100.426C163.327 100.662 163.658 100.522 163.658 100.113V100.003C163.658 99.5939 163.327 99.0709 162.918 98.8344L159.858 97.0678C159.449 96.8324 159.118 96.9726 159.118 97.3813Z" fill="#EBEBEB"/>
<path d="M142.788 88.0637V87.9532C142.788 87.5445 142.456 87.0215 142.048 86.785L138.988 85.0184C138.579 84.7824 138.248 84.9227 138.248 85.3313V85.4419C138.248 85.8505 138.579 86.3736 138.988 86.6101L142.048 88.3767C142.456 88.6126 142.788 88.4724 142.788 88.0637Z" fill="#EBEBEB"/>
<path d="M145.18 82.7221C145.449 82.5664 145.449 82.0626 145.18 81.5968L142.944 77.7236C142.675 77.2578 142.239 77.0059 141.969 77.161C141.7 77.3161 141.7 77.8199 141.969 78.2863L144.206 82.1594C144.474 82.6258 144.911 82.8777 145.18 82.7221Z" fill="#EBEBEB"/>
<path d="M150.864 227.346L145.972 229.638L141.104 231.967L131.41 236.685L121.771 241.485L116.972 243.915L112.198 246.382L117.091 244.09L121.958 241.761L131.653 237.043L141.29 232.242L146.09 229.813L150.864 227.346Z" fill="#E0E0E0"/>
<path d="M142.984 237.051C141.887 237.537 140.805 238.047 139.715 238.544L136.472 240.076C134.312 241.1 132.174 242.157 130.023 243.196C127.893 244.264 125.752 245.316 123.632 246.399L120.456 248.03C119.406 248.587 118.348 249.132 117.305 249.7C118.403 249.213 119.485 248.704 120.575 248.206L123.819 246.675C125.978 245.65 128.117 244.594 130.267 243.554C132.397 242.485 134.538 241.434 136.658 240.35L139.835 238.72C140.884 238.163 141.942 237.618 142.984 237.051Z" fill="#E0E0E0"/>
<path d="M162.926 212.113L166.939 210.065C169.618 208.705 172.317 207.375 175.006 206.029C177.714 204.713 179.189 203.982 181.908 202.68L184.8 201.3V201.574L182.094 202.954C179.416 204.315 177.937 205.041 175.249 206.387C172.541 207.705 169.844 209.038 167.126 210.341L163.045 212.288C161.675 212.924 160.315 213.572 158.938 214.197C160.26 213.491 161.597 212.808 162.926 212.113Z" fill="#E0E0E0"/>
<path d="M183.437 207.924C182.716 208.228 182.012 208.554 181.299 208.868L179.188 209.85C177.78 210.504 176.392 211.188 175.004 211.871C173.621 212.563 172.24 213.255 170.877 213.975L168.833 215.056C168.161 215.43 167.48 215.791 166.815 216.176C167.535 215.872 168.24 215.546 168.953 215.232L171.065 214.251C172.472 213.595 173.86 212.913 175.248 212.229C176.63 211.537 178.012 210.844 179.375 210.124L181.419 209.043C182.091 208.669 182.771 208.308 183.437 207.924Z" fill="#E0E0E0"/>
</svg>
