<svg width="275" height="275" viewBox="0 0 275 275" fill="none" xmlns="http://www.w3.org/2000/svg">
<path d="M137.5 271.796C62.7555 271.796 2.16333 236.812 2.16333 193.658C2.16333 150.504 62.7555 115.521 137.5 115.521C212.244 115.521 272.836 150.504 272.836 193.658C272.836 236.812 212.244 271.796 137.5 271.796Z" fill="#E5E5E5"/>
<path d="M34.6781 154.662C34.3668 154.482 34.2112 154.247 34.2106 154.012C34.2101 153.775 34.2106 153.008 34.2106 153.008L89.666 121.614C90.2897 121.254 91.3006 121.254 91.9243 121.614L135.528 146.789L78.2634 179.828L34.6781 154.662Z" fill="#188983"/>
<path opacity="0.2" d="M34.6781 154.662C34.3668 154.482 34.2112 154.247 34.2106 154.012C34.2101 153.775 34.2106 153.008 34.2106 153.008L89.666 121.614C90.2897 121.254 91.3006 121.254 91.9243 121.614L135.528 146.789L78.2634 179.828L34.6781 154.662Z" fill="white"/>
<path d="M34.6776 153.685C34.0539 153.325 34.0544 152.741 34.6776 152.381L89.6655 120.636C90.2892 120.276 91.2995 120.276 91.9238 120.636L135.528 145.812L78.2634 178.851L34.6776 153.685Z" fill="#188983"/>
<path opacity="0.5" d="M34.6776 153.685C34.0539 153.325 34.0544 152.741 34.6776 152.381L89.6655 120.636C90.2892 120.276 91.2995 120.276 91.9238 120.636L135.528 145.812L78.2634 178.851L34.6776 153.685Z" fill="black"/>
<path d="M125.49 139.232L93.2076 120.603C92.5844 120.244 91.573 120.244 90.9493 120.603L39.6926 150.194L35.4939 147.749V152.721L35.5725 152.767C35.4328 153.074 35.5456 153.411 35.9619 153.652L72.9324 174.987L130.197 141.948V136.516L125.49 139.232Z" fill="#EBEBEB"/>
<path d="M35.9623 148.22C35.3386 147.859 35.3392 147.276 35.9623 146.916L90.9497 115.171C91.5734 114.811 92.5843 114.811 93.2085 115.171L130.198 136.517L72.9333 169.556L35.9623 148.22Z" fill="#E5E5E5"/>
<path d="M72.9324 169.556V174.987L130.197 141.948V136.517L72.9324 169.556Z" fill="#E6E6E6"/>
<path d="M73.5323 167.434C73.402 167.499 73.2716 167.552 73.1149 167.577C72.8932 167.63 72.6457 167.63 72.4499 167.564C72.3718 167.551 72.3064 167.525 72.2409 167.486C71.9021 167.304 71.9412 166.964 72.3322 166.743C72.5016 166.652 72.7101 166.586 72.9185 166.573C73.1792 166.547 73.4399 166.586 73.6225 166.691C73.6489 166.704 73.6748 166.717 73.688 166.743C73.9498 166.939 73.897 167.226 73.5323 167.434Z" fill="#263238"/>
<path d="M79.2285 171.684C79.2285 172.454 79.0327 173.093 78.6549 173.562C78.2638 174.057 77.6902 174.331 77.0384 174.331C77.0252 174.331 77.0252 174.331 77.0252 174.331C76.5302 174.331 75.9951 174.175 75.461 173.862C75.3697 173.809 75.2658 173.758 75.1739 173.693L75.813 173.328C77.3514 174.188 78.5768 173.458 78.5768 171.685C78.5768 169.912 77.3255 167.735 75.7866 166.848C74.9523 166.366 74.196 166.352 73.6878 166.744C73.4271 166.913 73.2313 167.2 73.1142 167.578C72.8925 167.63 72.645 167.63 72.4492 167.565C72.5405 167.174 72.6967 166.834 72.9184 166.574C73.3094 166.091 73.8704 165.817 74.5354 165.818C75.0436 165.818 75.565 165.974 76.1128 166.288C77.859 167.291 79.2285 169.663 79.2285 171.684Z" fill="#263238"/>
<path d="M77.6094 166.551L34.21 145.342L34.2105 146.051C34.2105 146.41 34.463 146.849 34.7748 147.029L77.6088 167.535L77.6094 166.551Z" fill="#188983"/>
<path opacity="0.2" d="M77.6094 166.551L34.21 145.342L34.2105 146.051C34.2105 146.41 34.463 146.849 34.7748 147.029L77.6088 167.535L77.6094 166.551Z" fill="white"/>
<path d="M34.6777 145.989C34.054 145.628 34.054 145.044 34.6777 144.685L89.6651 112.94C90.2887 112.58 91.2996 112.58 91.9233 112.94L135.527 133.875L78.2624 166.914L34.6777 145.989Z" fill="#188983"/>
<path opacity="0.2" d="M34.6777 145.989C34.054 145.628 34.054 145.044 34.6777 144.685L89.6651 112.94C90.2887 112.58 91.2996 112.58 91.9233 112.94L135.527 133.875L78.2624 166.914L34.6777 145.989Z" fill="black"/>
<path d="M78.2624 179.828L135.527 146.789V133.858L78.2641 166.919L78.2624 179.828Z" fill="#188983"/>
<path d="M88.19 171.534C87.5372 171.534 86.9591 171.261 86.5648 170.765C86.1902 170.297 85.9928 169.647 85.9928 168.887C85.9939 166.868 87.365 164.493 89.1146 163.482C89.6547 163.171 90.1838 163.013 90.6898 163.013C92.0048 163.013 92.8887 164.077 92.8887 165.661C92.8887 167.682 91.5164 170.056 89.7658 171.066C89.2262 171.376 88.6966 171.535 88.1922 171.535C88.1922 171.535 88.1917 171.534 88.19 171.534Z" fill="#455A64"/>
<path d="M86.644 168.888C86.6429 170.67 87.8942 171.392 89.4391 170.501C90.9835 169.611 92.2354 167.443 92.2354 165.661C92.2354 163.878 90.9841 163.155 89.4403 164.047C87.897 164.939 86.6451 167.106 86.644 168.888Z" fill="#F5F5F5"/>
<path d="M96.798 162.379V163.357C96.798 165.315 98.1724 166.108 99.8681 165.129L128.615 148.533C130.311 147.554 131.685 145.173 131.686 143.215V142.238C131.686 140.28 130.311 139.487 128.615 140.466L99.8686 157.063C98.1724 158.04 96.798 160.421 96.798 162.379Z" fill="#F5F5F5"/>
<path d="M77.5894 179.44V166.591L78.2637 166.919L78.262 179.828L77.5894 179.44Z" fill="#188983"/>
<path opacity="0.2" d="M77.5894 179.44V166.591L78.2637 166.919L78.262 179.828L77.5894 179.44Z" fill="white"/>
<path d="M135.061 131.081C135.061 131.353 134.841 131.701 134.569 131.858L78.2868 164.33C78.0151 164.486 77.5756 164.486 77.3039 164.33L33.0823 141.961V140.978L90.3269 107.929L134.569 130.304C134.841 130.461 135.061 130.808 135.061 131.081Z" fill="#188983"/>
<path opacity="0.5" d="M33.0831 140.978L77.2998 163.35C77.4417 163.435 77.6259 163.463 77.7959 163.463C77.9801 163.463 78.1506 163.435 78.2925 163.35L134.567 130.869C134.837 130.712 134.837 130.457 134.567 130.301L90.3237 107.929L33.0831 140.978Z" fill="black"/>
<path opacity="0.2" d="M33.0821 140.978V141.96L77.2983 164.329C77.4396 164.414 77.6244 164.442 77.7949 164.442V163.463C77.625 163.463 77.4407 163.435 77.2988 163.35L33.0821 140.978Z" fill="white"/>
<path d="M33.7536 141.37L91.0186 108.331V95.3999L33.7553 128.59L33.7536 141.37Z" fill="#188983"/>
<path opacity="0.7" d="M33.7536 141.37L91.0186 108.331V95.3999L33.7553 128.59L33.7536 141.37Z" fill="black"/>
<path d="M134.45 124.126C134.788 124.321 135.064 124.798 135.063 125.189V127.806C135.063 128.197 134.788 128.673 134.449 128.869L78.4124 161.199C78.0736 161.395 77.5236 161.395 77.1842 161.199L39.6979 140.923V136.888L96.9441 103.84L134.45 124.126Z" fill="#EBEBEB"/>
<path d="M96.9447 103.841L134.45 124.126C134.789 124.321 134.789 124.639 134.45 124.834L78.4136 157.164C78.0743 157.36 77.5243 157.36 77.1855 157.164L39.6991 136.889L96.9447 103.841Z" fill="#E5E5E5"/>
<path d="M44.4759 137.215C44.3456 137.281 44.2152 137.333 44.059 137.359C43.8374 137.41 43.5893 137.41 43.3941 137.345C43.316 137.333 43.2505 137.307 43.1851 137.267C42.8463 137.085 42.8853 136.746 43.2764 136.524C43.4458 136.434 43.6542 136.368 43.8627 136.355C44.1234 136.329 44.3841 136.368 44.5667 136.473C44.5925 136.486 44.6189 136.498 44.6316 136.524C44.8928 136.72 44.8406 137.007 44.4759 137.215Z" fill="#263238"/>
<path d="M77.7953 157.301V161.342C78.0224 161.342 78.249 161.299 78.4195 161.2L134.454 128.874C134.793 128.676 135.063 128.193 135.063 127.811L135.063 125.187C135.063 124.861 134.865 124.464 134.595 124.237C134.78 124.422 134.737 124.662 134.454 124.833L78.4201 157.159C78.2496 157.258 78.0224 157.315 77.7953 157.301Z" fill="#E6E6E6"/>
<path d="M37.9112 131.62C38.6361 131.19 39.5365 131.24 40.4517 131.768C41.9862 132.654 43.3089 134.693 43.9238 136.909C43.6224 136.953 43.2517 137.006 43.0856 137.033C42.5164 135.067 41.3515 133.25 40.0353 132.49C39.7438 132.322 39.3654 132.163 38.9782 132.163C38.7637 132.163 38.5459 132.212 38.3386 132.336C37.6681 132.736 37.2925 133.808 37.3337 135.201C37.4135 137.88 38.9469 140.908 40.7542 141.951C41.0974 142.15 41.561 142.334 42.0175 142.262L42.9322 142.786C42.914 142.798 42.8959 142.81 42.8772 142.821C42.5527 143.015 42.193 143.11 41.8124 143.11C41.3432 143.11 40.8422 142.965 40.3378 142.673C38.2753 141.482 36.5901 138.211 36.5016 135.227C36.4499 133.5 36.9641 132.186 37.9112 131.62Z" fill="#263238"/>
<path d="M135.061 122.871C135.061 123.143 134.841 123.491 134.569 123.647L78.2873 156.119C78.0156 156.275 77.5762 156.275 77.3045 156.119L33.0828 129.093V128.11L90.3269 95.062L134.569 122.094C134.841 122.25 135.061 122.598 135.061 122.871Z" fill="#188983"/>
<path d="M33.0826 128.111L77.2993 155.14C77.4412 155.225 77.6255 155.253 77.7954 155.253C77.9802 155.253 78.1502 155.225 78.2921 155.14L134.566 122.658C134.836 122.502 134.836 122.247 134.566 122.091L90.3228 95.062L33.0826 128.111Z" fill="#188983"/>
<path opacity="0.35" d="M33.0826 128.111L77.2993 155.14C77.4412 155.225 77.6255 155.253 77.7954 155.253C77.9802 155.253 78.1502 155.225 78.2921 155.14L134.566 122.658C134.836 122.502 134.836 122.247 134.566 122.091L90.3228 95.062L33.0826 128.111Z" fill="white"/>
<path opacity="0.2" d="M33.0821 128.111V129.093L77.2988 156.118C77.4407 156.204 77.625 156.232 77.7949 156.232V155.253C77.625 155.253 77.4407 155.225 77.2988 155.139L33.0821 128.111Z" fill="white"/>
<path d="M33.0821 140.978L33.081 128.133L33.7559 128.59L33.7542 141.37L33.0821 140.978Z" fill="#188983"/>
<path opacity="0.2" d="M33.0821 140.978L33.081 128.133L33.7559 128.59L33.7542 141.37L33.0821 140.978Z" fill="white"/>
<path d="M271.355 223.887C272.001 223.514 272.383 222.583 272.207 221.808L251.789 131.426C251.614 130.651 250.914 129.7 250.224 129.302L128.738 59.1618C128.049 58.7642 126.967 58.7444 126.321 59.1174C125.675 59.4904 125.293 60.421 125.469 61.1972L145.887 151.579C146.062 152.354 146.763 153.305 147.452 153.703L268.939 223.842C269.627 224.24 270.709 224.26 271.355 223.887Z" fill="#188983"/>
<path opacity="0.8" d="M271.355 223.887C272.001 223.514 272.383 222.583 272.207 221.808L251.789 131.426C251.614 130.651 250.914 129.7 250.224 129.302L128.738 59.1618C128.049 58.7642 126.967 58.7444 126.321 59.1174C125.675 59.4904 125.293 60.421 125.469 61.1972L145.887 151.579C146.062 152.354 146.763 153.305 147.452 153.703L268.939 223.842C269.627 224.24 270.709 224.26 271.355 223.887Z" fill="#373636"/>
<path d="M249.45 132.777L269.867 223.158C270.042 223.934 269.626 224.24 268.937 223.842L147.45 153.701C146.761 153.304 146.061 152.353 145.886 151.577L125.468 61.1958C125.293 60.4204 125.709 60.1139 126.398 60.5115L247.885 130.653C248.574 131.05 249.274 132.001 249.45 132.777Z" fill="#188983"/>
<path opacity="0.6" d="M249.45 132.777L269.867 223.158C270.042 223.934 269.626 224.24 268.937 223.842L147.45 153.701C146.761 153.304 146.061 152.353 145.886 151.577L125.468 61.1958C125.293 60.4204 125.709 60.1139 126.398 60.5115L247.885 130.653C248.574 131.05 249.274 132.001 249.45 132.777Z" fill="#373636"/>
<path opacity="0.05" d="M249.45 132.777L269.867 223.158C270.042 223.934 269.626 224.24 268.937 223.842L147.45 153.701C146.761 153.304 146.061 152.353 145.886 151.577L125.468 61.1958C125.293 60.4204 125.709 60.1139 126.398 60.5115L247.885 130.653C248.574 131.05 249.274 132.001 249.45 132.777Z" fill="black"/>
<path d="M123.984 60.467C124.63 60.094 125.712 60.1138 126.401 60.5114L247.888 130.652C248.576 131.05 249.043 132.011 248.932 132.798L232.963 244.746C232.85 245.534 232.236 246.474 231.59 246.847C230.945 247.22 229.863 247.2 229.174 246.802L107.686 176.661C106.998 176.264 106.53 175.303 106.642 174.517L122.61 62.5682C122.723 61.7809 123.338 60.84 123.984 60.467Z" fill="#188983"/>
<path opacity="0.8" d="M123.984 60.467C124.63 60.094 125.712 60.1138 126.401 60.5114L247.888 130.652C248.576 131.05 249.043 132.011 248.932 132.798L232.963 244.746C232.85 245.534 232.236 246.474 231.59 246.847C230.945 247.22 229.863 247.2 229.174 246.802L107.686 176.661C106.998 176.264 106.53 175.303 106.642 174.517L122.61 62.5682C122.723 61.7809 123.338 60.84 123.984 60.467Z" fill="#373636"/>
<path d="M246.591 134.149L230.622 246.097C230.51 246.884 229.861 247.2 229.172 246.803L107.685 176.662C106.996 176.264 106.529 175.303 106.641 174.517L122.609 62.5684C122.721 61.7811 123.371 61.4651 124.059 61.8627L245.547 132.003C246.236 132.401 246.703 133.361 246.591 134.149Z" fill="#188983"/>
<path opacity="0.95" d="M246.591 134.149L230.622 246.097C230.51 246.884 229.861 247.2 229.172 246.803L107.685 176.662C106.996 176.264 106.529 175.303 106.641 174.517L122.609 62.5684C122.721 61.7811 123.371 61.4651 124.059 61.8627L245.547 132.003C246.236 132.401 246.703 133.361 246.591 134.149Z" fill="#373636"/>
<path d="M237.739 211.234L252.004 219.464H252.009C252.307 219.396 252.61 219.38 252.887 219.432L269.714 222.674C269.73 222.68 269.74 222.68 269.746 222.68H269.762L238.67 204.718L237.739 211.234Z" fill="#188983"/>
<path opacity="0.5" d="M237.739 211.234L252.004 219.464H252.009C252.307 219.396 252.61 219.38 252.887 219.432L269.714 222.674C269.73 222.68 269.74 222.68 269.746 222.68H269.762L238.67 204.718L237.739 211.234Z" fill="#373636"/>
<path opacity="0.2" d="M237.739 211.234L252.004 219.464H252.009C252.307 219.396 252.61 219.38 252.887 219.432L269.714 222.674C269.73 222.68 269.74 222.68 269.746 222.68H269.762L238.67 204.718L237.739 211.234Z" fill="black"/>
<path d="M233.085 243.873L250.612 220.259C250.91 219.861 251.412 219.558 251.94 219.427L237.738 211.234L233.085 243.873Z" fill="#188983"/>
<path opacity="0.6" d="M233.085 243.873L250.612 220.259C250.91 219.861 251.412 219.558 251.94 219.427L237.738 211.234L233.085 243.873Z" fill="#373636"/>
<path opacity="0.1" d="M233.085 243.873L250.612 220.259C250.91 219.861 251.412 219.558 251.94 219.427L237.738 211.234L233.085 243.873Z" fill="black"/>
<path d="M233.635 244.975L250.594 222.946C251.078 222.316 252.109 221.898 252.897 222.011L268.76 224.301C269.548 224.414 270.709 224.204 271.355 223.831C272.001 223.458 271.892 223.034 271.111 222.884L252.886 219.376C252.105 219.226 251.088 219.622 250.614 220.26L231.277 246.31C230.802 246.948 230.942 247.163 231.588 246.79C232.233 246.418 233.15 245.605 233.635 244.975Z" fill="#188983"/>
<path opacity="0.8" d="M233.635 244.975L250.594 222.946C251.078 222.316 252.109 221.898 252.897 222.011L268.76 224.301C269.548 224.414 270.709 224.204 271.355 223.831C272.001 223.458 271.892 223.034 271.111 222.884L252.886 219.376C252.105 219.226 251.088 219.622 250.614 220.26L231.277 246.31C230.802 246.948 230.942 247.163 231.588 246.79C232.233 246.418 233.15 245.605 233.635 244.975Z" fill="#373636"/>
<path d="M125.431 60.7508C125.443 60.0942 125.794 59.4147 126.318 59.1153C126.969 58.747 128.045 58.7636 128.737 59.1612L250.225 129.304C250.559 129.494 250.893 129.822 251.175 130.191C251.469 130.582 251.699 131.032 251.791 131.429L254.671 144.197L252.332 145.539L128.351 73.9597L125.467 61.1967C125.43 61.0303 125.433 60.887 125.431 60.7508Z" fill="#188983"/>
<path opacity="0.6" d="M125.467 61.1963C125.292 60.4209 125.708 60.1144 126.397 60.512L247.884 130.652C248.573 131.05 249.273 132.001 249.448 132.776L252.332 145.54L128.351 73.9593L125.467 61.1963Z" fill="black"/>
<path opacity="0.5" d="M248.838 131.544C249.132 131.935 249.362 132.379 249.449 132.776L252.333 145.539L254.672 144.196L251.792 131.428C251.7 131.031 251.47 130.582 251.176 130.19L248.838 131.544Z" fill="black"/>
<path opacity="0.2" d="M125.43 60.7503C125.488 60.3187 125.862 60.203 126.398 60.5143L247.886 130.651C248.221 130.841 248.56 131.169 248.837 131.544L251.175 130.19C250.893 129.822 250.559 129.494 250.224 129.303L128.736 59.1607C128.044 58.7632 126.968 58.7465 126.317 59.1148C125.794 59.4142 125.442 60.0937 125.43 60.7503Z" fill="black"/>
<path d="M122.461 63.6404L122.457 63.6381L122.61 62.5681C122.617 62.5174 122.632 62.4643 122.643 62.4128C122.646 62.3986 122.648 62.3827 122.652 62.3693L122.653 62.3661C122.831 61.6264 123.391 60.8098 123.983 60.4685C124.629 60.0954 125.711 60.1152 126.399 60.5128L247.886 130.652C248.24 130.857 248.533 131.209 248.721 131.61L248.723 131.612C248.902 131.992 248.982 132.413 248.931 132.799L246.639 148.837L244.301 150.191L120.318 78.6148L122.461 63.6404Z" fill="#188983"/>
<path opacity="0.2" d="M120.318 78.6149L244.3 150.19L246.591 134.148C246.643 133.766 246.564 133.342 246.381 132.96C246.193 132.558 245.895 132.207 245.545 132.004L124.056 61.8625C123.449 61.5069 122.874 61.716 122.665 62.3227C122.659 62.3385 122.655 62.3544 122.649 62.3702C122.649 62.3805 122.644 62.3963 122.644 62.4122C122.628 62.4645 122.617 62.5167 122.607 62.569L122.456 63.6358L122.461 63.6414L120.318 78.6149Z" fill="black"/>
<path opacity="0.5" d="M244.301 150.191L246.639 148.838L248.931 132.799C248.983 132.413 248.902 131.992 248.723 131.612L246.38 132.96C246.564 133.34 246.645 133.767 246.593 134.147L244.301 150.191Z" fill="black"/>
<path opacity="0.3" d="M122.651 62.3687C122.841 61.7295 123.434 61.499 124.056 61.8618L245.544 132.004C245.896 132.206 246.195 132.557 246.379 132.96L248.723 131.612C248.533 131.209 248.239 130.858 247.888 130.651L126.399 60.5138C125.709 60.1162 124.625 60.0933 123.981 60.4679C123.387 60.814 122.823 61.6258 122.651 62.3687Z" fill="black"/>
<g opacity="0.2">
<path d="M235.45 134.278C235.647 132.9 234.76 131.178 233.469 130.432C232.178 129.686 230.972 130.2 230.775 131.578C230.579 132.956 231.466 134.678 232.757 135.424C234.048 136.169 235.254 135.656 235.45 134.278Z" fill="black"/>
<path d="M219.061 124.818C219.257 123.44 218.37 121.718 217.079 120.972C215.788 120.226 214.582 120.74 214.385 122.118C214.189 123.496 215.076 125.218 216.367 125.964C217.658 126.71 218.863 126.196 219.061 124.818Z" fill="black"/>
<path d="M202.698 115.368C202.895 113.99 202.008 112.268 200.717 111.522C199.426 110.776 198.22 111.289 198.023 112.667C197.827 114.046 198.714 115.767 200.005 116.513C201.296 117.259 202.502 116.747 202.698 115.368Z" fill="black"/>
<path d="M169.955 96.4654C170.152 95.0873 169.265 93.3655 167.974 92.6194C166.683 91.8733 165.476 92.3866 165.28 93.7646C165.084 95.1427 165.971 96.8645 167.262 97.6106C168.553 98.3567 169.759 97.8434 169.955 96.4654Z" fill="black"/>
<path d="M153.566 87.0059C153.762 85.6278 152.875 83.906 151.584 83.1599C150.293 82.4139 149.087 82.9271 148.89 84.3052C148.694 85.6832 149.581 87.405 150.872 88.1511C152.163 88.8964 153.369 88.384 153.566 87.0059Z" fill="black"/>
<path d="M137.203 77.5557C137.4 76.1776 136.513 74.455 135.222 73.7097C133.931 72.9637 132.724 73.4769 132.528 74.855C132.332 76.233 133.219 77.9549 134.51 78.7009C135.801 79.4462 137.007 78.9338 137.203 77.5557Z" fill="black"/>
</g>
<path d="M230.489 129.342C230.489 129.828 230.531 130.304 230.614 130.759C230.661 131.005 230.719 131.245 230.792 131.47C231.142 132.647 231.811 133.541 232.747 134.08C233.364 134.441 234.06 134.624 234.818 134.624C235.007 134.624 235.194 134.614 235.389 134.588C235.415 134.489 235.435 134.389 235.451 134.279C235.535 133.683 235.415 133.019 235.148 132.402C234.651 132.465 234.212 132.387 233.846 132.178C233.108 131.749 232.831 130.849 232.737 130.138C232.727 130.102 232.727 130.07 232.721 130.039C232.7 129.836 232.685 129.605 232.685 129.344C232.685 127.315 233.547 125.014 234.871 123.137C235.341 122.472 235.865 121.866 236.424 121.338C236.92 120.878 237.438 120.48 237.982 120.167C239.179 119.487 240.277 119.335 241.02 119.759C241.773 120.193 242.185 121.202 242.185 122.593C242.185 123.199 242.101 123.848 241.945 124.528L243.91 125.663L243.947 125.532C244.234 124.501 244.381 123.514 244.381 122.594C244.381 120.381 243.575 118.698 242.117 117.856C240.663 117.014 238.807 117.16 236.882 118.269C236.03 118.761 235.214 119.425 234.467 120.209C233.938 120.769 233.436 121.386 232.987 122.049C231.472 124.276 230.489 126.963 230.489 129.342Z" fill="#263238"/>
<path d="M214.101 119.883C214.101 120.37 214.143 120.846 214.221 121.3C214.269 121.551 214.326 121.797 214.4 122.027C214.755 123.193 215.425 124.083 216.361 124.621C216.972 124.982 217.673 125.165 218.432 125.165C218.615 125.165 218.803 125.155 218.991 125.129C219.023 125.035 219.043 124.93 219.059 124.821C219.143 124.224 219.027 123.561 218.761 122.944C218.259 123.002 217.82 122.928 217.459 122.719C216.716 122.29 216.445 121.391 216.35 120.679C216.345 120.648 216.34 120.611 216.335 120.58C216.308 120.376 216.298 120.152 216.298 119.885C216.298 117.856 217.161 115.555 218.484 113.678C218.95 113.014 219.472 112.402 220.037 111.879C220.529 111.419 221.052 111.022 221.595 110.708C222.787 110.029 223.89 109.876 224.633 110.3C225.381 110.734 225.799 111.738 225.799 113.134C225.799 113.735 225.715 114.384 225.553 115.063L227.525 116.198L227.561 116.068C227.849 115.043 227.995 114.054 227.995 113.134C227.995 110.922 227.19 109.238 225.726 108.396C224.277 107.554 222.416 107.701 220.497 108.804C219.64 109.301 218.824 109.965 218.082 110.749C217.549 111.308 217.051 111.931 216.602 112.59C215.079 114.817 214.101 117.504 214.101 119.883Z" fill="#263238"/>
<path d="M197.74 110.435C197.74 110.921 197.782 111.397 197.861 111.852C197.908 112.103 197.965 112.344 198.038 112.573C198.394 113.745 199.063 114.633 199.999 115.172C200.611 115.533 201.311 115.716 202.069 115.716C202.252 115.716 202.441 115.706 202.629 115.68C202.661 115.585 202.682 115.481 202.697 115.371C202.781 114.774 202.667 114.111 202.4 113.494C201.898 113.551 201.459 113.478 201.098 113.269C200.35 112.84 200.078 111.935 199.989 111.225C199.979 111.193 199.979 111.162 199.973 111.13C199.947 110.926 199.937 110.696 199.937 110.435C199.937 108.406 200.799 106.111 202.122 104.234C202.588 103.569 203.111 102.958 203.676 102.429C204.167 101.969 204.69 101.572 205.233 101.258C206.425 100.578 207.529 100.426 208.272 100.85C209.019 101.284 209.437 102.288 209.437 103.684C209.437 104.291 209.353 104.938 209.197 105.619L211.162 106.754L211.199 106.617C211.486 105.593 211.633 104.604 211.633 103.684C211.633 101.472 210.827 99.7881 209.368 98.9462C207.914 98.1043 206.053 98.2508 204.134 99.3588C203.282 99.8506 202.466 100.514 201.719 101.298C201.186 101.858 200.688 102.475 200.234 103.139C198.718 105.368 197.74 108.056 197.74 110.435Z" fill="#263238"/>
<path d="M164.991 91.5583C164.991 92.0391 165.027 92.5206 165.111 92.9752C165.159 93.2318 165.216 93.4718 165.29 93.707C165.645 94.8681 166.314 95.7567 167.251 96.2953C167.862 96.6509 168.558 96.8338 169.316 96.8338C169.505 96.8338 169.692 96.8235 169.881 96.7974C169.912 96.6929 169.939 96.5828 169.954 96.4679C170.037 95.8771 169.922 95.2237 169.666 94.6115C169.159 94.6741 168.715 94.6012 168.343 94.3921C167.596 93.9581 167.324 93.0433 167.235 92.321C167.229 92.2949 167.229 92.2743 167.224 92.2482C167.198 92.0494 167.188 91.8197 167.188 91.5583C167.188 89.5189 168.056 87.2134 169.384 85.3308C169.855 84.6671 170.378 84.0605 170.948 83.5322C171.434 83.0823 171.952 82.6903 172.485 82.3822C173.677 81.6971 174.78 81.5506 175.523 81.9743C176.271 82.4028 176.684 83.4126 176.684 84.8081C176.684 85.3989 176.611 86.0373 176.454 86.7113L178.42 87.8462L178.452 87.7417C178.739 86.7113 178.886 85.7237 178.886 84.8081C178.886 82.5913 178.08 80.9123 176.617 80.0704C175.163 79.2285 173.307 79.3694 171.388 80.4782C170.54 80.9645 169.73 81.6235 168.987 82.4028C168.454 82.962 167.952 83.5797 167.502 84.2434C165.974 86.4753 164.991 89.1689 164.991 91.5583Z" fill="#263238"/>
<path d="M148.599 82.094C148.599 82.5858 148.641 83.0618 148.724 83.5164C148.77 83.773 148.828 84.013 148.902 84.2482C149.258 85.4093 149.927 86.2979 150.857 86.8317C151.474 87.1921 152.17 87.3758 152.928 87.3758C153.111 87.3758 153.304 87.3655 153.492 87.3394C153.524 87.2348 153.55 87.1248 153.565 87.0044C153.649 86.4136 153.534 85.7649 153.272 85.1535C152.765 85.216 152.321 85.1432 151.954 84.9286C151.207 84.5001 150.929 83.5845 150.841 82.863C150.835 82.8369 150.835 82.8155 150.83 82.7902C150.81 82.5858 150.794 82.3617 150.794 82.0948C150.794 80.0609 151.662 77.7499 152.995 75.872C153.465 75.2075 153.988 74.5961 154.553 74.0679C155.039 73.618 155.557 73.226 156.09 72.9171C157.282 72.2375 158.385 72.0855 159.128 72.5147C159.881 72.9432 160.294 73.953 160.294 75.3485C160.294 75.9393 160.216 76.5769 160.059 77.2469L162.03 78.3866L162.056 78.2821C162.344 77.2517 162.49 76.2688 162.49 75.3485C162.49 73.1317 161.685 71.4479 160.226 70.6108C158.773 69.7633 156.911 69.9099 154.992 71.0187C154.145 71.5105 153.334 72.1694 152.602 72.9432H152.597C152.058 73.5024 151.561 74.1201 151.112 74.7838C149.587 77.0165 148.599 79.7093 148.599 82.094Z" fill="#263238"/>
<path d="M132.237 72.6454C132.237 73.1372 132.279 73.6124 132.363 74.0678C132.41 74.3133 132.468 74.5541 132.541 74.779C132.891 75.9504 133.56 76.8445 134.496 77.3886C135.113 77.7443 135.808 77.9272 136.567 77.9272C136.75 77.9272 136.939 77.9169 137.126 77.8908C137.158 77.7862 137.184 77.6714 137.199 77.5558C137.283 76.9649 137.167 76.3163 136.912 75.7049C136.41 75.7674 135.965 75.6946 135.594 75.4799C134.846 75.0515 134.574 74.1359 134.485 73.4144C134.479 73.3883 134.479 73.3677 134.475 73.3415C134.449 73.1372 134.433 72.9131 134.433 72.6462C134.433 70.6123 135.301 68.3012 136.634 66.4234C137.104 65.7589 137.632 65.1475 138.197 64.6248C138.683 64.1702 139.196 63.7829 139.729 63.474C140.926 62.7889 142.025 62.6424 142.767 63.0661C143.52 63.4946 143.933 64.5044 143.933 65.8999C143.933 66.4907 143.854 67.1283 143.697 67.8031L145.669 68.938L145.695 68.8335C145.982 67.8031 146.129 66.8155 146.129 65.8999C146.129 63.6831 145.323 62.0041 143.865 61.1622C142.411 60.3203 140.555 60.4612 138.63 61.57C137.783 62.0563 136.978 62.7153 136.235 63.489C135.702 64.0482 135.2 64.6707 134.75 65.3352C133.226 67.5679 132.237 70.2607 132.237 72.6454Z" fill="#263238"/>
<path d="M241.596 169.042L117.624 97.5269L120.32 78.6147L244.303 150.138L241.596 169.042Z" fill="#188983"/>
<g opacity="0.65">
<path d="M241.596 169.042L117.624 97.5261L120.32 78.6147L244.303 150.138L241.596 169.042Z" fill="#373636"/>
</g>
<path d="M231.82 173.632C231.672 174.676 230.705 175.034 229.661 174.431L220.358 169.062C219.314 168.459 218.589 167.125 218.739 166.081C218.889 165.037 219.856 164.679 220.899 165.282L230.202 170.651C231.245 171.254 231.969 172.588 231.82 173.632Z" fill="#188983"/>
<path d="M216.13 164.571C215.981 165.615 215.014 165.973 213.971 165.371L204.667 160.002C203.624 159.399 202.899 158.064 203.049 157.021C203.198 155.977 204.165 155.619 205.208 156.221L214.511 161.59C215.554 162.193 216.279 163.528 216.13 164.571Z" fill="#188983"/>
<path d="M200.438 155.511C200.289 156.555 199.322 156.913 198.279 156.311L188.975 150.942C187.931 150.339 187.207 149.004 187.356 147.96C187.505 146.917 188.473 146.559 189.516 147.161L198.819 152.53C199.862 153.133 200.587 154.468 200.438 155.511Z" fill="#188983"/>
<path d="M184.745 146.451C184.596 147.495 183.629 147.853 182.586 147.25L173.283 141.881C172.24 141.279 171.514 139.944 171.664 138.9C171.814 137.856 172.781 137.498 173.824 138.101L183.126 143.47C184.169 144.072 184.894 145.407 184.745 146.451Z" fill="#188983"/>
<path d="M169.052 137.39C168.903 138.434 167.936 138.792 166.893 138.189L157.589 132.82C156.545 132.217 155.821 130.883 155.97 129.839C156.12 128.795 157.087 128.437 158.13 129.04L167.432 134.41C168.476 135.011 169.201 136.346 169.052 137.39Z" fill="#188983"/>
<path d="M153.36 128.33C153.212 129.374 152.245 129.732 151.201 129.129L141.897 123.76C140.853 123.157 140.129 121.823 140.278 120.779C140.427 119.735 141.394 119.377 142.438 119.98L151.741 125.349C152.785 125.951 153.509 127.286 153.36 128.33Z" fill="#188983"/>
<path d="M137.67 119.269C137.521 120.313 136.554 120.671 135.511 120.068L126.207 114.699C125.164 114.097 124.439 112.762 124.589 111.718C124.738 110.674 125.705 110.316 126.748 110.919L136.051 116.288C137.093 116.891 137.819 118.225 137.67 119.269Z" fill="#188983"/>
<g opacity="0.17">
<path d="M114.267 173.741C114.527 173.752 114.763 173.58 114.795 173.357L122.373 120.426C122.405 120.204 122.221 120.015 121.962 120.004C121.702 119.994 121.466 120.165 121.434 120.388L113.855 173.319C113.824 173.541 114.008 173.73 114.267 173.741Z" fill="#188983"/>
<path d="M129.967 182.805C130.226 182.816 130.462 182.645 130.494 182.421L138.074 129.489C138.105 129.267 137.922 129.078 137.662 129.067C137.402 129.057 137.166 129.228 137.134 129.451L129.555 182.383C129.523 182.606 129.707 182.795 129.967 182.805Z" fill="#188983"/>
<path d="M145.664 191.869C145.924 191.88 146.159 191.708 146.191 191.485L153.771 138.553C153.803 138.33 153.619 138.141 153.359 138.131C153.099 138.121 152.863 138.292 152.832 138.514L145.252 191.446C145.22 191.669 145.405 191.858 145.664 191.869Z" fill="#188983"/>
<path d="M161.364 200.932C161.624 200.943 161.859 200.771 161.892 200.548L169.471 147.616C169.503 147.394 169.319 147.205 169.059 147.194C168.799 147.184 168.563 147.355 168.532 147.578L160.952 200.51C160.921 200.733 161.104 200.921 161.364 200.932Z" fill="#188983"/>
<path d="M177.062 209.997C177.321 210.007 177.557 209.836 177.589 209.614L185.169 156.682C185.201 156.459 185.016 156.27 184.757 156.26C184.498 156.249 184.262 156.42 184.23 156.644L176.649 209.576C176.618 209.797 176.802 209.986 177.062 209.997Z" fill="#188983"/>
<path d="M192.761 219.061C193.02 219.071 193.256 218.9 193.288 218.677L200.868 165.745C200.899 165.522 200.715 165.333 200.456 165.323C200.196 165.312 199.96 165.483 199.928 165.706L192.349 218.638C192.317 218.861 192.501 219.05 192.761 219.061Z" fill="#188983"/>
<path d="M208.46 228.124C208.72 228.134 208.956 227.963 208.987 227.74L216.567 174.808C216.598 174.586 216.415 174.396 216.155 174.386C215.895 174.376 215.66 174.547 215.627 174.77L208.048 227.702C208.016 227.924 208.2 228.113 208.46 228.124Z" fill="#188983"/>
<path d="M224.157 237.188C224.417 237.198 224.653 237.027 224.685 236.804L232.265 183.871C232.297 183.649 232.113 183.459 231.853 183.449C231.593 183.439 231.358 183.61 231.326 183.833L223.745 236.766C223.714 236.988 223.898 237.178 224.157 237.188Z" fill="#188983"/>
<path d="M229.843 197.49C230.004 197.496 230.173 197.43 230.278 197.305C230.436 197.118 230.395 196.868 230.186 196.748L120.294 133.301C120.088 133.179 119.789 133.234 119.632 133.423C119.475 133.61 119.517 133.86 119.725 133.98L229.615 197.426C229.685 197.466 229.763 197.487 229.843 197.49Z" fill="#188983"/>
<path d="M227.949 210.722C228.111 210.728 228.279 210.662 228.384 210.537C228.541 210.35 228.5 210.1 228.291 209.98L118.4 146.534C118.193 146.411 117.894 146.467 117.738 146.655C117.58 146.843 117.621 147.093 117.83 147.213L227.722 210.658C227.791 210.698 227.869 210.719 227.949 210.722Z" fill="#188983"/>
<path d="M226.054 223.954C226.215 223.961 226.384 223.895 226.489 223.77C226.647 223.582 226.606 223.332 226.397 223.212L116.504 159.767C116.298 159.645 115.999 159.7 115.842 159.888C115.685 160.075 115.727 160.325 115.935 160.445L225.826 223.89C225.895 223.93 225.974 223.951 226.054 223.954Z" fill="#188983"/>
<path d="M224.157 237.188C224.238 237.191 224.322 237.176 224.4 237.143C224.555 237.077 224.664 236.948 224.685 236.804L232.265 183.871C232.286 183.727 232.215 183.591 232.08 183.513L122.188 120.068C122.054 119.989 121.874 119.982 121.719 120.049C121.563 120.114 121.455 120.244 121.434 120.388L113.855 173.319C113.834 173.463 113.905 173.599 114.04 173.677L223.93 237.124C223.997 237.163 224.077 237.185 224.157 237.188ZM231.292 184.067L223.845 236.068L114.828 173.125L122.272 121.125L231.292 184.067Z" fill="#188983"/>
</g>
<g opacity="0.17">
<path d="M114.267 173.741C114.527 173.752 114.763 173.58 114.795 173.357L122.373 120.426C122.405 120.204 122.221 120.015 121.962 120.004C121.702 119.994 121.466 120.165 121.434 120.388L113.855 173.319C113.824 173.541 114.008 173.73 114.267 173.741Z" fill="black"/>
<path d="M129.967 182.805C130.226 182.816 130.462 182.645 130.494 182.421L138.074 129.489C138.105 129.267 137.922 129.078 137.662 129.067C137.402 129.057 137.166 129.228 137.134 129.451L129.555 182.383C129.523 182.606 129.707 182.795 129.967 182.805Z" fill="black"/>
<path d="M145.664 191.869C145.924 191.88 146.159 191.708 146.191 191.485L153.771 138.553C153.803 138.33 153.619 138.141 153.359 138.131C153.099 138.121 152.863 138.292 152.832 138.514L145.252 191.446C145.22 191.669 145.405 191.858 145.664 191.869Z" fill="black"/>
<path d="M161.364 200.932C161.624 200.943 161.859 200.771 161.892 200.548L169.471 147.616C169.503 147.394 169.319 147.205 169.059 147.194C168.799 147.184 168.563 147.355 168.532 147.578L160.952 200.51C160.921 200.733 161.104 200.921 161.364 200.932Z" fill="black"/>
<path d="M177.062 209.997C177.321 210.007 177.557 209.836 177.589 209.614L185.169 156.682C185.201 156.459 185.016 156.27 184.757 156.26C184.498 156.249 184.262 156.42 184.23 156.644L176.649 209.576C176.618 209.797 176.802 209.986 177.062 209.997Z" fill="black"/>
<path d="M192.761 219.061C193.02 219.071 193.256 218.9 193.288 218.677L200.868 165.745C200.899 165.522 200.715 165.333 200.456 165.323C200.196 165.312 199.96 165.483 199.928 165.706L192.349 218.638C192.317 218.861 192.501 219.05 192.761 219.061Z" fill="black"/>
<path d="M208.46 228.124C208.72 228.134 208.956 227.963 208.987 227.74L216.567 174.808C216.598 174.586 216.415 174.396 216.155 174.386C215.895 174.376 215.66 174.547 215.627 174.77L208.048 227.702C208.016 227.924 208.2 228.113 208.46 228.124Z" fill="black"/>
<path d="M224.157 237.188C224.417 237.198 224.653 237.027 224.685 236.804L232.265 183.871C232.297 183.649 232.113 183.459 231.853 183.449C231.593 183.439 231.358 183.61 231.326 183.833L223.745 236.766C223.714 236.988 223.898 237.178 224.157 237.188Z" fill="black"/>
<path d="M229.843 197.49C230.004 197.496 230.173 197.43 230.278 197.305C230.436 197.118 230.395 196.868 230.186 196.748L120.294 133.301C120.088 133.179 119.789 133.234 119.632 133.423C119.475 133.61 119.517 133.86 119.725 133.98L229.615 197.426C229.685 197.466 229.763 197.487 229.843 197.49Z" fill="black"/>
<path d="M227.949 210.722C228.111 210.728 228.279 210.662 228.384 210.537C228.541 210.35 228.5 210.1 228.291 209.98L118.4 146.534C118.193 146.411 117.894 146.467 117.738 146.655C117.58 146.843 117.621 147.093 117.83 147.213L227.722 210.658C227.791 210.698 227.869 210.719 227.949 210.722Z" fill="black"/>
<path d="M226.054 223.954C226.215 223.961 226.384 223.895 226.489 223.77C226.647 223.582 226.606 223.332 226.397 223.212L116.504 159.767C116.298 159.645 115.999 159.7 115.842 159.888C115.685 160.075 115.727 160.325 115.935 160.445L225.826 223.89C225.895 223.93 225.974 223.951 226.054 223.954Z" fill="black"/>
<path d="M224.157 237.188C224.238 237.191 224.322 237.176 224.4 237.143C224.555 237.077 224.664 236.948 224.685 236.804L232.265 183.871C232.286 183.727 232.215 183.591 232.08 183.513L122.188 120.068C122.054 119.989 121.874 119.982 121.719 120.049C121.563 120.114 121.455 120.244 121.434 120.388L113.855 173.319C113.834 173.463 113.905 173.599 114.04 173.677L223.93 237.124C223.997 237.163 224.077 237.185 224.157 237.188ZM231.292 184.067L223.845 236.068L114.828 173.125L122.272 121.125L231.292 184.067Z" fill="black"/>
</g>
<path d="M211.319 189.77C207.665 190.511 203.982 191.128 200.308 191.76C199.853 191.838 199.398 191.917 198.943 191.995C198.305 192.105 198.049 191.203 198.731 191.086C202.208 190.487 205.689 189.903 209.173 189.343C209.829 189.237 210.485 189.138 211.143 189.047C211.691 188.97 211.89 189.654 211.319 189.77Z" fill="#455A64"/>
<path d="M200.855 183.267C201.327 183.747 201.703 184.313 202.071 184.873C202.775 185.946 203.482 187.016 204.188 188.088C205.748 190.459 207.288 192.844 208.835 195.224C209.313 195.961 209.855 196.684 210.281 197.452C210.362 197.598 210.339 197.799 210.195 197.903C210.16 197.927 210.125 197.953 210.091 197.979C210.127 197.857 210.161 197.735 210.197 197.613C210.199 197.616 210.202 197.62 210.203 197.623C210.35 197.849 209.935 198.235 209.769 197.98C209.797 198.023 209.529 197.886 209.479 197.827C209.444 197.783 209.416 197.729 209.385 197.682C209.297 197.547 209.21 197.413 209.123 197.277C208.87 196.886 208.616 196.495 208.362 196.103C207.62 194.958 206.877 193.813 206.135 192.668C204.55 190.223 202.98 187.77 201.407 185.318C201.053 184.767 200.68 184.204 200.463 183.583C200.391 183.378 200.675 183.084 200.855 183.267Z" fill="#455A64"/>
<path d="M195.945 180.328C192.291 181.069 188.608 181.686 184.934 182.318C184.479 182.396 184.024 182.475 183.568 182.553C182.93 182.663 182.674 181.761 183.356 181.644C186.834 181.046 190.315 180.462 193.799 179.901C194.455 179.795 195.11 179.696 195.768 179.605C196.316 179.528 196.514 180.212 195.945 180.328Z" fill="#455A64"/>
<path d="M185.481 173.825C185.953 174.305 186.329 174.871 186.697 175.431C187.401 176.503 188.108 177.574 188.814 178.646C190.374 181.017 191.914 183.402 193.461 185.782C193.939 186.519 194.481 187.242 194.907 188.01C194.988 188.156 194.965 188.357 194.821 188.461C194.786 188.485 194.751 188.511 194.717 188.537C194.752 188.415 194.787 188.293 194.823 188.171C194.825 188.174 194.828 188.178 194.829 188.181C194.976 188.407 194.561 188.793 194.395 188.538C194.423 188.58 194.155 188.443 194.105 188.385C194.07 188.341 194.042 188.287 194.011 188.24C193.923 188.105 193.836 187.971 193.749 187.835C193.496 187.444 193.242 187.053 192.988 186.661C192.246 185.516 191.503 184.371 190.761 183.226C189.176 180.782 187.606 178.328 186.033 175.876C185.679 175.325 185.305 174.762 185.089 174.141C185.017 173.936 185.301 173.642 185.481 173.825Z" fill="#455A64"/>
<path d="M180.045 171.274C176.391 172.015 172.708 172.632 169.034 173.264C168.579 173.343 168.124 173.421 167.669 173.5C167.03 173.61 166.775 172.708 167.456 172.59C170.934 171.992 174.415 171.408 177.899 170.847C178.555 170.742 179.211 170.642 179.869 170.551C180.416 170.474 180.616 171.158 180.045 171.274Z" fill="#455A64"/>
<path d="M169.583 164.772C170.054 165.251 170.43 165.816 170.799 166.377C171.503 167.45 172.21 168.52 172.916 169.592C174.476 171.963 176.016 174.348 177.562 176.729C178.041 177.465 178.583 178.188 179.008 178.957C179.089 179.102 179.066 179.303 178.922 179.407C178.887 179.432 178.852 179.457 178.818 179.483C178.854 179.361 178.889 179.239 178.925 179.117C178.927 179.12 178.929 179.124 178.931 179.128C179.077 179.353 178.662 179.739 178.497 179.485C178.525 179.528 178.256 179.391 178.207 179.331C178.171 179.288 178.144 179.233 178.113 179.186C178.025 179.052 177.938 178.916 177.851 178.782C177.597 178.39 177.343 177.999 177.089 177.608C176.347 176.463 175.604 175.317 174.862 174.172C173.278 171.727 171.708 169.274 170.134 166.822C169.781 166.272 169.407 165.709 169.19 165.087C169.119 164.882 169.402 164.588 169.583 164.772Z" fill="#455A64"/>
<path d="M164.239 162.094C160.584 162.835 156.902 163.452 153.228 164.084C152.772 164.163 152.318 164.241 151.862 164.319C151.224 164.429 150.968 163.527 151.65 163.41C155.128 162.812 158.608 162.228 162.092 161.667C162.748 161.562 163.404 161.462 164.062 161.371C164.609 161.294 164.809 161.978 164.239 162.094Z" fill="#455A64"/>
<path d="M153.776 155.593C154.247 156.072 154.624 156.637 154.991 157.198C155.695 158.271 156.402 159.341 157.108 160.414C158.668 162.785 160.208 165.169 161.755 167.55C162.233 168.286 162.775 169.01 163.201 169.778C163.282 169.924 163.259 170.125 163.115 170.229C163.08 170.253 163.045 170.279 163.011 170.305C163.046 170.183 163.081 170.061 163.117 169.939C163.119 169.942 163.122 169.946 163.123 169.949C163.27 170.175 162.855 170.561 162.689 170.306C162.717 170.349 162.448 170.212 162.399 170.153C162.364 170.109 162.336 170.055 162.305 170.008C162.217 169.873 162.13 169.739 162.043 169.603C161.79 169.212 161.535 168.821 161.282 168.429C160.54 167.284 159.797 166.139 159.055 164.994C157.47 162.55 155.9 160.096 154.327 157.644C153.973 157.093 153.599 156.53 153.382 155.909C153.311 155.703 153.596 155.409 153.776 155.593Z" fill="#455A64"/>
<path d="M148.543 153.035C144.889 153.777 141.206 154.394 137.532 155.026C137.077 155.104 136.622 155.182 136.167 155.261C135.528 155.371 135.273 154.469 135.955 154.352C139.432 153.753 142.913 153.169 146.397 152.608C147.053 152.503 147.709 152.403 148.367 152.312C148.914 152.235 149.114 152.92 148.543 153.035Z" fill="#455A64"/>
<path d="M138.079 146.533C138.55 147.012 138.926 147.578 139.295 148.138C139.999 149.211 140.706 150.282 141.412 151.353C142.972 153.724 144.512 156.109 146.058 158.49C146.537 159.226 147.078 159.949 147.505 160.718C147.585 160.863 147.562 161.065 147.418 161.168C147.383 161.193 147.349 161.218 147.315 161.244C147.35 161.122 147.385 161 147.421 160.878C147.423 160.882 147.425 160.886 147.427 160.889C147.573 161.114 147.158 161.5 146.993 161.246C147.021 161.289 146.752 161.152 146.703 161.092C146.667 161.049 146.64 160.994 146.609 160.947C146.521 160.813 146.434 160.677 146.347 160.543C146.093 160.151 145.84 159.76 145.586 159.369C144.843 158.224 144.101 157.078 143.358 155.933C141.774 153.489 140.204 151.035 138.63 148.583C138.277 148.033 137.902 147.47 137.686 146.848C137.615 146.644 137.898 146.349 138.079 146.533Z" fill="#455A64"/>
<path d="M209.25 201.98C205.596 202.721 201.913 203.338 198.239 203.97C197.784 204.048 197.329 204.127 196.874 204.205C196.235 204.315 195.98 203.413 196.662 203.296C200.139 202.697 203.62 202.113 207.104 201.553C207.76 201.447 208.416 201.348 209.074 201.256C209.621 201.18 209.821 201.864 209.25 201.98Z" fill="#455A64"/>
<path d="M198.787 195.477C199.258 195.956 199.634 196.523 200.003 197.083C200.707 198.156 201.414 199.226 202.12 200.298C203.68 202.669 205.22 205.054 206.766 207.435C207.245 208.171 207.786 208.895 208.213 209.663C208.293 209.809 208.27 210.01 208.126 210.113C208.091 210.138 208.057 210.163 208.023 210.189C208.058 210.068 208.093 209.946 208.129 209.824C208.131 209.827 208.133 209.831 208.136 209.834C208.282 210.06 207.867 210.445 207.702 210.191C207.729 210.234 207.461 210.097 207.412 210.037C207.376 209.994 207.349 209.939 207.318 209.892C207.23 209.758 207.143 209.623 207.055 209.488C206.802 209.097 206.549 208.705 206.294 208.314C205.552 207.169 204.809 206.024 204.067 204.878C202.482 202.433 200.913 199.981 199.339 197.529C198.986 196.978 198.612 196.415 198.395 195.793C198.323 195.588 198.606 195.294 198.787 195.477Z" fill="#455A64"/>
<path d="M161.494 179.427C162.371 178.589 163.586 178.178 164.765 178.002C167.13 177.649 169.625 178.381 171.332 180.069C171.558 180.292 171.125 180.714 170.886 180.51C169.333 179.182 167.237 178.467 165.196 178.673C164.216 178.772 163.176 179.075 162.401 179.704C161.59 180.361 161.299 181.348 161.356 182.363C161.458 184.178 162.324 186.011 163.288 187.524C164.286 189.091 165.566 190.458 167.03 191.6C168.482 192.732 170.126 193.645 171.858 194.27C173.643 194.915 175.795 195.447 177.633 194.703C179.423 193.978 180.335 192.122 180.417 190.267C180.514 188.074 179.653 185.844 178.55 184.011C177.267 181.88 175.492 180.303 173.489 178.835C172.508 178.115 171.447 177.42 170.342 176.91C168.903 176.244 167.817 176.004 166.641 175.692C166.076 175.543 166.763 175.14 167.317 175.233C168.586 175.444 168.806 175.446 170.435 176.124C171.597 176.607 173.154 177.473 174.177 178.203C176.203 179.65 178.137 181.328 179.445 183.45C180.674 185.441 181.519 187.766 181.466 190.162C181.424 192.155 180.52 194.151 178.762 195.184C176.832 196.318 174.376 196.019 172.336 195.382C170.363 194.767 168.503 193.828 166.829 192.618C165.208 191.446 163.768 189.995 162.645 188.337C161.523 186.679 160.539 184.65 160.399 182.625C160.317 181.438 160.616 180.266 161.494 179.427Z" fill="#188983"/>
<path d="M83.7646 224.046L78.872 226.338L74.0049 228.668L64.3103 233.385L54.6717 238.185L49.8721 240.615L45.0988 243.082L49.9914 240.791L54.8586 238.461L64.5531 233.743L74.1908 228.942L78.9905 226.513L83.7646 224.046Z" fill="#E0E0E0"/>
<path d="M75.8848 233.751C74.7872 234.238 73.7058 234.747 72.6156 235.245L69.3719 236.776C67.2119 237.8 65.0741 238.857 62.9239 239.896C60.7935 240.964 58.6524 242.017 56.5322 243.099L53.356 244.731C52.3061 245.288 51.2483 245.832 50.2058 246.4C51.3033 245.913 52.3852 245.404 53.4754 244.907L56.7195 243.375C58.8786 242.35 61.0178 241.295 63.1671 240.254C65.2971 239.185 67.4386 238.134 69.5588 237.051L72.7349 235.42C73.784 234.863 74.8422 234.319 75.8848 233.751Z" fill="#E0E0E0"/>
<path d="M95.8259 208.813L99.8393 206.765C102.518 205.405 105.218 204.075 107.906 202.729C110.615 201.413 112.09 200.682 114.808 199.38L117.7 198V198.275L114.994 199.655C112.316 201.016 110.838 201.741 108.149 203.088C105.442 204.405 102.744 205.738 100.027 207.041L95.9453 208.988C94.5757 209.625 93.215 210.273 91.8385 210.898C93.1599 210.192 94.4971 209.509 95.8259 208.813Z" fill="#E0E0E0"/>
<path d="M116.337 204.624C115.617 204.928 114.912 205.254 114.2 205.568L112.088 206.55C110.681 207.205 109.292 207.888 107.904 208.571C106.522 209.263 105.14 209.955 103.777 210.675L101.733 211.757C101.061 212.13 100.38 212.491 99.7156 212.876C100.436 212.573 101.14 212.246 101.853 211.932L103.965 210.951C105.373 210.296 106.761 209.613 108.149 208.929C109.531 208.237 110.913 207.545 112.275 206.824L114.319 205.743C114.991 205.369 115.672 205.008 116.337 204.624Z" fill="#E0E0E0"/>
</svg>
