<svg width="275" height="275" viewBox="0 0 275 275" fill="none" xmlns="http://www.w3.org/2000/svg">
<path d="M229.059 135.993C279.623 165.186 279.622 212.519 229.056 241.713C178.489 270.906 96.5064 270.906 45.9422 241.713C-4.62265 212.519 -4.62155 165.187 45.9449 135.993C96.5108 106.799 178.494 106.799 229.059 135.993Z" fill="#E5E5E5"/>
<path d="M239.929 246.624L233.798 243.081C233.798 243.081 230.15 227.919 231.603 214.277C233.648 195.095 246.274 187.878 251.075 189.532C255.876 191.187 257.266 196.768 249.322 208.192C244.636 214.932 238.878 228.972 239.929 246.624Z" fill="#188983"/>
<g opacity="0.65">
<path d="M239.929 246.624L233.798 243.081C233.798 243.081 230.15 227.919 231.603 214.277C233.648 195.095 246.274 187.878 251.075 189.532C255.876 191.187 257.266 196.768 249.322 208.192C244.636 214.932 238.878 228.972 239.929 246.624Z" fill="white"/>
</g>
<path d="M237.389 239.176C237.409 239.174 237.428 239.172 237.448 239.168C237.678 239.124 237.83 238.902 237.786 238.672C234.425 220.98 240.606 201.1 248.259 192.827C248.418 192.655 248.408 192.385 248.235 192.226C248.063 192.069 247.794 192.077 247.634 192.25C239.842 200.673 233.54 220.878 236.951 238.83C236.99 239.041 237.18 239.186 237.389 239.176Z" fill="white"/>
<path d="M255.359 255.532C256.274 255.998 258.71 253.913 259.389 253.406C260.551 252.538 261.469 251.346 262.05 250.021C262.728 248.478 262.836 246.857 262.517 245.204C262.351 244.347 262.067 243.518 261.784 242.692C261.505 241.881 261.228 241.071 260.95 240.26C260.675 239.46 260.398 238.633 260.463 237.789C260.594 236.091 262.032 234.833 263.342 233.744C264.792 232.541 266.285 230.973 266.174 228.942C266.088 227.374 265.203 225.96 264.169 224.778C263.136 223.596 261.928 222.568 260.984 221.313C260.305 220.41 259.756 219.336 259.802 218.207C259.831 217.506 260.087 216.833 260.39 216.2C261.041 214.841 261.926 213.582 262.349 212.135C262.773 210.689 262.613 208.925 261.452 207.964C260.499 207.175 259.14 207.127 257.912 207.271C256.776 207.404 255.688 207.974 254.718 208.579C251.583 210.535 249.935 214.449 246.582 216.001C245.288 216.6 243.848 216.79 242.49 217.223C241.132 217.656 239.764 218.429 239.191 219.735C238.061 222.308 240.549 225.283 239.8 227.991C239.137 230.388 236.892 231.406 235.712 233.596C235.196 234.553 235.121 235.634 235.266 236.712C235.512 238.537 235.848 239.868 236.83 241.862C237.642 243.509 239.927 246.623 239.927 246.623C239.927 246.623 255.218 255.46 255.359 255.532Z" fill="#188983"/>
<g opacity="0.3">
<path d="M255.359 255.532C256.274 255.998 258.71 253.913 259.389 253.406C260.551 252.538 261.469 251.346 262.05 250.021C262.728 248.478 262.836 246.857 262.517 245.204C262.351 244.347 262.067 243.518 261.784 242.692C261.505 241.881 261.228 241.071 260.95 240.26C260.675 239.46 260.398 238.633 260.463 237.789C260.594 236.091 262.032 234.833 263.342 233.744C264.792 232.541 266.285 230.973 266.174 228.942C266.088 227.374 265.203 225.96 264.169 224.778C263.136 223.596 261.928 222.568 260.984 221.313C260.305 220.41 259.756 219.336 259.802 218.207C259.831 217.506 260.087 216.833 260.39 216.2C261.041 214.841 261.926 213.582 262.349 212.135C262.773 210.689 262.613 208.925 261.452 207.964C260.499 207.175 259.14 207.127 257.912 207.271C256.776 207.404 255.688 207.974 254.718 208.579C251.583 210.535 249.935 214.449 246.582 216.001C245.288 216.6 243.848 216.79 242.49 217.223C241.132 217.656 239.764 218.429 239.191 219.735C238.061 222.308 240.549 225.283 239.8 227.991C239.137 230.388 236.892 231.406 235.712 233.596C235.196 234.553 235.121 235.634 235.266 236.712C235.512 238.537 235.848 239.868 236.83 241.862C237.642 243.509 239.927 246.623 239.927 246.623C239.927 246.623 255.218 255.46 255.359 255.532Z" fill="white"/>
</g>
<path d="M246.484 250.907C246.49 250.906 246.495 250.906 246.495 250.906C246.723 250.885 246.885 250.689 246.865 250.468C245.397 234.556 252.023 216.572 257.228 211.182C257.382 211.022 257.378 210.768 257.218 210.613C257.058 210.459 256.804 210.464 256.65 210.623C251.339 216.121 244.575 234.405 246.063 250.542C246.083 250.757 246.27 250.917 246.484 250.907Z" fill="white"/>
<path d="M248.065 231.286C248.104 231.284 248.144 231.277 248.183 231.262C253.226 229.42 259.597 228.818 259.661 228.813C259.882 228.792 260.045 228.596 260.025 228.375C260.004 228.154 259.827 227.988 259.587 228.011C259.522 228.018 253.05 228.627 247.907 230.506C247.698 230.582 247.59 230.813 247.667 231.022C247.729 231.192 247.893 231.294 248.065 231.286Z" fill="white"/>
<path d="M138.23 15.1537L231.85 69.1406C232.818 69.6983 233.602 71.0557 233.602 72.1722V243.812C233.602 244.929 232.816 246.283 231.847 246.838L231.491 247.041C230.522 247.595 228.952 247.592 227.986 247.034L134.363 192.976C133.397 192.418 132.613 191.06 132.613 189.944V18.3761C132.613 17.2596 133.398 15.905 134.367 15.3506L134.723 15.1476C135.693 14.5932 137.262 14.5954 138.23 15.1537Z" fill="#188983"/>
<path opacity="0.45" d="M138.23 15.1537L231.85 69.1406C232.818 69.6983 233.602 71.0557 233.602 72.1722V243.812C233.602 244.929 232.816 246.283 231.847 246.838L231.491 247.041C230.522 247.595 228.952 247.592 227.986 247.034L134.363 192.976C133.397 192.418 132.613 191.06 132.613 189.944V18.3761C132.613 17.2596 133.398 15.905 134.367 15.3506L134.723 15.1476C135.693 14.5932 137.262 14.5954 138.23 15.1537Z" fill="black"/>
<path d="M132.613 190.069C132.613 191.609 133.694 192.589 135.033 193.359L227.317 246.638C228.649 247.407 229.737 246.786 229.737 245.239V75.1434C229.737 73.4219 228.818 71.8313 227.328 70.97L135.035 17.6695C133.959 17.048 132.613 17.8246 132.613 19.0676V190.069H132.613Z" fill="#188983"/>
<path opacity="0.3" d="M132.613 190.069C132.613 191.609 133.694 192.589 135.032 193.359L227.316 246.638C228.648 247.407 229.736 246.786 229.736 245.239V75.1434C229.736 73.4219 228.818 71.8313 227.327 70.97L135.035 17.6695C133.958 17.048 132.612 17.8246 132.612 19.0676V190.069H132.613Z" fill="black"/>
<path d="M132.611 18.3777V19.0652C132.611 17.825 133.959 17.05 135.037 17.6704L227.327 70.9726C228.075 71.3972 228.676 72.0104 229.086 72.7315C229.1 72.7518 229.107 72.765 229.113 72.7854L233.107 70.4787C232.784 69.9193 232.346 69.4271 231.847 69.1444L138.229 15.1547C137.259 14.5954 135.689 14.5954 134.725 15.1481L134.37 15.3527C133.4 15.9044 132.611 17.259 132.611 18.3777Z" fill="#188983"/>
<path opacity="0.2" d="M132.611 18.3777V19.0652C132.611 17.825 133.959 17.05 135.037 17.6704L227.327 70.9726C228.075 71.3972 228.676 72.0104 229.086 72.7315C229.1 72.7518 229.107 72.765 229.113 72.7854L233.107 70.4787C232.784 69.9193 232.346 69.4271 231.847 69.1444L138.229 15.1547C137.259 14.5954 135.689 14.5954 134.725 15.1481L134.37 15.3527C133.4 15.9044 132.611 17.259 132.611 18.3777Z" fill="black"/>
<path opacity="0.25" d="M134.897 182.979C134.897 184.565 136.009 185.575 137.389 186.368L224.611 236.725C225.983 237.518 227.104 236.877 227.104 235.285V84.0697C227.104 82.2965 226.158 80.6581 224.622 79.7715L137.391 29.3909C136.283 28.7507 134.897 29.5504 134.897 30.8308V32.6821V182.979Z" fill="black"/>
<path d="M224.87 81.6581L137.966 31.4849C137.555 31.2479 136.889 31.2479 136.478 31.4849L135.64 31.9689C135.229 32.206 134.896 32.7829 134.896 33.257V185.175C134.896 185.65 135.229 186.226 135.639 186.464L222.542 236.637C222.953 236.874 223.619 236.874 224.03 236.637L224.87 236.152C225.28 235.915 225.614 235.338 225.614 234.863V82.9468C225.614 82.4721 225.28 81.8957 224.87 81.6581Z" fill="#F5F5F5"/>
<path d="M222.72 236.718C222.806 236.752 222.898 236.775 222.995 236.792C223.041 236.798 223.092 236.804 223.138 236.809C223.287 236.821 223.442 236.815 223.59 236.792C223.687 236.775 223.779 236.752 223.865 236.718C223.922 236.695 223.979 236.666 224.031 236.638L224.867 236.157C225.28 235.916 225.612 235.344 225.612 234.868V82.9519C225.612 82.7115 225.532 82.4481 225.394 82.2188L223.069 83.5585C223.201 83.7934 223.286 84.0568 223.286 84.2917V236.208C223.286 236.615 223.046 236.815 222.72 236.718Z" fill="#E0E0E0"/>
<path d="M135.638 31.9684L136.476 31.4844C136.887 31.2474 137.553 31.2474 137.964 31.4844L224.868 81.6582C225.279 81.8952 225.612 82.4722 225.612 82.9468V92.3282L223.285 93.6801L134.895 42.6478V33.2565C134.894 32.7824 135.228 32.2055 135.638 31.9684Z" fill="#188983"/>
<path opacity="0.4" d="M135.638 31.9684L136.476 31.4844C136.887 31.2474 137.553 31.2474 137.964 31.4844L224.868 81.6582C225.279 81.8952 225.612 82.4722 225.612 82.9468V92.3282L223.285 93.6801L134.895 42.6478V33.2565C134.894 32.7824 135.228 32.2055 135.638 31.9684Z" fill="white"/>
<path d="M134.922 33.0315C135.014 32.7279 135.3 32.6305 135.638 32.8252L222.542 83.0001C222.748 83.1205 222.937 83.3207 223.069 83.5556L225.394 82.2158C225.262 81.9809 225.073 81.7747 224.867 81.6603L137.963 31.4854C137.556 31.2451 136.886 31.2451 136.479 31.4854L135.637 31.9667C135.289 32.1729 134.997 32.6135 134.922 33.0315Z" fill="#188983"/>
<path opacity="0.6" d="M134.922 33.0315C135.014 32.7279 135.3 32.6305 135.638 32.8252L222.542 83.0001C222.748 83.1205 222.937 83.3207 223.069 83.5556L225.394 82.2158C225.262 81.9809 225.073 81.7747 224.867 81.6603L137.963 31.4854C137.556 31.2451 136.886 31.2451 136.479 31.4854L135.637 31.9667C135.289 32.1729 134.997 32.6135 134.922 33.0315Z" fill="white"/>
<path d="M225.61 82.949V92.338L223.285 93.68V84.2888C223.285 84.0539 223.2 83.7905 223.068 83.5556L225.393 82.2158C225.53 82.4446 225.61 82.7081 225.61 82.949Z" fill="#188983"/>
<g opacity="0.25">
<path d="M155 37.7663V45.2369C155 47.1295 156.292 49.3619 157.93 50.3079L172.391 58.6547C173.107 59.0672 173.513 59.8922 173.944 60.7596C174.259 61.3965 174.587 62.0515 175.06 62.5856C176.182 63.8594 178.633 65.1876 180.362 65.7398C180.944 65.9279 181.527 66.0616 182.097 66.1402C182.315 66.1765 182.557 66.2068 182.806 66.2376C184.383 66.4499 186.349 66.7166 187.501 67.3843L204.425 77.1507C204.934 77.4477 205.438 77.5934 205.899 77.5934C206.257 77.5934 206.59 77.5087 206.888 77.3388C207.579 76.9384 207.961 76.1436 207.961 75.1124V67.6417C207.961 65.7492 206.676 63.5167 205.032 62.5707L199.348 59.2889C199.324 59.2768 199.299 59.2647 199.269 59.2586C198.996 59.1371 198.675 59.2465 198.517 59.5133C198.365 59.774 198.438 60.1139 198.674 60.2838C198.692 60.308 198.716 60.3262 198.741 60.3383L204.424 63.6201C205.68 64.3483 206.748 66.1919 206.748 67.6417V75.1124C206.748 75.6888 206.578 76.1134 206.281 76.2833C205.984 76.4593 205.528 76.3867 205.031 76.1013L188.107 66.3289C186.748 65.5462 184.649 65.2613 182.969 65.0369C182.721 65.0067 182.484 64.9704 182.266 64.9396C181.769 64.867 181.247 64.7515 180.725 64.5815C179.191 64.0964 176.91 62.8529 175.97 61.7853C175.599 61.3728 175.327 60.8085 175.03 60.2206C174.538 59.2256 174.029 58.2004 172.997 57.6059L158.536 49.2591C157.28 48.5314 156.212 46.6873 156.212 45.2375V37.7663C156.212 37.1959 156.382 36.7653 156.679 36.5953C156.976 36.4193 157.438 36.4919 157.929 36.7774L162.855 39.6225C163.019 39.2524 163.231 38.8949 163.474 38.5792L158.536 35.728C157.644 35.2066 156.765 35.1455 156.073 35.5399C155.383 35.9403 155 36.735 155 37.7663Z" fill="black"/>
</g>
<path d="M165.548 37.905L165.548 37.9061C165.158 37.6773 164.619 37.707 164.022 38.0518C162.835 38.7371 161.872 40.4042 161.872 41.7748C161.872 42.4645 162.116 42.9468 162.51 43.1696L162.509 43.1707L196.819 62.9828L199.858 57.7171L165.548 37.905Z" fill="#37474F"/>
<path d="M198.33 60.3614L162.494 39.6682C162.883 38.9895 163.423 38.3961 164.02 38.0512C164.091 38.01 164.158 37.988 164.227 37.9561L199.504 58.3264L198.33 60.3614Z" fill="#455A64"/>
<path d="M198.331 57.8634C199.517 57.1781 200.48 57.7336 200.48 59.1042C200.48 60.4748 199.517 62.1418 198.331 62.8271C197.144 63.5124 196.181 62.9569 196.181 61.5863C196.181 60.2157 197.144 58.5487 198.331 57.8634Z" fill="#263238"/>
<path d="M154.389 38.2982V45.7689C154.389 47.6614 155.681 49.8939 157.319 50.8399L171.78 59.1867C172.495 59.5992 172.902 60.4242 173.333 61.2915C173.648 61.9284 173.976 62.5835 174.449 63.1175C175.571 64.3913 178.022 65.7196 179.751 66.2718C180.333 66.4599 180.915 66.5935 181.485 66.6722C181.704 66.7085 181.946 66.7387 182.195 66.7695C183.772 66.9818 185.737 67.2486 186.89 67.9157L203.814 77.6821C204.323 77.9791 204.827 78.1248 205.288 78.1248C205.646 78.1248 205.979 78.0401 206.276 77.8702C206.968 77.4698 207.35 76.675 207.35 75.6438V68.1731C207.35 66.2806 206.064 64.0481 204.42 63.1021L198.737 59.8203C198.712 59.8082 198.688 59.7961 198.658 59.79C198.385 59.6685 198.063 59.7779 197.906 60.0447C197.754 60.3054 197.827 60.6453 198.064 60.8152C198.082 60.8394 198.106 60.8576 198.13 60.8697L203.814 64.1515C205.07 64.8797 206.137 66.7233 206.137 68.1731V75.6438C206.137 76.2202 205.967 76.6448 205.67 76.8147C205.373 76.9907 204.918 76.9181 204.421 76.6327L187.497 66.8603C186.138 66.0776 184.039 65.7927 182.359 65.5683C182.11 65.5381 181.874 65.5012 181.655 65.471C181.158 65.3984 180.636 65.2829 180.115 65.1129C178.58 64.6278 176.299 63.3843 175.359 62.3167C174.989 61.9042 174.716 61.3399 174.419 60.752C173.928 59.757 173.418 58.7318 172.387 58.1373L157.925 49.7905C156.67 49.0628 155.602 47.2187 155.602 45.7689V38.2982C155.602 37.7279 155.772 37.2972 156.069 37.1273C156.366 36.9513 156.828 37.0244 157.319 37.3093L162.245 40.1545C162.408 39.7843 162.621 39.4268 162.863 39.1111L157.925 36.2599C157.034 35.738 156.154 35.6775 155.463 36.0718C154.771 36.4722 154.389 37.267 154.389 38.2982Z" fill="#455A64"/>
<g opacity="0.2">
<path d="M216.48 110.921L133.884 63.2131C133.536 63.0118 133.253 63.1752 133.253 63.5778V83.2876C133.253 83.6902 133.536 84.1797 133.884 84.3804L216.48 132.088C216.829 132.289 217.111 132.126 217.111 131.724V112.014C217.112 111.611 216.829 111.122 216.48 110.921Z" fill="black"/>
</g>
<path d="M129.5 65.823C129.696 65.7355 129.959 65.7614 130.242 65.9258L211.88 113.081C212.493 113.436 212.992 114.301 212.992 115.011V133.699C212.992 134.038 212.879 134.286 212.688 134.409C212.879 134.285 214.562 133.333 214.767 133.21C214.963 133.092 215.086 132.845 215.086 132.495V113.806C215.086 113.096 214.587 112.231 213.97 111.876L132.336 64.7164C132.022 64.5365 131.739 64.5261 131.539 64.6443C131.358 64.7521 129.897 65.581 129.5 65.823Z" fill="#188983"/>
<g opacity="0.2">
<path d="M129.501 65.8231C129.897 65.5811 131.358 64.7528 131.539 64.6445C131.74 64.5262 132.023 64.5361 132.336 64.7165L213.97 111.876C214.278 112.053 214.557 112.358 214.759 112.706L212.667 113.914C212.465 113.564 212.187 113.258 211.881 113.081L130.242 65.926C129.959 65.761 129.696 65.7357 129.501 65.8231Z" fill="white"/>
</g>
<path d="M211.88 113.081L130.244 65.9261C129.628 65.5708 129.13 65.859 129.13 66.5696V85.2591C129.13 85.9697 129.628 86.8338 130.244 87.1891L211.88 134.344C212.496 134.7 212.995 134.412 212.995 133.701V115.012C212.995 114.301 212.496 113.437 211.88 113.081Z" fill="#FAFAFA"/>
<path d="M212.667 113.914L214.759 112.707C214.962 113.056 215.087 113.451 215.087 113.807V132.496C215.087 132.845 214.964 133.092 214.768 133.211C214.563 133.335 212.88 134.287 212.689 134.41C212.88 134.286 212.993 134.039 212.993 133.7V115.011C212.992 114.656 212.868 114.263 212.667 113.914Z" fill="#188983"/>
<path opacity="0.15" d="M212.667 113.914L214.759 112.707C214.962 113.056 215.087 113.451 215.087 113.807V132.496C215.087 132.845 214.964 133.092 214.768 133.211C214.563 133.335 212.88 134.287 212.689 134.41C212.88 134.286 212.993 134.039 212.993 133.7V115.011C212.992 114.656 212.868 114.263 212.667 113.914Z" fill="black"/>
<path d="M129.745 66.2882C129.646 66.2882 129.643 66.5401 129.643 66.5693V85.2588C129.643 85.7857 130.044 86.4793 130.5 86.7433L212.137 133.899C212.267 133.973 212.348 133.982 212.377 133.982C212.476 133.982 212.479 133.73 212.479 133.701V115.012C212.479 114.485 212.078 113.791 211.622 113.527L129.985 66.3718C129.856 66.2965 129.774 66.2882 129.745 66.2882ZM129.745 65.7734C129.895 65.7734 130.064 65.8224 130.243 65.9258L211.879 113.081C212.495 113.436 212.994 114.3 212.994 115.011V133.7C212.994 134.204 212.743 134.495 212.377 134.495C212.228 134.495 212.058 134.446 211.879 134.343L130.243 87.1877C129.627 86.8324 129.129 85.9683 129.129 85.2577V66.5682C129.129 66.0649 129.38 65.7734 129.745 65.7734Z" fill="#188983"/>
<path d="M197.268 111.466C196.158 112.107 195.473 113.48 195.473 115.435C195.473 119.343 198.217 124.097 201.602 126.051C203.294 127.028 204.826 127.12 205.936 126.48C206.609 126.091 207.217 125.741 207.89 125.352C208.999 124.712 209.685 123.338 209.685 121.384C209.685 117.475 206.941 112.722 203.555 110.767C201.863 109.79 200.331 109.698 199.221 110.338C198.548 110.727 197.941 111.077 197.268 111.466Z" fill="#188983"/>
<path opacity="0.2" d="M197.268 111.466C196.158 112.107 195.473 113.48 195.473 115.435C195.473 119.343 198.217 124.097 201.602 126.051C203.294 127.028 204.826 127.12 205.936 126.48C206.609 126.091 207.217 125.741 207.89 125.352C208.999 124.712 209.685 123.338 209.685 121.384C209.685 117.475 206.941 112.722 203.555 110.767C201.863 109.79 200.331 109.698 199.221 110.338C198.548 110.727 197.941 111.077 197.268 111.466Z" fill="black"/>
<path d="M201.602 126.051C203.294 127.029 204.826 127.121 205.936 126.48C207.045 125.84 207.731 124.467 207.731 122.512C207.731 118.603 204.986 113.85 201.602 111.895C199.909 110.918 198.377 110.826 197.268 111.466C196.158 112.106 195.473 113.479 195.473 115.434C195.473 119.343 198.217 124.097 201.602 126.051Z" fill="#188983"/>
<path d="M191.253 109.827L133.768 76.6261C133.011 76.1888 132.397 75.0151 132.397 74.0053C132.397 72.995 133.011 72.5308 133.768 72.9686L191.253 106.17C192.01 106.607 192.625 107.781 192.625 108.791C192.625 109.8 192.01 110.265 191.253 109.827ZM133.768 80.6675L191.253 113.869C192.01 114.306 192.625 115.48 192.625 116.49C192.625 117.499 192.01 117.964 191.253 117.526L133.768 84.325C133.011 83.8877 132.397 82.714 132.397 81.7042C132.397 80.6944 133.011 80.2302 133.768 80.6675Z" fill="#E0E0E0"/>
<g opacity="0.2">
<path d="M216.48 140.938L133.884 93.2307C133.536 93.0294 133.253 93.1928 133.253 93.5954V113.305C133.253 113.708 133.536 114.197 133.884 114.398L216.48 162.106C216.829 162.307 217.111 162.144 217.111 161.741V142.031C217.112 141.629 216.829 141.14 216.48 140.938Z" fill="black"/>
</g>
<path d="M129.5 95.8396C129.696 95.7521 129.959 95.778 130.242 95.9424L211.88 143.097C212.493 143.453 212.992 144.317 212.992 145.027V163.716C212.992 164.056 212.879 164.302 212.688 164.426C212.879 164.302 214.562 163.35 214.767 163.227C214.963 163.108 215.086 162.861 215.086 162.511V143.823C215.086 143.113 214.587 142.248 213.97 141.893L132.336 94.733C132.022 94.5531 131.739 94.5427 131.539 94.6609C131.358 94.7693 129.897 95.5976 129.5 95.8396Z" fill="#188983"/>
<g opacity="0.2">
<path d="M129.501 95.8397C129.897 95.5977 131.358 94.7694 131.539 94.6611C131.74 94.5428 132.023 94.5528 132.336 94.7332L213.97 141.893C214.278 142.07 214.557 142.374 214.759 142.723L212.667 143.931C212.465 143.581 212.187 143.275 211.881 143.097L130.242 95.9426C129.959 95.7781 129.696 95.7523 129.501 95.8397Z" fill="white"/>
</g>
<path d="M211.88 143.098L130.244 95.9427C129.628 95.5874 129.13 95.8756 129.13 96.5862V115.276C129.13 115.986 129.628 116.85 130.244 117.206L211.88 164.361C212.496 164.716 212.995 164.428 212.995 163.718V145.028C212.995 144.318 212.496 143.453 211.88 143.098Z" fill="#FAFAFA"/>
<path d="M212.667 143.93L214.759 142.723C214.962 143.072 215.087 143.467 215.087 143.823V162.511C215.087 162.861 214.964 163.108 214.768 163.227C214.563 163.35 212.88 164.302 212.689 164.426C212.88 164.302 212.993 164.055 212.993 163.716V145.027C212.992 144.673 212.868 144.28 212.667 143.93Z" fill="#188983"/>
<path opacity="0.15" d="M212.667 143.93L214.759 142.723C214.962 143.072 215.087 143.467 215.087 143.823V162.511C215.087 162.861 214.964 163.108 214.768 163.227C214.563 163.35 212.88 164.302 212.689 164.426C212.88 164.302 212.993 164.055 212.993 163.716V145.027C212.992 144.673 212.868 144.28 212.667 143.93Z" fill="black"/>
<path d="M129.745 96.3053C129.646 96.3053 129.643 96.5572 129.643 96.5863V115.276C129.643 115.803 130.044 116.496 130.5 116.76L212.137 163.916C212.267 163.991 212.348 163.999 212.377 163.999C212.476 163.999 212.479 163.747 212.479 163.718V145.028C212.479 144.501 212.078 143.808 211.622 143.544L129.985 96.3883C129.856 96.3135 129.774 96.3053 129.745 96.3053ZM129.745 95.791C129.895 95.791 130.064 95.84 130.243 95.9434L211.879 143.099C212.495 143.454 212.994 144.318 212.994 145.029V163.718C212.994 164.222 212.743 164.514 212.377 164.514C212.228 164.514 212.058 164.465 211.879 164.361L130.243 117.206C129.627 116.851 129.129 115.986 129.129 115.276V96.5863C129.129 96.082 129.38 95.791 129.745 95.791Z" fill="#188983"/>
<path d="M197.268 141.483C196.158 142.124 195.473 143.497 195.473 145.452C195.473 149.361 198.217 154.114 201.602 156.068C203.294 157.045 204.826 157.138 205.936 156.497C206.609 156.108 207.217 155.758 207.89 155.369C208.999 154.729 209.685 153.355 209.685 151.401C209.685 147.492 206.941 142.739 203.555 140.784C201.863 139.807 200.331 139.715 199.221 140.355C198.548 140.744 197.941 141.095 197.268 141.483Z" fill="#188983"/>
<path opacity="0.2" d="M197.268 141.483C196.158 142.124 195.473 143.497 195.473 145.452C195.473 149.361 198.217 154.114 201.602 156.068C203.294 157.045 204.826 157.138 205.936 156.497C206.609 156.108 207.217 155.758 207.89 155.369C208.999 154.729 209.685 153.355 209.685 151.401C209.685 147.492 206.941 142.739 203.555 140.784C201.863 139.807 200.331 139.715 199.221 140.355C198.548 140.744 197.941 141.095 197.268 141.483Z" fill="black"/>
<path d="M201.602 156.068C203.294 157.046 204.826 157.138 205.936 156.497C207.045 155.857 207.731 154.484 207.731 152.529C207.731 148.62 204.986 143.867 201.602 141.912C199.909 140.935 198.377 140.843 197.268 141.483C196.158 142.124 195.473 143.497 195.473 145.452C195.473 149.36 198.217 154.114 201.602 156.068Z" fill="#188983"/>
<path d="M191.253 139.845L133.768 106.644C133.011 106.206 132.397 105.033 132.397 104.023C132.397 103.013 133.011 102.548 133.768 102.986L191.253 136.187C192.01 136.625 192.625 137.798 192.625 138.808C192.625 139.818 192.01 140.282 191.253 139.845ZM133.768 110.685L191.253 143.886C192.01 144.323 192.625 145.497 192.625 146.507C192.625 147.516 192.01 147.981 191.253 147.543L133.768 114.342C133.011 113.905 132.397 112.731 132.397 111.721C132.397 110.711 133.011 110.247 133.768 110.685Z" fill="#E0E0E0"/>
<g opacity="0.2">
<path d="M216.48 170.955L133.884 123.248C133.536 123.047 133.253 123.21 133.253 123.612V143.322C133.253 143.725 133.536 144.214 133.884 144.416L216.48 192.123C216.829 192.325 217.111 192.161 217.111 191.759V172.049C217.112 171.646 216.829 171.157 216.48 170.955Z" fill="black"/>
</g>
<path d="M129.5 125.857C129.696 125.77 129.959 125.796 130.242 125.96L211.88 173.115C212.493 173.47 212.992 174.335 212.992 175.045V193.733C212.992 194.073 212.879 194.32 212.688 194.443C212.879 194.32 214.562 193.367 214.767 193.244C214.963 193.126 215.086 192.879 215.086 192.529V173.84C215.086 173.13 214.587 172.266 213.97 171.91L132.336 124.751C132.022 124.571 131.739 124.56 131.539 124.679C131.358 124.787 129.897 125.616 129.5 125.857Z" fill="#188983"/>
<g opacity="0.2">
<path d="M129.501 125.857C129.897 125.615 131.358 124.787 131.539 124.679C131.74 124.56 132.023 124.57 132.336 124.751L213.97 171.91C214.278 172.088 214.557 172.392 214.759 172.74L212.667 173.948C212.465 173.598 212.187 173.293 211.881 173.115L130.242 125.96C129.959 125.796 129.696 125.77 129.501 125.857Z" fill="white"/>
</g>
<path d="M211.88 173.116L130.244 125.961C129.628 125.605 129.13 125.894 129.13 126.604V145.294C129.13 146.004 129.628 146.868 130.244 147.224L211.88 194.379C212.496 194.734 212.995 194.446 212.995 193.736V175.046C212.995 174.335 212.496 173.471 211.88 173.116Z" fill="#FAFAFA"/>
<path d="M212.667 173.949L214.759 172.741C214.962 173.091 215.087 173.485 215.087 173.841V192.53C215.087 192.879 214.964 193.126 214.768 193.245C214.563 193.369 212.88 194.321 212.689 194.444C212.88 194.32 212.993 194.074 212.993 193.734V175.046C212.992 174.691 212.868 174.298 212.667 173.949Z" fill="#188983"/>
<path opacity="0.15" d="M212.667 173.949L214.759 172.741C214.962 173.091 215.087 173.485 215.087 173.841V192.53C215.087 192.879 214.964 193.126 214.768 193.245C214.563 193.369 212.88 194.321 212.689 194.444C212.88 194.32 212.993 194.074 212.993 193.734V175.046C212.992 174.691 212.868 174.298 212.667 173.949Z" fill="black"/>
<path d="M129.745 126.322C129.646 126.322 129.643 126.574 129.643 126.603V145.293C129.643 145.82 130.044 146.513 130.5 146.777L212.137 193.933C212.267 194.008 212.348 194.016 212.377 194.016C212.476 194.016 212.479 193.764 212.479 193.735V175.045C212.479 174.518 212.078 173.825 211.622 173.561L129.985 126.405C129.856 126.331 129.774 126.322 129.745 126.322ZM129.745 125.808C129.895 125.808 130.064 125.857 130.243 125.96L211.879 173.115C212.495 173.471 212.994 174.335 212.994 175.045V193.735C212.994 194.239 212.743 194.53 212.377 194.53C212.228 194.53 212.058 194.481 211.879 194.378L130.243 147.222C129.627 146.867 129.129 146.003 129.129 145.292V126.603C129.129 126.099 129.38 125.808 129.745 125.808Z" fill="#188983"/>
<path d="M197.268 171.501C196.158 172.141 195.473 173.514 195.473 175.469C195.473 179.378 198.217 184.131 201.602 186.086C203.294 187.063 204.826 187.156 205.936 186.515C206.609 186.127 207.217 185.776 207.89 185.387C208.999 184.747 209.685 183.373 209.685 181.419C209.685 177.51 206.941 172.757 203.555 170.802C201.863 169.825 200.331 169.733 199.221 170.373C198.548 170.761 197.941 171.112 197.268 171.501Z" fill="#188983"/>
<path opacity="0.2" d="M197.268 171.501C196.158 172.141 195.473 173.514 195.473 175.469C195.473 179.378 198.217 184.131 201.602 186.086C203.294 187.063 204.826 187.156 205.936 186.515C206.609 186.127 207.217 185.776 207.89 185.387C208.999 184.747 209.685 183.373 209.685 181.419C209.685 177.51 206.941 172.757 203.555 170.802C201.863 169.825 200.331 169.733 199.221 170.373C198.548 170.761 197.941 171.112 197.268 171.501Z" fill="black"/>
<path d="M201.602 186.085C203.294 187.063 204.826 187.155 205.936 186.514C207.045 185.874 207.731 184.501 207.731 182.546C207.731 178.637 204.986 173.884 201.602 171.93C199.909 170.952 198.377 170.86 197.268 171.5C196.158 172.141 195.473 173.514 195.473 175.468C195.473 179.378 198.217 184.131 201.602 186.085Z" fill="#188983"/>
<path d="M191.253 169.862L133.768 136.66C133.011 136.223 132.397 135.049 132.397 134.04C132.397 133.03 133.011 132.566 133.768 133.003L191.253 166.204C192.01 166.641 192.625 167.815 192.625 168.825C192.625 169.835 192.01 170.299 191.253 169.862ZM133.768 140.702L191.253 173.903C192.01 174.34 192.625 175.514 192.625 176.524C192.625 177.534 192.01 177.998 191.253 177.561L133.768 144.359C133.011 143.922 132.397 142.748 132.397 141.739C132.397 140.729 133.011 140.264 133.768 140.702Z" fill="#E0E0E0"/>
<g opacity="0.2">
<path d="M216.48 200.972L133.884 153.265C133.536 153.064 133.253 153.227 133.253 153.63V173.339C133.253 173.742 133.536 174.231 133.884 174.433L216.48 222.14C216.829 222.342 217.111 222.178 217.111 221.776V202.066C217.112 201.663 216.829 201.174 216.48 200.972Z" fill="black"/>
</g>
<path d="M129.5 155.874C129.696 155.786 129.959 155.812 130.242 155.977L211.88 203.131C212.493 203.487 212.992 204.351 212.992 205.061V223.75C212.992 224.09 212.879 224.337 212.688 224.46C212.879 224.336 214.562 223.384 214.767 223.261C214.963 223.143 215.086 222.896 215.086 222.545V203.857C215.086 203.147 214.587 202.282 213.97 201.927L132.336 154.767C132.022 154.587 131.739 154.577 131.539 154.695C131.358 154.803 129.897 155.632 129.5 155.874Z" fill="#188983"/>
<g opacity="0.2">
<path d="M129.501 155.874C129.897 155.632 131.358 154.804 131.539 154.695C131.74 154.577 132.023 154.587 132.336 154.767L213.97 201.927C214.278 202.104 214.557 202.408 214.759 202.757L212.667 203.965C212.465 203.615 212.187 203.309 211.881 203.132L130.242 155.977C129.959 155.812 129.696 155.786 129.501 155.874Z" fill="white"/>
</g>
<path d="M211.88 203.132L130.244 155.977C129.628 155.622 129.13 155.91 129.13 156.62V175.31C129.13 176.021 129.628 176.885 130.244 177.24L211.88 224.395C212.496 224.751 212.995 224.462 212.995 223.752V205.063C212.995 204.352 212.496 203.488 211.88 203.132Z" fill="#FAFAFA"/>
<path d="M212.667 203.965L214.759 202.757C214.962 203.107 215.087 203.501 215.087 203.857V222.546C215.087 222.896 214.964 223.143 214.768 223.261C214.563 223.385 212.88 224.337 212.689 224.46C212.88 224.337 212.993 224.09 212.993 223.75V205.062C212.992 204.707 212.868 204.314 212.667 203.965Z" fill="#188983"/>
<path opacity="0.15" d="M212.667 203.965L214.759 202.757C214.962 203.107 215.087 203.501 215.087 203.857V222.546C215.087 222.896 214.964 223.143 214.768 223.261C214.563 223.385 212.88 224.337 212.689 224.46C212.88 224.337 212.993 224.09 212.993 223.75V205.062C212.992 204.707 212.868 204.314 212.667 203.965Z" fill="black"/>
<path d="M129.745 156.339C129.646 156.339 129.643 156.591 129.643 156.62V175.31C129.643 175.837 130.044 176.53 130.5 176.794L212.137 223.949C212.267 224.025 212.348 224.032 212.377 224.032C212.476 224.032 212.479 223.781 212.479 223.751V205.062C212.479 204.536 212.078 203.842 211.622 203.578L129.985 156.423C129.856 156.347 129.774 156.339 129.745 156.339ZM129.745 155.824C129.895 155.824 130.064 155.873 130.243 155.977L211.879 203.132C212.495 203.487 212.994 204.351 212.994 205.062V223.751C212.994 224.255 212.743 224.546 212.377 224.546C212.228 224.546 212.058 224.497 211.879 224.394L130.243 177.238C129.627 176.883 129.129 176.019 129.129 175.309V156.619C129.129 156.116 129.38 155.824 129.745 155.824Z" fill="#188983"/>
<path d="M197.268 201.518C196.158 202.158 195.473 203.531 195.473 205.486C195.473 209.395 198.217 214.148 201.602 216.102C203.294 217.08 204.826 217.172 205.936 216.532C206.609 216.143 207.217 215.793 207.89 215.404C208.999 214.764 209.685 213.39 209.685 211.435C209.685 207.526 206.941 202.774 203.555 200.819C201.863 199.841 200.331 199.75 199.221 200.39C198.548 200.779 197.941 201.129 197.268 201.518Z" fill="#188983"/>
<path opacity="0.2" d="M197.268 201.518C196.158 202.158 195.473 203.531 195.473 205.486C195.473 209.395 198.217 214.148 201.602 216.102C203.294 217.08 204.826 217.172 205.936 216.532C206.609 216.143 207.217 215.793 207.89 215.404C208.999 214.764 209.685 213.39 209.685 211.435C209.685 207.526 206.941 202.774 203.555 200.819C201.863 199.841 200.331 199.75 199.221 200.39C198.548 200.779 197.941 201.129 197.268 201.518Z" fill="black"/>
<path d="M201.602 216.102C203.295 217.08 204.827 217.172 205.936 216.531C207.046 215.891 207.731 214.518 207.731 212.563C207.731 208.654 204.987 203.901 201.602 201.946C199.91 200.969 198.377 200.877 197.268 201.517C196.159 202.158 195.473 203.531 195.473 205.486C195.473 209.395 198.217 214.148 201.602 216.102Z" fill="#188983"/>
<path d="M191.253 199.879L133.768 166.678C133.011 166.241 132.397 165.067 132.397 164.057C132.397 163.047 133.011 162.583 133.768 163.02L191.253 196.222C192.01 196.659 192.625 197.833 192.625 198.842C192.625 199.852 192.01 200.316 191.253 199.879ZM133.768 170.719L191.253 203.92C192.01 204.357 192.625 205.531 192.625 206.541C192.625 207.551 192.01 208.015 191.253 207.577L133.768 174.376C133.011 173.939 132.397 172.765 132.397 171.755C132.397 170.746 133.011 170.281 133.768 170.719Z" fill="#E0E0E0"/>
<path d="M79.3643 181.146L74.4717 183.438L69.6045 185.768L59.9099 190.485L50.2714 195.285L45.4717 197.715L40.6984 200.182L45.591 197.891L50.4582 195.561L60.1528 190.843L69.7904 186.042L74.5901 183.613L79.3643 181.146Z" fill="#E0E0E0"/>
<path d="M71.4839 190.851C70.3863 191.338 69.3049 191.847 68.2147 192.345L64.971 193.876C62.811 194.901 60.6733 195.957 58.523 196.996C56.3926 198.064 54.2515 199.117 52.1313 200.199L48.9551 201.831C47.9052 202.388 46.8474 202.932 45.8049 203.5C46.9025 203.014 47.9843 202.504 49.0745 202.007L52.3186 200.476C54.4777 199.45 56.6169 198.395 58.7663 197.355C60.8962 196.285 63.0377 195.234 65.1579 194.151L68.3341 192.52C69.3831 191.963 70.4414 191.419 71.4839 190.851Z" fill="#E0E0E0"/>
<path d="M91.4256 165.913L95.4389 163.866C98.1178 162.505 100.817 161.175 103.506 159.829C106.214 158.513 107.689 157.782 110.408 156.48L113.3 155.1V155.375L110.594 156.755C107.916 158.116 106.437 158.841 103.749 160.188C101.041 161.505 98.344 162.838 95.6262 164.141L91.5449 166.088C90.1753 166.725 88.8146 167.373 87.4381 167.998C88.7596 167.292 90.0967 166.609 91.4256 165.913Z" fill="#E0E0E0"/>
<path d="M111.937 161.724C111.216 162.028 110.512 162.354 109.799 162.668L107.688 163.65C106.28 164.305 104.892 164.988 103.504 165.671C102.121 166.363 100.74 167.055 99.3766 167.775L97.3327 168.857C96.6607 169.23 95.9798 169.591 95.3152 169.976C96.0353 169.673 96.7398 169.347 97.453 169.033L99.5649 168.051C100.972 167.396 102.36 166.713 103.748 166.029C105.13 165.337 106.512 164.645 107.875 163.925L109.919 162.843C110.591 162.47 111.271 162.108 111.937 161.724Z" fill="#E0E0E0"/>
<rect width="66" height="5.5" rx="2.75" transform="matrix(-0.864254 -0.503056 -0.503056 0.864254 207.87 91.0527)" fill="#455A64"/>
</svg>
