<svg width="104" height="232" viewBox="0 0 104 232" fill="none" xmlns="http://www.w3.org/2000/svg">
<g opacity="0.5">
<path d="M9.05934 0.418972L102.258 54.2386C103.221 54.7946 104.001 56.1478 104.001 57.2608V228.369C104.001 229.482 103.219 230.833 102.254 231.385L101.9 231.588C100.935 232.14 99.3728 232.137 98.4102 231.58L5.21027 177.691C4.24773 177.134 3.46751 175.78 3.46751 174.667V3.63144C3.46751 2.5184 4.24937 1.16794 5.2141 0.615262L5.56834 0.412941C6.53362 -0.139741 8.09625 -0.137548 9.05934 0.418972Z" fill="#188983"/>
<path opacity="0.45" d="M9.05934 0.418972L102.258 54.2386C103.221 54.7946 104.001 56.1478 104.001 57.2608V228.369C104.001 229.482 103.219 230.833 102.254 231.385L101.9 231.588C100.935 232.14 99.3728 232.137 98.4102 231.58L5.21027 177.691C4.24773 177.134 3.46751 175.78 3.46751 174.667V3.63144C3.46751 2.5184 4.24937 1.16794 5.2141 0.615262L5.56834 0.412941C6.53362 -0.139741 8.09625 -0.137548 9.05934 0.418972Z" fill="black"/>
<path d="M3.46882 174.793C3.46882 176.327 4.54469 177.305 5.87735 178.073L97.7452 231.186C99.0713 231.953 100.154 231.333 100.154 229.792V60.2229C100.154 58.5067 99.2399 56.9211 97.7562 56.0624L5.87954 2.92709C4.80804 2.30751 3.46826 3.0817 3.46826 4.32085V174.793H3.46882Z" fill="#188983"/>
<path opacity="0.3" d="M3.46784 174.793C3.46784 176.327 4.54371 177.305 5.87637 178.073L97.7442 231.186C99.0703 231.953 100.153 231.333 100.153 229.792V60.2229C100.153 58.5067 99.239 56.9211 97.7552 56.0624L5.87856 2.92709C4.80707 2.30751 3.46729 3.0817 3.46729 4.32085V174.793H3.46784Z" fill="black"/>
<path d="M3.46566 3.63303V4.3184C3.46566 3.08199 4.80763 2.30944 5.88077 2.92792L97.7547 56.0649C98.4993 56.4882 99.0966 57.0995 99.5056 57.8184C99.5188 57.8386 99.5259 57.8518 99.5325 57.8721L103.509 55.5725C103.187 55.0149 102.75 54.5242 102.254 54.2424L9.05804 0.420016C8.09221 -0.137601 6.52904 -0.137602 5.56978 0.413435L5.21663 0.617401C4.25026 1.16734 3.46566 2.5178 3.46566 3.63303Z" fill="#188983"/>
<path opacity="0.2" d="M3.46566 3.63303V4.3184C3.46566 3.08199 4.80763 2.30944 5.88077 2.92792L97.7547 56.0649C98.4993 56.4882 99.0966 57.0995 99.5056 57.8184C99.5188 57.8386 99.5259 57.8518 99.5325 57.8721L103.509 55.5725C103.187 55.0149 102.75 54.5242 102.254 54.2424L9.05804 0.420016C8.09221 -0.137601 6.52904 -0.137602 5.56978 0.413435L5.21663 0.617401C4.25026 1.16734 3.46566 2.5178 3.46566 3.63303Z" fill="black"/>
<path opacity="0.25" d="M5.74078 167.725C5.74078 169.305 6.8484 170.313 8.22214 171.103L95.0506 221.304C96.4161 222.094 97.532 221.456 97.532 219.868V69.1218C97.532 67.3541 96.5902 65.7207 95.0621 64.8368L8.22432 14.6124C7.12052 13.9742 5.74078 14.7714 5.74078 16.0478V17.8934V167.725Z" fill="black"/>
<path d="M95.308 66.7174L8.79602 16.6997C8.38702 16.4634 7.72397 16.4634 7.31497 16.6997L6.48056 17.1822C6.07156 17.4185 5.73977 17.9937 5.73977 18.4663V169.914C5.73977 170.387 6.07156 170.962 6.48 171.198L92.9909 221.216C93.3999 221.453 94.063 221.453 94.472 221.216L95.308 220.733C95.717 220.496 96.0488 219.921 96.0488 219.448V68.0021C96.0488 67.5289 95.717 66.9543 95.308 66.7174Z" fill="#F5F5F5"/>
<path d="M93.168 221.297C93.2534 221.331 93.3449 221.354 93.4418 221.371C93.4872 221.377 93.5387 221.383 93.5841 221.388C93.7325 221.4 93.8864 221.394 94.0342 221.371C94.1311 221.354 94.2225 221.331 94.3079 221.297C94.3649 221.274 94.4218 221.245 94.4733 221.217L95.3055 220.737C95.7162 220.498 96.0469 219.927 96.0469 219.453V68.0072C96.0469 67.7676 95.9669 67.505 95.8301 67.2764L93.5157 68.612C93.6465 68.8461 93.732 69.1088 93.732 69.3429V220.789C93.732 221.194 93.4927 221.394 93.168 221.297Z" fill="#E0E0E0"/>
<path d="M6.47781 17.1817L7.31223 16.6992C7.72122 16.4629 8.38428 16.4629 8.79327 16.6992L95.3058 66.7175C95.7148 66.9538 96.0466 67.529 96.0466 68.0022V77.3544L93.7301 78.7021L5.73811 27.828V18.4658C5.73756 17.9932 6.06936 17.418 6.47781 17.1817Z" fill="#188983"/>
<path opacity="0.4" d="M6.47781 17.1817L7.31223 16.6992C7.72122 16.4629 8.38428 16.4629 8.79327 16.6992L95.3058 66.7175C95.7148 66.9538 96.0466 67.529 96.0466 68.0022V77.3544L93.7301 78.7021L5.73811 27.828V18.4658C5.73756 17.9932 6.06936 17.418 6.47781 17.1817Z" fill="white"/>
<path d="M5.76588 18.2415C5.85732 17.9388 6.14202 17.8418 6.4782 18.0359L92.9902 68.0552C93.1955 68.1753 93.3839 68.3749 93.5147 68.609L95.8291 67.2734C95.6982 67.0392 95.5099 66.8336 95.3046 66.7196L8.79257 16.7002C8.38795 16.4606 7.72052 16.4606 7.3159 16.7002L6.47766 17.18C6.13053 17.3856 5.8398 17.8248 5.76588 18.2415Z" fill="#188983"/>
<path opacity="0.6" d="M5.76588 18.2415C5.85732 17.9388 6.14202 17.8418 6.4782 18.0359L92.9902 68.0552C93.1955 68.1753 93.3839 68.3749 93.5147 68.609L95.8291 67.2734C95.6982 67.0392 95.5099 66.8336 95.3046 66.7196L8.79257 16.7002C8.38795 16.4606 7.72052 16.4606 7.3159 16.7002L6.47766 17.18C6.13053 17.3856 5.8398 17.8248 5.76588 18.2415Z" fill="white"/>
<path d="M96.0444 68.0043V77.3643L93.7301 78.7021V69.34C93.7301 69.1058 93.6447 68.8432 93.5138 68.6091L95.8282 67.2734C95.9645 67.5015 96.0444 67.7642 96.0444 68.0043Z" fill="#188983"/>
<g opacity="0.25">
<path d="M25.7547 22.9617V30.4092C25.7547 32.2959 27.0408 34.5214 28.6713 35.4645L43.0673 43.7855C43.7796 44.1967 44.1842 45.0191 44.6129 45.8838C44.9267 46.5187 45.253 47.1717 45.7238 47.7041C46.8413 48.974 49.2805 50.2981 51.0019 50.8486C51.5818 51.0361 52.1616 51.1694 52.7288 51.2478C52.9462 51.2839 53.1876 51.3141 53.4351 51.3448C55.0054 51.5564 56.9617 51.8224 58.1088 52.488L74.9565 62.2241C75.4635 62.5202 75.965 62.6655 76.4239 62.6655C76.7803 62.6655 77.1121 62.581 77.4083 62.4116C78.0965 62.0124 78.4771 61.2202 78.4771 60.1921V52.7446C78.4771 50.8579 77.1969 48.6324 75.5604 47.6893L69.9023 44.4176C69.8782 44.4056 69.8542 44.3935 69.824 44.3875C69.5525 44.2663 69.2322 44.3754 69.075 44.6413C68.9239 44.9012 68.9962 45.2401 69.2316 45.4095C69.2497 45.4336 69.2738 45.4517 69.2979 45.4638L74.9559 48.7355C76.2059 49.4614 77.2687 51.2993 77.2687 52.7446V60.1921C77.2687 60.7667 77.0995 61.19 76.8038 61.3594C76.5082 61.5349 76.0548 61.4625 75.5599 61.1779L58.7121 51.4358C57.3597 50.6556 55.2699 50.3716 53.5977 50.1479C53.3503 50.1177 53.1143 50.0815 52.8975 50.0508C52.4025 49.9785 51.8829 49.8633 51.3639 49.6939C49.8363 49.2103 47.5657 47.9706 46.6294 46.9064C46.261 46.4951 45.9894 45.9326 45.6937 45.3465C45.2048 44.3546 44.6972 43.3326 43.6706 42.7399L29.2741 34.4189C28.0242 33.6935 26.9614 31.8551 26.9614 30.4098V22.9617C26.9614 22.3931 27.1306 21.9638 27.4263 21.7944C27.7219 21.619 28.1813 21.6913 28.6702 21.9759L33.5738 24.8122C33.737 24.4432 33.9483 24.0868 34.1898 23.7721L29.2741 20.9297C28.3866 20.41 27.5111 20.3491 26.8224 20.7422C26.1352 21.1414 25.7547 21.9337 25.7547 22.9617Z" fill="black"/>
</g>
<path d="M36.2543 23.0994L36.2538 23.1005C35.8661 22.8724 35.329 22.902 34.7344 23.2458C33.5528 23.9289 32.5947 25.5908 32.5947 26.9572C32.5947 27.6447 32.8378 28.1256 33.2293 28.3476L33.2287 28.3487L67.3836 48.0995L70.4092 42.8501L36.2543 23.0994Z" fill="#37474F"/>
<path d="M68.8886 45.4863L33.2144 24.8572C33.602 24.1806 34.1391 23.589 34.7337 23.2452C34.8044 23.2041 34.8712 23.1822 34.9402 23.1504L70.0581 43.4576L68.8886 45.4863Z" fill="#455A64"/>
<path d="M68.8896 42.9958C70.0711 42.3126 71.0293 42.8664 71.0293 44.2327C71.0293 45.5991 70.0711 47.261 68.8896 47.9441C67.708 48.6273 66.7499 48.0735 66.7499 46.7072C66.7499 45.3408 67.708 43.6789 68.8896 42.9958Z" fill="#263238"/>
<path d="M25.1458 23.4917V30.9392C25.1458 32.8259 26.4319 35.0514 28.0624 35.9945L42.4584 44.3154C43.1707 44.7266 43.5753 45.5491 44.0046 46.4137C44.3183 47.0487 44.6446 47.7017 45.1155 48.2341C46.2324 49.5039 48.6722 50.8281 50.3931 51.3786C50.9729 51.5661 51.5527 51.6993 52.1199 51.7777C52.3373 51.8139 52.5788 51.8441 52.8262 51.8748C54.3965 52.0864 56.3528 52.3523 57.4999 53.0174L74.3476 62.7535C74.8546 63.0496 75.3561 63.1949 75.815 63.1949C76.1714 63.1949 76.5032 63.1104 76.7994 62.941C77.4876 62.5419 77.8682 61.7496 77.8682 60.7215V53.274C77.8682 51.3873 76.5881 49.1618 74.9515 48.2187L69.2934 44.947C69.2694 44.935 69.2453 44.9229 69.2152 44.9169C68.9436 44.7957 68.6233 44.9048 68.4667 45.1708C68.3156 45.4306 68.3879 45.7695 68.6238 45.9389C68.6419 45.963 68.666 45.9811 68.6901 45.9932L74.3482 49.2649C75.5981 49.9908 76.6609 51.8287 76.6609 53.274V60.7215C76.6609 61.2961 76.4917 61.7194 76.196 61.8888C75.9004 62.0643 75.447 61.9919 74.9521 61.7074L58.1043 51.9652C56.752 51.185 54.6626 50.901 52.9894 50.6773C52.7419 50.6471 52.5065 50.6104 52.2891 50.5802C51.7942 50.5079 51.2746 50.3927 50.7555 50.2233C49.2279 49.7397 46.9574 48.5 46.0211 47.4358C45.6526 47.0245 45.3811 46.462 45.0854 45.8759C44.5965 44.884 44.0889 43.862 43.0623 43.2693L28.6664 34.9483C27.4164 34.2229 26.3536 32.3845 26.3536 30.9392V23.4917C26.3536 22.9231 26.5228 22.4938 26.8185 22.3244C27.1141 22.1489 27.5735 22.2218 28.0624 22.5058L32.966 25.3422C33.1292 24.9732 33.3405 24.6168 33.582 24.3021L28.6664 21.4597C27.7788 20.9394 26.9028 20.8791 26.2146 21.2722C25.5263 21.6713 25.1458 22.4636 25.1458 23.4917Z" fill="#455A64"/>
<g opacity="0.2">
<path d="M86.9574 95.8888L4.73359 48.3291C4.38647 48.1284 4.10558 48.2913 4.10558 48.6926V68.3413C4.10558 68.7427 4.38701 69.2307 4.73359 69.4308L86.9574 116.991C87.3046 117.191 87.5854 117.028 87.5854 116.628V96.9788C87.586 96.5775 87.3046 96.0895 86.9574 95.8888Z" fill="black"/>
</g>
<path d="M0.368446 50.9309C0.56337 50.8437 0.824547 50.8695 1.10652 51.0334L82.3771 98.0421C82.9865 98.3963 83.4836 99.2582 83.4836 99.9661V118.597C83.4836 118.935 83.3709 119.182 83.1814 119.304C83.3709 119.181 85.0463 118.232 85.251 118.109C85.446 117.991 85.5686 117.745 85.5686 117.396V98.7653C85.5686 98.0575 85.0715 97.1955 84.4571 96.8413L3.19147 49.8277C2.87883 49.6484 2.5974 49.638 2.39755 49.7559C2.21797 49.8634 0.763214 50.6896 0.368446 50.9309Z" fill="#188983"/>
<g opacity="0.2">
<path d="M0.368828 50.9311C0.763596 50.6898 2.21835 49.8641 2.39793 49.7561C2.59778 49.6382 2.87976 49.6481 3.19185 49.8279L84.4575 96.8415C84.7641 97.0181 85.0417 97.3213 85.2427 97.6689L83.1599 98.873C82.9595 98.5242 82.6825 98.2194 82.3775 98.0423L1.1069 51.0336C0.824928 50.8691 0.563744 50.8439 0.368828 50.9311Z" fill="white"/>
</g>
<path d="M82.3768 98.0428L1.10838 51.0335C0.495712 50.6793 -0.000892639 50.9666 -0.000892639 51.675V70.3067C-0.000892639 71.0151 0.495712 71.8764 1.10838 72.2306L82.3768 119.24C82.9895 119.594 83.4861 119.307 83.4861 118.598V99.9673C83.4861 99.2583 82.9895 98.397 82.3768 98.0428Z" fill="#FAFAFA"/>
<path d="M83.1599 98.873L85.2427 97.6689C85.4447 98.0177 85.5696 98.4113 85.5696 98.7655V117.397C85.5696 117.745 85.4464 117.992 85.252 118.11C85.0472 118.233 83.3718 119.182 83.1824 119.305C83.3718 119.182 83.4846 118.936 83.4846 118.597V99.9663C83.4841 99.6127 83.3598 99.2206 83.1599 98.873Z" fill="#188983"/>
<path opacity="0.15" d="M83.1599 98.873L85.2427 97.6689C85.4447 98.0177 85.5696 98.4113 85.5696 98.7655V117.397C85.5696 117.745 85.4464 117.992 85.252 118.11C85.0472 118.233 83.3718 119.182 83.1824 119.305C83.3718 119.182 83.4846 118.936 83.4846 118.597V99.9663C83.4841 99.6127 83.3598 99.2206 83.1599 98.873Z" fill="black"/>
<path d="M0.614342 51.3946C0.515793 51.3946 0.513054 51.6457 0.513054 51.6747V70.3064C0.513054 70.8316 0.911644 71.523 1.36608 71.7862L82.6345 118.795C82.7637 118.87 82.8448 118.878 82.8738 118.878C82.9723 118.878 82.9751 118.627 82.9751 118.598V99.967C82.9751 99.4417 82.5765 98.7498 82.122 98.4871L0.8536 51.4779C0.724388 51.4028 0.643364 51.3946 0.614342 51.3946ZM0.614342 50.8813C0.763268 50.8813 0.931908 50.9301 1.10985 51.0332L82.3783 98.0425C82.9909 98.3967 83.4875 99.258 83.4875 99.9664V118.598C83.4875 119.1 83.2379 119.39 82.8738 119.39C82.7249 119.39 82.5562 119.342 82.3783 119.238L1.10985 72.2292C0.497177 71.875 0.000572205 71.0137 0.000572205 70.3053V51.6736C0.000572205 51.1719 0.250793 50.8813 0.614342 50.8813Z" fill="#188983"/>
<path d="M67.83 96.4328C66.7257 97.071 66.0429 98.4401 66.0429 100.389C66.0429 104.285 68.7751 109.024 72.1445 110.972C73.8292 111.946 75.3546 112.038 76.459 111.4C77.1297 111.013 77.7341 110.663 78.4043 110.276C79.5086 109.637 80.1914 108.268 80.1914 106.32C80.1914 102.423 77.4593 97.6845 74.0893 95.7359C72.4046 94.7616 70.8792 94.6695 69.7748 95.3082C69.1047 95.6959 68.5002 96.0451 67.83 96.4328Z" fill="#188983"/>
<path opacity="0.2" d="M67.83 96.4328C66.7257 97.071 66.0429 98.4401 66.0429 100.389C66.0429 104.285 68.7751 109.024 72.1445 110.972C73.8292 111.946 75.3546 112.038 76.459 111.4C77.1297 111.013 77.7341 110.663 78.4043 110.276C79.5086 109.637 80.1914 108.268 80.1914 106.32C80.1914 102.423 77.4593 97.6845 74.0893 95.7359C72.4046 94.7616 70.8792 94.6695 69.7748 95.3082C69.1047 95.6959 68.5002 96.0451 67.83 96.4328Z" fill="black"/>
<path d="M72.1448 110.973C73.8295 111.947 75.3549 112.039 76.4592 111.4C77.5636 110.762 78.2463 109.393 78.2463 107.444C78.2463 103.548 75.5142 98.8092 72.1448 96.8605C70.4601 95.8862 68.9341 95.7941 67.8303 96.4323C66.726 97.0705 66.0432 98.4396 66.0432 100.388C66.0432 104.286 68.7748 109.024 72.1448 110.973Z" fill="#188983"/>
<path d="M61.8437 94.7991L4.61855 61.7007C3.86461 61.2648 3.25304 60.0947 3.25304 59.088C3.25304 58.0808 3.86406 57.618 4.61855 58.0545L61.8437 91.1529C62.5976 91.5888 63.2092 92.7589 63.2092 93.7655C63.2092 94.7722 62.5976 95.2355 61.8437 94.7991ZM4.61855 65.7295L61.8437 98.828C62.5976 99.2638 63.2092 100.434 63.2092 101.441C63.2092 102.447 62.5976 102.911 61.8437 102.474L4.61855 69.3757C3.86461 68.9398 3.25304 67.7697 3.25304 66.7631C3.25304 65.7564 3.86406 65.2936 4.61855 65.7295Z" fill="#E0E0E0"/>
<g opacity="0.2">
<path d="M86.9574 125.813L4.73359 78.2534C4.38647 78.0527 4.10558 78.2156 4.10558 78.6169V98.2657C4.10558 98.667 4.38701 99.155 4.73359 99.3551L86.9574 146.915C87.3046 147.116 87.5854 146.953 87.5854 146.551V126.903C87.586 126.502 87.3046 126.014 86.9574 125.813Z" fill="black"/>
</g>
<path d="M0.368446 80.8542C0.56337 80.7671 0.824547 80.7928 1.10652 80.9568L82.3771 127.965C82.9865 128.32 83.4836 129.182 83.4836 129.889V148.52C83.4836 148.859 83.3709 149.105 83.1814 149.228C83.3709 149.104 85.0463 148.155 85.251 148.033C85.446 147.915 85.5686 147.668 85.5686 147.319V128.689C85.5686 127.981 85.0715 127.119 84.4571 126.765L3.19147 79.7511C2.87883 79.5718 2.5974 79.5614 2.39755 79.6792C2.21797 79.7872 0.763214 80.613 0.368446 80.8542Z" fill="#188983"/>
<g opacity="0.2">
<path d="M0.368828 80.8544C0.763596 80.6132 2.21835 79.7874 2.39793 79.6794C2.59778 79.5615 2.87976 79.5714 3.19185 79.7512L84.4575 126.765C84.7641 126.941 85.0417 127.245 85.2427 127.592L83.1599 128.796C82.9595 128.448 82.6825 128.143 82.3775 127.966L1.1069 80.9569C0.824928 80.793 0.563744 80.7672 0.368828 80.8544Z" fill="white"/>
</g>
<path d="M82.3768 127.966L1.10838 80.9569C0.495712 80.6027 -0.000892639 80.89 -0.000892639 81.5984V100.23C-0.000892639 100.938 0.495712 101.8 1.10838 102.154L82.3768 149.163C82.9895 149.517 83.4861 149.23 83.4861 148.522V129.89C83.4861 129.182 82.9895 128.32 82.3768 127.966Z" fill="#FAFAFA"/>
<path d="M83.1599 128.796L85.2427 127.592C85.4447 127.941 85.5696 128.334 85.5696 128.689V147.319C85.5696 147.668 85.4464 147.915 85.252 148.033C85.0472 148.156 83.3718 149.105 83.1824 149.228C83.3718 149.105 83.4846 148.858 83.4846 148.52V129.89C83.4841 129.537 83.3598 129.145 83.1599 128.796Z" fill="#188983"/>
<path opacity="0.15" d="M83.1599 128.796L85.2427 127.592C85.4447 127.941 85.5696 128.334 85.5696 128.689V147.319C85.5696 147.668 85.4464 147.915 85.252 148.033C85.0472 148.156 83.3718 149.105 83.1824 149.228C83.3718 149.105 83.4846 148.858 83.4846 148.52V129.89C83.4841 129.537 83.3598 129.145 83.1599 128.796Z" fill="black"/>
<path d="M0.614342 81.3183C0.515793 81.3183 0.513054 81.5694 0.513054 81.5985V100.23C0.513054 100.755 0.911644 101.447 1.36608 101.71L82.6345 148.719C82.7637 148.794 82.8448 148.802 82.8738 148.802C82.9723 148.802 82.9751 148.551 82.9751 148.522V129.89C82.9751 129.365 82.5765 128.674 82.122 128.41L0.8536 81.4011C0.724388 81.3266 0.643364 81.3183 0.614342 81.3183ZM0.614342 80.8057C0.763268 80.8057 0.931908 80.8545 1.10985 80.9575L82.3783 127.967C82.9909 128.321 83.4875 129.182 83.4875 129.891V148.522C83.4875 149.025 83.2379 149.315 82.8738 149.315C82.7249 149.315 82.5562 149.266 82.3783 149.163L1.10985 102.154C0.497177 101.8 0.000572205 100.939 0.000572205 100.23V81.5985C0.000572205 81.0957 0.250793 80.8057 0.614342 80.8057Z" fill="#188983"/>
<path d="M67.83 126.357C66.7257 126.995 66.0429 128.364 66.0429 130.313C66.0429 134.209 68.7751 138.948 72.1445 140.896C73.8292 141.87 75.3546 141.962 76.459 141.324C77.1297 140.936 77.7341 140.587 78.4043 140.199C79.5086 139.561 80.1914 138.192 80.1914 136.243C80.1914 132.346 77.4593 127.608 74.0893 125.66C72.4046 124.685 70.8792 124.593 69.7748 125.232C69.1047 125.62 68.5002 125.969 67.83 126.357Z" fill="#188983"/>
<path opacity="0.2" d="M67.83 126.357C66.7257 126.995 66.0429 128.364 66.0429 130.313C66.0429 134.209 68.7751 138.948 72.1445 140.896C73.8292 141.87 75.3546 141.962 76.459 141.324C77.1297 140.936 77.7341 140.587 78.4043 140.199C79.5086 139.561 80.1914 138.192 80.1914 136.243C80.1914 132.346 77.4593 127.608 74.0893 125.66C72.4046 124.685 70.8792 124.593 69.7748 125.232C69.1047 125.62 68.5002 125.969 67.83 126.357Z" fill="black"/>
<path d="M72.1448 140.896C73.8295 141.871 75.3549 141.963 76.4592 141.324C77.5636 140.686 78.2463 139.317 78.2463 137.368C78.2463 133.471 75.5142 128.733 72.1448 126.784C70.4601 125.81 68.9341 125.718 67.8303 126.357C66.726 126.995 66.0432 128.364 66.0432 130.313C66.0432 134.209 68.7748 138.948 72.1448 140.896Z" fill="#188983"/>
<path d="M61.8437 124.723L4.61855 91.625C3.86461 91.1891 3.25304 90.019 3.25304 89.0123C3.25304 88.0051 3.86406 87.5424 4.61855 87.9788L61.8437 121.077C62.5976 121.513 63.2092 122.683 63.2092 123.69C63.2092 124.697 62.5976 125.159 61.8437 124.723ZM4.61855 95.6533L61.8437 128.752C62.5976 129.188 63.2092 130.358 63.2092 131.364C63.2092 132.371 62.5976 132.834 61.8437 132.398L4.61855 99.2995C3.86461 98.8636 3.25304 97.6935 3.25304 96.6868C3.25304 95.6802 3.86406 95.2174 4.61855 95.6533Z" fill="#E0E0E0"/>
<g opacity="0.2">
<path d="M86.9574 155.737L4.73359 108.178C4.38647 107.977 4.10558 108.14 4.10558 108.541V128.19C4.10558 128.591 4.38701 129.079 4.73359 129.28L86.9574 176.84C87.3046 177.04 87.5854 176.878 87.5854 176.476V156.827C87.586 156.426 87.3046 155.938 86.9574 155.737Z" fill="black"/>
</g>
<path d="M0.368446 110.779C0.56337 110.692 0.824547 110.718 1.10652 110.882L82.3771 157.89C82.9865 158.244 83.4836 159.106 83.4836 159.814V178.445C83.4836 178.783 83.3709 179.03 83.1814 179.153C83.3709 179.029 85.0463 178.08 85.251 177.957C85.446 177.839 85.5686 177.593 85.5686 177.244V158.613C85.5686 157.906 85.0715 157.044 84.4571 156.689L3.19147 109.676C2.87883 109.497 2.5974 109.486 2.39755 109.604C2.21797 109.712 0.763214 110.538 0.368446 110.779Z" fill="#188983"/>
<g opacity="0.2">
<path d="M0.368828 110.779C0.763596 110.538 2.21835 109.712 2.39793 109.604C2.59778 109.486 2.87976 109.496 3.19185 109.676L84.4575 156.69C84.7641 156.866 85.0417 157.169 85.2427 157.517L83.1599 158.721C82.9595 158.372 82.6825 158.068 82.3775 157.89L1.1069 110.882C0.824928 110.718 0.563744 110.692 0.368828 110.779Z" fill="white"/>
</g>
<path d="M82.3768 157.891L1.10838 110.882C0.495712 110.528 -0.000892639 110.815 -0.000892639 111.524V130.155C-0.000892639 130.864 0.495712 131.725 1.10838 132.079L82.3768 179.088C82.9895 179.443 83.4861 179.155 83.4861 178.447V159.815C83.4861 159.107 82.9895 158.246 82.3768 157.891Z" fill="#FAFAFA"/>
<path d="M83.1599 158.722L85.2427 157.518C85.4447 157.866 85.5696 158.259 85.5696 158.614V177.245C85.5696 177.593 85.4464 177.84 85.252 177.958C85.0472 178.081 83.3718 179.031 83.1824 179.153C83.3718 179.03 83.4846 178.784 83.4846 178.445V159.815C83.4841 159.461 83.3598 159.069 83.1599 158.722Z" fill="#188983"/>
<path opacity="0.15" d="M83.1599 158.722L85.2427 157.518C85.4447 157.866 85.5696 158.259 85.5696 158.614V177.245C85.5696 177.593 85.4464 177.84 85.252 177.958C85.0472 178.081 83.3718 179.031 83.1824 179.153C83.3718 179.03 83.4846 178.784 83.4846 178.445V159.815C83.4841 159.461 83.3598 159.069 83.1599 158.722Z" fill="black"/>
<path d="M0.614342 111.243C0.515793 111.243 0.513054 111.494 0.513054 111.523V130.155C0.513054 130.68 0.911644 131.372 1.36608 131.635L82.6345 178.644C82.7637 178.719 82.8448 178.727 82.8738 178.727C82.9723 178.727 82.9751 178.476 82.9751 178.447V159.815C82.9751 159.29 82.5765 158.598 82.122 158.335L0.8536 111.326C0.724388 111.251 0.643364 111.243 0.614342 111.243ZM0.614342 110.73C0.763268 110.73 0.931908 110.779 1.10985 110.882L82.3783 157.891C82.9909 158.245 83.4875 159.107 83.4875 159.815V178.447C83.4875 178.949 83.2379 179.24 82.8738 179.24C82.7249 179.24 82.5562 179.191 82.3783 179.088L1.10985 132.078C0.497177 131.724 0.000572205 130.863 0.000572205 130.154V111.523C0.000572205 111.021 0.250793 110.73 0.614342 110.73Z" fill="#188983"/>
<path d="M67.83 156.281C66.7257 156.92 66.0429 158.289 66.0429 160.237C66.0429 164.134 68.7751 168.872 72.1445 170.821C73.8292 171.795 75.3546 171.887 76.459 171.249C77.1297 170.862 77.7341 170.512 78.4043 170.125C79.5086 169.486 80.1914 168.117 80.1914 166.169C80.1914 162.272 77.4593 157.534 74.0893 155.585C72.4046 154.611 70.8792 154.519 69.7748 155.157C69.1047 155.544 68.5002 155.894 67.83 156.281Z" fill="#188983"/>
<path opacity="0.2" d="M67.83 156.281C66.7257 156.92 66.0429 158.289 66.0429 160.237C66.0429 164.134 68.7751 168.872 72.1445 170.821C73.8292 171.795 75.3546 171.887 76.459 171.249C77.1297 170.862 77.7341 170.512 78.4043 170.125C79.5086 169.486 80.1914 168.117 80.1914 166.169C80.1914 162.272 77.4593 157.534 74.0893 155.585C72.4046 154.611 70.8792 154.519 69.7748 155.157C69.1047 155.544 68.5002 155.894 67.83 156.281Z" fill="black"/>
<path d="M72.1448 170.821C73.8295 171.795 75.3549 171.887 76.4592 171.248C77.5636 170.61 78.2463 169.241 78.2463 167.292C78.2463 163.396 75.5142 158.657 72.1448 156.709C70.4601 155.734 68.9341 155.642 67.8303 156.28C66.726 156.919 66.0432 158.288 66.0432 160.236C66.0432 164.134 68.7748 168.873 72.1448 170.821Z" fill="#188983"/>
<path d="M61.8437 154.647L4.61855 121.549C3.86461 121.113 3.25304 119.943 3.25304 118.936C3.25304 117.93 3.86406 117.467 4.61855 117.903L61.8437 151.001C62.5976 151.437 63.2092 152.607 63.2092 153.614C63.2092 154.621 62.5976 155.083 61.8437 154.647ZM4.61855 125.578L61.8437 158.676C62.5976 159.112 63.2092 160.282 63.2092 161.289C63.2092 162.296 62.5976 162.759 61.8437 162.322L4.61855 129.224C3.86461 128.788 3.25304 127.618 3.25304 126.611C3.25304 125.605 3.86406 125.141 4.61855 125.578Z" fill="#E0E0E0"/>
<g opacity="0.2">
<path d="M86.9574 185.661L4.73359 138.102C4.38647 137.901 4.10558 138.064 4.10558 138.465V158.114C4.10558 158.515 4.38701 159.003 4.73359 159.204L86.9574 206.764C87.3046 206.964 87.5854 206.801 87.5854 206.4V186.751C87.586 186.349 87.3046 185.862 86.9574 185.661Z" fill="black"/>
</g>
<path d="M0.368446 140.702C0.56337 140.615 0.824547 140.641 1.10652 140.805L82.3771 187.814C82.9865 188.168 83.4836 189.03 83.4836 189.738V208.368C83.4836 208.707 83.3709 208.953 83.1814 209.076C83.3709 208.953 85.0463 208.003 85.251 207.881C85.446 207.763 85.5686 207.517 85.5686 207.167V188.537C85.5686 187.829 85.0715 186.967 84.4571 186.613L3.19147 139.599C2.87883 139.42 2.5974 139.41 2.39755 139.527C2.21797 139.635 0.763214 140.461 0.368446 140.702Z" fill="#188983"/>
<g opacity="0.2">
<path d="M0.368828 140.703C0.763596 140.461 2.21835 139.636 2.39793 139.528C2.59778 139.41 2.87976 139.42 3.19185 139.599L84.4575 186.613C84.7641 186.79 85.0417 187.093 85.2427 187.44L83.1599 188.644C82.9595 188.296 82.6825 187.991 82.3775 187.814L1.1069 140.805C0.824928 140.641 0.563744 140.615 0.368828 140.703Z" fill="white"/>
</g>
<path d="M82.3768 187.814L1.10838 140.805C0.495712 140.451 -0.000892639 140.738 -0.000892639 141.447V160.078C-0.000892639 160.787 0.495712 161.648 1.10838 162.002L82.3768 209.011C82.9895 209.366 83.4861 209.078 83.4861 208.37V189.739C83.4861 189.03 82.9895 188.168 82.3768 187.814Z" fill="#FAFAFA"/>
<path d="M83.1599 188.644L85.2427 187.44C85.4447 187.789 85.5696 188.182 85.5696 188.537V207.168C85.5696 207.516 85.4464 207.762 85.252 207.881C85.0472 208.004 83.3718 208.953 83.1824 209.076C83.3718 208.953 83.4846 208.707 83.4846 208.368V189.738C83.4841 189.384 83.3598 188.992 83.1599 188.644Z" fill="#188983"/>
<path opacity="0.15" d="M83.1599 188.644L85.2427 187.44C85.4447 187.789 85.5696 188.182 85.5696 188.537V207.168C85.5696 207.516 85.4464 207.762 85.252 207.881C85.0472 208.004 83.3718 208.953 83.1824 209.076C83.3718 208.953 83.4846 208.707 83.4846 208.368V189.738C83.4841 189.384 83.3598 188.992 83.1599 188.644Z" fill="black"/>
<path d="M0.614342 141.167C0.515793 141.167 0.513054 141.418 0.513054 141.447V160.078C0.513054 160.604 0.911644 161.295 1.36608 161.558L82.6345 208.567C82.7637 208.643 82.8448 208.65 82.8738 208.65C82.9723 208.65 82.9751 208.399 82.9751 208.37V189.739C82.9751 189.214 82.5765 188.522 82.122 188.259L0.8536 141.25C0.724388 141.175 0.643364 141.167 0.614342 141.167ZM0.614342 140.653C0.763268 140.653 0.931908 140.702 1.10985 140.805L82.3783 187.814C82.9909 188.169 83.4875 189.03 83.4875 189.738V208.37C83.4875 208.872 83.2379 209.162 82.8738 209.162C82.7249 209.162 82.5562 209.114 82.3783 209.01L1.10985 162.001C0.497177 161.647 0.000572205 160.786 0.000572205 160.077V141.446C0.000572205 140.944 0.250793 140.653 0.614342 140.653Z" fill="#188983"/>
<path d="M67.83 186.205C66.7257 186.843 66.0429 188.212 66.0429 190.161C66.0429 194.058 68.7751 198.796 72.1445 200.744C73.8292 201.718 75.3546 201.811 76.459 201.172C77.1297 200.785 77.7341 200.435 78.4043 200.048C79.5086 199.41 80.1914 198.04 80.1914 196.092C80.1914 192.195 77.4593 187.457 74.0893 185.508C72.4046 184.534 70.8792 184.442 69.7748 185.08C69.1047 185.468 68.5002 185.817 67.83 186.205Z" fill="#188983"/>
<path opacity="0.2" d="M67.83 186.205C66.7257 186.843 66.0429 188.212 66.0429 190.161C66.0429 194.058 68.7751 198.796 72.1445 200.744C73.8292 201.718 75.3546 201.811 76.459 201.172C77.1297 200.785 77.7341 200.435 78.4043 200.048C79.5086 199.41 80.1914 198.04 80.1914 196.092C80.1914 192.195 77.4593 187.457 74.0893 185.508C72.4046 184.534 70.8792 184.442 69.7748 185.08C69.1047 185.468 68.5002 185.817 67.83 186.205Z" fill="black"/>
<path d="M72.1448 200.744C73.8295 201.719 75.3549 201.811 76.4592 201.172C77.5636 200.534 78.2463 199.165 78.2463 197.216C78.2463 193.319 75.5142 188.581 72.1448 186.632C70.4601 185.658 68.9341 185.566 67.8303 186.205C66.726 186.843 66.0432 188.212 66.0432 190.161C66.0432 194.057 68.7748 198.796 72.1448 200.744Z" fill="#188983"/>
<path d="M61.8437 184.572L4.61855 151.473C3.86461 151.037 3.25304 149.867 3.25304 148.86C3.25304 147.853 3.86406 147.391 4.61855 147.827L61.8437 180.925C62.5976 181.361 63.2092 182.531 63.2092 183.538C63.2092 184.545 62.5976 185.007 61.8437 184.572ZM4.61855 155.501L61.8437 188.6C62.5976 189.036 63.2092 190.206 63.2092 191.213C63.2092 192.219 62.5976 192.682 61.8437 192.246L4.61855 159.148C3.86461 158.712 3.25304 157.542 3.25304 156.535C3.25304 155.528 3.86406 155.066 4.61855 155.501Z" fill="#E0E0E0"/>
</g>
</svg>
