<svg width="166" height="188" viewBox="0 0 166 188" fill="none" xmlns="http://www.w3.org/2000/svg">
<g id="Calendar" opacity="0.5">
<g id="Calendar_2_">
<g id="Group">
<path id="XMLID_2195_" d="M164.608 164.806C165.252 164.433 165.633 163.503 165.457 162.729L145.116 72.4743C144.942 71.7 144.244 70.7501 143.558 70.3531L22.5306 0.31122C21.845 -0.085806 20.7664 -0.105578 20.1234 0.266931C19.4796 0.639439 19.0993 1.56873 19.2744 2.3438L39.6157 92.5984C39.79 93.3727 40.4875 94.3226 41.1739 94.7196L162.201 164.761C162.887 165.158 163.965 165.178 164.608 164.806Z" fill="#188983"/>
<path id="XMLID_2174_" opacity="0.8" d="M164.608 164.806C165.252 164.433 165.633 163.503 165.457 162.729L145.116 72.4743C144.942 71.7 144.244 70.7501 143.558 70.3531L22.5306 0.31122C21.845 -0.085806 20.7664 -0.105578 20.1234 0.266931C19.4796 0.639439 19.0993 1.56873 19.2744 2.3438L39.6157 92.5984C39.79 93.3727 40.4875 94.3226 41.1739 94.7196L162.201 164.761C162.887 165.158 163.965 165.178 164.608 164.806Z" fill="#373636"/>
<path id="XMLID_2168_" d="M142.785 73.8226L163.126 164.077C163.3 164.852 162.886 165.158 162.199 164.761L41.1722 94.7179C40.4858 94.3208 39.7883 93.371 39.6139 92.5967L19.2727 2.34204C19.0983 1.56775 19.5126 1.26168 20.199 1.65871L141.227 71.7014C141.913 72.0984 142.61 73.0483 142.785 73.8226Z" fill="#188983"/>
<path id="XMLID_2149_" opacity="0.6" d="M142.785 73.8226L163.126 164.077C163.3 164.852 162.886 165.158 162.199 164.761L41.1722 94.7179C40.4858 94.3208 39.7883 93.371 39.6139 92.5967L19.2727 2.34204C19.0983 1.56775 19.5126 1.26168 20.199 1.65871L141.227 71.7014C141.913 72.0984 142.61 73.0483 142.785 73.8226Z" fill="#373636"/>
<path id="XMLID_2148_" opacity="0.05" d="M142.785 73.8226L163.126 164.077C163.3 164.852 162.886 165.158 162.199 164.761L41.1722 94.7179C40.4858 94.3208 39.7883 93.371 39.6139 92.5967L19.2727 2.34204C19.0983 1.56775 19.5126 1.26168 20.199 1.65871L141.227 71.7014C141.913 72.0984 142.61 73.0483 142.785 73.8226Z" fill="black"/>
</g>
<g id="Group_2">
<g id="Group_3">
<path id="XMLID_2147_" d="M17.7936 1.61459C18.4374 1.24208 19.5152 1.26185 20.2016 1.65888L141.229 71.7016C141.914 72.0986 142.38 73.0579 142.269 73.8441L126.36 185.635C126.248 186.422 125.636 187.36 124.993 187.733C124.35 188.105 123.272 188.086 122.586 187.689L1.55754 117.646C0.871902 117.249 0.406387 116.29 0.517639 115.504L16.4255 3.71281C16.5375 2.92667 17.1506 1.9871 17.7936 1.61459Z" fill="#188983"/>
<path id="XMLID_2145_" opacity="0.8" d="M17.7936 1.61459C18.4374 1.24208 19.5152 1.26185 20.2016 1.65888L141.229 71.7016C141.914 72.0986 142.38 73.0579 142.269 73.8441L126.36 185.635C126.248 186.422 125.636 187.36 124.993 187.733C124.35 188.105 123.272 188.086 122.586 187.689L1.55754 117.646C0.871902 117.249 0.406387 116.29 0.517639 115.504L16.4255 3.71281C16.5375 2.92667 17.1506 1.9871 17.7936 1.61459Z" fill="#373636"/>
</g>
<g id="Group_4">
<path id="XMLID_2143_" d="M139.936 75.1924L124.029 186.984C123.917 187.77 123.27 188.085 122.584 187.688L1.556 117.646C0.870346 117.249 0.404846 116.289 0.516098 115.504L16.4239 3.71266C16.536 2.92652 17.1829 2.61095 17.8686 3.00797L138.897 73.0499C139.583 73.4469 140.049 74.4063 139.936 75.1924Z" fill="#188983"/>
<path id="XMLID_2141_" opacity="0.95" d="M139.936 75.1924L124.029 186.984C123.917 187.77 123.27 188.085 122.584 187.688L1.556 117.646C0.870346 117.249 0.404846 116.289 0.516098 115.504L16.4239 3.71266C16.536 2.92652 17.1829 2.61095 17.8686 3.00797L138.897 73.0499C139.583 73.4469 140.049 74.4063 139.936 75.1924Z" fill="#373636"/>
</g>
</g>
<g id="Group_5">
<g id="Group_6">
<path id="Vector" d="M131.116 152.169L145.327 160.388H145.333C145.629 160.32 145.931 160.304 146.208 160.357L162.971 163.594C162.987 163.599 162.997 163.599 163.002 163.599H163.018L132.044 145.663L131.116 152.169Z" fill="#188983"/>
<path id="Vector_2" opacity="0.5" d="M131.116 152.169L145.327 160.388H145.333C145.629 160.32 145.931 160.304 146.208 160.357L162.971 163.594C162.987 163.599 162.997 163.599 163.002 163.599H163.018L132.044 145.663L131.116 152.169Z" fill="#373636"/>
<path id="Vector_3" opacity="0.2" d="M131.116 152.169L145.327 160.388H145.333C145.629 160.32 145.931 160.304 146.208 160.357L162.971 163.594C162.987 163.599 162.997 163.599 163.002 163.599H163.018L132.044 145.663L131.116 152.169Z" fill="black"/>
</g>
<g id="Group_7">
<path id="Vector_4" d="M126.482 184.763L143.943 161.182C144.24 160.785 144.74 160.482 145.267 160.351L131.118 152.169L126.482 184.763Z" fill="#188983"/>
<path id="Vector_5" opacity="0.6" d="M126.482 184.763L143.943 161.182C144.24 160.785 144.74 160.482 145.267 160.351L131.118 152.169L126.482 184.763Z" fill="#373636"/>
<path id="Vector_6" opacity="0.1" d="M126.482 184.763L143.943 161.182C144.24 160.785 144.74 160.482 145.267 160.351L131.118 152.169L126.482 184.763Z" fill="black"/>
</g>
<g id="Group_8">
<path id="XMLID_2139_" d="M127.031 185.864L143.925 163.866C144.408 163.237 145.435 162.819 146.219 162.932L162.023 165.219C162.807 165.332 163.965 165.122 164.608 164.75C165.251 164.377 165.142 163.953 164.365 163.804L146.208 160.301C145.43 160.151 144.417 160.546 143.945 161.184L124.681 187.197C124.208 187.834 124.347 188.049 124.991 187.677C125.634 187.305 126.547 186.493 127.031 185.864Z" fill="#188983"/>
<path id="XMLID_2138_" opacity="0.8" d="M127.031 185.864L143.925 163.866C144.408 163.237 145.435 162.819 146.219 162.932L162.023 165.219C162.807 165.332 163.965 165.122 164.608 164.75C165.251 164.377 165.142 163.953 164.365 163.804L146.208 160.301C145.43 160.151 144.417 160.546 143.945 161.184L124.681 187.197C124.208 187.834 124.347 188.049 124.991 187.677C125.634 187.305 126.547 186.493 127.031 185.864Z" fill="#373636"/>
</g>
</g>
<g id="XMLID_2107_">
<path id="XMLID_2136_" d="M19.2356 1.898C19.2475 1.24236 19.597 0.563783 20.1193 0.264828C20.7679 -0.102936 21.8401 -0.0863281 22.5289 0.310698L143.557 70.3549C143.89 70.5448 144.223 70.8722 144.504 71.2408C144.796 71.6315 145.026 72.0807 145.118 72.4769L147.986 85.2268L145.656 86.5674L22.1447 15.0885L19.2719 2.34328C19.2348 2.17719 19.2372 2.03404 19.2356 1.898Z" fill="#188983"/>
<path id="XMLID_2135_" opacity="0.6" d="M19.2732 2.34252C19.0988 1.56824 19.5131 1.26217 20.1995 1.6592L141.227 71.7011C141.913 72.0981 142.611 73.048 142.785 73.8223L145.658 86.5674L22.146 15.0877L19.2732 2.34252Z" fill="black"/>
<path id="XMLID_2133_" opacity="0.5" d="M142.177 72.5919C142.469 72.9825 142.699 73.4254 142.785 73.8225L145.658 86.5677L147.988 85.2263L145.119 72.4764C145.027 72.0794 144.798 71.6309 144.506 71.2402L142.177 72.5919Z" fill="black"/>
<path id="XMLID_2132_" opacity="0.2" d="M19.2375 1.89753C19.2951 1.46649 19.6675 1.35102 20.2017 1.66184L141.23 71.7006C141.563 71.8904 141.902 72.2178 142.177 72.5919L144.506 71.2403C144.225 70.8725 143.893 70.5443 143.56 70.3545L22.5308 0.31021C21.842 -0.0868164 20.7697 -0.103424 20.1212 0.264339C19.5996 0.563295 19.2493 1.24188 19.2375 1.89753Z" fill="black"/>
</g>
<g id="XMLID_2097_">
<path id="XMLID_2104_" d="M16.2783 4.78357L16.2743 4.78119L16.4266 3.7127C16.4337 3.66208 16.4487 3.60909 16.4597 3.55769C16.4629 3.54345 16.4645 3.52763 16.4684 3.51418L16.47 3.51102C16.6467 2.77233 17.2053 1.95692 17.7947 1.61605C18.4385 1.24354 19.5163 1.26332 20.202 1.66034L141.229 71.7015C141.581 71.9055 141.874 72.2574 142.061 72.6576L142.063 72.66C142.241 73.0396 142.321 73.4596 142.27 73.8448L139.986 89.8611L137.657 91.2127L14.144 19.7369L16.2783 4.78357Z" fill="#188983"/>
<path id="Vector_7" opacity="0.2" d="M14.1436 19.7372L137.657 91.2121L139.939 75.1919C139.991 74.8107 139.913 74.3876 139.73 74.0064C139.543 73.6046 139.246 73.2542 138.897 73.051L17.8677 3.00829C17.2633 2.65318 16.6905 2.86198 16.4822 3.4678C16.4767 3.48362 16.472 3.49944 16.4664 3.51525C16.4664 3.52553 16.4609 3.54135 16.4609 3.55717C16.4451 3.60936 16.4349 3.66157 16.4246 3.71377L16.2739 4.7791L16.2794 4.78463L14.1436 19.7372Z" fill="black"/>
<path id="XMLID_2103_" opacity="0.5" d="M137.657 91.2128L139.986 89.8612L142.27 73.8449C142.322 73.4598 142.241 73.0398 142.063 72.6602L139.728 74.0063C139.912 74.3859 139.992 74.8114 139.94 75.191L137.657 91.2128Z" fill="black"/>
<path id="XMLID_2099_" opacity="0.3" d="M16.4687 3.51357C16.6581 2.87532 17.2491 2.64517 17.8684 3.0074L138.897 73.0517C139.248 73.2534 139.546 73.6037 139.729 74.0063L142.063 72.6602C141.874 72.2576 141.581 71.9073 141.232 71.7L20.2031 1.66131C19.5151 1.26429 18.4357 1.24135 17.7935 1.61544C17.2025 1.96106 16.6407 2.77172 16.4687 3.51357Z" fill="black"/>
</g>
<g id="Group_9">
<g id="Group_10" opacity="0.2">
<path id="XMLID_2095_" d="M128.841 75.3228C129.037 73.9466 128.153 72.2272 126.867 71.4822C125.581 70.7372 124.379 71.2497 124.184 72.6258C123.988 74.002 124.872 75.7214 126.158 76.4664C127.444 77.2106 128.645 76.6989 128.841 75.3228Z" fill="black"/>
<path id="XMLID_2094_" d="M112.514 65.876C112.71 64.4998 111.826 62.7804 110.54 62.0354C109.254 61.2904 108.052 61.8029 107.856 63.1791C107.661 64.5552 108.544 66.2746 109.83 67.0196C111.117 67.7646 112.317 67.2521 112.514 65.876Z" fill="black"/>
<path id="XMLID_2092_" d="M96.2136 56.4395C96.4093 55.0633 95.5256 53.3439 94.2395 52.5989C92.9534 51.8539 91.7518 52.3664 91.5561 53.7425C91.3604 55.1187 92.2441 56.8381 93.5302 57.5831C94.8163 58.3281 96.0179 57.8164 96.2136 56.4395Z" fill="black"/>
<path id="XMLID_2091_" d="M63.5949 37.5625C63.7906 36.1864 62.9069 34.467 61.6209 33.7219C60.3348 32.9769 59.1331 33.4894 58.9375 34.8656C58.7418 36.2417 59.6255 37.9611 60.9115 38.7061C62.1976 39.4511 63.3993 38.9387 63.5949 37.5625Z" fill="black"/>
<path id="XMLID_2090_" d="M47.2668 28.1167C47.4625 26.7406 46.5788 25.0212 45.2927 24.2761C44.0067 23.5311 42.805 24.0436 42.6093 25.4198C42.4137 26.7959 43.2974 28.5153 44.5834 29.2603C45.8695 30.0046 47.0711 29.4929 47.2668 28.1167Z" fill="black"/>
<path id="XMLID_2089_" d="M30.967 18.6797C31.1627 17.3035 30.279 15.5834 28.9929 14.8391C27.7069 14.0941 26.5052 14.6066 26.3095 15.9828C26.1139 17.3589 26.9975 19.0783 28.2836 19.8233C29.5697 20.5675 30.7713 20.0558 30.967 18.6797Z" fill="black"/>
</g>
<g id="Group_11">
<path id="Vector_8" d="M123.896 70.3931C123.896 70.8787 123.938 71.3541 124.021 71.808C124.067 72.0532 124.125 72.2937 124.198 72.5183C124.546 73.6935 125.213 74.5865 126.146 75.1243C126.76 75.4849 127.453 75.6676 128.209 75.6676C128.397 75.6676 128.584 75.6573 128.777 75.6312C128.803 75.5323 128.824 75.4327 128.839 75.3235C128.923 74.728 128.803 74.0652 128.537 73.4491C128.042 73.5116 127.605 73.4333 127.24 73.2245C126.506 72.7967 126.229 71.8982 126.135 71.188C126.125 71.1516 126.125 71.12 126.12 71.0891C126.099 70.8859 126.083 70.6557 126.083 70.3947C126.083 68.3685 126.943 66.0709 128.261 64.1965C128.73 63.533 129.251 62.928 129.808 62.4004C130.303 61.9409 130.819 61.5439 131.36 61.2307C132.553 60.5521 133.647 60.4003 134.387 60.8234C135.137 61.2568 135.548 62.2644 135.548 63.6532C135.548 64.259 135.465 64.9068 135.308 65.5853L137.267 66.7187L137.303 66.5882C137.589 65.5592 137.735 64.573 137.735 63.654C137.735 61.445 136.933 59.7636 135.48 58.9229C134.032 58.0822 132.182 58.2285 130.265 59.3357C129.416 59.8269 128.603 60.4896 127.859 61.2726C127.332 61.8318 126.832 62.4479 126.385 63.1107C124.875 65.3338 123.896 68.0173 123.896 70.3931Z" fill="#263238"/>
<path id="Vector_9" d="M107.569 60.9476C107.569 61.4332 107.611 61.9085 107.689 62.3625C107.736 62.6132 107.793 62.8584 107.866 63.0885C108.22 64.2527 108.887 65.1409 109.82 65.6787C110.429 66.0393 111.127 66.222 111.883 66.222C112.065 66.222 112.253 66.2118 112.44 66.1857C112.472 66.0915 112.492 65.9871 112.508 65.878C112.591 65.2825 112.476 64.6197 112.211 64.0036C111.711 64.0613 111.274 63.9878 110.914 63.779C110.174 63.3511 109.903 62.4527 109.809 61.7424C109.804 61.7108 109.799 61.6744 109.794 61.6436C109.768 61.4395 109.757 61.2157 109.757 60.9492C109.757 58.9229 110.617 56.6254 111.935 54.751C112.399 54.0874 112.92 53.4769 113.482 52.9549C113.972 52.4954 114.493 52.0983 115.034 51.7852C116.222 51.1066 117.321 50.9547 118.061 51.3778C118.806 51.8112 119.222 52.8141 119.222 54.2076C119.222 54.8079 119.139 55.4557 118.978 56.1342L120.941 57.2676L120.978 57.1371C121.264 56.1137 121.41 55.1266 121.41 54.2076C121.41 51.9987 120.608 50.3173 119.15 49.4765C117.707 48.6358 115.852 48.7822 113.941 49.8839C113.086 50.3797 112.274 51.0433 111.534 51.8263C111.003 52.3846 110.508 53.0063 110.06 53.6643C108.543 55.8883 107.569 58.5718 107.569 60.9476Z" fill="#263238"/>
<path id="Vector_10" d="M91.272 51.5123C91.272 51.9979 91.3138 52.4732 91.3919 52.9272C91.4392 53.1779 91.496 53.4183 91.5686 53.6477C91.9229 54.8174 92.5896 55.7048 93.5222 56.2426C94.1313 56.6032 94.8296 56.7859 95.5846 56.7859C95.7669 56.7859 95.9547 56.7757 96.1425 56.7496C96.174 56.6554 96.1945 56.551 96.2103 56.4411C96.2939 55.8456 96.1795 55.1828 95.9136 54.5667C95.4134 54.6244 94.9763 54.5509 94.6165 54.3421C93.8717 53.9142 93.6011 53.0102 93.5119 52.3008C93.5017 52.2692 93.5017 52.2383 93.4961 52.2067C93.4701 52.0026 93.4599 51.7733 93.4599 51.5123C93.4599 49.486 94.3191 47.194 95.6375 45.3196C96.1014 44.6561 96.6222 44.0455 97.1847 43.518C97.6739 43.0585 98.1954 42.6614 98.7367 42.3482C99.9241 41.6697 101.023 41.5178 101.763 41.9409C102.508 42.3743 102.925 43.3772 102.925 44.7707C102.925 45.3766 102.841 46.0235 102.685 46.7029L104.643 47.8362L104.679 47.7002C104.966 46.6768 105.112 45.6898 105.112 44.7707C105.112 42.5618 104.309 40.8804 102.856 40.0397C101.407 39.1989 99.5533 39.3452 97.6416 40.4517C96.7926 40.9428 95.9799 41.6056 95.2351 42.3886C94.7041 42.9469 94.2086 43.5638 93.7557 44.2266C92.2456 46.4522 91.272 49.1365 91.272 51.5123Z" fill="#263238"/>
<path id="Vector_11" d="M58.6451 32.6625C58.6451 33.1426 58.6814 33.6235 58.765 34.0774C58.8123 34.3337 58.8692 34.5733 58.9425 34.8082C59.2968 35.9677 59.9635 36.855 60.8961 37.3928C61.5052 37.748 62.1987 37.9306 62.9538 37.9306C63.1416 37.9306 63.3286 37.9204 63.5164 37.8943C63.5479 37.7899 63.574 37.6799 63.589 37.5653C63.6718 36.9753 63.5574 36.3228 63.3025 35.7114C62.7976 35.7739 62.355 35.7011 61.9849 35.4923C61.2401 35.0589 60.9695 34.1455 60.8803 33.4242C60.8748 33.3981 60.8748 33.3775 60.8701 33.3514C60.844 33.1529 60.8338 32.9235 60.8338 32.6625C60.8338 30.626 61.6985 28.3237 63.0217 26.4438C63.4903 25.781 64.0119 25.1752 64.5792 24.6477C65.0636 24.1984 65.5796 23.807 66.1106 23.4993C67.298 22.8152 68.3971 22.6689 69.1372 23.092C69.882 23.5199 70.2939 24.5282 70.2939 25.9218C70.2939 26.5118 70.2213 27.1492 70.0651 27.8223L72.0234 28.9556L72.0549 28.8512C72.3413 27.8223 72.4873 26.8361 72.4873 25.9218C72.4873 23.7081 71.6849 22.0314 70.2268 21.1907C68.779 20.35 66.9296 20.4908 65.0178 21.598C64.1736 22.0836 63.3665 22.7416 62.6264 23.5199C62.0954 24.0782 61.5951 24.6951 61.147 25.3579C59.6242 27.5866 58.6451 30.2764 58.6451 32.6625Z" fill="#263238"/>
<path id="Vector_12" d="M42.3162 23.2109C42.3162 23.702 42.358 24.1774 42.4409 24.6313C42.4874 24.8876 42.545 25.1272 42.6184 25.3621C42.9727 26.5216 43.6394 27.4089 44.5664 27.942C45.1811 28.3018 45.8738 28.4853 46.6289 28.4853C46.8111 28.4853 47.0036 28.475 47.1914 28.4489C47.223 28.3445 47.249 28.2346 47.264 28.1144C47.3477 27.5244 47.2325 26.8767 46.9721 26.2661C46.4671 26.3286 46.0245 26.2558 45.6592 26.0415C44.9144 25.6136 44.6382 24.6993 44.5499 23.9788C44.5443 23.9528 44.5443 23.9314 44.5396 23.9061C44.5191 23.702 44.5033 23.4782 44.5033 23.2117C44.5033 21.1807 45.3681 18.8729 46.6959 16.9977C47.1646 16.3341 47.6853 15.7236 48.2479 15.196C48.7324 14.7468 49.2484 14.3553 49.7794 14.0469C50.9668 13.3683 52.0659 13.2164 52.806 13.6451C53.5563 14.073 53.9674 15.0813 53.9674 16.4749C53.9674 17.0649 53.8893 17.7016 53.733 18.3707L55.6969 19.5088L55.7229 19.4044C56.0093 18.3754 56.1553 17.3939 56.1553 16.4749C56.1553 14.2612 55.3529 12.5798 53.8995 11.7438C52.4517 10.8975 50.5968 11.0439 48.685 12.1511C47.8416 12.6422 47.0336 13.3003 46.3046 14.073H46.2991C45.7626 14.6313 45.2678 15.2482 44.8197 15.911C43.3009 18.1405 42.3162 20.8295 42.3162 23.2109Z" fill="#263238"/>
<path id="Vector_13" d="M26.0154 13.776C26.0154 14.2671 26.0572 14.7416 26.1409 15.1964C26.1874 15.4416 26.245 15.682 26.3176 15.9066C26.6663 17.0763 27.333 17.9692 28.2656 18.5126C28.8803 18.8677 29.573 19.0504 30.3289 19.0504C30.5111 19.0504 30.6989 19.0401 30.8859 19.014C30.9175 18.9096 30.9435 18.7949 30.9585 18.6795C31.0421 18.0895 30.9269 17.4417 30.6721 16.8312C30.1719 16.8936 29.7292 16.8209 29.3592 16.6065C28.6144 16.1787 28.3438 15.2644 28.2546 14.5439C28.2491 14.5178 28.2491 14.4972 28.2443 14.4711C28.2183 14.2671 28.2025 14.0433 28.2025 13.7767C28.2025 11.7457 29.0673 9.43792 30.3952 7.56273C30.8638 6.89917 31.3901 6.28861 31.9527 5.76662C32.4371 5.31265 32.9476 4.9259 33.4786 4.61746C34.6716 3.93334 35.7659 3.78703 36.5052 4.21015C37.2555 4.63802 37.6666 5.64641 37.6666 7.03995C37.6666 7.62996 37.5885 8.26662 37.4323 8.94046L39.3961 10.0738L39.4221 9.9694C39.7085 8.94046 39.8545 7.95422 39.8545 7.03995C39.8545 4.82626 39.0521 3.14958 37.5987 2.30886C36.1509 1.46815 34.3015 1.60892 32.3842 2.71617C31.54 3.20177 30.7384 3.85978 29.9983 4.63248C29.4673 5.19085 28.9671 5.8125 28.5189 6.47605C27.0001 8.70557 26.0154 11.3946 26.0154 13.776Z" fill="#263238"/>
</g>
</g>
<g id="XMLID_363_">
<g id="XMLID_2081_">
<g id="XMLID_2087_">
<path id="XMLID_2088_" d="M134.963 110.037L11.4601 38.6224L14.1458 19.7368L137.659 91.1596L134.963 110.037Z" fill="#188983"/>
</g>
<g id="XMLID_2084_" opacity="0.65">
<path id="XMLID_2085_" d="M134.963 110.037L11.4601 38.6217L14.1458 19.7368L137.659 91.1596L134.963 110.037Z" fill="#373636"/>
</g>
</g>
<g id="XMLID_1914_">
<g id="XMLID_2046_">
<path id="XMLID_2077_" d="M125.225 114.62C125.076 115.663 124.113 116.02 123.074 115.418L113.806 110.057C112.766 109.455 112.044 108.122 112.193 107.08C112.342 106.038 113.305 105.68 114.345 106.282L123.612 111.643C124.651 112.245 125.373 113.578 125.225 114.62Z" fill="#188983"/>
</g>
<g id="XMLID_2044_">
<path id="XMLID_2045_" d="M109.591 105.573C109.443 106.615 108.479 106.972 107.44 106.371L98.1718 101.009C97.1319 100.407 96.41 99.0746 96.5591 98.0322C96.7082 96.9898 97.6716 96.6323 98.7107 97.2342L107.978 102.596C109.017 103.197 109.739 104.53 109.591 105.573Z" fill="#188983"/>
</g>
<g id="XMLID_2038_">
<path id="XMLID_2043_" d="M93.9602 96.5252C93.8118 97.5676 92.8485 97.925 91.8094 97.3232L82.541 91.9617C81.5011 91.3599 80.7791 90.0272 80.9282 88.9848C81.0766 87.9424 82.0407 87.585 83.0799 88.1868L92.3475 93.5483C93.3866 94.1501 94.1085 95.4828 93.9602 96.5252Z" fill="#188983"/>
</g>
<g id="XMLID_1989_">
<path id="XMLID_1990_" d="M78.3254 87.4773C78.1771 88.5197 77.2137 88.8772 76.1746 88.2753L66.9062 82.9139C65.8671 82.3128 65.1444 80.9794 65.2935 79.937C65.4426 78.8946 66.406 78.5371 67.4451 79.139L76.7127 84.5004C77.751 85.1023 78.4738 86.4349 78.3254 87.4773Z" fill="#188983"/>
</g>
<g id="XMLID_1981_">
<path id="XMLID_1988_" d="M62.6914 78.4295C62.5431 79.4719 61.5797 79.8293 60.5406 79.2275L51.2722 73.866C50.2323 73.2642 49.5104 71.9315 49.6595 70.8891C49.8086 69.8467 50.772 69.4893 51.8111 70.0911L61.0779 75.4533C62.1178 76.0544 62.8406 77.3871 62.6914 78.4295Z" fill="#188983"/>
</g>
<g id="XMLID_1943_">
<path id="XMLID_1979_" d="M47.0617 69.3816C46.9134 70.424 45.95 70.7815 44.9101 70.1796L35.6417 64.8182C34.6018 64.2163 33.8799 62.8837 34.029 61.8413C34.1774 60.7989 35.1407 60.4414 36.1806 61.0433L45.4482 66.4047C46.4881 67.0066 47.2101 68.3392 47.0617 69.3816Z" fill="#188983"/>
</g>
<g id="XMLID_1915_">
<path id="XMLID_1922_" d="M31.4319 60.3338C31.2835 61.3761 30.3202 61.7336 29.2811 61.1318L20.0127 55.7703C18.9728 55.1685 18.2508 53.8358 18.3999 52.7934C18.5491 51.751 19.5124 51.3936 20.5515 51.9954L29.8191 57.3568C30.8575 57.9587 31.5802 59.2914 31.4319 60.3338Z" fill="#188983"/>
</g>
</g>
<g id="Group_12">
<g id="XMLID_1481_" opacity="0.17">
<g id="XMLID_1910_">
<path id="XMLID_1912_" d="M8.1183 114.729C8.3771 114.74 8.61222 114.569 8.64378 114.347L16.1937 61.4898C16.2253 61.2676 16.0422 61.0786 15.7835 61.0683C15.5247 61.058 15.2895 61.2289 15.258 61.4519L7.70803 114.309C7.67647 114.53 7.8603 114.719 8.1183 114.729Z" fill="#188983"/>
</g>
<g id="XMLID_1907_">
<path id="XMLID_1909_" d="M23.7572 123.781C24.0159 123.791 24.2511 123.621 24.2826 123.398L31.8334 70.5401C31.8649 70.3179 31.6819 70.1289 31.4231 70.1186C31.1643 70.1083 30.9292 70.2792 30.8976 70.5022L23.3469 123.36C23.3153 123.582 23.4984 123.771 23.7572 123.781Z" fill="#188983"/>
</g>
<g id="XMLID_1902_">
<path id="XMLID_1906_" d="M39.3958 132.832C39.6546 132.843 39.889 132.671 39.9213 132.448L47.472 79.5909C47.5036 79.3687 47.3206 79.1797 47.0618 79.1694C46.803 79.1591 46.5679 79.3299 46.5363 79.5522L38.9856 132.41C38.954 132.633 39.1378 132.821 39.3958 132.832Z" fill="#188983"/>
</g>
<g id="XMLID_1878_">
<path id="XMLID_1901_" d="M55.0365 141.883C55.2953 141.893 55.5296 141.722 55.5619 141.499L63.1127 88.6417C63.1442 88.4195 62.9612 88.2304 62.7024 88.2202C62.4436 88.2099 62.2085 88.3807 62.1769 88.6038L54.6262 141.461C54.5946 141.683 54.7777 141.872 55.0365 141.883Z" fill="#188983"/>
</g>
<g id="XMLID_1874_">
<path id="XMLID_1877_" d="M70.6753 150.935C70.9341 150.945 71.1692 150.774 71.2008 150.552L78.7523 97.6944C78.7839 97.4722 78.6001 97.2832 78.342 97.2729C78.0833 97.2626 77.8481 97.4334 77.8166 97.6565L70.2643 150.515C70.2335 150.735 70.4165 150.924 70.6753 150.935Z" fill="#188983"/>
</g>
<g id="XMLID_1844_">
<path id="XMLID_1845_" d="M86.3162 159.985C86.575 159.996 86.8102 159.825 86.8417 159.602L94.3925 106.744C94.424 106.522 94.241 106.333 93.9822 106.323C93.7234 106.312 93.4883 106.483 93.4567 106.706L85.906 159.563C85.8744 159.786 86.0575 159.974 86.3162 159.985Z" fill="#188983"/>
</g>
<g id="XMLID_1813_">
<path id="XMLID_1843_" d="M101.954 169.037C102.213 169.047 102.448 168.876 102.479 168.653L110.03 115.796C110.062 115.573 109.879 115.384 109.62 115.374C109.361 115.364 109.127 115.535 109.094 115.758L101.544 168.615C101.512 168.836 101.695 169.025 101.954 169.037Z" fill="#188983"/>
</g>
<g id="XMLID_1811_">
<path id="XMLID_1812_" d="M117.594 178.088C117.853 178.098 118.088 177.927 118.119 177.704L125.671 124.846C125.702 124.624 125.519 124.435 125.26 124.424C125.002 124.414 124.767 124.585 124.735 124.808L117.183 177.666C117.152 177.888 117.335 178.077 117.594 178.088Z" fill="#188983"/>
</g>
<g id="XMLID_1694_">
<path id="XMLID_1736_" d="M123.257 138.445C123.418 138.451 123.586 138.386 123.691 138.261C123.848 138.073 123.807 137.824 123.599 137.704L14.1235 74.3467C13.9176 74.2249 13.6201 74.2795 13.4639 74.4677C13.3069 74.6551 13.3487 74.9043 13.5562 75.0245L123.031 138.381C123.1 138.421 123.178 138.442 123.257 138.445Z" fill="#188983"/>
</g>
<g id="XMLID_1578_">
<path id="XMLID_1693_" d="M121.369 151.658C121.53 151.664 121.698 151.599 121.802 151.474C121.959 151.286 121.918 151.037 121.71 150.917L12.2343 87.5604C12.0284 87.4378 11.7309 87.4932 11.5747 87.6814C11.4177 87.8689 11.4587 88.118 11.667 88.2382L121.142 151.595C121.211 151.634 121.289 151.655 121.369 151.658Z" fill="#188983"/>
</g>
<g id="XMLID_1488_">
<path id="XMLID_1489_" d="M119.481 164.872C119.642 164.879 119.81 164.813 119.915 164.688C120.072 164.501 120.031 164.251 119.823 164.131L10.3468 100.775C10.1409 100.653 9.84344 100.708 9.68723 100.896C9.53021 101.083 9.57204 101.332 9.77954 101.453L119.255 164.808C119.324 164.849 119.402 164.869 119.481 164.872Z" fill="#188983"/>
</g>
<g id="XMLID_1482_">
<path id="XMLID_1483_" d="M117.594 178.087C117.674 178.091 117.758 178.076 117.835 178.042C117.99 177.977 118.099 177.848 118.119 177.704L125.671 124.846C125.691 124.702 125.621 124.566 125.487 124.488L16.0107 61.1316C15.8766 61.0533 15.6975 61.0462 15.5428 61.1126C15.3882 61.1783 15.2801 61.3072 15.2588 61.4511L7.70887 114.308C7.68835 114.452 7.75858 114.588 7.89349 114.665L117.367 178.023C117.434 178.063 117.513 178.084 117.594 178.087ZM124.702 125.041L117.283 176.969L8.67776 114.114L16.0944 62.1874L124.702 125.041Z" fill="#188983"/>
</g>
</g>
<g id="XMLID_1233_" opacity="0.17">
<g id="XMLID_1470_">
<path id="XMLID_1480_" d="M8.1183 114.729C8.3771 114.74 8.61222 114.569 8.64378 114.347L16.1937 61.4898C16.2253 61.2676 16.0422 61.0786 15.7835 61.0683C15.5247 61.058 15.2895 61.2289 15.258 61.4519L7.70803 114.309C7.67647 114.53 7.8603 114.719 8.1183 114.729Z" fill="black"/>
</g>
<g id="XMLID_1431_">
<path id="XMLID_1463_" d="M23.7572 123.781C24.0159 123.791 24.2511 123.621 24.2826 123.398L31.8334 70.5401C31.8649 70.3179 31.6819 70.1289 31.4231 70.1186C31.1643 70.1083 30.9292 70.2792 30.8976 70.5022L23.3469 123.36C23.3153 123.582 23.4984 123.771 23.7572 123.781Z" fill="black"/>
</g>
<g id="XMLID_1428_">
<path id="XMLID_1429_" d="M39.3958 132.832C39.6546 132.843 39.889 132.671 39.9213 132.448L47.472 79.5909C47.5036 79.3687 47.3206 79.1797 47.0618 79.1694C46.803 79.1591 46.5679 79.3299 46.5363 79.5522L38.9856 132.41C38.954 132.633 39.1378 132.821 39.3958 132.832Z" fill="black"/>
</g>
<g id="XMLID_1426_">
<path id="XMLID_1427_" d="M55.0365 141.883C55.2953 141.893 55.5296 141.722 55.5619 141.499L63.1127 88.6417C63.1442 88.4195 62.9612 88.2304 62.7024 88.2202C62.4436 88.2099 62.2085 88.3807 62.1769 88.6038L54.6262 141.461C54.5946 141.683 54.7777 141.872 55.0365 141.883Z" fill="black"/>
</g>
<g id="XMLID_1424_">
<path id="XMLID_1425_" d="M70.6753 150.935C70.9341 150.945 71.1692 150.774 71.2008 150.552L78.7523 97.6944C78.7839 97.4722 78.6001 97.2832 78.342 97.2729C78.0833 97.2626 77.8481 97.4334 77.8166 97.6565L70.2643 150.515C70.2335 150.735 70.4165 150.924 70.6753 150.935Z" fill="black"/>
</g>
<g id="XMLID_1422_">
<path id="XMLID_1423_" d="M86.3162 159.985C86.575 159.996 86.8102 159.825 86.8417 159.602L94.3925 106.744C94.424 106.522 94.241 106.333 93.9822 106.323C93.7234 106.312 93.4883 106.483 93.4567 106.706L85.906 159.563C85.8744 159.786 86.0575 159.974 86.3162 159.985Z" fill="black"/>
</g>
<g id="XMLID_1420_">
<path id="XMLID_1421_" d="M101.954 169.037C102.213 169.047 102.448 168.876 102.479 168.653L110.03 115.796C110.062 115.573 109.879 115.384 109.62 115.374C109.361 115.364 109.127 115.535 109.094 115.758L101.544 168.615C101.512 168.836 101.695 169.025 101.954 169.037Z" fill="black"/>
</g>
<g id="XMLID_1418_">
<path id="XMLID_1419_" d="M117.594 178.088C117.853 178.098 118.088 177.927 118.119 177.704L125.671 124.846C125.702 124.624 125.519 124.435 125.26 124.424C125.002 124.414 124.767 124.585 124.735 124.808L117.183 177.666C117.152 177.888 117.335 178.077 117.594 178.088Z" fill="black"/>
</g>
<g id="XMLID_1416_">
<path id="XMLID_1417_" d="M123.257 138.445C123.418 138.451 123.586 138.386 123.691 138.261C123.848 138.073 123.807 137.824 123.599 137.704L14.1235 74.3467C13.9176 74.2249 13.6201 74.2795 13.4639 74.4677C13.3069 74.6551 13.3487 74.9043 13.5562 75.0245L123.031 138.381C123.1 138.421 123.178 138.442 123.257 138.445Z" fill="black"/>
</g>
<g id="XMLID_1414_">
<path id="XMLID_1415_" d="M121.369 151.658C121.53 151.664 121.698 151.599 121.802 151.474C121.959 151.286 121.918 151.037 121.71 150.917L12.2343 87.5604C12.0284 87.4378 11.7309 87.4932 11.5747 87.6814C11.4177 87.8689 11.4587 88.118 11.667 88.2382L121.142 151.595C121.211 151.634 121.289 151.655 121.369 151.658Z" fill="black"/>
</g>
<g id="XMLID_1362_">
<path id="XMLID_1413_" d="M119.481 164.872C119.642 164.879 119.81 164.813 119.915 164.688C120.072 164.501 120.031 164.251 119.823 164.131L10.3468 100.775C10.1409 100.653 9.84344 100.708 9.68723 100.896C9.53021 101.083 9.57204 101.332 9.77954 101.453L119.255 164.808C119.324 164.849 119.402 164.869 119.481 164.872Z" fill="black"/>
</g>
<g id="XMLID_1234_">
<path id="XMLID_1236_" d="M117.594 178.087C117.674 178.091 117.758 178.076 117.835 178.042C117.99 177.977 118.099 177.848 118.119 177.704L125.671 124.846C125.691 124.702 125.621 124.566 125.487 124.488L16.0107 61.1316C15.8766 61.0533 15.6975 61.0462 15.5428 61.1126C15.3882 61.1783 15.2801 61.3072 15.2588 61.4511L7.70887 114.308C7.68835 114.452 7.75858 114.588 7.89349 114.665L117.367 178.023C117.434 178.063 117.513 178.084 117.594 178.087ZM124.702 125.041L117.283 176.969L8.67776 114.114L16.0944 62.1874L124.702 125.041Z" fill="black"/>
</g>
</g>
</g>
</g>
<g id="Group_13">
<g id="Group_14">
<g id="Group_15">
<path id="Vector_14" d="M104.802 130.736C101.162 131.476 97.4929 132.092 93.8327 132.723C93.3791 132.802 92.9262 132.88 92.4725 132.958C91.8366 133.068 91.5817 132.167 92.261 132.05C95.7256 131.452 99.1932 130.87 102.664 130.31C103.317 130.204 103.971 130.105 104.626 130.014C105.172 129.937 105.37 130.62 104.802 130.736Z" fill="#455A64"/>
</g>
<g id="Group_16">
<path id="Vector_15" d="M94.378 124.242C94.8475 124.721 95.2223 125.286 95.5892 125.846C96.2906 126.917 96.9952 127.986 97.6982 129.056C99.2525 131.424 100.786 133.805 102.327 136.183C102.804 136.918 103.343 137.64 103.768 138.407C103.848 138.553 103.826 138.754 103.682 138.857C103.647 138.882 103.613 138.907 103.579 138.933C103.614 138.811 103.649 138.69 103.684 138.568C103.687 138.571 103.689 138.575 103.691 138.578C103.837 138.804 103.423 139.189 103.258 138.935C103.286 138.977 103.018 138.841 102.969 138.781C102.934 138.738 102.906 138.683 102.876 138.637C102.788 138.502 102.701 138.368 102.614 138.232C102.362 137.842 102.109 137.451 101.856 137.06C101.117 135.917 100.377 134.773 99.6375 133.63C98.0587 131.188 96.4949 128.739 94.9272 126.29C94.5753 125.74 94.2029 125.178 93.9867 124.557C93.9157 124.352 94.1982 124.059 94.378 124.242Z" fill="#455A64"/>
</g>
</g>
<g id="Group_17">
<g id="Group_18">
<path id="Vector_16" d="M89.4839 121.307C85.8435 122.047 82.1746 122.664 78.5145 123.295C78.0608 123.373 77.6079 123.451 77.1542 123.53C76.5183 123.639 76.2635 122.739 76.9428 122.622C80.4073 122.025 83.8749 121.441 87.3458 120.881C87.9991 120.776 88.6523 120.676 89.308 120.585C89.8532 120.508 90.0512 121.192 89.4839 121.307Z" fill="#455A64"/>
</g>
<g id="Group_19">
<path id="Vector_17" d="M79.0602 114.814C79.5296 115.293 79.9044 115.858 80.2713 116.417C80.9727 117.488 81.6773 118.557 82.3803 119.627C83.9346 121.995 85.4684 124.377 87.0094 126.754C87.4859 127.49 88.0256 128.212 88.4501 128.979C88.5306 129.124 88.5077 129.325 88.3641 129.429C88.3294 129.453 88.2946 129.479 88.2607 129.505C88.2962 129.383 88.3309 129.261 88.3664 129.14C88.3688 129.143 88.3712 129.147 88.3728 129.15C88.5187 129.375 88.1053 129.76 87.9404 129.506C87.968 129.548 87.7005 129.412 87.6516 129.353C87.6161 129.31 87.5885 129.255 87.5577 129.208C87.4701 129.074 87.3834 128.939 87.2966 128.804C87.0441 128.413 86.7916 128.023 86.5383 127.632C85.799 126.488 85.0589 125.345 84.3197 124.201C82.7409 121.761 81.1771 119.31 79.6093 116.862C79.2574 116.312 78.8842 115.75 78.6688 115.129C78.5978 114.925 78.8803 114.631 79.0602 114.814Z" fill="#455A64"/>
</g>
</g>
<g id="Group_20">
<g id="Group_21">
<path id="Vector_18" d="M73.6433 112.267C70.0028 113.007 66.334 113.623 62.6738 114.254C62.2201 114.332 61.7672 114.411 61.3136 114.489C60.6776 114.599 60.4228 113.698 61.1021 113.581C64.5666 112.983 68.0343 112.4 71.5051 111.84C72.1584 111.735 72.8117 111.636 73.4673 111.545C74.0125 111.468 74.2114 112.151 73.6433 112.267Z" fill="#455A64"/>
</g>
<g id="Group_22">
<path id="Vector_19" d="M63.2198 105.773C63.6893 106.252 64.0641 106.816 64.431 107.376C65.1324 108.447 65.837 109.516 66.54 110.587C68.0943 112.954 69.6281 115.336 71.169 117.713C71.6456 118.449 72.1861 119.171 72.6097 119.938C72.6902 120.084 72.6673 120.284 72.5237 120.388C72.489 120.413 72.4543 120.438 72.4204 120.464C72.4559 120.342 72.4906 120.22 72.5261 120.099C72.5285 120.102 72.5308 120.106 72.5324 120.109C72.6784 120.334 72.2649 120.719 72.1 120.466C72.1277 120.508 71.8602 120.371 71.8113 120.312C71.7758 120.269 71.7481 120.214 71.7174 120.167C71.6298 120.033 71.543 119.898 71.4562 119.763C71.2037 119.373 70.9505 118.982 70.698 118.591C69.9587 117.448 69.2186 116.304 68.4793 115.16C66.9005 112.719 65.3367 110.269 63.769 107.821C63.4171 107.271 63.0447 106.709 62.8285 106.088C62.7575 105.883 63.04 105.59 63.2198 105.773Z" fill="#455A64"/>
</g>
</g>
<g id="Group_23">
<g id="Group_24">
<path id="Vector_20" d="M57.9011 103.099C54.2606 103.839 50.5918 104.456 46.9316 105.087C46.4779 105.165 46.0251 105.243 45.5714 105.322C44.9354 105.432 44.6806 104.531 45.3599 104.414C48.8244 103.817 52.2921 103.233 55.7629 102.673C56.4162 102.568 57.0695 102.468 57.7251 102.377C58.2703 102.3 58.4692 102.984 57.9011 103.099Z" fill="#455A64"/>
</g>
<g id="Group_25">
<path id="Vector_21" d="M47.478 96.6067C47.9474 97.0852 48.3222 97.6499 48.6883 98.2098C49.3897 99.2815 50.0943 100.35 50.7973 101.421C52.3516 103.789 53.8854 106.17 55.4264 108.548C55.9029 109.282 56.4426 110.005 56.8671 110.772C56.9475 110.918 56.9247 111.119 56.7811 111.222C56.7464 111.247 56.7116 111.272 56.6777 111.298C56.7132 111.176 56.7479 111.055 56.7834 110.933C56.7858 110.936 56.7882 110.94 56.7897 110.943C56.9357 111.169 56.5223 111.554 56.3574 111.3C56.385 111.343 56.1175 111.206 56.0686 111.146C56.0331 111.103 56.0055 111.048 55.9747 111.002C55.8871 110.867 55.8003 110.733 55.7136 110.598C55.4611 110.207 55.2078 109.816 54.9553 109.425C54.216 108.282 53.476 107.138 52.7367 105.995C51.1579 103.554 49.5941 101.104 48.0263 98.6551C47.6744 98.1054 47.302 97.5431 47.0858 96.9223C47.0148 96.7166 47.2981 96.4232 47.478 96.6067Z" fill="#455A64"/>
</g>
</g>
<g id="Group_26">
<g id="Group_27">
<path id="Vector_22" d="M42.2634 94.0528C38.6229 94.793 34.9541 95.4091 31.2939 96.0403C30.8402 96.1186 30.3874 96.1969 29.9337 96.2752C29.2977 96.3851 29.0429 95.4843 29.7222 95.3672C33.1867 94.7693 36.6544 94.1864 40.1252 93.6265C40.7785 93.5213 41.4318 93.4216 42.0874 93.3307C42.6326 93.254 42.8315 93.9373 42.2634 94.0528Z" fill="#455A64"/>
</g>
<g id="Group_28">
<path id="Vector_23" d="M31.84 87.5597C32.3094 88.0382 32.6842 88.6037 33.0511 89.1629C33.7525 90.2337 34.4571 91.303 35.1601 92.3731C36.7144 94.741 38.2482 97.1224 39.7891 99.4998C40.2657 100.235 40.8054 100.957 41.2299 101.725C41.3103 101.87 41.2875 102.071 41.1439 102.175C41.1091 102.199 41.0744 102.224 41.0405 102.25C41.076 102.129 41.1107 102.007 41.1462 101.885C41.1486 101.888 41.151 101.892 41.1525 101.895C41.2985 102.121 40.8851 102.506 40.7202 102.252C40.7478 102.295 40.4803 102.158 40.4314 102.099C40.3959 102.055 40.3683 102.001 40.3375 101.954C40.2499 101.819 40.1631 101.684 40.0763 101.55C39.8239 101.159 39.5714 100.768 39.3181 100.378C38.578 99.2341 37.8387 98.0904 37.0994 96.9468C35.5207 94.5061 33.9569 92.0559 32.3891 89.6073C32.0372 89.0577 31.664 88.4953 31.4486 87.8745C31.3776 87.6705 31.6601 87.3763 31.84 87.5597Z" fill="#455A64"/>
</g>
</g>
<g id="Group_29">
<g id="Group_30">
<path id="Vector_24" d="M102.742 142.928C99.102 143.669 95.4331 144.285 91.7729 144.916C91.3192 144.994 90.8664 145.072 90.4127 145.151C89.7768 145.261 89.5219 144.36 90.2012 144.243C93.6657 143.645 97.1334 143.062 100.604 142.502C101.258 142.397 101.911 142.297 102.566 142.206C103.112 142.129 103.31 142.813 102.742 142.928Z" fill="#455A64"/>
</g>
<g id="Group_31">
<path id="Vector_25" d="M92.317 136.435C92.7865 136.914 93.1612 137.479 93.5281 138.038C94.2296 139.11 94.9341 140.178 95.6371 141.249C97.1915 143.617 98.7253 145.999 100.266 148.376C100.743 149.112 101.282 149.834 101.707 150.601C101.787 150.746 101.765 150.947 101.621 151.051C101.586 151.075 101.551 151.101 101.518 151.127C101.553 151.005 101.588 150.883 101.623 150.761C101.626 150.765 101.628 150.768 101.63 150.772C101.776 150.997 101.363 151.382 101.198 151.128C101.226 151.171 100.958 151.034 100.909 150.975C100.874 150.931 100.846 150.877 100.815 150.83C100.728 150.696 100.641 150.561 100.554 150.426C100.302 150.035 100.049 149.645 99.796 149.254C99.0567 148.11 98.3166 146.967 97.5773 145.823C95.9985 143.382 94.4347 140.932 92.8669 138.484C92.5151 137.934 92.1426 137.372 91.9265 136.751C91.8547 136.546 92.1371 136.252 92.317 136.435Z" fill="#455A64"/>
</g>
</g>
<path id="Vector_26" d="M55.1637 120.407C56.0371 119.571 57.2474 119.16 58.4223 118.985C60.7782 118.632 63.2643 119.364 64.9646 121.049C65.1895 121.272 64.7579 121.693 64.5204 121.489C62.9732 120.163 60.8847 119.449 58.8515 119.655C57.8755 119.754 56.8395 120.056 56.0671 120.684C55.2599 121.341 54.9696 122.326 55.0264 123.34C55.1282 125.152 55.9906 126.983 56.9508 128.494C57.9457 130.059 59.2207 131.423 60.6788 132.563C62.125 133.694 63.763 134.606 65.4885 135.23C67.2669 135.874 69.4107 136.406 71.2419 135.662C73.0251 134.938 73.9332 133.085 74.0153 131.233C74.1123 129.042 73.2539 126.816 72.1548 124.986C70.8774 122.858 69.1093 121.283 67.1139 119.817C66.1363 119.098 65.079 118.404 63.9784 117.894C62.5448 117.23 61.4631 116.989 60.2914 116.678C59.728 116.529 60.4129 116.127 60.9652 116.22C62.2292 116.43 62.4485 116.432 64.0715 117.109C65.2282 117.592 66.7793 118.456 67.7987 119.186C69.817 120.631 71.7437 122.306 73.0472 124.425C74.2709 126.413 75.1128 128.735 75.0607 131.128C75.0181 133.118 74.1178 135.112 72.3663 136.143C70.4435 137.276 67.9976 136.977 65.9643 136.341C63.9989 135.726 62.1463 134.789 60.4784 133.581C58.8633 132.41 57.4297 130.961 56.3109 129.305C55.1929 127.65 54.2121 125.623 54.0725 123.601C53.9912 122.416 54.2895 121.246 55.1637 120.407Z" fill="#188983"/>
</g>
</g>
</g>
</svg>
