<svg width="275" height="275" viewBox="0 0 275 275" fill="none" xmlns="http://www.w3.org/2000/svg">
<path d="M57.605 243.085C101.92 266.44 173.769 266.441 218.083 243.086C262.399 219.729 262.399 181.863 218.083 158.507C173.768 135.151 101.92 135.151 57.6045 158.507C13.2893 181.862 13.2893 219.73 57.605 243.085Z" fill="#E5E5E5"/>
<path d="M145.585 148.255C145.551 145.445 147.513 139.602 150.385 135.918C153.257 132.234 157.809 129.512 161.079 130.586C164.124 131.587 163.844 135.57 160.196 138.251C156.547 140.932 151.056 144.311 149.493 148.888L146.164 154.521L145.585 148.255Z" fill="#188983"/>
<path opacity="0.1" d="M145.585 148.255C145.551 145.445 147.513 139.602 150.385 135.918C153.257 132.234 157.809 129.512 161.079 130.586C164.124 131.587 163.844 135.57 160.196 138.251C156.547 140.932 151.056 144.311 149.493 148.888L146.164 154.521L145.585 148.255Z" fill="black"/>
<path d="M145.424 152.103C145.514 152.095 145.59 152.027 145.607 151.936C147.373 142.322 155.038 134.432 159.662 132.654C159.767 132.614 159.82 132.495 159.779 132.389C159.739 132.284 159.623 132.229 159.514 132.271C154.803 134.084 146.996 142.102 145.203 151.862C145.183 151.973 145.257 152.08 145.368 152.101C145.387 152.104 145.406 152.105 145.424 152.103Z" fill="white"/>
<path d="M146.929 158.225C147.361 156.64 149.259 154.01 152.353 151.82C155.777 149.397 160.131 148.25 161.116 146.384C162.299 144.142 160.397 142.061 156.856 142.543C153.316 143.025 147.14 147.938 146.231 155.233L146.929 158.225Z" fill="#188983"/>
<path d="M146.222 156.575C146.3 156.568 146.37 156.516 146.398 156.437C149.24 148.185 155.475 145.226 158.374 144.814C158.486 144.798 158.564 144.694 158.548 144.582C158.532 144.469 158.433 144.391 158.316 144.407C155.11 144.863 148.911 147.881 146.009 156.304C145.973 156.411 146.03 156.528 146.137 156.565C146.165 156.575 146.194 156.578 146.222 156.575Z" fill="white"/>
<path d="M41.1683 212.482L40.7509 212.241C40.0832 211.856 39.542 210.918 39.542 210.147V69.2076C39.542 68.4365 40.0832 67.4993 40.7509 67.1137L131.565 14.6866C132.233 14.3011 133.315 14.3011 133.983 14.6866L134.4 14.9275C135.068 15.3131 135.609 16.2503 135.609 17.0214V157.961C135.609 158.732 135.068 159.669 134.4 160.055L43.5861 212.482C42.9184 212.868 41.8355 212.868 41.1683 212.482Z" fill="#188983"/>
<path opacity="0.4" d="M135.598 16.8271C135.515 16.2001 135.008 15.9724 134.401 16.3205L43.5836 68.752C43.2481 68.9418 42.9506 69.2773 42.7289 69.6513L39.8986 68.0178C40.1137 67.6377 40.4178 67.3088 40.7533 67.1125L131.564 14.687C132.235 14.3009 133.318 14.3009 133.983 14.687L134.401 14.9279C135.009 15.2827 135.522 16.0994 135.598 16.8271Z" fill="white"/>
<path opacity="0.1" d="M43.381 212.577C42.716 212.862 41.7728 212.83 41.1711 212.482L40.747 212.241C40.0821 211.855 39.5442 210.917 39.5442 210.145V69.2078C39.5442 68.8217 39.6773 68.391 39.8989 68.0176L42.7292 69.6511C42.5142 70.0311 42.3745 70.4612 42.3745 70.8413V211.785C42.3745 212.476 42.8112 212.798 43.381 212.577Z" fill="black"/>
<path d="M53.087 161.509L52.6695 161.268C52.0018 160.882 51.4606 159.944 51.4606 159.174V133.841C51.4606 133.07 52.0018 132.133 52.6695 131.748L135.118 84.1017C135.786 83.7161 136.868 83.7161 137.536 84.1017L137.954 84.3426C138.621 84.7281 139.163 85.6653 139.163 86.4364V111.769C139.163 112.54 138.621 113.477 137.954 113.863L55.5048 161.509C54.8371 161.894 53.7547 161.894 53.087 161.509Z" fill="#EBEBEB"/>
<path d="M139.151 86.2421C139.068 85.6151 138.562 85.3874 137.954 85.7356L55.5023 133.386C55.1668 133.576 54.8692 133.912 54.6476 134.286L51.8173 132.652C52.0329 132.272 52.3365 131.943 52.672 131.747L135.118 84.1021C135.789 83.716 136.871 83.716 137.536 84.1021L137.954 84.3424C138.562 84.6972 139.075 85.5139 139.151 86.2421Z" fill="#777777"/>
<path d="M55.2996 161.604C54.6347 161.889 53.6914 161.857 53.0897 161.509L52.6657 161.268C52.0007 160.882 51.4628 159.945 51.4628 159.173V133.843C51.4628 133.456 51.5959 133.026 51.8176 132.652L54.6479 134.286C54.4328 134.666 54.2931 135.096 54.2931 135.476V160.812C54.2931 161.503 54.7298 161.825 55.2996 161.604Z" fill="#777777"/>
<path d="M67.1628 131.686C71.8653 128.971 75.6773 131.083 75.6768 136.405C75.6762 141.725 71.8598 148.196 67.1529 150.856C62.4454 153.517 58.6295 151.403 58.6317 146.136C58.6339 140.87 62.4603 134.401 67.1628 131.686Z" fill="#188983"/>
<path d="M53.087 195.839L52.6695 195.598C52.0018 195.212 51.4606 194.275 51.4606 193.504V168.172C51.4606 167.4 52.0018 166.463 52.6695 166.078L135.118 118.432C135.786 118.046 136.868 118.046 137.536 118.432L137.954 118.673C138.621 119.058 139.163 119.995 139.163 120.766V146.099C139.163 146.87 138.621 147.807 137.954 148.193L55.5048 195.839C54.8371 196.224 53.7547 196.224 53.087 195.839Z" fill="#EBEBEB"/>
<path d="M139.151 120.572C139.068 119.945 138.562 119.718 137.954 120.066L55.5023 167.717C55.1668 167.906 54.8692 168.242 54.6476 168.616L51.8173 166.982C52.0329 166.602 52.3365 166.273 52.672 166.077L135.118 118.432C135.789 118.046 136.871 118.046 137.536 118.432L137.954 118.673C138.562 119.027 139.075 119.844 139.151 120.572Z" fill="#777777"/>
<path d="M55.2996 195.934C54.6346 196.219 53.6914 196.187 53.0897 195.839L52.6656 195.598C52.0007 195.212 51.4628 194.275 51.4628 193.503V168.173C51.4628 167.787 51.5959 167.356 51.8175 166.982L54.6478 168.616C54.4328 168.996 54.2931 169.426 54.2931 169.806V195.142C54.2931 195.833 54.7298 196.156 55.2996 195.934Z" fill="#777777"/>
<path d="M67.1628 166.016C71.8653 163.301 75.6773 165.413 75.6768 170.734C75.6762 176.055 71.8598 182.526 67.1529 185.186C62.4454 187.847 58.6295 185.732 58.6317 180.466C58.6339 175.199 62.4603 168.731 67.1628 166.016Z" fill="#188983"/>
<path d="M53.087 104.098L52.6695 103.857C52.0018 103.471 51.4606 102.533 51.4606 101.763V76.4303C51.4606 75.6592 52.0018 74.722 52.6695 74.3365L135.118 26.6905C135.786 26.305 136.868 26.305 137.536 26.6905L137.954 26.9314C138.621 27.317 139.163 28.2542 139.163 29.0253V54.3577C139.163 55.1288 138.621 56.066 137.954 56.4516L55.5048 104.098C54.8371 104.483 53.7547 104.483 53.087 104.098Z" fill="#EBEBEB"/>
<path d="M139.151 28.831C139.068 28.204 138.562 27.9763 137.954 28.3244L55.5023 75.9753C55.1668 76.1651 54.8692 76.5006 54.6476 76.8746L51.8173 75.2411C52.0329 74.861 52.3365 74.5321 52.672 74.3358L135.118 26.6909C135.789 26.3048 136.871 26.3048 137.536 26.6909L137.954 26.9318C138.562 27.286 139.075 28.1028 139.151 28.831Z" fill="#777777"/>
<path d="M55.2996 104.193C54.6347 104.478 53.6914 104.446 53.0897 104.098L52.6657 103.857C52.0007 103.471 51.4628 102.534 51.4628 101.762V76.4314C51.4628 76.0453 51.5959 75.6147 51.8176 75.2412L54.6479 76.8747C54.4328 77.2548 54.2931 77.6849 54.2931 78.0649V103.401C54.2931 104.091 54.7298 104.414 55.2996 104.193Z" fill="#777777"/>
<path d="M67.1628 74.2748C71.8653 71.56 75.6773 73.672 75.6768 78.9932C75.6762 84.3139 71.8598 90.7847 67.1529 93.445C62.4454 96.1059 58.6295 93.9912 58.6317 88.7249C58.6339 83.4581 62.4603 76.9896 67.1628 74.2748Z" fill="#188983"/>
<path d="M58.8816 136.261L58.4641 136.02C57.7964 135.634 57.2552 134.696 57.2552 133.926V108.593C57.2552 107.822 57.7964 106.885 58.4641 106.5L140.913 58.8536C141.581 58.4681 142.663 58.4681 143.331 58.8536L143.748 59.0945C144.416 59.4801 144.957 60.4178 144.957 61.1884V86.5208C144.957 87.2919 144.416 88.2291 143.748 88.6147L61.2994 136.261C60.6317 136.646 59.5493 136.646 58.8816 136.261Z" fill="#37474F"/>
<path d="M144.946 60.9941C144.864 60.3671 144.357 60.1394 143.75 60.4875L61.298 108.138C60.9625 108.328 60.6649 108.664 60.4433 109.038L57.613 107.404C57.828 107.024 58.1322 106.695 58.4677 106.499L140.913 58.854C141.584 58.4679 142.667 58.4679 143.332 58.854L143.75 59.0949C144.357 59.4491 144.87 60.2659 144.946 60.9941Z" fill="#455A64"/>
<path d="M61.0948 136.356C60.4298 136.641 59.4866 136.609 58.8854 136.261L58.4614 136.02C57.7964 135.634 57.2585 134.697 57.2585 133.925V108.594C57.2585 108.208 57.3916 107.778 57.6133 107.404L60.4436 109.038C60.2285 109.418 60.0888 109.848 60.0888 110.228V135.564C60.0877 136.255 60.525 136.577 61.0948 136.356Z" fill="#263238"/>
<path d="M72.9571 106.438C77.6596 103.723 81.4717 105.835 81.4711 111.157C81.4706 116.477 77.6541 122.948 72.9472 125.608C68.2398 128.269 64.4239 126.155 64.4261 120.888C64.4288 115.621 68.2546 109.153 72.9571 106.438Z" fill="#F5F5F5"/>
<path d="M144.94 98.6149L142.549 97.2344V97.2405C141.509 96.6432 140.238 97.2339 139.566 97.6469L138.074 96.7862C136.263 95.6928 133.747 97.9797 133.184 98.5286L132.539 98.1562L132.539 98.1573C130.62 96.9996 127.132 100.097 127.132 100.097V88.573L128.647 87.8388L126.236 86.4445C126.234 86.4434 126.233 86.4423 126.23 86.4412L126.214 86.4313L126.213 86.433C125.659 86.1244 124.902 86.1739 124.064 86.6574C122.369 87.6358 120.996 90.0151 120.996 91.9715V118.684C118.791 117.049 116.446 116.045 114.389 116.411C112.534 116.741 110.877 118.32 110.396 119.168C109.381 120.957 111.055 122.08 113.212 124.546C115.349 126.991 117.235 129.935 119.182 131.751C121.13 133.568 122.541 134.04 122.541 134.04V137.522L124.91 138.89L140.569 127.114V123.632C140.569 123.632 142.807 114.713 143.521 110.985C144.209 107.395 144.842 101.673 143.66 98.7013L144.939 98.6144L144.94 98.6149Z" fill="#188983"/>
<path opacity="0.4" d="M144.94 98.6149L142.549 97.2344V97.2405C141.509 96.6432 140.238 97.2339 139.566 97.6469L138.074 96.7862C136.263 95.6928 133.747 97.9797 133.184 98.5286L132.539 98.1562L132.539 98.1573C130.62 96.9996 127.132 100.097 127.132 100.097V88.573L128.647 87.8388L126.236 86.4445C126.234 86.4434 126.233 86.4423 126.23 86.4412L126.214 86.4313L126.213 86.433C125.659 86.1244 124.902 86.1739 124.064 86.6574C122.369 87.6358 120.996 90.0151 120.996 91.9715V118.684C118.791 117.049 116.446 116.045 114.389 116.411C112.534 116.741 110.877 118.32 110.396 119.168C109.381 120.957 111.055 122.08 113.212 124.546C115.349 126.991 117.235 129.935 119.182 131.751C121.13 133.568 122.541 134.04 122.541 134.04V137.522L124.91 138.89L140.569 127.114V123.632C140.569 123.632 142.807 114.713 143.521 110.985C144.209 107.395 144.842 101.673 143.66 98.7013L144.939 98.6144L144.94 98.6149Z" fill="white"/>
<path d="M127.277 129.317L115.431 122.479L110.243 119.483C109.583 121.097 111.183 122.228 113.211 124.548C115.349 126.993 117.235 129.937 119.182 131.753C121.129 133.569 122.54 134.042 122.54 134.042V137.524L124.91 138.892L128.369 136.29C127.922 133.331 127.277 129.317 127.277 129.317Z" fill="#188983"/>
<path d="M123.365 93.3405L120.996 91.9727V119.992L123.365 120.053V93.3405Z" fill="#188983"/>
<path d="M141.947 100.414L143.782 99.0602C143.743 98.9398 143.705 98.816 143.661 98.7033L144.327 98.6577L142.856 98.5905L140.395 97.2354C140.075 97.3608 139.787 97.5126 139.567 97.6479L140.335 98.095L141.947 100.414Z" fill="#188983"/>
<path d="M135.437 100.013L137.162 98.7004L134.785 97.2627C134.031 97.7346 133.426 98.2923 133.184 98.5288L134.834 99.483L135.437 100.013Z" fill="#188983"/>
<path d="M131.843 99.8858L129.493 98.5103L129.502 98.4883V101.465L132.243 100.46L131.843 99.8858Z" fill="#188983"/>
<g opacity="0.15">
<path d="M127.277 129.317L115.431 122.479L110.243 119.483C109.583 121.097 111.183 122.228 113.211 124.548C115.349 126.993 117.235 129.937 119.182 131.753C121.129 133.569 122.54 134.042 122.54 134.042V137.524L124.91 138.892L128.369 136.29C127.922 133.331 127.277 129.317 127.277 129.317Z" fill="black"/>
<path d="M123.365 93.3405L120.996 91.9727V119.992L123.365 120.053V93.3405Z" fill="black"/>
<path d="M141.947 100.414L143.782 99.0602C143.743 98.9398 143.705 98.816 143.661 98.7033L144.327 98.6577L142.856 98.5905L140.395 97.2354C140.075 97.3608 139.787 97.5126 139.567 97.6479L140.335 98.095L141.947 100.414Z" fill="black"/>
<path d="M135.437 100.013L137.162 98.7004L134.785 97.2627C134.031 97.7346 133.426 98.2923 133.184 98.5288L134.834 99.483L135.437 100.013Z" fill="black"/>
<path d="M131.843 99.8858L129.493 98.5103L129.502 98.4883V101.465L132.243 100.46L131.843 99.8858Z" fill="black"/>
</g>
<path d="M124.908 138.892V135.41C124.908 135.41 123.497 134.937 121.549 133.12C119.602 131.304 117.716 128.36 115.579 125.915C113.422 123.449 111.748 122.327 112.763 120.538C113.244 119.689 114.901 118.109 116.756 117.78C118.813 117.414 121.158 118.418 123.363 120.054V93.3406C123.363 91.3837 124.736 89.005 126.431 88.0265C128.125 87.0481 129.499 87.8412 129.499 89.7981V101.466C129.499 101.466 133.727 97.7109 135.435 100.014C135.435 100.014 139.589 95.6627 141.464 99.3378C141.464 99.3378 144.514 96.8749 145.889 99.7333C147.264 102.592 146.603 108.628 145.889 112.355C145.174 116.083 142.937 125.002 142.937 125.002V128.484L124.908 138.892Z" fill="#188983"/>
<path d="M129.498 106.475C129.498 106.475 129.883 101.152 131.839 99.8857C131.838 99.8857 131.811 99.894 131.769 99.9061C130.524 100.556 129.498 101.465 129.498 101.465V101.365C129.477 101.432 129.498 101.465 129.498 101.465V106.475Z" fill="#455A64"/>
<path d="M135.434 100.014V104.884C135.434 104.884 135.974 99.876 137.097 98.666C136.141 99.2754 135.439 100.01 135.434 100.014Z" fill="#455A64"/>
<path d="M141.463 99.3371V104.225C141.463 104.225 141.76 99.3008 142.821 98.5742C142.05 98.8646 141.467 99.3343 141.463 99.3371Z" fill="#455A64"/>
<path d="M124.047 83.2943C123.666 83.5138 123.358 83.3834 123.358 83.0028V79.138C123.358 78.7574 123.666 78.2706 124.047 78.0512C124.427 77.8312 124.736 77.9621 124.736 78.3421V82.207C124.736 82.5881 124.427 83.0749 124.047 83.2943Z" fill="#EBEBEB"/>
<path d="M118.273 89.3892C118.004 89.8551 117.567 90.107 117.298 89.9519L115.062 88.6605C114.793 88.5054 114.793 88.0016 115.062 87.5352C115.331 87.0693 115.768 86.8174 116.037 86.9725L118.273 88.2634C118.543 88.419 118.543 88.9228 118.273 89.3892Z" fill="#EBEBEB"/>
<path d="M115.882 97.3808V97.4913C115.882 97.9 115.55 98.423 115.141 98.659L112.082 100.426C111.673 100.662 111.341 100.521 111.341 100.113V100.002C111.341 99.5935 111.673 99.0704 112.082 98.8339L115.141 97.0673C115.551 96.8319 115.882 96.9722 115.882 97.3808Z" fill="#EBEBEB"/>
<path d="M132.211 88.0642V87.9537C132.211 87.545 132.543 87.022 132.952 86.7855L136.011 85.0189C136.42 84.7829 136.752 84.9232 136.752 85.3318V85.4424C136.752 85.851 136.42 86.3741 136.011 86.6106L132.952 88.3772C132.543 88.6131 132.211 88.4729 132.211 88.0642Z" fill="#EBEBEB"/>
<path d="M129.82 82.7221C129.551 82.5664 129.551 82.0626 129.82 81.5968L132.056 77.7236C132.325 77.2578 132.761 77.0059 133.031 77.161C133.3 77.3161 133.3 77.8199 133.031 78.2863L130.794 82.1594C130.526 82.6258 130.089 82.8777 129.82 82.7221Z" fill="#EBEBEB"/>
<path d="M124.136 227.346L129.028 229.638L133.895 231.967L143.59 236.685L153.229 241.485L158.028 243.915L162.801 246.382L157.909 244.09L153.042 241.761L143.347 237.043L133.709 232.242L128.91 229.813L124.136 227.346Z" fill="#E0E0E0"/>
<path d="M132.016 237.051C133.114 237.537 134.195 238.047 135.285 238.544L138.529 240.076C140.689 241.1 142.827 242.157 144.977 243.196C147.107 244.264 149.248 245.316 151.369 246.399L154.545 248.03C155.595 248.587 156.652 249.132 157.695 249.7C156.597 249.213 155.516 248.704 154.425 248.206L151.181 246.675C149.022 245.65 146.883 244.594 144.734 243.554C142.604 242.485 140.462 241.434 138.342 240.35L135.166 238.72C134.117 238.163 133.058 237.618 132.016 237.051Z" fill="#E0E0E0"/>
<path d="M112.074 212.113L108.061 210.065C105.382 208.705 102.683 207.375 99.994 206.029C97.2855 204.713 95.8105 203.982 93.0922 202.68L90.2 201.3V201.574L92.9058 202.954C95.5838 204.315 97.0625 205.041 99.7507 206.387C102.458 207.705 105.156 209.038 107.874 210.341L111.955 212.288C113.324 212.924 114.685 213.572 116.062 214.197C114.74 213.491 113.403 212.808 112.074 212.113Z" fill="#E0E0E0"/>
<path d="M91.5632 207.924C92.2833 208.228 92.9877 208.554 93.7005 208.868L95.8119 209.85C97.2194 210.504 98.6079 211.188 99.9959 211.871C101.378 212.563 102.76 213.255 104.123 213.975L106.167 215.056C106.839 215.43 107.52 215.791 108.185 216.176C107.464 215.872 106.76 215.546 106.047 215.232L103.935 214.251C102.527 213.595 101.139 212.913 99.7513 212.229C98.3692 211.537 96.9872 210.844 95.6246 210.124L93.5807 209.043C92.9091 208.669 92.2283 208.308 91.5632 207.924Z" fill="#E0E0E0"/>
</svg>
