<svg width="275" height="275" viewBox="0 0 275 275" fill="none" xmlns="http://www.w3.org/2000/svg">
<path d="M137.5 271.795C212.244 271.795 272.836 236.812 272.836 193.658C272.836 150.504 212.244 115.521 137.5 115.521C62.756 115.521 2.16387 150.504 2.16387 193.658C2.16387 236.812 62.756 271.795 137.5 271.795Z" fill="#E5E5E5"/>
<path d="M240.322 154.662C240.633 154.482 240.789 154.247 240.789 154.012C240.79 153.775 240.789 153.008 240.789 153.008L185.334 121.614C184.71 121.254 183.699 121.254 183.076 121.614L139.472 146.789L196.737 179.828L240.322 154.662Z" fill="#188983"/>
<path opacity="0.2" d="M240.322 154.662C240.633 154.482 240.789 154.247 240.789 154.012C240.79 153.775 240.789 153.008 240.789 153.008L185.334 121.614C184.71 121.254 183.699 121.254 183.076 121.614L139.472 146.789L196.737 179.828L240.322 154.662Z" fill="white"/>
<path d="M240.322 153.685C240.946 153.325 240.946 152.741 240.322 152.381L185.334 120.636C184.711 120.276 183.7 120.276 183.076 120.636L139.472 145.812L196.737 178.851L240.322 153.685Z" fill="#188983"/>
<path opacity="0.5" d="M240.322 153.685C240.946 153.325 240.946 152.741 240.322 152.381L185.334 120.636C184.711 120.276 183.7 120.276 183.076 120.636L139.472 145.812L196.737 178.851L240.322 153.685Z" fill="black"/>
<path d="M149.509 139.232L181.792 120.604C182.415 120.244 183.427 120.244 184.051 120.603L235.307 150.194L239.506 147.749V152.721L239.427 152.768C239.567 153.074 239.454 153.412 239.038 153.652L202.067 174.988L144.803 141.949V136.517L149.509 139.232Z" fill="#EBEBEB"/>
<path d="M239.037 148.22C239.661 147.859 239.66 147.276 239.037 146.916L184.05 115.171C183.426 114.811 182.415 114.811 181.791 115.171L144.801 136.517L202.066 169.556L239.037 148.22Z" fill="#E5E5E5"/>
<path d="M202.067 169.556V174.987L144.802 141.948V136.517L202.067 169.556Z" fill="#E6E6E6"/>
<path d="M201.468 167.434C201.598 167.499 201.728 167.552 201.885 167.577C202.107 167.63 202.354 167.63 202.55 167.564C202.628 167.551 202.694 167.525 202.759 167.486C203.098 167.304 203.059 166.964 202.668 166.743C202.498 166.652 202.29 166.586 202.082 166.573C201.821 166.547 201.56 166.586 201.378 166.691C201.351 166.704 201.325 166.717 201.312 166.743C201.05 166.939 201.103 167.226 201.468 167.434Z" fill="#263238"/>
<path d="M195.771 171.685C195.771 172.454 195.967 173.093 196.345 173.562C196.736 174.058 197.309 174.332 197.961 174.331C197.974 174.332 197.974 174.332 197.974 174.332C198.469 174.331 199.004 174.175 199.539 173.862C199.63 173.81 199.734 173.758 199.826 173.693L199.187 173.328C197.648 174.189 196.423 173.458 196.423 171.685C196.423 169.912 197.674 167.735 199.213 166.849C200.047 166.366 200.804 166.352 201.312 166.744C201.572 166.914 201.768 167.201 201.885 167.578C202.107 167.631 202.355 167.631 202.55 167.565C202.459 167.174 202.303 166.835 202.081 166.574C201.69 166.092 201.129 165.818 200.464 165.818C199.956 165.818 199.435 165.975 198.887 166.288C197.141 167.291 195.771 169.664 195.771 171.685Z" fill="#263238"/>
<path d="M197.39 166.551L240.79 145.342L240.789 146.05C240.789 146.41 240.537 146.848 240.225 147.028L197.391 167.535L197.39 166.551Z" fill="#188983"/>
<path opacity="0.2" d="M197.39 166.551L240.79 145.342L240.789 146.05C240.789 146.41 240.537 146.848 240.225 147.028L197.391 167.535L197.39 166.551Z" fill="white"/>
<path d="M240.322 145.989C240.946 145.628 240.946 145.044 240.322 144.685L185.335 112.94C184.711 112.58 183.7 112.58 183.077 112.94L139.473 133.875L196.737 166.914L240.322 145.989Z" fill="#188983"/>
<path opacity="0.2" d="M240.322 145.989C240.946 145.628 240.946 145.044 240.322 144.685L185.335 112.94C184.711 112.58 183.7 112.58 183.077 112.94L139.473 133.875L196.737 166.914L240.322 145.989Z" fill="black"/>
<path d="M196.738 179.828L139.473 146.788V133.857L196.736 166.918L196.738 179.828Z" fill="#188983"/>
<path d="M186.811 171.534C187.464 171.534 188.042 171.26 188.436 170.765C188.81 170.296 189.008 169.646 189.008 168.886C189.007 166.867 187.636 164.493 185.886 163.482C185.346 163.171 184.817 163.013 184.311 163.013C182.996 163.013 182.112 164.076 182.112 165.66C182.112 167.682 183.484 170.055 185.235 171.066C185.774 171.376 186.304 171.534 186.808 171.534C186.808 171.534 186.809 171.534 186.811 171.534Z" fill="#455A64"/>
<path d="M188.356 168.888C188.358 170.67 187.106 171.392 185.561 170.501C184.017 169.611 182.765 167.443 182.765 165.661C182.765 163.878 184.016 163.155 185.56 164.047C187.104 164.939 188.355 167.106 188.356 168.888Z" fill="#F5F5F5"/>
<path d="M178.202 162.379V163.356C178.202 165.314 176.828 166.108 175.132 165.129L146.385 148.532C144.689 147.553 143.315 145.172 143.314 143.215V142.237C143.314 140.28 144.689 139.486 146.385 140.465L175.131 157.062C176.828 158.04 178.202 160.421 178.202 162.379Z" fill="#F5F5F5"/>
<path d="M197.411 179.439V166.591L196.736 166.919L196.738 179.828L197.411 179.439Z" fill="#188983"/>
<path opacity="0.2" d="M197.411 179.439V166.591L196.736 166.919L196.738 179.828L197.411 179.439Z" fill="white"/>
<path d="M139.94 131.08C139.94 131.352 140.16 131.7 140.431 131.857L196.713 164.329C196.985 164.485 197.424 164.485 197.696 164.329L241.918 141.96V140.977L184.673 107.928L140.431 130.303C140.16 130.46 139.94 130.807 139.94 131.08Z" fill="#188983"/>
<path opacity="0.5" d="M241.917 140.978L197.7 163.349C197.558 163.435 197.374 163.463 197.204 163.463C197.02 163.463 196.849 163.435 196.708 163.349L140.433 130.868C140.163 130.712 140.163 130.457 140.433 130.301L184.676 107.929L241.917 140.978Z" fill="black"/>
<path opacity="0.2" d="M241.918 140.978V141.96L197.702 164.328C197.56 164.413 197.376 164.441 197.205 164.441V163.463C197.375 163.463 197.559 163.435 197.701 163.349L241.918 140.978Z" fill="white"/>
<path d="M241.246 141.37L183.981 108.33V95.3994L241.244 128.59L241.246 141.37Z" fill="#188983"/>
<path opacity="0.7" d="M241.246 141.37L183.981 108.33V95.3994L241.244 128.59L241.246 141.37Z" fill="black"/>
<path d="M140.55 124.126C140.211 124.321 139.936 124.798 139.936 125.189V127.806C139.936 128.197 140.211 128.673 140.551 128.869L196.587 161.199C196.926 161.395 197.476 161.395 197.816 161.199L235.302 140.923V136.888L178.056 103.84L140.55 124.126Z" fill="#EBEBEB"/>
<path d="M178.055 103.841L140.55 124.126C140.212 124.321 140.211 124.639 140.55 124.834L196.587 157.164C196.926 157.36 197.476 157.36 197.815 157.164L235.301 136.889L178.055 103.841Z" fill="#E5E5E5"/>
<path d="M230.524 137.216C230.654 137.281 230.784 137.333 230.941 137.359C231.162 137.411 231.41 137.411 231.606 137.346C231.684 137.333 231.749 137.307 231.815 137.268C232.153 137.085 232.114 136.746 231.723 136.525C231.554 136.434 231.345 136.369 231.137 136.355C230.876 136.33 230.616 136.369 230.433 136.473C230.407 136.486 230.381 136.499 230.368 136.525C230.107 136.72 230.159 137.007 230.524 137.216Z" fill="#263238"/>
<path d="M197.204 157.301V161.342C196.977 161.342 196.751 161.299 196.58 161.2L140.546 128.874C140.206 128.676 139.937 128.193 139.937 127.811L139.936 125.187C139.936 124.861 140.135 124.464 140.404 124.237C140.22 124.422 140.262 124.662 140.546 124.833L196.58 157.159C196.75 157.258 196.977 157.315 197.204 157.301Z" fill="#E6E6E6"/>
<path d="M237.089 131.62C236.364 131.19 235.463 131.24 234.548 131.768C233.014 132.654 231.691 134.693 231.076 136.909C231.377 136.953 231.748 137.006 231.914 137.033C232.483 135.067 233.648 133.25 234.964 132.49C235.256 132.322 235.634 132.163 236.022 132.163C236.236 132.163 236.454 132.212 236.661 132.336C237.332 132.736 237.707 133.808 237.666 135.201C237.586 137.88 236.053 140.908 234.246 141.951C233.902 142.15 233.439 142.334 232.982 142.262L232.068 142.786C232.086 142.798 232.104 142.81 232.123 142.821C232.447 143.015 232.807 143.11 233.187 143.11C233.657 143.11 234.158 142.965 234.662 142.673C236.724 141.482 238.41 138.211 238.498 135.227C238.55 133.5 238.036 132.186 237.089 131.62Z" fill="#263238"/>
<path d="M139.94 122.87C139.94 123.142 140.16 123.49 140.431 123.647L196.713 156.119C196.984 156.275 197.424 156.275 197.696 156.118L241.917 129.092V128.11L184.673 95.0615L140.431 122.093C140.16 122.25 139.94 122.598 139.94 122.87Z" fill="#188983"/>
<path d="M241.918 128.11L197.701 155.139C197.559 155.224 197.375 155.252 197.205 155.252C197.02 155.253 196.85 155.224 196.708 155.139L140.434 122.657C140.164 122.502 140.164 122.246 140.434 122.09L184.677 95.0615L241.918 128.11Z" fill="#188983"/>
<path opacity="0.35" d="M241.918 128.11L197.701 155.139C197.559 155.224 197.375 155.252 197.205 155.252C197.02 155.253 196.85 155.224 196.708 155.139L140.434 122.657C140.164 122.502 140.164 122.246 140.434 122.09L184.677 95.0615L241.918 128.11Z" fill="white"/>
<path opacity="0.2" d="M241.918 128.11V129.093L197.701 156.118C197.559 156.203 197.375 156.231 197.205 156.231V155.252C197.375 155.252 197.559 155.224 197.701 155.139L241.918 128.11Z" fill="white"/>
<path d="M241.918 140.978L241.919 128.133L241.244 128.59L241.246 141.37L241.918 140.978Z" fill="#188983"/>
<path opacity="0.2" d="M241.918 140.978L241.919 128.133L241.244 128.59L241.246 141.37L241.918 140.978Z" fill="white"/>
<path d="M3.645 223.887C2.99873 223.514 2.61699 222.583 2.79281 221.807L23.2113 131.426C23.3863 130.65 24.0865 129.699 24.7755 129.302L146.262 59.1613C146.951 58.7637 148.033 58.7439 148.679 59.1169C149.325 59.4899 149.707 60.4205 149.531 61.1967L129.113 151.578C128.938 152.354 128.237 153.305 127.548 153.702L6.06139 223.842C5.37314 224.239 4.29127 224.259 3.645 223.887Z" fill="#188983"/>
<path opacity="0.8" d="M3.645 223.887C2.99873 223.514 2.61699 222.583 2.79281 221.807L23.2113 131.426C23.3863 130.65 24.0865 129.699 24.7755 129.302L146.262 59.1613C146.951 58.7637 148.033 58.7439 148.679 59.1169C149.325 59.4899 149.707 60.4205 149.531 61.1967L129.113 151.578C128.938 152.354 128.237 153.305 127.548 153.702L6.06139 223.842C5.37314 224.239 4.29127 224.259 3.645 223.887Z" fill="#373636"/>
<path d="M25.5506 132.776L5.13286 223.158C4.95783 223.933 5.37363 224.24 6.06267 223.842L127.55 153.701C128.239 153.303 128.939 152.352 129.114 151.577L149.532 61.1953C149.707 60.4199 149.292 60.1134 148.603 60.511L27.1148 130.652C26.4265 131.05 25.7264 132.001 25.5506 132.776Z" fill="#188983"/>
<path opacity="0.6" d="M25.5506 132.776L5.13286 223.158C4.95783 223.933 5.37363 224.24 6.06267 223.842L127.55 153.701C128.239 153.303 128.939 152.352 129.114 151.577L149.532 61.1953C149.707 60.4199 149.292 60.1134 148.603 60.511L27.1148 130.652C26.4265 131.05 25.7264 132.001 25.5506 132.776Z" fill="#373636"/>
<path opacity="0.05" d="M25.5506 132.776L5.13286 223.158C4.95783 223.933 5.37363 224.24 6.06267 223.842L127.55 153.701C128.239 153.303 128.939 152.352 129.114 151.577L149.532 61.1953C149.707 60.4199 149.292 60.1134 148.603 60.511L27.1148 130.652C26.4265 131.05 25.7264 132.001 25.5506 132.776Z" fill="black"/>
<path d="M151.016 60.4665C150.37 60.0935 149.288 60.1133 148.599 60.5109L27.1123 130.652C26.4241 131.05 25.9568 132.01 26.0684 132.798L42.0375 244.746C42.15 245.533 42.7646 246.473 43.41 246.846C44.0555 247.219 45.1374 247.2 45.8264 246.802L167.314 176.661C168.002 176.263 168.47 175.303 168.358 174.516L152.39 62.5677C152.277 61.7805 151.662 60.8396 151.016 60.4665Z" fill="#188983"/>
<path opacity="0.8" d="M151.016 60.4665C150.37 60.0935 149.288 60.1133 148.599 60.5109L27.1123 130.652C26.4241 131.05 25.9568 132.01 26.0684 132.798L42.0375 244.746C42.15 245.533 42.7646 246.473 43.41 246.846C44.0555 247.219 45.1374 247.2 45.8264 246.802L167.314 176.661C168.002 176.263 168.47 175.303 168.358 174.516L152.39 62.5677C152.277 61.7805 151.662 60.8396 151.016 60.4665Z" fill="#373636"/>
<path d="M28.4094 134.148L44.3776 246.096C44.4901 246.884 45.1387 247.2 45.8278 246.802L167.316 176.661C168.004 176.263 168.471 175.303 168.359 174.516L152.391 62.5679C152.279 61.7806 151.629 61.4646 150.941 61.8622L29.4532 132.003C28.7642 132.4 28.2969 133.361 28.4094 134.148Z" fill="#188983"/>
<path opacity="0.95" d="M28.4094 134.148L44.3776 246.096C44.4901 246.884 45.1387 247.2 45.8278 246.802L167.316 176.661C168.004 176.263 168.471 175.303 168.359 174.516L152.391 62.5679C152.279 61.7806 151.629 61.4646 150.941 61.8622L29.4532 132.003C28.7642 132.4 28.2969 133.361 28.4094 134.148Z" fill="#373636"/>
<path d="M37.2616 211.233L22.9969 219.463H22.9913C22.6935 219.395 22.3902 219.379 22.113 219.431L5.28621 222.673C5.27037 222.679 5.26007 222.679 5.25453 222.679H5.23869L36.3302 204.717L37.2616 211.233Z" fill="#188983"/>
<path opacity="0.5" d="M37.2616 211.233L22.9969 219.463H22.9913C22.6935 219.395 22.3902 219.379 22.113 219.431L5.28621 222.673C5.27037 222.679 5.26007 222.679 5.25453 222.679H5.23869L36.3302 204.717L37.2616 211.233Z" fill="#373636"/>
<path opacity="0.2" d="M37.2616 211.233L22.9969 219.463H22.9913C22.6935 219.395 22.3902 219.379 22.113 219.431L5.28621 222.673C5.27037 222.679 5.26007 222.679 5.25453 222.679H5.23869L36.3302 204.717L37.2616 211.233Z" fill="black"/>
<path d="M41.9159 243.872L24.3882 220.257C24.0904 219.86 23.5882 219.556 23.06 219.426L37.2621 211.232L41.9159 243.872Z" fill="#188983"/>
<path opacity="0.6" d="M41.9159 243.872L24.3882 220.257C24.0904 219.86 23.5882 219.556 23.06 219.426L37.2621 211.232L41.9159 243.872Z" fill="#373636"/>
<path opacity="0.1" d="M41.9159 243.872L24.3882 220.257C24.0904 219.86 23.5882 219.556 23.06 219.426L37.2621 211.232L41.9159 243.872Z" fill="black"/>
<path d="M41.3648 244.975L24.4066 222.946C23.9219 222.316 22.8907 221.897 22.1035 222.011L6.23973 224.3C5.45248 224.414 4.29062 224.204 3.64514 223.831C2.99887 223.458 3.10817 223.033 3.88908 222.883L22.1145 219.376C22.8955 219.225 23.9124 219.621 24.386 220.26L43.7234 246.309C44.1978 246.948 44.0584 247.163 43.4122 246.79C42.7667 246.418 41.8503 245.604 41.3648 244.975Z" fill="#188983"/>
<path opacity="0.8" d="M41.3648 244.975L24.4066 222.946C23.9219 222.316 22.8907 221.897 22.1035 222.011L6.23973 224.3C5.45248 224.414 4.29062 224.204 3.64514 223.831C2.99887 223.458 3.10817 223.033 3.88908 222.883L22.1145 219.376C22.8955 219.225 23.9124 219.621 24.386 220.26L43.7234 246.309C44.1978 246.948 44.0584 247.163 43.4122 246.79C42.7667 246.418 41.8503 245.604 41.3648 244.975Z" fill="#373636"/>
<path d="M149.57 60.7498C149.558 60.0932 149.207 59.4137 148.683 59.1143C148.032 58.746 146.955 58.7627 146.264 59.1603L24.776 129.303C24.4418 129.493 24.1076 129.821 23.8256 130.19C23.5318 130.581 23.3013 131.031 23.2094 131.428L20.3297 144.196L22.6685 145.538L146.649 73.9588L149.533 61.1957C149.57 61.0294 149.568 60.886 149.57 60.7498Z" fill="#188983"/>
<path opacity="0.6" d="M149.533 61.1953C149.708 60.4199 149.292 60.1134 148.603 60.511L27.1163 130.651C26.4272 131.049 25.7271 132 25.5521 132.775L22.6684 145.539L146.649 73.9584L149.533 61.1953Z" fill="black"/>
<path opacity="0.5" d="M26.1622 131.544C25.8684 131.935 25.6379 132.379 25.5516 132.776L22.6671 145.539L20.3284 144.196L23.2081 131.428C23.3007 131.031 23.5304 130.582 23.8242 130.19L26.1622 131.544Z" fill="black"/>
<path opacity="0.2" d="M149.57 60.7498C149.512 60.3182 149.138 60.2025 148.602 60.5138L27.1135 130.651C26.7792 130.841 26.4395 131.169 26.1631 131.543L23.8251 130.19C24.107 129.822 24.4413 129.493 24.7755 129.303L146.264 59.1603C146.955 58.7627 148.032 58.746 148.683 59.1143C149.206 59.4137 149.558 60.0932 149.57 60.7498Z" fill="black"/>
<path d="M152.539 63.6395L152.543 63.6371L152.39 62.5671C152.383 62.5164 152.368 62.4633 152.357 62.4119C152.354 62.3976 152.352 62.3818 152.348 62.3683L152.346 62.3651C152.169 61.6254 151.608 60.8089 151.017 60.4675C150.37 60.0945 149.289 60.1143 148.6 60.5119L27.1133 130.651C26.7601 130.856 26.4663 131.208 26.2786 131.609L26.2762 131.611C26.0972 131.991 26.0172 132.412 26.0687 132.798L28.3607 148.836L30.6987 150.19L154.681 78.6138L152.539 63.6395Z" fill="#188983"/>
<path opacity="0.2" d="M154.682 78.6144L30.6993 150.19L28.4089 134.147C28.3566 133.765 28.435 133.342 28.6179 132.96C28.8064 132.558 29.1042 132.207 29.4543 132.003L150.944 61.862C151.55 61.5064 152.125 61.7155 152.334 62.3222C152.34 62.338 152.345 62.3539 152.35 62.3697C152.35 62.38 152.356 62.3959 152.356 62.4117C152.372 62.464 152.382 62.5163 152.392 62.5685L152.543 63.6353L152.538 63.6409L154.682 78.6144Z" fill="black"/>
<path opacity="0.5" d="M30.699 150.191L28.361 148.838L26.069 132.799C26.0167 132.413 26.0975 131.992 26.2765 131.612L28.62 132.96C28.4355 133.34 28.3547 133.767 28.407 134.147L30.699 150.191Z" fill="black"/>
<path opacity="0.3" d="M152.349 62.3682C152.159 61.729 151.565 61.4986 150.944 61.8613L29.4551 132.004C29.1035 132.206 28.8041 132.557 28.6204 132.96L26.2768 131.612C26.4669 131.209 26.7608 130.858 27.1116 130.65L148.6 60.5133C149.291 60.1157 150.374 60.0928 151.019 60.4674C151.612 60.8135 152.176 61.6253 152.349 62.3682Z" fill="black"/>
<g opacity="0.2">
<path d="M39.5491 134.278C39.3527 132.9 40.2397 131.178 41.5307 130.432C42.8216 129.686 44.0279 130.2 44.2243 131.578C44.4207 132.956 43.5337 134.678 42.2427 135.424C40.9517 136.169 39.7455 135.656 39.5491 134.278Z" fill="black"/>
<path d="M55.9385 124.818C55.7421 123.44 56.6291 121.718 57.92 120.972C59.211 120.226 60.4172 120.74 60.6136 122.118C60.81 123.496 59.923 125.218 58.6321 125.964C57.3411 126.71 56.1357 126.196 55.9385 124.818Z" fill="black"/>
<path d="M72.301 115.368C72.1045 113.99 72.9916 112.268 74.2825 111.522C75.5735 110.776 76.7797 111.289 76.9761 112.667C77.1725 114.046 76.2855 115.767 74.9945 116.513C73.7036 117.259 72.4974 116.747 72.301 115.368Z" fill="black"/>
<path d="M105.044 96.4649C104.848 95.0868 105.735 93.365 107.026 92.6189C108.317 91.8728 109.523 92.3861 109.719 93.7641C109.916 95.1422 109.029 96.864 107.738 97.6101C106.447 98.3562 105.241 97.8429 105.044 96.4649Z" fill="black"/>
<path d="M121.434 87.0059C121.237 85.6278 122.124 83.906 123.415 83.1599C124.706 82.4139 125.912 82.9271 126.109 84.3052C126.305 85.6832 125.418 87.405 124.127 88.1511C122.836 88.8964 121.63 88.384 121.434 87.0059Z" fill="black"/>
<path d="M137.796 77.5557C137.6 76.1776 138.487 74.455 139.778 73.7097C141.069 72.9637 142.275 73.4769 142.471 74.855C142.668 76.233 141.781 77.9549 140.49 78.7009C139.199 79.4462 137.992 78.9338 137.796 77.5557Z" fill="black"/>
</g>
<path d="M44.5107 129.343C44.5107 129.829 44.4687 130.305 44.3855 130.76C44.3388 131.005 44.281 131.246 44.2081 131.471C43.858 132.648 43.1888 133.542 42.2527 134.08C41.6357 134.442 40.9403 134.624 40.1816 134.624C39.9931 134.624 39.8054 134.614 39.6113 134.588C39.5852 134.489 39.5646 134.389 39.5488 134.28C39.4648 133.684 39.5852 133.02 39.8521 132.403C40.3487 132.465 40.7883 132.387 41.1542 132.178C41.8915 131.75 42.1687 130.85 42.263 130.139C42.2733 130.102 42.2733 130.07 42.2788 130.04C42.2994 129.836 42.3152 129.606 42.3152 129.344C42.3152 127.315 41.4527 125.014 40.1293 123.137C39.6589 122.473 39.1354 121.867 38.5762 121.339C38.0796 120.879 37.5617 120.481 37.0184 120.167C35.8208 119.488 34.7231 119.336 33.9802 119.759C33.2271 120.193 32.8144 121.202 32.8144 122.593C32.8144 123.2 32.8984 123.849 33.0552 124.528L31.0895 125.663L31.053 125.532C30.7655 124.502 30.619 123.514 30.619 122.594C30.619 120.382 31.4245 118.698 32.8833 117.856C34.3366 117.014 36.1931 117.161 38.1176 118.27C38.9698 118.762 39.7856 119.425 40.5332 120.209C41.0615 120.769 41.5636 121.386 42.0127 122.05C43.5278 124.276 44.5107 126.963 44.5107 129.343Z" fill="#263238"/>
<path d="M60.8992 119.883C60.8992 120.369 60.8572 120.845 60.7788 121.3C60.7313 121.551 60.6743 121.796 60.6006 122.027C60.245 123.193 59.5758 124.082 58.6396 124.621C58.0282 124.982 57.3273 125.165 56.5685 125.165C56.3856 125.165 56.1971 125.154 56.0094 125.128C55.9777 125.034 55.9571 124.93 55.9413 124.82C55.8573 124.224 55.973 123.56 56.2391 122.943C56.7412 123.001 57.18 122.927 57.5411 122.718C58.284 122.29 58.5557 121.39 58.6499 120.679C58.6555 120.647 58.6602 120.611 58.6657 120.58C58.6919 120.376 58.7022 120.151 58.7022 119.885C58.7022 117.855 57.8397 115.555 56.5163 113.678C56.0506 113.013 55.5279 112.402 54.9632 111.879C54.4713 111.419 53.9486 111.021 53.4053 110.708C52.2133 110.028 51.1101 109.876 50.3672 110.3C49.6195 110.734 49.2014 111.738 49.2014 113.133C49.2014 113.735 49.2853 114.383 49.4469 115.063L47.4756 116.198L47.4392 116.067C47.1517 115.042 47.0052 114.054 47.0052 113.133C47.0052 110.921 47.8106 109.238 49.2742 108.396C50.7228 107.554 52.584 107.7 54.503 108.804C55.3607 109.3 56.1765 109.965 56.9186 110.749C57.4516 111.308 57.949 111.93 58.3981 112.589C59.9211 114.817 60.8992 117.504 60.8992 119.883Z" fill="#263238"/>
<path d="M77.259 110.435C77.259 110.921 77.217 111.397 77.1386 111.852C77.0911 112.103 77.0341 112.344 76.9612 112.573C76.6056 113.745 75.9364 114.633 75.0002 115.172C74.3888 115.533 73.6879 115.716 72.93 115.716C72.747 115.716 72.5585 115.706 72.37 115.68C72.3383 115.585 72.3177 115.481 72.3019 115.371C72.2179 114.774 72.3328 114.111 72.5997 113.494C73.1018 113.551 73.5406 113.478 73.9017 113.269C74.6494 112.84 74.921 111.935 75.0105 111.225C75.0208 111.193 75.0208 111.162 75.0264 111.13C75.0525 110.926 75.0628 110.696 75.0628 110.435C75.0628 108.406 74.2003 106.111 72.8769 104.234C72.4112 103.569 71.8885 102.958 71.3238 102.429C70.8327 101.969 70.3092 101.572 69.7659 101.258C68.574 100.578 67.4707 100.426 66.7278 100.85C65.9802 101.284 65.562 102.288 65.562 103.684C65.562 104.291 65.6459 104.938 65.8028 105.619L63.837 106.754L63.8006 106.617C63.5131 105.593 63.3666 104.604 63.3666 103.684C63.3666 101.472 64.172 99.7881 65.6309 98.9462C67.085 98.1043 68.9462 98.2508 70.8652 99.3588C71.7174 99.8506 72.5332 100.514 73.2808 101.298C73.8138 101.858 74.3112 102.475 74.7658 103.139C76.2817 105.368 77.259 108.056 77.259 110.435Z" fill="#263238"/>
<path d="M110.009 91.5583C110.009 92.0391 109.973 92.5206 109.889 92.9752C109.841 93.2318 109.784 93.4718 109.71 93.707C109.355 94.8681 108.686 95.7567 107.749 96.2953C107.138 96.6509 106.442 96.8338 105.684 96.8338C105.495 96.8338 105.308 96.8235 105.119 96.7974C105.087 96.6929 105.061 96.5828 105.046 96.4679C104.963 95.8771 105.078 95.2237 105.334 94.6115C105.841 94.6741 106.285 94.6012 106.656 94.3921C107.404 93.9581 107.676 93.0433 107.765 92.321C107.771 92.2949 107.771 92.2743 107.776 92.2482C107.802 92.0494 107.812 91.8197 107.812 91.5583C107.812 89.5189 106.944 87.2134 105.616 85.3308C105.145 84.6671 104.622 84.0605 104.052 83.5322C103.566 83.0823 103.048 82.6903 102.515 82.3822C101.323 81.6971 100.22 81.5506 99.477 81.9743C98.7293 82.4028 98.3159 83.4126 98.3159 84.8081C98.3159 85.3989 98.3888 86.0373 98.5456 86.7113L96.5798 87.8462L96.5482 87.7417C96.2607 86.7113 96.1141 85.7237 96.1141 84.8081C96.1141 82.5913 96.9196 80.9123 98.3832 80.0704C99.8365 79.2285 101.693 79.3694 103.612 80.4782C104.459 80.9645 105.27 81.6235 106.013 82.4028C106.546 82.962 107.048 83.5797 107.498 84.2434C109.026 86.4753 110.009 89.1689 110.009 91.5583Z" fill="#263238"/>
<path d="M126.402 82.094C126.402 82.5858 126.36 83.0618 126.276 83.5164C126.23 83.773 126.172 84.013 126.098 84.2482C125.743 85.4093 125.073 86.2979 124.143 86.8317C123.526 87.1921 122.83 87.3758 122.073 87.3758C121.89 87.3758 121.696 87.3655 121.508 87.3394C121.476 87.2348 121.45 87.1248 121.435 87.0044C121.351 86.4136 121.467 85.7649 121.728 85.1535C122.235 85.216 122.679 85.1432 123.046 84.9286C123.794 84.5001 124.071 83.5845 124.159 82.863C124.165 82.8369 124.165 82.8155 124.17 82.7902C124.19 82.5858 124.206 82.3617 124.206 82.0948C124.206 80.0609 123.338 77.7499 122.005 75.872C121.535 75.2075 121.012 74.5961 120.447 74.0679C119.961 73.618 119.443 73.226 118.91 72.9171C117.718 72.2375 116.615 72.0855 115.872 72.5147C115.119 72.9432 114.706 73.953 114.706 75.3485C114.706 75.9393 114.785 76.5769 114.941 77.2469L112.97 78.3866L112.944 78.2821C112.656 77.2517 112.51 76.2688 112.51 75.3485C112.51 73.1317 113.315 71.4479 114.774 70.6108C116.228 69.7633 118.09 69.9099 120.009 71.0187C120.855 71.5105 121.666 72.1694 122.398 72.9432H122.404C122.942 73.5024 123.439 74.1201 123.889 74.7838C125.413 77.0165 126.402 79.7093 126.402 82.094Z" fill="#263238"/>
<path d="M142.763 72.6454C142.763 73.1372 142.721 73.6124 142.637 74.0678C142.59 74.3133 142.533 74.5541 142.46 74.779C142.11 75.9504 141.44 76.8445 140.504 77.3886C139.887 77.7443 139.192 77.9272 138.433 77.9272C138.25 77.9272 138.062 77.9169 137.874 77.8908C137.842 77.7862 137.816 77.6714 137.801 77.5558C137.717 76.9649 137.833 76.3163 138.089 75.7049C138.591 75.7674 139.035 75.6946 139.407 75.4799C140.154 75.0515 140.426 74.1359 140.515 73.4144C140.521 73.3883 140.521 73.3677 140.526 73.3415C140.552 73.1372 140.568 72.9131 140.568 72.6462C140.568 70.6123 139.7 68.3012 138.367 66.4234C137.896 65.7589 137.368 65.1475 136.803 64.6248C136.317 64.1702 135.805 63.7829 135.272 63.474C134.074 62.7889 132.975 62.6424 132.233 63.0661C131.48 63.4946 131.068 64.5044 131.068 65.8999C131.068 66.4907 131.146 67.1283 131.303 67.8031L129.332 68.938L129.305 68.8335C129.018 67.8031 128.871 66.8155 128.871 65.8999C128.871 63.6831 129.677 62.0041 131.136 61.1622C132.589 60.3203 134.445 60.4612 136.37 61.57C137.217 62.0563 138.022 62.7153 138.765 63.489C139.298 64.0482 139.8 64.6707 140.25 65.3352C141.775 67.5679 142.763 70.2607 142.763 72.6454Z" fill="#263238"/>
<path d="M33.4035 169.042L157.376 97.5264L154.68 78.6143L30.6972 150.137L33.4035 169.042Z" fill="#188983"/>
<g opacity="0.65">
<path d="M33.4035 169.042L157.376 97.5256L154.68 78.6143L30.6972 150.137L33.4035 169.042Z" fill="#373636"/>
</g>
<path d="M43.1791 173.631C43.328 174.675 44.295 175.033 45.3381 174.43L54.6417 169.061C55.6855 168.458 56.4102 167.124 56.2605 166.08C56.1108 165.036 55.1438 164.678 54.1008 165.281L44.7979 170.65C43.7549 171.253 43.0302 172.587 43.1791 173.631Z" fill="#188983"/>
<path d="M58.87 164.571C59.0189 165.615 59.9859 165.973 61.029 165.371L70.3326 160.002C71.3764 159.399 72.1011 158.064 71.9514 157.021C71.8017 155.977 70.8347 155.619 69.7916 156.221L60.4888 161.59C59.4458 162.193 58.7211 163.528 58.87 164.571Z" fill="#188983"/>
<path d="M74.5619 155.511C74.7108 156.555 75.6778 156.913 76.7209 156.31L86.0245 150.941C87.0683 150.338 87.793 149.004 87.6433 147.96C87.4944 146.916 86.5266 146.558 85.4836 147.161L76.1807 152.53C75.1377 153.133 74.413 154.467 74.5619 155.511Z" fill="#188983"/>
<path d="M90.2547 146.45C90.4036 147.494 91.3706 147.852 92.4136 147.25L101.717 141.881C102.76 141.279 103.486 139.943 103.336 138.899C103.186 137.856 102.219 137.498 101.176 138.1L91.8735 143.469C90.8312 144.072 90.1058 145.407 90.2547 146.45Z" fill="#188983"/>
<path d="M105.948 137.39C106.097 138.434 107.064 138.792 108.107 138.189L117.41 132.82C118.454 132.217 119.179 130.883 119.029 129.839C118.88 128.795 117.913 128.437 116.87 129.04L107.567 134.41C106.524 135.011 105.798 136.346 105.948 137.39Z" fill="#188983"/>
<path d="M121.639 128.329C121.787 129.373 122.755 129.731 123.798 129.128L133.102 123.759C134.146 123.157 134.871 121.822 134.721 120.778C134.572 119.735 133.605 119.377 132.561 119.979L123.258 125.348C122.214 125.951 121.49 127.285 121.639 128.329Z" fill="#188983"/>
<path d="M137.33 119.269C137.479 120.313 138.446 120.671 139.489 120.068L148.792 114.699C149.836 114.096 150.561 112.762 150.411 111.718C150.261 110.674 149.294 110.316 148.251 110.919L138.948 116.288C137.906 116.89 137.181 118.225 137.33 119.269Z" fill="#188983"/>
<g opacity="0.17">
<path d="M160.732 173.74C160.473 173.751 160.237 173.579 160.205 173.356L152.626 120.425C152.595 120.203 152.778 120.014 153.038 120.003C153.298 119.993 153.534 120.164 153.566 120.387L161.144 173.318C161.176 173.54 160.991 173.729 160.732 173.74Z" fill="#188983"/>
<path d="M145.033 182.805C144.773 182.815 144.537 182.644 144.505 182.421L136.926 129.489C136.894 129.266 137.078 129.077 137.338 129.067C137.598 129.057 137.834 129.228 137.865 129.451L145.445 182.383C145.476 182.605 145.293 182.795 145.033 182.805Z" fill="#188983"/>
<path d="M129.336 191.868C129.076 191.879 128.841 191.708 128.808 191.484L121.229 138.552C121.197 138.33 121.381 138.141 121.641 138.13C121.9 138.12 122.136 138.291 122.168 138.514L129.747 191.445C129.779 191.669 129.595 191.857 129.336 191.868Z" fill="#188983"/>
<path d="M113.636 200.932C113.376 200.942 113.141 200.771 113.108 200.548L105.529 147.616C105.497 147.393 105.681 147.204 105.941 147.194C106.201 147.184 106.437 147.355 106.468 147.578L114.048 200.51C114.079 200.732 113.896 200.921 113.636 200.932Z" fill="#188983"/>
<path d="M97.9383 209.996C97.6786 210.007 97.4426 209.836 97.4109 209.613L89.8307 156.681C89.799 156.459 89.9835 156.27 90.2425 156.259C90.5023 156.249 90.7383 156.42 90.77 156.643L98.351 209.576C98.3819 209.797 98.1981 209.985 97.9383 209.996Z" fill="#188983"/>
<path d="M82.2385 219.06C81.9788 219.07 81.7427 218.899 81.7111 218.676L74.1316 165.744C74.1 165.521 74.2837 165.332 74.5435 165.322C74.8032 165.311 75.0393 165.483 75.0709 165.705L82.6504 218.637C82.682 218.86 82.4983 219.049 82.2385 219.06Z" fill="#188983"/>
<path d="M66.5397 228.124C66.28 228.134 66.0439 227.963 66.0123 227.74L58.4328 174.808C58.4012 174.586 58.5849 174.396 58.8447 174.386C59.1045 174.376 59.3397 174.547 59.3721 174.77L66.9516 227.702C66.9833 227.924 66.7995 228.113 66.5397 228.124Z" fill="#188983"/>
<path d="M50.8423 237.187C50.5825 237.198 50.3465 237.027 50.3149 236.803L42.7346 183.871C42.703 183.648 42.8867 183.459 43.1465 183.449C43.4063 183.438 43.6415 183.609 43.674 183.833L51.255 236.765C51.2858 236.988 51.1021 237.177 50.8423 237.187Z" fill="#188983"/>
<path d="M45.1567 197.489C44.9951 197.495 44.8264 197.429 44.7211 197.304C44.5635 197.117 44.6046 196.867 44.8137 196.747L154.705 133.3C154.912 133.178 155.21 133.233 155.367 133.422C155.525 133.609 155.483 133.859 155.275 133.979L45.384 197.425C45.3143 197.465 45.2367 197.486 45.1567 197.489Z" fill="#188983"/>
<path d="M47.0503 210.721C46.8887 210.727 46.72 210.661 46.6155 210.536C46.4579 210.349 46.499 210.099 46.7081 209.979L156.599 146.533C156.806 146.41 157.105 146.466 157.262 146.654C157.419 146.842 157.378 147.092 157.169 147.212L47.2776 210.657C47.2087 210.697 47.1303 210.718 47.0503 210.721Z" fill="#188983"/>
<path d="M48.9461 223.954C48.7845 223.96 48.6158 223.894 48.5105 223.769C48.3529 223.581 48.3941 223.332 48.6031 223.212L158.495 159.766C158.702 159.644 159.001 159.7 159.157 159.887C159.315 160.075 159.273 160.324 159.065 160.445L49.1734 223.89C49.1045 223.93 49.0261 223.951 48.9461 223.954Z" fill="#188983"/>
<path d="M50.8424 237.187C50.7616 237.191 50.6776 237.176 50.6 237.142C50.4448 237.077 50.3355 236.947 50.3149 236.803L42.7347 183.871C42.7141 183.727 42.7846 183.59 42.9192 183.513L152.811 120.067C152.946 119.989 153.126 119.982 153.281 120.048C153.436 120.114 153.545 120.243 153.566 120.387L161.145 173.318C161.165 173.462 161.095 173.599 160.959 173.676L51.0697 237.123C51.0024 237.163 50.9231 237.184 50.8424 237.187ZM43.7073 184.066L51.1544 236.067L160.172 173.124L152.727 121.125L43.7073 184.066Z" fill="#188983"/>
</g>
<g opacity="0.17">
<path d="M160.732 173.74C160.473 173.751 160.237 173.579 160.205 173.356L152.626 120.425C152.595 120.203 152.778 120.014 153.038 120.003C153.298 119.993 153.534 120.164 153.566 120.387L161.144 173.318C161.176 173.54 160.991 173.729 160.732 173.74Z" fill="black"/>
<path d="M145.033 182.805C144.773 182.815 144.537 182.644 144.505 182.421L136.926 129.489C136.894 129.266 137.078 129.077 137.338 129.067C137.598 129.057 137.834 129.228 137.865 129.451L145.445 182.383C145.476 182.605 145.293 182.795 145.033 182.805Z" fill="black"/>
<path d="M129.336 191.868C129.076 191.879 128.841 191.708 128.808 191.484L121.229 138.552C121.197 138.33 121.381 138.141 121.641 138.13C121.9 138.12 122.136 138.291 122.168 138.514L129.747 191.445C129.779 191.669 129.595 191.857 129.336 191.868Z" fill="black"/>
<path d="M113.636 200.932C113.376 200.942 113.141 200.771 113.108 200.548L105.529 147.616C105.497 147.393 105.681 147.204 105.941 147.194C106.201 147.184 106.437 147.355 106.468 147.578L114.048 200.51C114.079 200.732 113.896 200.921 113.636 200.932Z" fill="black"/>
<path d="M97.9383 209.996C97.6786 210.007 97.4426 209.836 97.4109 209.613L89.8307 156.681C89.799 156.459 89.9835 156.27 90.2425 156.259C90.5023 156.249 90.7383 156.42 90.77 156.643L98.351 209.576C98.3819 209.797 98.1981 209.985 97.9383 209.996Z" fill="black"/>
<path d="M82.2385 219.06C81.9788 219.07 81.7427 218.899 81.7111 218.676L74.1316 165.744C74.1 165.521 74.2837 165.332 74.5435 165.322C74.8032 165.311 75.0393 165.483 75.0709 165.705L82.6504 218.637C82.682 218.86 82.4983 219.049 82.2385 219.06Z" fill="black"/>
<path d="M66.5397 228.124C66.28 228.134 66.0439 227.963 66.0123 227.74L58.4328 174.808C58.4012 174.586 58.5849 174.396 58.8447 174.386C59.1045 174.376 59.3397 174.547 59.3721 174.77L66.9516 227.702C66.9833 227.924 66.7995 228.113 66.5397 228.124Z" fill="black"/>
<path d="M50.8423 237.187C50.5825 237.198 50.3465 237.027 50.3149 236.803L42.7346 183.871C42.703 183.648 42.8867 183.459 43.1465 183.449C43.4063 183.438 43.6415 183.609 43.674 183.833L51.255 236.765C51.2858 236.988 51.1021 237.177 50.8423 237.187Z" fill="black"/>
<path d="M45.1567 197.489C44.9951 197.495 44.8264 197.429 44.7211 197.304C44.5635 197.117 44.6046 196.867 44.8137 196.747L154.705 133.3C154.912 133.178 155.21 133.233 155.367 133.422C155.525 133.609 155.483 133.859 155.275 133.979L45.384 197.425C45.3143 197.465 45.2367 197.486 45.1567 197.489Z" fill="black"/>
<path d="M47.0503 210.721C46.8887 210.727 46.72 210.661 46.6155 210.536C46.4579 210.349 46.499 210.099 46.7081 209.979L156.599 146.533C156.806 146.41 157.105 146.466 157.262 146.654C157.419 146.842 157.378 147.092 157.169 147.212L47.2776 210.657C47.2087 210.697 47.1303 210.718 47.0503 210.721Z" fill="black"/>
<path d="M48.9461 223.954C48.7845 223.96 48.6158 223.894 48.5105 223.769C48.3529 223.581 48.3941 223.332 48.6031 223.212L158.495 159.766C158.702 159.644 159.001 159.7 159.157 159.887C159.315 160.075 159.273 160.324 159.065 160.445L49.1734 223.89C49.1045 223.93 49.0261 223.951 48.9461 223.954Z" fill="black"/>
<path d="M50.8424 237.187C50.7616 237.191 50.6776 237.176 50.6 237.142C50.4448 237.077 50.3355 236.947 50.3149 236.803L42.7347 183.871C42.7141 183.727 42.7846 183.59 42.9192 183.513L152.811 120.067C152.946 119.989 153.126 119.982 153.281 120.048C153.436 120.114 153.545 120.243 153.566 120.387L161.145 173.318C161.165 173.462 161.095 173.599 160.959 173.676L51.0697 237.123C51.0024 237.163 50.9231 237.184 50.8424 237.187ZM43.7073 184.066L51.1544 236.067L160.172 173.124L152.727 121.125L43.7073 184.066Z" fill="black"/>
</g>
<path d="M63.6807 189.769C67.335 190.51 71.0178 191.127 74.6918 191.759C75.1472 191.838 75.6019 191.916 76.0573 191.995C76.6956 192.105 76.9514 191.203 76.2695 191.085C72.7918 190.487 69.311 189.903 65.827 189.342C65.1712 189.237 64.5155 189.137 63.8573 189.046C63.3093 188.969 63.1105 189.653 63.6807 189.769Z" fill="#455A64"/>
<path d="M74.1444 183.267C73.6731 183.746 73.2969 184.312 72.9286 184.872C72.2246 185.945 71.5173 187.015 70.8116 188.087C69.2514 190.458 67.7117 192.843 66.165 195.224C65.6866 195.96 65.1449 196.683 64.7188 197.452C64.638 197.597 64.661 197.799 64.8051 197.902C64.84 197.927 64.8748 197.952 64.9089 197.978C64.8732 197.856 64.8384 197.734 64.8027 197.612C64.8004 197.616 64.798 197.62 64.7964 197.623C64.6499 197.848 65.0649 198.234 65.2304 197.98C65.2027 198.023 65.4712 197.886 65.5203 197.826C65.5559 197.783 65.5836 197.728 65.6145 197.681C65.7024 197.547 65.7896 197.412 65.8767 197.277C66.1301 196.885 66.3836 196.494 66.6378 196.103C67.3799 194.958 68.1228 193.812 68.8649 192.667C70.4497 190.222 72.0194 187.769 73.5931 185.317C73.9464 184.767 74.3202 184.204 74.5372 183.582C74.6085 183.377 74.3249 183.083 74.1444 183.267Z" fill="#455A64"/>
<path d="M79.0551 180.328C82.7094 181.069 86.3922 181.686 90.0663 182.318C90.5217 182.396 90.9763 182.475 91.4317 182.553C92.07 182.663 92.3258 181.761 91.6439 181.644C88.1663 181.046 84.6854 180.462 81.2014 179.901C80.5457 179.795 79.8899 179.696 79.2317 179.605C78.6845 179.528 78.4857 180.212 79.0551 180.328Z" fill="#455A64"/>
<path d="M89.5192 173.825C89.0479 174.305 88.6717 174.871 88.3034 175.431C87.5993 176.503 86.8921 177.574 86.1864 178.646C84.6262 181.017 83.0865 183.402 81.5398 185.782C81.0614 186.519 80.5197 187.242 80.0936 188.01C80.0128 188.156 80.0358 188.357 80.1799 188.461C80.2148 188.485 80.2496 188.511 80.2837 188.537C80.248 188.415 80.2132 188.293 80.1775 188.171C80.1752 188.174 80.1728 188.178 80.1712 188.181C80.0247 188.407 80.4397 188.793 80.6052 188.538C80.5775 188.58 80.846 188.443 80.8951 188.385C80.9307 188.341 80.9584 188.287 80.9893 188.24C81.0772 188.105 81.1644 187.971 81.2515 187.835C81.5049 187.444 81.7584 187.053 82.0126 186.661C82.7547 185.516 83.4976 184.371 84.2397 183.226C85.8245 180.782 87.3942 178.328 88.9679 175.876C89.3212 175.325 89.6958 174.762 89.912 174.141C89.9833 173.936 89.6997 173.642 89.5192 173.825Z" fill="#455A64"/>
<path d="M94.9552 171.273C98.6095 172.014 102.292 172.631 105.966 173.263C106.422 173.342 106.876 173.42 107.332 173.499C107.97 173.609 108.226 172.707 107.544 172.589C104.066 171.991 100.585 171.407 97.1015 170.846C96.4457 170.741 95.7899 170.641 95.1318 170.55C94.5845 170.473 94.3849 171.157 94.9552 171.273Z" fill="#455A64"/>
<path d="M105.418 164.771C104.947 165.25 104.571 165.816 104.202 166.376C103.498 167.449 102.791 168.519 102.085 169.591C100.525 171.962 98.9854 174.347 97.4387 176.728C96.9603 177.464 96.4178 178.187 95.9925 178.956C95.9117 179.101 95.9347 179.302 96.0788 179.406C96.1137 179.431 96.1485 179.456 96.1826 179.482C96.1469 179.36 96.1121 179.238 96.0764 179.116C96.0741 179.12 96.0717 179.123 96.0701 179.127C95.9236 179.352 96.3386 179.738 96.5041 179.484C96.4764 179.527 96.7449 179.39 96.794 179.33C96.8296 179.287 96.8573 179.232 96.8882 179.185C96.9761 179.051 97.0633 178.915 97.1504 178.781C97.4038 178.389 97.6581 177.998 97.9115 177.607C98.6536 176.462 99.3965 175.316 100.139 174.171C101.723 171.726 103.293 169.273 104.867 166.821C105.22 166.271 105.594 165.708 105.811 165.086C105.882 164.881 105.599 164.587 105.418 164.771Z" fill="#455A64"/>
<path d="M110.761 162.093C114.416 162.835 118.098 163.452 121.772 164.084C122.228 164.162 122.682 164.24 123.138 164.319C123.776 164.429 124.032 163.527 123.35 163.41C119.872 162.812 116.392 162.227 112.908 161.666C112.252 161.561 111.596 161.461 110.938 161.37C110.391 161.293 110.191 161.978 110.761 162.093Z" fill="#455A64"/>
<path d="M121.224 155.592C120.753 156.071 120.377 156.637 120.009 157.198C119.305 158.271 118.598 159.341 117.892 160.413C116.332 162.784 114.792 165.169 113.245 167.55C112.767 168.286 112.225 169.009 111.799 169.778C111.719 169.923 111.741 170.125 111.886 170.228C111.92 170.253 111.955 170.278 111.989 170.304C111.954 170.182 111.919 170.06 111.883 169.938C111.881 169.942 111.879 169.946 111.877 169.949C111.73 170.174 112.145 170.56 112.311 170.306C112.283 170.349 112.552 170.212 112.601 170.152C112.636 170.109 112.664 170.054 112.695 170.007C112.783 169.873 112.87 169.738 112.957 169.603C113.211 169.211 113.465 168.82 113.718 168.429C114.46 167.284 115.203 166.138 115.945 164.993C117.53 162.549 119.1 160.095 120.674 157.643C121.027 157.093 121.401 156.53 121.618 155.908C121.689 155.702 121.405 155.408 121.224 155.592Z" fill="#455A64"/>
<path d="M126.457 153.035C130.111 153.776 133.794 154.393 137.468 155.025C137.923 155.103 138.378 155.182 138.833 155.26C139.472 155.37 139.728 154.468 139.046 154.351C135.568 153.752 132.087 153.169 128.603 152.608C127.947 152.503 127.292 152.403 126.633 152.312C126.086 152.235 125.887 152.919 126.457 153.035Z" fill="#455A64"/>
<path d="M136.921 146.532C136.45 147.012 136.073 147.578 135.705 148.138C135.001 149.21 134.294 150.281 133.588 151.353C132.028 153.724 130.488 156.109 128.941 158.489C128.463 159.226 127.921 159.949 127.495 160.717C127.415 160.863 127.437 161.064 127.582 161.168C127.616 161.192 127.651 161.218 127.685 161.244C127.65 161.122 127.615 161 127.579 160.878C127.577 160.881 127.575 160.885 127.573 160.888C127.426 161.114 127.841 161.5 128.007 161.245C127.979 161.288 128.248 161.151 128.297 161.092C128.332 161.048 128.36 160.994 128.391 160.947C128.479 160.812 128.566 160.677 128.653 160.542C128.907 160.151 129.16 159.76 129.414 159.368C130.157 158.223 130.899 157.078 131.641 155.933C133.226 153.489 134.796 151.035 136.37 148.583C136.723 148.033 137.097 147.469 137.314 146.848C137.385 146.643 137.101 146.349 136.921 146.532Z" fill="#455A64"/>
<path d="M65.7494 201.979C69.4037 202.72 73.0865 203.337 76.7606 203.969C77.216 204.048 77.6706 204.126 78.126 204.205C78.7643 204.315 79.0202 203.413 78.3382 203.295C74.8606 202.697 71.3798 202.113 67.8958 201.552C67.24 201.447 66.5842 201.347 65.9261 201.256C65.3788 201.179 65.1792 201.863 65.7494 201.979Z" fill="#455A64"/>
<path d="M76.2129 195.477C75.7417 195.956 75.3655 196.522 74.9972 197.082C74.2931 198.155 73.5859 199.225 72.8802 200.298C71.32 202.669 69.7803 205.054 68.2335 207.434C67.7552 208.171 67.2135 208.894 66.7874 209.662C66.7066 209.808 66.7295 210.009 66.8737 210.113C66.9085 210.138 66.9434 210.163 66.9774 210.189C66.9418 210.067 66.907 209.945 66.8713 209.823C66.8689 209.826 66.8666 209.83 66.8642 209.833C66.7177 210.059 67.1327 210.445 67.2982 210.191C67.2705 210.233 67.539 210.096 67.5881 210.037C67.6237 209.993 67.6514 209.939 67.6823 209.892C67.7702 209.757 67.8574 209.623 67.9445 209.487C68.1979 209.096 68.4513 208.705 68.7056 208.314C69.4477 207.168 70.1906 206.023 70.9327 204.878C72.5175 202.433 74.0872 199.98 75.6609 197.528C76.0141 196.978 76.388 196.415 76.605 195.793C76.677 195.588 76.3935 195.293 76.2129 195.477Z" fill="#455A64"/>
<path d="M113.506 179.426C112.629 178.588 111.414 178.177 110.235 178.001C107.87 177.648 105.375 178.381 103.668 180.068C103.442 180.292 103.875 180.713 104.114 180.51C105.667 179.181 107.763 178.466 109.804 178.673C110.784 178.772 111.824 179.074 112.599 179.703C113.409 180.361 113.701 181.347 113.644 182.363C113.542 184.177 112.676 186.011 111.712 187.523C110.713 189.091 109.434 190.457 107.97 191.599C106.518 192.732 104.874 193.644 103.142 194.27C101.357 194.914 99.2049 195.447 97.3667 194.702C95.5768 193.978 94.6652 192.121 94.5828 190.267C94.4854 188.073 95.3471 185.844 96.4504 184.011C97.7326 181.88 99.5075 180.303 101.51 178.834C102.492 178.115 103.553 177.42 104.658 176.909C106.097 176.244 107.183 176.003 108.359 175.692C108.924 175.542 108.237 175.14 107.682 175.232C106.414 175.443 106.194 175.445 104.564 176.123C103.403 176.607 101.846 177.472 100.823 178.202C98.7971 179.649 96.863 181.328 95.5546 183.449C94.3262 185.441 93.4812 187.765 93.5334 190.162C93.5762 192.154 94.4799 194.151 96.2381 195.184C98.1682 196.318 100.623 196.018 102.664 195.382C104.637 194.766 106.497 193.828 108.171 192.618C109.792 191.445 111.231 189.995 112.354 188.336C113.477 186.678 114.461 184.649 114.601 182.624C114.683 181.438 114.384 180.266 113.506 179.426Z" fill="#188983"/>
<path d="M191.236 224.046L196.129 226.338L200.996 228.668L210.69 233.385L220.329 238.185L225.128 240.615L229.902 243.082L225.009 240.791L220.142 238.461L210.447 233.743L200.81 228.942L196.01 226.513L191.236 224.046Z" fill="#E0E0E0"/>
<path d="M199.116 233.751C200.214 234.238 201.295 234.747 202.385 235.245L205.629 236.776C207.789 237.8 209.927 238.857 212.077 239.896C214.208 240.964 216.349 242.017 218.469 243.099L221.645 244.731C222.695 245.288 223.753 245.832 224.795 246.4C223.698 245.913 222.616 245.404 221.526 244.907L218.281 243.375C216.122 242.35 213.983 241.295 211.834 240.254C209.704 239.185 207.562 238.134 205.442 237.051L202.266 235.42C201.217 234.863 200.159 234.319 199.116 233.751Z" fill="#E0E0E0"/>
<path d="M179.174 208.813L175.161 206.765C172.482 205.405 169.783 204.075 167.094 202.729C164.385 201.413 162.91 200.682 160.192 199.38L157.3 198V198.275L160.006 199.655C162.684 201.016 164.163 201.741 166.851 203.088C169.558 204.405 172.256 205.738 174.974 207.041L179.055 208.988C180.424 209.625 181.785 210.273 183.162 210.898C181.84 210.192 180.503 209.509 179.174 208.813Z" fill="#E0E0E0"/>
<path d="M158.663 204.624C159.383 204.928 160.088 205.254 160.801 205.568L162.912 206.55C164.319 207.205 165.708 207.888 167.096 208.571C168.478 209.263 169.86 209.955 171.223 210.675L173.267 211.757C173.939 212.13 174.62 212.491 175.285 212.876C174.564 212.573 173.86 212.246 173.147 211.932L171.035 210.951C169.627 210.296 168.239 209.613 166.851 208.929C165.469 208.237 164.087 207.545 162.725 206.824L160.681 205.743C160.009 205.369 159.328 205.008 158.663 204.624Z" fill="#E0E0E0"/>
</svg>
