<svg width="275" height="235" viewBox="0 0 275 235" fill="none" xmlns="http://www.w3.org/2000/svg">
<path d="M131.582 235C203.058 235 261 208.254 261 175.261C261 142.268 203.058 115.521 131.582 115.521C60.1065 115.521 2.16406 142.268 2.16406 175.261C2.16406 208.254 60.1065 235 131.582 235Z" fill="#E5E5E5"/>
<path d="M240.319 154.663C240.63 154.483 240.786 154.248 240.786 154.013C240.787 153.776 240.786 153.009 240.786 153.009L185.331 121.615C184.707 121.255 183.696 121.255 183.073 121.615L139.469 146.79L196.734 179.829L240.319 154.663Z" fill="#188983"/>
<path opacity="0.2" d="M240.319 154.663C240.63 154.483 240.786 154.248 240.786 154.013C240.787 153.776 240.786 153.009 240.786 153.009L185.331 121.615C184.707 121.255 183.696 121.255 183.073 121.615L139.469 146.79L196.734 179.829L240.319 154.663Z" fill="#373636"/>
<path d="M240.32 153.686C240.943 153.326 240.943 152.742 240.32 152.382L185.332 120.637C184.708 120.277 183.698 120.277 183.073 120.637L139.469 145.813L196.734 178.852L240.32 153.686Z" fill="#188983"/>
<path opacity="0.5" d="M240.32 153.686C240.943 153.326 240.943 152.742 240.32 152.382L185.332 120.637C184.708 120.277 183.698 120.277 183.073 120.637L139.469 145.813L196.734 178.852L240.32 153.686Z" fill="black"/>
<path d="M149.506 139.233L181.789 120.605C182.412 120.245 183.423 120.245 184.047 120.604L235.304 150.195L239.502 147.75V152.722L239.424 152.769C239.563 153.075 239.451 153.413 239.034 153.653L202.064 174.989L144.799 141.95V136.518L149.506 139.233Z" fill="#EBEBEB"/>
<path d="M239.034 148.221C239.657 147.86 239.657 147.277 239.034 146.917L184.046 115.172C183.423 114.812 182.412 114.812 181.788 115.172L144.798 136.518L202.063 169.557L239.034 148.221Z" fill="#E5E5E5"/>
<path d="M202.064 169.557V174.988L144.799 141.949V136.518L202.064 169.557Z" fill="#E6E6E6"/>
<path d="M201.466 167.435C201.596 167.5 201.726 167.553 201.883 167.578C202.105 167.631 202.352 167.631 202.548 167.565C202.626 167.552 202.692 167.526 202.757 167.487C203.096 167.305 203.057 166.965 202.666 166.744C202.496 166.653 202.288 166.587 202.08 166.574C201.819 166.548 201.558 166.587 201.376 166.692C201.349 166.704 201.323 166.718 201.31 166.744C201.048 166.94 201.101 167.227 201.466 167.435Z" fill="#263238"/>
<path d="M195.767 171.686C195.767 172.455 195.963 173.094 196.341 173.563C196.732 174.059 197.306 174.333 197.958 174.332C197.971 174.333 197.971 174.333 197.971 174.333C198.466 174.332 199.001 174.176 199.535 173.863C199.626 173.811 199.73 173.759 199.822 173.694L199.183 173.329C197.645 174.19 196.419 173.459 196.419 171.686C196.419 169.913 197.67 167.736 199.209 166.849C200.044 166.367 200.8 166.353 201.308 166.745C201.569 166.915 201.765 167.201 201.882 167.579C202.103 167.632 202.351 167.632 202.547 167.566C202.455 167.175 202.299 166.836 202.078 166.575C201.687 166.093 201.126 165.819 200.461 165.819C199.952 165.819 199.431 165.976 198.883 166.289C197.137 167.292 195.767 169.665 195.767 171.686Z" fill="#263238"/>
<path d="M197.388 166.553L240.787 145.344L240.787 146.052C240.787 146.412 240.534 146.85 240.222 147.03L197.388 167.537L197.388 166.553Z" fill="#188983"/>
<path opacity="0.2" d="M197.388 166.553L240.787 145.344L240.787 146.052C240.787 146.412 240.534 146.85 240.222 147.03L197.388 167.537L197.388 166.553Z" fill="#373636"/>
<path d="M240.319 145.99C240.943 145.629 240.943 145.045 240.319 144.686L185.332 112.941C184.708 112.581 183.697 112.581 183.074 112.941L139.47 133.876L196.735 166.915L240.319 145.99Z" fill="#188983"/>
<path opacity="0.2" d="M240.319 145.99C240.943 145.629 240.943 145.045 240.319 144.686L185.332 112.941C184.708 112.581 183.697 112.581 183.074 112.941L139.47 133.876L196.735 166.915L240.319 145.99Z" fill="black"/>
<path d="M196.735 179.829L139.47 146.79V133.859L196.733 166.92L196.735 179.829Z" fill="#188983"/>
<path d="M186.807 171.536C187.46 171.536 188.038 171.262 188.432 170.767C188.807 170.298 189.004 169.648 189.004 168.888C189.003 166.869 187.632 164.495 185.882 163.484C185.342 163.172 184.813 163.015 184.307 163.015C182.992 163.015 182.108 164.078 182.108 165.662C182.108 167.684 183.481 170.057 185.231 171.068C185.771 171.378 186.3 171.536 186.805 171.536C186.805 171.536 186.805 171.536 186.807 171.536Z" fill="#455A64"/>
<path d="M188.353 168.89C188.354 170.672 187.103 171.394 185.558 170.503C184.013 169.613 182.761 167.445 182.761 165.663C182.761 163.88 184.013 163.157 185.557 164.049C187.1 164.941 188.352 167.108 188.353 168.89Z" fill="#F5F5F5"/>
<path d="M178.199 162.381V163.358C178.199 165.316 176.825 166.11 175.129 165.131L146.382 148.534C144.687 147.555 143.312 145.174 143.312 143.217V142.239C143.312 140.282 144.686 139.488 146.382 140.467L175.128 157.064C176.825 158.042 178.199 160.423 178.199 162.381Z" fill="#F5F5F5"/>
<path d="M197.408 179.441V166.593L196.733 166.921L196.735 179.83L197.408 179.441Z" fill="#188983"/>
<path opacity="0.2" d="M197.408 179.441V166.593L196.733 166.921L196.735 179.83L197.408 179.441Z" fill="#373636"/>
<path d="M139.938 131.082C139.938 131.354 140.157 131.702 140.429 131.859L196.711 164.331C196.983 164.487 197.422 164.487 197.694 164.331L241.916 141.961V140.979L184.671 107.93L140.429 130.305C140.157 130.462 139.938 130.809 139.938 131.082Z" fill="#188983"/>
<path opacity="0.5" d="M241.915 140.98L197.698 163.351C197.557 163.437 197.372 163.465 197.202 163.465C197.018 163.465 196.848 163.437 196.706 163.351L140.431 130.87C140.161 130.714 140.161 130.459 140.431 130.302L184.674 107.931L241.915 140.98Z" fill="black"/>
<path opacity="0.2" d="M241.916 140.979V141.962L197.7 164.33C197.558 164.415 197.373 164.443 197.203 164.443V163.465C197.373 163.465 197.557 163.437 197.699 163.351L241.916 140.979Z" fill="#373636"/>
<path d="M241.244 141.37L183.979 108.331V95.4004L241.243 128.591L241.244 141.37Z" fill="#188983"/>
<path opacity="0.7" d="M241.244 141.37L183.979 108.331V95.4004L241.243 128.591L241.244 141.37Z" fill="black"/>
<path d="M140.548 124.127C140.21 124.322 139.934 124.799 139.935 125.19V127.807C139.935 128.198 140.21 128.674 140.549 128.87L196.586 161.2C196.924 161.396 197.474 161.396 197.814 161.2L235.3 140.924V136.889L178.054 103.841L140.548 124.127Z" fill="#EBEBEB"/>
<path d="M178.054 103.842L140.549 124.127C140.21 124.322 140.21 124.639 140.549 124.835L196.585 157.165C196.925 157.361 197.475 157.361 197.814 157.165L235.3 136.89L178.054 103.842Z" fill="#E5E5E5"/>
<path d="M230.522 137.217C230.652 137.282 230.783 137.334 230.939 137.36C231.161 137.412 231.409 137.412 231.604 137.347C231.682 137.334 231.748 137.308 231.813 137.269C232.152 137.086 232.113 136.747 231.722 136.526C231.552 136.435 231.344 136.37 231.135 136.356C230.875 136.331 230.614 136.37 230.431 136.474C230.406 136.487 230.379 136.5 230.366 136.526C230.105 136.721 230.157 137.008 230.522 137.217Z" fill="#263238"/>
<path d="M197.203 157.302V161.343C196.976 161.343 196.749 161.3 196.579 161.201L140.545 128.875C140.205 128.677 139.935 128.194 139.935 127.812L139.935 125.188C139.935 124.862 140.133 124.465 140.403 124.238C140.218 124.423 140.261 124.663 140.545 124.834L196.578 157.16C196.748 157.259 196.976 157.316 197.203 157.302Z" fill="#E6E6E6"/>
<path d="M237.087 131.621C236.362 131.191 235.462 131.241 234.546 131.769C233.012 132.655 231.689 134.694 231.074 136.91C231.376 136.954 231.746 137.007 231.913 137.034C232.482 135.068 233.647 133.251 234.963 132.491C235.254 132.323 235.633 132.164 236.02 132.164C236.234 132.164 236.452 132.213 236.66 132.337C237.33 132.737 237.706 133.809 237.664 135.202C237.585 137.881 236.051 140.909 234.244 141.952C233.901 142.151 233.437 142.335 232.981 142.263L232.066 142.787C232.084 142.799 232.102 142.811 232.121 142.821C232.445 143.016 232.805 143.111 233.186 143.111C233.655 143.111 234.156 142.966 234.66 142.674C236.723 141.483 238.408 138.212 238.497 135.228C238.548 133.501 238.034 132.187 237.087 131.621Z" fill="#263238"/>
<path d="M139.938 122.871C139.938 123.143 140.157 123.491 140.429 123.648L196.711 156.12C196.982 156.276 197.422 156.276 197.694 156.119L241.915 129.093V128.111L184.671 95.0625L140.429 122.094C140.157 122.251 139.938 122.599 139.938 122.871Z" fill="#188983"/>
<path d="M241.916 128.111L197.699 155.14C197.557 155.225 197.373 155.253 197.203 155.253C197.018 155.254 196.848 155.225 196.706 155.14L140.432 122.658C140.162 122.503 140.162 122.247 140.432 122.091L184.675 95.0625L241.916 128.111Z" fill="#188983"/>
<path opacity="0.35" d="M241.916 128.111L197.699 155.14C197.557 155.225 197.373 155.253 197.203 155.253C197.018 155.254 196.848 155.225 196.706 155.14L140.432 122.658C140.162 122.503 140.162 122.247 140.432 122.091L184.675 95.0625L241.916 128.111Z" fill="#373636"/>
<path opacity="0.2" d="M241.916 128.111V129.094L197.699 156.119C197.557 156.204 197.373 156.232 197.203 156.232V155.253C197.373 155.253 197.557 155.225 197.699 155.14L241.916 128.111Z" fill="#373636"/>
<path d="M241.916 140.979L241.917 128.134L241.242 128.591L241.244 141.371L241.916 140.979Z" fill="#188983"/>
<path opacity="0.2" d="M241.916 140.979L241.917 128.134L241.242 128.591L241.244 141.371L241.916 140.979Z" fill="#373636"/>
<path opacity="0.4" d="M147.826 118.476L185.19 96.9062L239.088 128.081L201.724 149.652L147.826 118.476Z" fill="#188983"/>
<path d="M152.605 118.431L201.925 146.959V116.708L152.605 88.1797L152.605 118.431Z" fill="#777777"/>
<path d="M236.113 127.219L201.925 146.958V116.707L236.114 96.9678L236.113 127.219Z" fill="#777777"/>
<path d="M153.141 88.1802L186.795 68.752L235.577 96.9686L201.925 116.398L153.141 88.1802Z" fill="#373636"/>
<path d="M186.794 69.0613L235.041 96.9677L201.925 116.087L153.677 88.1798L186.794 69.0613ZM186.795 68.4414L152.605 88.1793L201.925 116.707L236.114 96.9683L186.795 68.4414Z" fill="#777777"/>
<path opacity="0.1" d="M178.308 113.191L201.925 126.827L216.096 118.646L201.925 127.672L178.308 113.191Z" fill="black"/>
<path opacity="0.1" d="M164.135 112.631L201.923 134.448L230.265 118.086L201.924 135.273L164.135 112.631Z" fill="black"/>
<path opacity="0.1" d="M157.35 99.4033C157.35 99.4033 156.569 103.816 156.961 106.049C156.961 106.049 163.146 105.897 173.583 108.776L157.35 99.4033Z" fill="black"/>
<path d="M157.349 99.4033L173.583 108.776L155.621 103.591L157.349 99.4033Z" fill="#373636"/>
<path opacity="0.1" d="M178.308 125.552L196.105 141.915C196.105 141.915 196.599 139.665 200.015 138.085L178.308 125.552Z" fill="black"/>
<path d="M178.308 125.552L195.022 139.626L200.015 138.085L178.308 125.552Z" fill="#373636"/>
<path opacity="0.1" d="M230.418 108.998C230.325 108.854 230.268 108.776 230.268 108.776L219.021 115.27L231.68 114.23C232.115 111.88 230.864 109.686 230.418 108.998Z" fill="black"/>
<path d="M219.02 115.27L230.267 108.776L234.012 110.752L219.02 115.27Z" fill="#E5E5E5"/>
<g opacity="0.15">
<path d="M161.295 90.2834C161.145 90.2834 160.999 90.2053 160.917 90.0656C160.797 89.8572 160.868 89.5904 161.077 89.47L189.418 73.1064C189.626 72.9881 189.893 73.0574 190.014 73.2659C190.135 73.4743 190.063 73.7411 189.854 73.8615L161.513 90.2246C161.445 90.2647 161.369 90.2834 161.295 90.2834Z" fill="black"/>
<path d="M166.018 93.0099C165.868 93.0099 165.721 92.9318 165.64 92.7921C165.519 92.5837 165.591 92.3169 165.8 92.1965L194.141 75.8334C194.347 75.7141 194.615 75.7845 194.737 75.9929C194.857 76.2014 194.786 76.4681 194.577 76.5886L166.236 92.9516C166.168 92.9918 166.091 93.0099 166.018 93.0099Z" fill="black"/>
<path d="M170.741 95.7379C170.591 95.7379 170.445 95.6598 170.363 95.5201C170.243 95.3117 170.314 95.0449 170.523 94.9245L198.865 78.5614C199.073 78.441 199.34 78.5125 199.461 78.7209C199.582 78.9294 199.51 79.1961 199.301 79.3166L170.96 95.6791C170.891 95.7192 170.815 95.7379 170.741 95.7379Z" fill="black"/>
<path d="M175.466 98.4653C175.316 98.4653 175.169 98.3873 175.088 98.2476C174.967 98.0391 175.039 97.7724 175.248 97.6519L203.588 81.2889C203.791 81.1695 204.06 81.2383 204.184 81.4484C204.304 81.6568 204.233 81.9236 204.024 82.044L175.684 98.4076C175.615 98.4467 175.539 98.4653 175.466 98.4653Z" fill="black"/>
<path d="M180.189 101.193C180.039 101.193 179.893 101.115 179.811 100.975C179.69 100.767 179.762 100.5 179.971 100.38L208.312 84.0171C208.518 83.8972 208.786 83.9687 208.908 84.1766C209.028 84.3851 208.957 84.6518 208.748 84.7723L180.407 101.135C180.339 101.174 180.263 101.193 180.189 101.193Z" fill="black"/>
<path d="M184.913 103.92C184.762 103.92 184.616 103.841 184.534 103.702C184.414 103.494 184.485 103.227 184.694 103.107L213.034 86.7436C213.242 86.6237 213.509 86.6957 213.63 86.9031C213.751 87.1115 213.679 87.3783 213.47 87.4987L185.13 103.862C185.063 103.901 184.986 103.92 184.913 103.92Z" fill="black"/>
<path d="M189.636 106.647C189.486 106.647 189.34 106.569 189.258 106.429C189.137 106.221 189.209 105.954 189.418 105.834L217.759 89.4701C217.967 89.3508 218.234 89.4212 218.355 89.6296C218.476 89.8381 218.404 90.1048 218.195 90.2253L189.854 106.589C189.786 106.628 189.71 106.647 189.636 106.647Z" fill="black"/>
<path d="M194.361 109.375C194.211 109.375 194.064 109.296 193.982 109.157C193.862 108.949 193.933 108.682 194.142 108.562L222.484 92.1985C222.691 92.0792 222.959 92.1501 223.08 92.358C223.201 92.5665 223.129 92.8332 222.92 92.9537L194.579 109.317C194.51 109.356 194.435 109.375 194.361 109.375Z" fill="black"/>
<path d="M199.084 112.102C198.934 112.102 198.788 112.023 198.706 111.884C198.586 111.675 198.657 111.409 198.866 111.288L227.208 94.9245C227.416 94.8062 227.682 94.8766 227.804 95.084C227.924 95.2924 227.853 95.5592 227.644 95.6796L199.302 112.043C199.234 112.083 199.158 112.102 199.084 112.102Z" fill="black"/>
</g>
<path opacity="0.1" d="M230.979 96.1357L199.841 115.503L199.844 120.866L152.605 93.9016V88.1799L185.275 69.3193L230.979 96.1357Z" fill="black"/>
<path d="M146.051 87.4166L195.37 115.945V85.694L146.05 57.166L146.051 87.4166Z" fill="#777777"/>
<path d="M229.558 96.2062L195.369 115.945V85.6946L229.559 65.9551L229.558 96.2062Z" fill="#777777"/>
<path d="M146.587 57.1665L180.24 37.7383L229.023 65.9555L195.37 85.3848L146.587 57.1665Z" fill="#373636"/>
<path d="M180.24 38.0486L228.487 65.9556L195.37 85.0752L147.122 57.1677L180.24 38.0486ZM180.24 37.4287L146.05 57.1671L195.37 85.6951L229.559 65.9561L180.24 37.4287Z" fill="#777777"/>
<path opacity="0.1" d="M171.751 82.1777L195.368 95.8133L209.539 87.6321L195.368 96.6581L171.751 82.1777Z" fill="black"/>
<path opacity="0.1" d="M157.579 81.6172L195.367 103.435L223.709 87.0721L195.367 104.26L157.579 81.6172Z" fill="black"/>
<path opacity="0.1" d="M150.793 68.3906C150.793 68.3906 150.012 72.8033 150.404 75.0363C150.404 75.0363 156.589 74.8839 167.027 77.7632L150.793 68.3906Z" fill="black"/>
<path d="M150.793 68.3906L167.027 77.7632L149.065 72.5778L150.793 68.3906Z" fill="#373636"/>
<path opacity="0.1" d="M171.751 94.5381L189.548 110.901C189.548 110.901 190.042 108.652 193.458 107.071L171.751 94.5381Z" fill="black"/>
<path d="M171.751 94.5381L188.465 108.612L193.458 107.071L171.751 94.5381Z" fill="#E5E5E5"/>
<path opacity="0.1" d="M223.86 77.9843C223.767 77.8408 223.71 77.7627 223.71 77.7627L212.463 84.256L225.122 83.2165C225.558 80.8669 224.306 78.6724 223.86 77.9843Z" fill="black"/>
<path d="M212.463 84.256L223.71 77.7627L227.454 79.7377L212.463 84.256Z" fill="#E5E5E5"/>
<g opacity="0.15">
<path d="M154.74 59.2697C154.589 59.2697 154.443 59.1916 154.361 59.0519C154.241 58.8435 154.312 58.5767 154.521 58.4563L182.862 42.0927C183.07 41.9744 183.337 42.0437 183.458 42.2522C183.579 42.4606 183.507 42.7274 183.298 42.8478L154.957 59.2114C154.89 59.2516 154.813 59.2697 154.74 59.2697Z" fill="black"/>
<path d="M159.461 61.9968C159.311 61.9968 159.164 61.9181 159.083 61.7784C158.962 61.57 159.034 61.3032 159.243 61.1828L187.584 44.8197C187.791 44.7004 188.059 44.7708 188.18 44.9792C188.301 45.1877 188.229 45.4544 188.02 45.5749L159.679 61.9379C159.611 61.9781 159.535 61.9968 159.461 61.9968Z" fill="black"/>
<path d="M164.185 64.7243C164.035 64.7243 163.889 64.6462 163.808 64.5065C163.687 64.298 163.759 64.0313 163.968 63.9108L192.309 47.5478C192.517 47.4273 192.784 47.4988 192.905 47.7073C193.026 47.9157 192.954 48.1825 192.745 48.3029L164.404 64.6654C164.336 64.7056 164.259 64.7243 164.185 64.7243Z" fill="black"/>
<path d="M168.909 67.4522C168.759 67.4522 168.613 67.3741 168.531 67.2344C168.411 67.026 168.482 66.7592 168.691 66.6388L197.031 50.2752C197.235 50.1558 197.504 50.2246 197.627 50.4347C197.748 50.6431 197.676 50.9099 197.467 51.0303L169.127 67.3934C169.059 67.4335 168.983 67.4522 168.909 67.4522Z" fill="black"/>
<path d="M173.632 70.1794C173.482 70.1794 173.336 70.1013 173.254 69.9616C173.133 69.7532 173.205 69.4864 173.414 69.366L201.755 53.0035C201.962 52.8836 202.229 52.9551 202.351 53.163C202.471 53.3714 202.4 53.6382 202.191 53.7586L173.85 70.1217C173.782 70.1607 173.706 70.1794 173.632 70.1794Z" fill="black"/>
<path d="M178.357 72.9071C178.207 72.9071 178.061 72.829 177.979 72.6887C177.858 72.4803 177.93 72.2135 178.139 72.0931L206.479 55.73C206.687 55.6101 206.954 55.6816 207.075 55.8895C207.196 56.098 207.124 56.3647 206.915 56.4852L178.575 72.8482C178.507 72.8884 178.431 72.9071 178.357 72.9071Z" fill="black"/>
<path d="M183.08 75.6341C182.931 75.6341 182.784 75.5554 182.702 75.4157C182.582 75.2073 182.653 74.9405 182.862 74.8201L211.204 58.4565C211.412 58.3371 211.678 58.4075 211.8 58.616C211.92 58.8244 211.849 59.0912 211.64 59.2116L183.298 75.5752C183.23 75.6154 183.154 75.6341 183.08 75.6341Z" fill="black"/>
<path d="M187.805 78.3614C187.655 78.3614 187.508 78.2827 187.427 78.1436C187.306 77.9351 187.378 77.6684 187.587 77.5479L215.928 61.1849C216.135 61.0655 216.403 61.1365 216.524 61.3444C216.645 61.5528 216.573 61.8196 216.364 61.94L188.023 78.3031C187.955 78.3427 187.879 78.3614 187.805 78.3614Z" fill="black"/>
<path d="M192.527 81.0879C192.377 81.0879 192.23 81.0098 192.148 80.8695C192.028 80.6611 192.099 80.3943 192.308 80.2739L220.649 63.9108C220.857 63.7926 221.124 63.863 221.246 64.0703C221.366 64.2788 221.294 64.5455 221.085 64.666L192.744 81.029C192.677 81.0692 192.6 81.0879 192.527 81.0879Z" fill="black"/>
</g>
<path d="M116.505 37.7199L98.0136 27.0439C97.991 27.0307 97.9679 27.0175 97.9454 27.0043L97.8112 26.9267L97.809 26.9328C88.8434 21.8546 76.513 22.6373 62.8977 30.4979C35.4962 46.3186 13.2833 84.7928 13.2833 116.433C13.2833 132.155 18.7718 143.225 27.6521 148.45L27.6482 148.455L27.7835 148.533C27.8055 148.545 27.827 148.558 27.849 148.571L46.3416 159.247L49.4959 150.946C53.8546 149.875 58.4543 148.011 63.2156 145.262C90.6172 129.442 112.83 90.9676 112.829 59.3272C112.829 53.8745 112.156 48.996 110.924 44.7115L116.505 37.7199Z" fill="#188983"/>
<path opacity="0.4" d="M116.505 37.7199L98.0136 27.0439C97.991 27.0307 97.9679 27.0175 97.9454 27.0043L97.8112 26.9267L97.809 26.9328C88.8434 21.8546 76.513 22.6373 62.8977 30.4979C35.4962 46.3186 13.2833 84.7928 13.2833 116.433C13.2833 132.155 18.7718 143.225 27.6521 148.45L27.6482 148.455L27.7835 148.533C27.8055 148.545 27.827 148.558 27.849 148.571L46.3416 159.247L49.4959 150.946C53.8546 149.875 58.4543 148.011 63.2156 145.262C90.6172 129.442 112.83 90.9676 112.829 59.3272C112.829 53.8745 112.156 48.996 110.924 44.7115L116.505 37.7199Z" fill="#373636"/>
<path opacity="0.4" d="M13.7184 108.697C13.4417 111.309 13.2833 113.894 13.2833 116.432C13.2833 132.154 18.7723 143.225 27.6526 148.449L27.6488 148.454L27.7841 148.532C27.8061 148.545 27.8281 148.557 27.8501 148.57L46.3427 159.246L49.497 150.945C50.5271 150.692 51.5727 150.387 52.6287 150.044L57.3185 133.87L13.7184 108.697Z" fill="#188983"/>
<path d="M116.67 118.837C136.046 85.2786 136.046 49.0055 116.671 37.8189C97.2957 26.6323 65.882 44.7683 46.5064 78.3268C27.1308 111.885 27.1305 148.158 46.5057 159.345C65.8809 170.532 97.2946 152.396 116.67 118.837Z" fill="#188983"/>
<path opacity="0.6" d="M116.67 118.837C136.046 85.2786 136.046 49.0055 116.671 37.8189C97.2957 26.6323 65.882 44.7683 46.5064 78.3268C27.1308 111.885 27.1305 148.158 46.5057 159.345C65.8809 170.532 97.2946 152.396 116.67 118.837Z" fill="#373636"/>
<path d="M119.235 51.2604C113.083 40.6036 100.469 39.404 85.4945 48.05C60.7143 62.3572 39.7802 98.6148 39.7813 127.225C39.7824 134.723 41.2222 141.181 43.9469 145.9C50.0998 156.557 62.713 157.756 77.6878 149.11C102.468 134.806 123.4 98.5488 123.401 69.9351C123.4 62.4375 121.96 55.9794 119.236 51.262C119.235 51.2604 119.235 51.2604 119.235 51.2604Z" fill="#188983"/>
<path d="M119.922 51.6566C112.951 40.5274 99.4526 38.8169 83.8133 47.0795C57.9342 60.752 36.9995 97.0096 38.1001 126.255C38.3894 133.919 40.173 140.575 43.2602 145.504C50.2314 156.633 63.7295 158.343 79.3688 150.081C105.247 136.412 126.18 100.155 125.082 70.9061C124.793 63.2418 123.009 56.5857 119.922 51.6588C119.922 51.6566 119.922 51.6566 119.922 51.6566Z" fill="#188983"/>
<path opacity="0.4" d="M119.922 51.6566C112.951 40.5274 99.4526 38.8169 83.8133 47.0795C57.9342 60.752 36.9995 97.0096 38.1001 126.255C38.3894 133.919 40.173 140.575 43.2602 145.504C50.2314 156.633 63.7295 158.343 79.3688 150.081C105.247 136.412 126.18 100.155 125.082 70.9061C124.793 63.2418 123.009 56.5857 119.922 51.6588C119.922 51.6566 119.922 51.6566 119.922 51.6566Z" fill="#373636"/>
<path d="M74.3294 147.248C64.3711 152.508 55.2901 153.709 48.2006 151.027C46.3207 149.559 44.6553 147.729 43.2621 145.503C40.1744 140.574 38.3908 133.918 38.102 126.254C37.0015 97.0089 57.9361 60.7512 83.8153 47.0788C93.7736 41.818 102.854 40.6168 109.944 43.2997C111.824 44.7671 113.489 46.5981 114.883 48.8228C114.883 48.8228 114.883 48.8228 114.884 48.825C117.97 53.7519 119.754 60.4086 120.043 68.0723C121.14 97.3207 100.208 133.578 74.3294 147.248Z" fill="#E5E5E5"/>
<path opacity="0.3" d="M81.7182 98.5798L54.3535 96.7384C61.0118 83.7326 69.2409 73.9151 79.0722 67.3486L81.7182 98.5798Z" fill="#188983"/>
<path d="M78.5511 54.285C77.9736 54.6216 77.5055 55.4758 77.5055 56.193L77.5 61.5681C77.5 62.2853 77.9681 62.5933 78.5456 62.2562C79.1231 61.9196 79.5911 61.0654 79.5911 60.3482L79.5966 54.9731C79.596 54.2564 79.128 53.9479 78.5511 54.285Z" fill="#188983"/>
<path d="M114.2 74.866C114.197 75.5343 113.691 76.367 113.07 76.725L108.418 79.4173C107.797 79.7759 107.296 79.5245 107.299 78.8563C107.302 78.188 107.808 77.3553 108.429 76.9973L113.081 74.305C113.701 73.9464 114.202 74.1978 114.2 74.866Z" fill="#188983"/>
<path d="M41.5986 118.291C41.6019 117.623 42.1074 116.79 42.7283 116.432L47.3808 113.74C48.0017 113.381 48.5028 113.632 48.4995 114.301C48.4962 114.969 47.9907 115.802 47.3698 116.16L42.7173 118.852C42.0969 119.21 41.5959 118.959 41.5986 118.291Z" fill="#188983"/>
<path d="M77.2464 138.872C77.8239 138.535 78.292 137.682 78.2914 136.965L78.2969 131.589C78.2969 130.872 77.8289 130.564 77.2514 130.901C76.6739 131.238 76.2058 132.092 76.2058 132.809L76.2003 138.184C76.2014 138.901 76.6695 139.209 77.2464 138.872Z" fill="#188983"/>
<path d="M80.6589 100.519L54.3524 96.7393H82.722L80.6589 100.519Z" fill="#188983"/>
<path d="M81.6693 67.8551C81.6693 67.8551 84.1064 90.4551 84.8626 95.695C84.9352 95.9716 84.9776 96.2796 84.9776 96.625C84.9776 98.7849 83.4612 101.412 81.5907 102.491C80.6557 103.031 79.8092 103.082 79.1965 102.728C78.8847 102.547 77.6928 101.853 77.3854 101.682C76.7595 101.334 76.3712 100.57 76.3712 99.4773C76.0632 94.0664 78.0718 68.0685 78.0718 68.0685L79.8367 66.7969L81.6693 67.8551Z" fill="#37474F"/>
<path d="M84.978 96.6249C84.978 98.7847 83.4616 101.412 81.5911 102.491C79.7205 103.571 78.2042 102.696 78.2042 100.536C77.8962 95.125 79.9048 69.1271 79.9048 69.1271L81.6697 67.8555C81.6697 67.8555 84.9708 94.4557 84.978 96.6249Z" fill="#455A64"/>
<path d="M83.1212 97.6966C83.1212 98.6728 82.4359 99.8603 81.59 100.348C80.7446 100.837 80.0588 100.441 80.0588 99.4643C80.0588 98.488 80.7441 97.3006 81.59 96.8127C82.4359 96.3243 83.1212 96.7203 83.1212 97.6966Z" fill="#263238"/>
<path d="M108.953 95.6295L103.506 96.2852L103.56 96.7384L109.008 96.0827L108.953 95.6295Z" fill="#37474F"/>
<path d="M90.8466 118.776L90.4268 118.955L92.5826 124.001L93.0024 123.821L90.8466 118.776Z" fill="#37474F"/>
<path d="M63.4061 69.3333L62.9863 69.5127L65.1421 74.5584L65.5619 74.379L63.4061 69.3333Z" fill="#37474F"/>
<path d="M52.417 96.586L46.9697 97.2422L47.0243 97.6954L52.4716 97.0392L52.417 96.586Z" fill="#37474F"/>
<path d="M112.625 58.521L107.732 64.0068L108.074 64.311L112.966 58.8252L112.625 58.521Z" fill="#37474F"/>
<path d="M93.0703 47.3264L90.7609 54.3047L91.1948 54.4483L93.5042 47.47L93.0703 47.3264Z" fill="#37474F"/>
<path d="M64.5771 138.758L62.2677 145.736L62.7016 145.88L65.0111 138.902L64.5771 138.758Z" fill="#37474F"/>
<path d="M47.6872 128.914L42.7949 134.399L43.136 134.704L48.0283 129.218L47.6872 128.914Z" fill="#37474F"/>
<path d="M77.4439 24.1845C77.4439 23.6867 77.1145 23.1884 76.4567 22.8084C75.1405 22.0483 73.006 22.0483 71.6904 22.8084C71.032 23.1884 70.7031 23.6862 70.7031 24.1845C70.7031 24.4182 70.7031 36.8746 70.7031 37.1084C70.7031 37.6061 71.032 38.1044 71.6904 38.4845C73.0065 39.2446 75.1405 39.2446 76.4567 38.4845C77.1145 38.1044 77.4439 37.6067 77.4439 37.1084C77.4439 36.8741 77.4439 24.4182 77.4439 24.1845Z" fill="#455A64"/>
<path d="M71.6904 25.5596C71.032 25.1795 70.7031 24.6818 70.7031 24.1835C70.7031 23.6857 71.032 23.1874 71.6904 22.8074C73.0065 22.0473 75.1405 22.0473 76.4572 22.8074C77.115 23.1874 77.4445 23.6852 77.4445 24.1835C77.4445 24.6812 77.1156 25.1795 76.4572 25.5596C75.1405 26.3197 73.0065 26.3197 71.6904 25.5596Z" fill="#37474F"/>
<path d="M83.7019 16.2776C83.7019 14.8553 82.7619 13.4336 80.8831 12.3484C77.1244 10.1781 71.031 10.1781 67.2729 12.3484C65.3935 13.4336 64.4541 14.8553 64.4541 16.2776C64.4541 16.9448 64.4541 27.3975 64.4541 28.0652C64.4541 29.487 65.3935 30.9093 67.2729 31.9939C71.031 34.1642 77.125 34.1642 80.8831 31.9939C82.7619 30.9093 83.7019 29.487 83.7019 28.0647C83.7019 27.3975 83.7019 16.9448 83.7019 16.2776Z" fill="#188983"/>
<path opacity="0.3" d="M67.2719 20.2064C65.3925 19.1213 64.4531 17.6995 64.4531 16.2772C64.4531 14.8549 65.3925 13.4332 67.2719 12.348C71.0306 10.1783 77.124 10.1783 80.8827 12.348C82.7621 13.4332 83.7015 14.8549 83.7015 16.2772C83.7015 17.6995 82.7621 19.1213 80.8827 20.2064C77.124 22.3767 71.0306 22.3767 67.2719 20.2064Z" fill="#373636"/>
<path opacity="0.2" d="M67.691 20.4168V32.1945C67.9594 32.3287 68.2443 32.4624 68.5286 32.5801V20.8024C68.2437 20.6847 67.9594 20.5675 67.691 20.4168ZM70.6395 21.4558V33.25C70.9074 33.3 71.1923 33.3506 71.4772 33.3842V21.6065C71.1923 21.5729 70.9074 21.5223 70.6395 21.4558ZM65.3458 18.5908V30.3685C65.5801 30.6699 65.865 30.9548 66.1834 31.2227V19.445C65.8479 19.1771 65.563 18.8922 65.3458 18.5908ZM79.5187 20.8524V32.6301C79.8201 32.513 80.088 32.3788 80.3564 32.2446V20.4669C80.088 20.6181 79.8036 20.7353 79.5187 20.8524ZM81.8639 19.5291V31.3068C82.1824 31.039 82.4673 30.7706 82.7016 30.4857V18.7415C82.4673 19.0264 82.1824 19.2943 81.8639 19.5291ZM76.5702 21.623V33.4007C76.8551 33.3671 77.14 33.3171 77.4078 33.2665V21.4723C77.1235 21.5394 76.8551 21.5894 76.5702 21.623ZM73.6552 21.8072V33.6014H74.4928V21.8072C74.2079 21.8408 73.9401 21.8408 73.6552 21.8072Z" fill="black"/>
<path d="M38.9982 52.774C38.6187 52.4517 38.0258 52.3807 37.3102 52.6365C35.8791 53.1485 34.4981 54.7754 34.2264 56.2709C34.0905 57.0189 34.2572 57.592 34.6367 57.9137C34.8149 58.065 44.3128 66.1241 44.491 66.2754C44.8705 66.5977 45.4634 66.6686 46.179 66.4129C47.6101 65.9014 48.9906 64.2739 49.2628 62.7785C49.3987 62.031 49.232 61.4579 48.8525 61.1356C48.6743 60.9844 39.1764 52.9252 38.9982 52.774Z" fill="#455A64"/>
<path d="M36.3249 58.0512C35.6093 58.307 35.017 58.236 34.6369 57.9137C34.2574 57.5914 34.0902 57.0183 34.2266 56.2709C34.4989 54.7754 35.8794 53.1485 37.3105 52.6365C38.026 52.3807 38.6184 52.4517 38.9984 52.774C39.3785 53.0963 39.5451 53.6694 39.4087 54.4168C39.1365 55.9123 37.756 57.5397 36.3249 58.0512Z" fill="#37474F"/>
<path d="M38.346 48.0844C37.6128 47.4623 36.4683 47.3248 35.0861 47.8187C32.3224 48.8071 29.656 51.9498 29.1307 54.8373C28.8678 56.281 29.1901 57.3882 29.9233 58.0102C30.2676 58.3023 35.6576 62.8761 36.0019 63.1681C36.735 63.7902 37.8796 63.9282 39.2612 63.4338C42.0244 62.4454 44.6913 59.3027 45.2165 56.4152C45.4794 54.9715 45.1572 53.8649 44.424 53.2423C44.0803 52.9502 38.6903 48.3764 38.346 48.0844Z" fill="#188983"/>
<path opacity="0.3" d="M33.1826 58.2761C31.801 58.7706 30.6564 58.6325 29.9233 58.0105C29.1901 57.3884 28.8678 56.2813 29.1307 54.8375C29.6565 51.95 32.3229 48.8073 35.0867 47.819C36.4683 47.3245 37.6128 47.4626 38.3465 48.0846C39.0797 48.7067 39.402 49.8138 39.1391 51.2576C38.6127 54.1451 35.9463 57.2872 33.1826 58.2761Z" fill="#373636"/>
<path opacity="0.2" d="M33.4747 58.152L39.5484 63.3055C39.7348 63.2258 39.9284 63.1378 40.1138 63.0421L34.0401 57.8886C33.8548 57.9843 33.67 58.08 33.4747 58.152ZM35.3007 57.0861L41.3826 62.2468C41.5256 62.1307 41.6763 62.0059 41.8182 61.8733L35.7446 56.7198C35.6032 56.8524 35.4525 56.9772 35.3007 57.0861ZM31.5068 58.5623L37.5805 63.7158C37.8384 63.7268 38.1101 63.7043 38.3879 63.6575L32.3142 58.504C32.0288 58.5601 31.7576 58.5821 31.5068 58.5623ZM38.8752 52.2434L44.9488 57.3969C45.0203 57.1901 45.0682 56.9932 45.1166 56.7963L39.0429 51.6428C39.0033 51.8474 38.939 52.0454 38.8752 52.2434ZM39.2189 50.4548L45.2926 55.6083C45.2937 55.3267 45.2799 55.0627 45.2359 54.8174L39.1799 49.6787C39.2233 49.924 39.2371 50.188 39.2189 50.4548ZM37.982 54.1013L44.0556 59.2548C44.1629 59.0931 44.2619 58.9242 44.3532 58.7642L38.2713 53.603C38.1811 53.7795 38.0898 53.9396 37.982 54.1013ZM36.8017 55.6847L42.8836 60.8454L43.2504 60.4136L37.168 55.253C37.0607 55.4147 36.9436 55.5527 36.8017 55.6847Z" fill="black"/>
<path d="M104.877 30.9913L110.682 34.3428L113.391 29.6493L107.587 26.2979L104.877 30.9913Z" fill="#455A64"/>
<path d="M109.671 18.2908L119.334 23.8694C119.81 24.1444 119.973 24.7533 119.698 25.229L116.706 30.4128C116.431 30.8891 115.822 31.0519 115.345 30.7774L105.683 25.1988C105.206 24.9238 105.043 24.3149 105.318 23.8392L108.31 18.6554C108.585 18.1791 109.194 18.0158 109.671 18.2908Z" fill="#188983"/>
<path opacity="0.2" d="M115.965 21.9291L111.977 28.8369L112.467 29.1202L116.455 22.2124L115.965 21.9291Z" fill="black"/>
<path opacity="0.2" d="M119.537 24.0316L115.587 30.8731C115.504 30.8511 115.422 30.8219 115.344 30.7768L115.077 30.6228L119.065 23.7148L119.332 23.8688C119.41 23.9145 119.476 23.9711 119.537 24.0316Z" fill="black"/>
<path opacity="0.2" d="M117.694 22.9282L113.706 29.8359L114.197 30.1192L118.185 23.2114L117.694 22.9282Z" fill="black"/>
<path opacity="0.2" d="M105.432 24.9876L109.362 18.1797C109.467 18.2 109.571 18.2336 109.669 18.2902L109.881 18.4123L105.893 25.3203L105.681 25.1982C105.583 25.1421 105.502 25.0684 105.432 24.9876Z" fill="black"/>
<path opacity="0.2" d="M114.196 20.9057L110.208 27.8135L110.699 28.0967L114.687 21.1889L114.196 20.9057Z" fill="black"/>
<path opacity="0.2" d="M110.761 18.9223L106.772 25.8301L107.263 26.1133L111.251 19.2055L110.761 18.9223Z" fill="black"/>
<path opacity="0.2" d="M112.488 19.9203L108.5 26.8281L108.991 27.1114L112.979 20.2036L112.488 19.9203Z" fill="black"/>
<path d="M150.749 176.578L155.197 178.662L159.622 180.78L168.435 185.068L177.197 189.432L181.56 191.641L185.9 193.884L181.452 191.801L177.027 189.683L168.214 185.394L159.453 181.029L155.089 178.821L150.749 176.578Z" fill="#E0E0E0"/>
<path d="M157.913 185.401C158.911 185.844 159.894 186.307 160.885 186.759L163.834 188.151C165.797 189.083 167.741 190.043 169.696 190.988C171.632 191.959 173.579 192.916 175.506 193.9L178.394 195.383C179.348 195.889 180.31 196.384 181.258 196.9C180.26 196.458 179.276 195.995 178.285 195.543L175.336 194.151C173.373 193.219 171.428 192.259 169.474 191.314C167.538 190.342 165.591 189.386 163.664 188.401L160.776 186.918C159.823 186.412 158.861 185.917 157.913 185.401Z" fill="#E0E0E0"/>
<path d="M139.784 162.73L136.136 160.869C133.7 159.632 131.246 158.423 128.802 157.2C126.34 156.003 124.999 155.339 122.528 154.155L119.898 152.9V153.15L122.358 154.405C124.793 155.642 126.137 156.301 128.581 157.525C131.042 158.723 133.495 159.935 135.965 161.12L139.676 162.89C140.921 163.468 142.158 164.057 143.409 164.626C142.208 163.984 140.992 163.363 139.784 162.73Z" fill="#E0E0E0"/>
<path d="M121.138 158.922C121.792 159.198 122.433 159.494 123.081 159.78L125 160.673C126.28 161.268 127.542 161.889 128.804 162.51C130.061 163.139 131.317 163.768 132.556 164.423L134.414 165.406C135.025 165.746 135.644 166.074 136.248 166.424C135.593 166.148 134.953 165.851 134.305 165.566L132.385 164.673C131.105 164.078 129.843 163.457 128.581 162.836C127.325 162.206 126.069 161.577 124.83 160.922L122.972 159.939C122.361 159.6 121.742 159.271 121.138 158.922Z" fill="#E0E0E0"/>
<path d="M233.976 70.5781L222.375 72.6643L223.97 76.4246L214.714 77.9316L228.234 79.0349L226.06 74.4738L233.976 70.5781Z" fill="#188983"/>
<path d="M225.541 50.5449L214.194 63.6927L218.116 65.5786L213.437 73.5245L222.84 64.318L218.893 61.8562L225.541 50.5449Z" fill="#188983"/>
<path opacity="0.65" d="M225.541 50.5449L214.194 63.6927L218.116 65.5786L213.437 73.5245L222.84 64.318L218.893 61.8562L225.541 50.5449Z" fill="#373636"/>
</svg>
