<svg width="275" height="275" viewBox="0 0 275 275" fill="none" xmlns="http://www.w3.org/2000/svg">
<path d="M45.9414 135.992C-4.6234 165.186 -4.6223 212.518 45.9441 241.712C96.5106 270.906 178.494 270.906 229.058 241.712C279.623 212.519 279.622 165.186 229.055 135.992C178.489 106.798 96.5062 106.798 45.9414 135.992Z" fill="#E5E5E5"/>
<path d="M35.071 246.624L41.2019 243.082C41.2019 243.082 44.8506 227.92 43.3969 214.277C41.3526 195.096 28.7262 187.878 23.9253 189.533C19.1243 191.187 17.7339 196.768 25.6781 208.192C30.3647 214.933 36.1226 228.972 35.071 246.624Z" fill="#188983"/>
<g opacity="0.65">
<path d="M35.071 246.624L41.2019 243.082C41.2019 243.082 44.8506 227.92 43.3969 214.277C41.3526 195.096 28.7262 187.878 23.9253 189.533C19.1243 191.187 17.7339 196.768 25.6781 208.192C30.3647 214.933 36.1226 228.972 35.071 246.624Z" fill="white"/>
</g>
<path d="M37.6117 239.176C37.5919 239.174 37.5726 239.172 37.5528 239.168C37.3224 239.124 37.1706 238.902 37.2146 238.672C40.5751 220.98 34.3947 201.1 26.7415 192.827C26.582 192.655 26.5924 192.385 26.7651 192.226C26.9378 192.069 27.2068 192.077 27.3663 192.25C35.1587 200.673 41.46 220.878 38.0495 238.83C38.0104 239.041 37.8201 239.186 37.6117 239.176Z" fill="white"/>
<path d="M19.6414 255.533C18.7257 255.999 16.2897 253.914 15.611 253.407C14.4489 252.539 13.5315 251.347 12.9496 250.022C12.272 248.479 12.1636 246.858 12.4832 245.205C12.6493 244.348 12.9331 243.519 13.2163 242.693C13.4946 241.882 13.7724 241.072 14.0501 240.261C14.3246 239.461 14.6023 238.634 14.5374 237.79C14.4065 236.092 12.9683 234.834 11.6576 233.745C10.2084 232.542 8.71514 230.974 8.82624 228.943C8.91204 227.375 9.79699 225.961 10.831 224.779C11.8644 223.597 13.0722 222.569 14.016 221.314C14.6953 220.411 15.2436 219.337 15.198 218.208C15.1694 217.507 14.9131 216.834 14.61 216.201C13.9594 214.842 13.0739 213.583 12.6509 212.136C12.2274 210.69 12.3875 208.926 13.548 207.965C14.5006 207.176 15.8596 207.128 17.0878 207.272C18.2241 207.405 19.312 207.975 20.2816 208.58C23.4166 210.536 25.065 214.45 28.4183 216.002C29.7119 216.601 31.1524 216.791 32.5103 217.224C33.8683 217.657 35.2361 218.43 35.8092 219.736C36.9389 222.309 34.4513 225.284 35.2004 227.992C35.8631 230.389 38.1082 231.407 39.288 233.597C39.8039 234.554 39.8792 235.635 39.734 236.713C39.4876 238.538 39.1516 239.869 38.1698 241.863C37.358 243.51 35.0728 246.624 35.0728 246.624C35.0728 246.624 19.7817 255.461 19.6414 255.533Z" fill="#188983"/>
<g opacity="0.3">
<path d="M19.6414 255.533C18.7257 255.999 16.2897 253.914 15.611 253.407C14.4489 252.539 13.5315 251.347 12.9496 250.022C12.272 248.479 12.1636 246.858 12.4832 245.205C12.6493 244.348 12.9331 243.519 13.2163 242.693C13.4946 241.882 13.7724 241.072 14.0501 240.261C14.3246 239.461 14.6023 238.634 14.5374 237.79C14.4065 236.092 12.9683 234.834 11.6576 233.745C10.2084 232.542 8.71514 230.974 8.82624 228.943C8.91204 227.375 9.79699 225.961 10.831 224.779C11.8644 223.597 13.0722 222.569 14.016 221.314C14.6953 220.411 15.2436 219.337 15.198 218.208C15.1694 217.507 14.9131 216.834 14.61 216.201C13.9594 214.842 13.0739 213.583 12.6509 212.136C12.2274 210.69 12.3875 208.926 13.548 207.965C14.5006 207.176 15.8596 207.128 17.0878 207.272C18.2241 207.405 19.312 207.975 20.2816 208.58C23.4166 210.536 25.065 214.45 28.4183 216.002C29.7119 216.601 31.1524 216.791 32.5103 217.224C33.8683 217.657 35.2361 218.43 35.8092 219.736C36.9389 222.309 34.4513 225.284 35.2004 227.992C35.8631 230.389 38.1082 231.407 39.288 233.597C39.8039 234.554 39.8792 235.635 39.734 236.713C39.4876 238.538 39.1516 239.869 38.1698 241.863C37.358 243.51 35.0728 246.624 35.0728 246.624C35.0728 246.624 19.7817 255.461 19.6414 255.533Z" fill="white"/>
</g>
<path d="M28.5155 250.908C28.51 250.907 28.5045 250.907 28.5045 250.907C28.2773 250.887 28.1151 250.69 28.1349 250.47C29.6028 234.557 22.977 216.573 17.7718 211.183C17.6178 211.024 17.6222 210.769 17.7817 210.614C17.9423 210.46 18.1958 210.465 18.3504 210.624C23.6606 216.123 30.4245 234.406 28.9368 250.543C28.9164 250.759 28.7294 250.918 28.5155 250.908Z" fill="white"/>
<path d="M26.935 231.287C26.896 231.285 26.8558 231.278 26.8173 231.263C21.7738 229.421 15.4026 228.819 15.3394 228.814C15.1177 228.793 14.9555 228.597 14.9753 228.376C14.9962 228.155 15.1727 227.989 15.4131 228.012C15.478 228.019 21.9504 228.628 27.0934 230.507C27.3019 230.583 27.4097 230.814 27.3332 231.023C27.2711 231.193 27.1072 231.295 26.935 231.287Z" fill="white"/>
<path d="M136.77 15.1537L43.1494 69.1406C42.1819 69.6983 41.3982 71.0557 41.3982 72.1722V243.812C41.3982 244.929 42.1836 246.283 43.1527 246.838L43.5085 247.041C44.4776 247.595 46.0473 247.592 47.0142 247.034L140.636 192.976C141.603 192.418 142.387 191.06 142.387 189.944V18.3761C142.387 17.2596 141.602 15.905 140.632 15.3506L140.277 15.1476C139.307 14.5932 137.737 14.5954 136.77 15.1537Z" fill="#188983"/>
<path opacity="0.45" d="M136.77 15.1537L43.1494 69.1406C42.1819 69.6983 41.3982 71.0557 41.3982 72.1722V243.812C41.3982 244.929 42.1836 246.283 43.1527 246.838L43.5085 247.041C44.4776 247.595 46.0473 247.592 47.0142 247.034L140.636 192.976C141.603 192.418 142.387 191.06 142.387 189.944V18.3761C142.387 17.2596 141.602 15.905 140.632 15.3506L140.277 15.1476C139.307 14.5932 137.737 14.5954 136.77 15.1537Z" fill="black"/>
<path d="M142.386 190.069C142.386 191.608 141.305 192.589 139.967 193.359L47.6828 246.637C46.3507 247.407 45.2628 246.785 45.2628 245.239V75.1429C45.2628 73.4214 46.1814 71.8308 47.6719 70.9695L139.965 17.669C141.041 17.0475 142.387 17.8241 142.387 19.0671V190.069H142.386Z" fill="#188983"/>
<path opacity="0.3" d="M142.387 190.069C142.387 191.608 141.306 192.589 139.967 193.359L47.6832 246.637C46.3511 247.407 45.2632 246.785 45.2632 245.239V75.1429C45.2632 73.4214 46.1817 71.8308 47.6722 70.9695L139.965 17.669C141.041 17.0475 142.387 17.8241 142.387 19.0671V190.069H142.387Z" fill="black"/>
<path d="M142.388 18.3777V19.0652C142.388 17.825 141.04 17.05 139.962 17.6704L47.6723 70.9726C46.9243 71.3972 46.3242 72.0104 45.9134 72.7315C45.9002 72.7518 45.893 72.765 45.8864 72.7854L41.8923 70.4787C42.2157 69.9193 42.6541 69.4271 43.1524 69.1444L136.771 15.1547C137.741 14.5954 139.311 14.5954 140.275 15.1481L140.629 15.3527C141.6 15.9044 142.388 17.259 142.388 18.3777Z" fill="#188983"/>
<path opacity="0.2" d="M142.388 18.3777V19.0652C142.388 17.825 141.04 17.05 139.962 17.6704L47.6723 70.9726C46.9243 71.3972 46.3242 72.0104 45.9134 72.7315C45.9002 72.7518 45.893 72.765 45.8864 72.7854L41.8923 70.4787C42.2157 69.9193 42.6541 69.4271 43.1524 69.1444L136.771 15.1547C137.741 14.5954 139.311 14.5954 140.275 15.1481L140.629 15.3527C141.6 15.9044 142.388 17.259 142.388 18.3777Z" fill="black"/>
<path opacity="0.25" d="M140.103 182.979C140.103 184.565 138.99 185.575 137.61 186.368L50.3887 236.725C49.017 237.518 47.8961 236.878 47.8961 235.285V84.0702C47.8961 82.297 48.8421 80.6586 50.3772 79.772L137.608 29.3914C138.717 28.7512 140.103 29.5509 140.103 30.8313V32.6826V182.979Z" fill="black"/>
<path d="M50.13 81.6576L137.034 31.4844C137.445 31.2474 138.111 31.2474 138.522 31.4844L139.36 31.9684C139.771 32.2055 140.104 32.7824 140.104 33.2565V185.175C140.104 185.649 139.771 186.226 139.36 186.463L52.4576 236.637C52.0468 236.874 51.3807 236.874 50.9699 236.637L50.13 236.152C49.7192 235.914 49.3859 235.338 49.3859 234.863V82.9463C49.3859 82.4716 49.7192 81.8952 50.13 81.6576Z" fill="#F5F5F5"/>
<path d="M52.28 236.717C52.1942 236.751 52.1023 236.774 52.005 236.791C51.9593 236.797 51.9076 236.803 51.862 236.808C51.7129 236.82 51.5584 236.814 51.4099 236.791C51.3125 236.774 51.2207 236.751 51.1349 236.717C51.0777 236.694 51.0205 236.665 50.9688 236.637L50.1328 236.156C49.7203 235.915 49.3881 235.343 49.3881 234.868V82.9509C49.3881 82.7106 49.4684 82.4471 49.6059 82.2178L51.9307 83.5576C51.7993 83.7924 51.7135 84.0559 51.7135 84.2907V236.207C51.7135 236.614 51.9538 236.814 52.28 236.717Z" fill="#E0E0E0"/>
<path d="M139.362 31.9675L138.524 31.4835C138.113 31.2464 137.447 31.2464 137.036 31.4835L50.1318 81.6572C49.7209 81.8943 49.3876 82.4712 49.3876 82.9459V92.3272L51.7147 93.6791L140.105 42.6468V33.2556C140.106 32.7815 139.772 32.2045 139.362 31.9675Z" fill="#188983"/>
<path opacity="0.4" d="M139.362 31.9675L138.524 31.4835C138.113 31.2464 137.447 31.2464 137.036 31.4835L50.1318 81.6572C49.7209 81.8943 49.3876 82.4712 49.3876 82.9459V92.3272L51.7147 93.6791L140.105 42.6468V33.2556C140.106 32.7815 139.772 32.2045 139.362 31.9675Z" fill="white"/>
<path d="M140.078 33.031C139.986 32.7274 139.7 32.6301 139.362 32.8248L52.4582 82.9996C52.252 83.12 52.0628 83.3203 51.9313 83.5551L49.6065 82.2153C49.7379 81.9804 49.9271 81.7742 50.1334 81.6598L137.037 31.485C137.444 31.2446 138.114 31.2446 138.521 31.485L139.363 31.9662C139.711 32.1725 140.003 32.613 140.078 33.031Z" fill="#188983"/>
<path opacity="0.6" d="M140.078 33.031C139.986 32.7274 139.7 32.6301 139.362 32.8248L52.4582 82.9996C52.252 83.12 52.0628 83.3203 51.9313 83.5551L49.6065 82.2153C49.7379 81.9804 49.9271 81.7742 50.1334 81.6598L137.037 31.485C137.444 31.2446 138.114 31.2446 138.521 31.485L139.363 31.9662C139.711 32.1725 140.003 32.613 140.078 33.031Z" fill="white"/>
<path d="M49.3895 82.949V92.338L51.7143 93.68V84.2888C51.7143 84.0539 51.8001 83.7905 51.9316 83.5556L49.6067 82.2158C49.4698 82.4446 49.3895 82.7081 49.3895 82.949Z" fill="#188983"/>
<g opacity="0.25">
<path d="M119.999 37.7663V45.2369C119.999 47.1295 118.707 49.3619 117.069 50.3079L102.608 58.6547C101.893 59.0672 101.486 59.8922 101.056 60.7596C100.74 61.3965 100.413 62.0515 99.9397 62.5856C98.8172 63.8594 96.3669 65.1876 94.6377 65.7398C94.0553 65.9279 93.4728 66.0616 92.903 66.1402C92.6846 66.1765 92.4421 66.2068 92.1935 66.2376C90.6161 66.4499 88.6509 66.7166 87.4987 67.3843L70.5746 77.1507C70.0653 77.4477 69.5615 77.5934 69.1006 77.5934C68.7426 77.5934 68.4093 77.5087 68.1117 77.3388C67.4204 76.9384 67.0381 76.1436 67.0381 75.1124V67.6417C67.0381 65.7492 68.324 63.5167 69.968 62.5707L75.6517 59.2889C75.6759 59.2768 75.7001 59.2647 75.7303 59.2586C76.0031 59.1371 76.3249 59.2465 76.4827 59.5133C76.6346 59.774 76.5619 60.1139 76.3254 60.2838C76.3073 60.308 76.2831 60.3262 76.2589 60.3383L70.5752 63.6201C69.3196 64.3483 68.252 66.1919 68.252 67.6417V75.1124C68.252 75.6888 68.4219 76.1134 68.7189 76.2833C69.0159 76.4593 69.4713 76.3867 69.9685 76.1013L86.8926 66.3289C88.2511 65.5462 90.3504 65.2613 92.0301 65.0369C92.2787 65.0067 92.5158 64.9704 92.7336 64.9396C93.2308 64.867 93.7527 64.7515 94.2741 64.5815C95.8086 64.0964 98.0895 62.8529 99.03 61.7853C99.4001 61.3728 99.6729 60.8085 99.9699 60.2206C100.461 59.2256 100.971 58.2004 102.002 57.6059L116.464 49.2591C117.72 48.5314 118.787 46.6873 118.787 45.2375V37.7663C118.787 37.1959 118.617 36.7653 118.32 36.5953C118.023 36.4193 117.562 36.4919 117.071 36.7774L112.145 39.6225C111.981 39.2524 111.769 38.8949 111.526 38.5792L116.464 35.728C117.355 35.2066 118.235 35.1455 118.927 35.5399C119.617 35.9403 119.999 36.735 119.999 37.7663Z" fill="black"/>
</g>
<path d="M109.451 37.904L109.452 37.9051C109.841 37.6763 110.381 37.706 110.978 38.0509C112.165 38.7362 113.127 40.4032 113.127 41.7738C113.127 42.4635 112.883 42.9459 112.49 43.1686L112.491 43.1697L78.181 62.9818L75.1417 57.7161L109.451 37.904Z" fill="#37474F"/>
<path d="M76.67 60.3604L112.506 39.6672C112.116 38.9885 111.577 38.3951 110.98 38.0502C110.909 38.009 110.841 37.987 110.772 37.9551L75.4952 58.3254L76.67 60.3604Z" fill="#455A64"/>
<path d="M76.6691 57.8629C75.4822 57.1776 74.5197 57.7331 74.5197 59.1037C74.5197 60.4743 75.4822 62.1413 76.6691 62.8266C77.856 63.5119 78.8185 62.9564 78.8185 61.5858C78.8185 60.2152 77.856 58.5482 76.6691 57.8629Z" fill="#263238"/>
<path d="M120.611 38.2977V45.7684C120.611 47.6609 119.319 49.8934 117.681 50.8394L103.22 59.1862C102.504 59.5987 102.098 60.4237 101.667 61.291C101.351 61.9279 101.024 62.583 100.551 63.117C99.4286 64.3908 96.9778 65.7191 95.2491 66.2713C94.6667 66.4594 94.0842 66.593 93.5144 66.6717C93.2961 66.708 93.0535 66.7382 92.8049 66.769C91.2275 66.9813 89.2624 67.2481 88.1101 67.9152L71.1861 77.6816C70.6768 77.9786 70.173 78.1243 69.7121 78.1243C69.354 78.1243 69.0207 78.0396 68.7232 77.8697C68.0318 77.4693 67.6496 76.6745 67.6496 75.6433V68.1726C67.6496 66.2801 68.9355 64.0476 70.5794 63.1016L76.2631 59.8198C76.2873 59.8077 76.3115 59.7956 76.3418 59.7895C76.6146 59.668 76.9363 59.7774 77.0936 60.0442C77.2454 60.3049 77.1728 60.6448 76.9358 60.8147C76.9176 60.8389 76.8934 60.8571 76.8692 60.8692L71.1855 64.151C69.9299 64.8792 68.8623 66.7228 68.8623 68.1726V75.6433C68.8623 76.2197 69.0323 76.6443 69.3293 76.8142C69.6263 76.9902 70.0817 76.9176 70.5789 76.6322L87.5029 66.8598C88.8614 66.0771 90.9602 65.7922 92.641 65.5678C92.8896 65.5376 93.1261 65.5007 93.3445 65.4705C93.8417 65.3979 94.3636 65.2824 94.885 65.1124C96.4195 64.6273 98.7004 63.3838 99.6409 62.3162C100.011 61.9037 100.284 61.3394 100.581 60.7515C101.072 59.7565 101.582 58.7313 102.613 58.1368L117.074 49.79C118.33 49.0623 119.397 47.2182 119.397 45.7684V38.2977C119.397 37.7274 119.227 37.2967 118.93 37.1268C118.633 36.9508 118.172 37.0239 117.681 37.3088L112.755 40.154C112.591 39.7838 112.379 39.4263 112.136 39.1106L117.074 36.2594C117.966 35.7375 118.846 35.677 119.537 36.0713C120.228 36.4717 120.611 37.2665 120.611 38.2977Z" fill="#455A64"/>
<g opacity="0.2">
<path d="M58.5194 110.921L141.116 63.2131C141.464 63.0118 141.746 63.1752 141.746 63.5778V83.2876C141.746 83.6902 141.464 84.1797 141.116 84.3804L58.5194 132.088C58.1707 132.289 57.8885 132.126 57.8885 131.724V112.014C57.888 111.611 58.1707 111.122 58.5194 110.921Z" fill="black"/>
</g>
<path d="M145.5 65.823C145.304 65.7355 145.041 65.7614 144.758 65.9258L63.1196 113.081C62.5074 113.436 62.008 114.301 62.008 115.011V133.699C62.008 134.038 62.1213 134.286 62.3116 134.409C62.1213 134.285 60.4383 133.333 60.2326 133.21C60.0368 133.092 59.9136 132.845 59.9136 132.495V113.806C59.9136 113.096 60.413 112.231 61.0301 111.876L142.664 64.7164C142.978 64.5365 143.261 64.5261 143.461 64.6443C143.642 64.7521 145.103 65.581 145.5 65.823Z" fill="#188983"/>
<g opacity="0.2">
<path d="M145.5 65.8231C145.103 65.5811 143.642 64.7528 143.461 64.6445C143.261 64.5262 142.977 64.5361 142.664 64.7165L61.03 111.876C60.722 112.053 60.4432 112.358 60.2413 112.706L62.3335 113.914C62.5348 113.564 62.8131 113.258 63.1195 113.081L144.758 65.926C145.041 65.761 145.304 65.7357 145.5 65.8231Z" fill="white"/>
</g>
<path d="M63.1195 113.081L144.756 65.9256C145.371 65.5703 145.87 65.8585 145.87 66.5691V85.2586C145.87 85.9692 145.371 86.8333 144.756 87.1886L63.1195 134.344C62.5041 134.699 62.0052 134.411 62.0052 133.7V115.011C62.0052 114.3 62.5041 113.436 63.1195 113.081Z" fill="#FAFAFA"/>
<path d="M62.3332 113.914L60.241 112.706C60.038 113.056 59.9126 113.451 59.9126 113.806V132.495C59.9126 132.845 60.0364 133.092 60.2316 133.211C60.4373 133.334 62.1203 134.286 62.3106 134.41C62.1203 134.286 62.007 134.039 62.007 133.7V115.011C62.0076 114.656 62.1324 114.263 62.3332 113.914Z" fill="#188983"/>
<path opacity="0.15" d="M62.3332 113.914L60.241 112.706C60.038 113.056 59.9126 113.451 59.9126 113.806V132.495C59.9126 132.845 60.0364 133.092 60.2316 133.211C60.4373 133.334 62.1203 134.286 62.3106 134.41C62.1203 134.286 62.007 134.039 62.007 133.7V115.011C62.0076 114.656 62.1324 114.263 62.3332 113.914Z" fill="black"/>
<path d="M145.255 66.2882C145.354 66.2882 145.356 66.5401 145.356 66.5693V85.2588C145.356 85.7857 144.956 86.4793 144.499 86.7433L62.8629 133.899C62.7331 133.973 62.6517 133.982 62.6226 133.982C62.5236 133.982 62.5208 133.73 62.5208 133.701V115.012C62.5208 114.485 62.9212 113.791 63.3777 113.527L145.014 66.3718C145.144 66.2965 145.225 66.2882 145.255 66.2882ZM145.255 65.7734C145.105 65.7734 144.936 65.8224 144.757 65.9258L63.1203 113.081C62.5049 113.436 62.006 114.3 62.006 115.011V133.7C62.006 134.204 62.2568 134.495 62.6226 134.495C62.7722 134.495 62.9416 134.446 63.1203 134.343L144.757 87.1877C145.372 86.8324 145.871 85.9683 145.871 85.2577V66.5682C145.871 66.0649 145.62 65.7734 145.255 65.7734Z" fill="#188983"/>
<path d="M77.732 111.466C78.8414 112.106 79.5272 113.479 79.5272 115.434C79.5272 119.343 76.7827 124.096 73.398 126.05C71.7057 127.028 70.1734 127.12 69.064 126.48C68.3903 126.091 67.7831 125.741 67.1099 125.352C66.0005 124.712 65.3147 123.338 65.3147 121.383C65.3147 117.475 68.0592 112.722 71.4444 110.767C73.1368 109.789 74.6691 109.697 75.7784 110.338C76.4516 110.727 77.0588 111.077 77.732 111.466Z" fill="#188983"/>
<path opacity="0.2" d="M77.732 111.466C78.8414 112.106 79.5272 113.479 79.5272 115.434C79.5272 119.343 76.7827 124.096 73.398 126.05C71.7057 127.028 70.1734 127.12 69.064 126.48C68.3903 126.091 67.7831 125.741 67.1099 125.352C66.0005 124.712 65.3147 123.338 65.3147 121.383C65.3147 117.475 68.0592 112.722 71.4444 110.767C73.1368 109.789 74.6691 109.697 75.7784 110.338C76.4516 110.727 77.0588 111.077 77.732 111.466Z" fill="black"/>
<path d="M73.3978 126.051C71.7055 127.028 70.1732 127.12 69.0638 126.48C67.9545 125.84 67.2686 124.466 67.2686 122.511C67.2686 118.603 70.0131 113.85 73.3978 111.895C75.0902 110.917 76.623 110.825 77.7318 111.465C78.8412 112.105 79.527 113.479 79.527 115.434C79.527 119.343 76.7831 124.096 73.3978 126.051Z" fill="#188983"/>
<path d="M83.747 109.827L141.231 76.6261C141.989 76.1888 142.603 75.0151 142.603 74.0053C142.603 72.995 141.989 72.5308 141.231 72.9686L83.747 106.17C82.9897 106.607 82.3753 107.781 82.3753 108.791C82.3753 109.8 82.9897 110.265 83.747 109.827ZM141.231 80.6675L83.747 113.869C82.9897 114.306 82.3753 115.48 82.3753 116.49C82.3753 117.499 82.9897 117.964 83.747 117.526L141.231 84.325C141.989 83.8877 142.603 82.714 142.603 81.7042C142.603 80.6944 141.989 80.2302 141.231 80.6675Z" fill="#E0E0E0"/>
<g opacity="0.2">
<path d="M58.5194 140.938L141.116 93.2307C141.464 93.0294 141.746 93.1928 141.746 93.5954V113.305C141.746 113.708 141.464 114.197 141.116 114.398L58.5194 162.106C58.1707 162.307 57.8885 162.144 57.8885 161.741V142.031C57.888 141.629 58.1707 141.14 58.5194 140.938Z" fill="black"/>
</g>
<path d="M145.5 95.8396C145.304 95.7521 145.041 95.778 144.758 95.9424L63.1196 143.097C62.5074 143.453 62.008 144.317 62.008 145.027V163.716C62.008 164.056 62.1213 164.302 62.3116 164.426C62.1213 164.302 60.4383 163.35 60.2326 163.227C60.0368 163.108 59.9136 162.861 59.9136 162.511V143.823C59.9136 143.113 60.413 142.248 61.0301 141.893L142.664 94.733C142.978 94.5531 143.261 94.5427 143.461 94.6609C143.642 94.7693 145.103 95.5976 145.5 95.8396Z" fill="#188983"/>
<g opacity="0.2">
<path d="M145.5 95.8397C145.103 95.5977 143.642 94.7694 143.461 94.6611C143.261 94.5428 142.977 94.5528 142.664 94.7332L61.03 141.893C60.722 142.07 60.4432 142.374 60.2413 142.723L62.3335 143.931C62.5348 143.581 62.8131 143.275 63.1195 143.097L144.758 95.9426C145.041 95.7781 145.304 95.7523 145.5 95.8397Z" fill="white"/>
</g>
<path d="M63.1195 143.098L144.756 95.9422C145.371 95.5869 145.87 95.8751 145.87 96.5857V115.275C145.87 115.986 145.371 116.85 144.756 117.205L63.1195 164.361C62.5041 164.716 62.0052 164.428 62.0052 163.717V145.028C62.0052 144.317 62.5041 143.453 63.1195 143.098Z" fill="#FAFAFA"/>
<path d="M62.3332 143.93L60.241 142.723C60.038 143.072 59.9126 143.467 59.9126 143.823V162.511C59.9126 162.861 60.0364 163.108 60.2316 163.227C60.4373 163.35 62.1203 164.302 62.3106 164.426C62.1203 164.302 62.007 164.055 62.007 163.716V145.027C62.0076 144.673 62.1324 144.28 62.3332 143.93Z" fill="#188983"/>
<path opacity="0.15" d="M62.3332 143.93L60.241 142.723C60.038 143.072 59.9126 143.467 59.9126 143.823V162.511C59.9126 162.861 60.0364 163.108 60.2316 163.227C60.4373 163.35 62.1203 164.302 62.3106 164.426C62.1203 164.302 62.007 164.055 62.007 163.716V145.027C62.0076 144.673 62.1324 144.28 62.3332 143.93Z" fill="black"/>
<path d="M145.255 96.3053C145.354 96.3053 145.356 96.5572 145.356 96.5863V115.276C145.356 115.803 144.956 116.496 144.499 116.76L62.8629 163.916C62.7331 163.991 62.6517 163.999 62.6226 163.999C62.5236 163.999 62.5208 163.747 62.5208 163.718V145.028C62.5208 144.501 62.9212 143.808 63.3777 143.544L145.014 96.3883C145.144 96.3135 145.225 96.3053 145.255 96.3053ZM145.255 95.791C145.105 95.791 144.936 95.84 144.757 95.9434L63.1203 143.099C62.5049 143.454 62.006 144.318 62.006 145.029V163.718C62.006 164.222 62.2568 164.514 62.6226 164.514C62.7722 164.514 62.9416 164.465 63.1203 164.361L144.757 117.206C145.372 116.851 145.871 115.986 145.871 115.276V96.5863C145.871 96.082 145.62 95.791 145.255 95.791Z" fill="#188983"/>
<path d="M77.732 141.483C78.8414 142.124 79.5272 143.497 79.5272 145.452C79.5272 149.361 76.7827 154.114 73.398 156.068C71.7057 157.045 70.1734 157.138 69.064 156.497C68.3903 156.108 67.7831 155.758 67.1099 155.369C66.0005 154.729 65.3147 153.355 65.3147 151.401C65.3147 147.492 68.0592 142.739 71.4444 140.784C73.1368 139.807 74.6691 139.715 75.7784 140.355C76.4516 140.744 77.0588 141.095 77.732 141.483Z" fill="#188983"/>
<path opacity="0.2" d="M77.732 141.483C78.8414 142.124 79.5272 143.497 79.5272 145.452C79.5272 149.361 76.7827 154.114 73.398 156.068C71.7057 157.045 70.1734 157.138 69.064 156.497C68.3903 156.108 67.7831 155.758 67.1099 155.369C66.0005 154.729 65.3147 153.355 65.3147 151.401C65.3147 147.492 68.0592 142.739 71.4444 140.784C73.1368 139.807 74.6691 139.715 75.7784 140.355C76.4516 140.744 77.0588 141.095 77.732 141.483Z" fill="black"/>
<path d="M73.3978 156.068C71.7055 157.046 70.1732 157.138 69.0638 156.497C67.9545 155.857 67.2686 154.484 67.2686 152.529C67.2686 148.62 70.0131 143.867 73.3978 141.912C75.0902 140.935 76.623 140.843 77.7318 141.483C78.8412 142.124 79.527 143.497 79.527 145.452C79.527 149.36 76.7831 154.114 73.3978 156.068Z" fill="#188983"/>
<path d="M83.747 139.845L141.231 106.644C141.989 106.206 142.603 105.033 142.603 104.023C142.603 103.013 141.989 102.548 141.231 102.986L83.747 136.187C82.9897 136.625 82.3753 137.798 82.3753 138.808C82.3753 139.818 82.9897 140.282 83.747 139.845ZM141.231 110.685L83.747 143.886C82.9897 144.323 82.3753 145.497 82.3753 146.507C82.3753 147.516 82.9897 147.981 83.747 147.543L141.231 114.342C141.989 113.905 142.603 112.731 142.603 111.721C142.603 110.711 141.989 110.247 141.231 110.685Z" fill="#E0E0E0"/>
<g opacity="0.2">
<path d="M58.5194 170.955L141.116 123.247C141.464 123.046 141.746 123.209 141.746 123.612V143.322C141.746 143.724 141.464 144.214 141.116 144.415L58.5194 192.123C58.1707 192.324 57.8885 192.161 57.8885 191.758V172.048C57.888 171.646 58.1707 171.156 58.5194 170.955Z" fill="black"/>
</g>
<path d="M145.5 125.856C145.304 125.769 145.041 125.795 144.758 125.959L63.1196 173.114C62.5074 173.469 62.008 174.334 62.008 175.044V193.732C62.008 194.072 62.1213 194.319 62.3116 194.442C62.1213 194.319 60.4383 193.366 60.2326 193.243C60.0368 193.125 59.9136 192.878 59.9136 192.528V173.839C59.9136 173.129 60.413 172.265 61.0301 171.909L142.664 124.75C142.978 124.57 143.261 124.559 143.461 124.678C143.642 124.786 145.103 125.615 145.5 125.856Z" fill="#188983"/>
<g opacity="0.2">
<path d="M145.5 125.856C145.103 125.614 143.642 124.786 143.461 124.678C143.261 124.559 142.977 124.569 142.664 124.75L61.03 171.909C60.722 172.087 60.4432 172.391 60.2413 172.739L62.3335 173.947C62.5348 173.597 62.8131 173.292 63.1195 173.114L144.758 125.959C145.041 125.795 145.304 125.769 145.5 125.856Z" fill="white"/>
</g>
<path d="M63.1195 173.115L144.756 125.96C145.371 125.604 145.87 125.893 145.87 126.603V145.293C145.87 146.003 145.371 146.867 144.756 147.223L63.1195 194.378C62.5041 194.733 62.0052 194.445 62.0052 193.735V175.045C62.0052 174.334 62.5041 173.47 63.1195 173.115Z" fill="#FAFAFA"/>
<path d="M62.3332 173.948L60.241 172.74C60.038 173.09 59.9126 173.484 59.9126 173.84V192.529C59.9126 192.878 60.0364 193.125 60.2316 193.244C60.4373 193.368 62.1203 194.32 62.3106 194.443C62.1203 194.319 62.007 194.073 62.007 193.733V175.045C62.0076 174.69 62.1324 174.297 62.3332 173.948Z" fill="#188983"/>
<path opacity="0.15" d="M62.3332 173.948L60.241 172.74C60.038 173.09 59.9126 173.484 59.9126 173.84V192.529C59.9126 192.878 60.0364 193.125 60.2316 193.244C60.4373 193.368 62.1203 194.32 62.3106 194.443C62.1203 194.319 62.007 194.073 62.007 193.733V175.045C62.0076 174.69 62.1324 174.297 62.3332 173.948Z" fill="black"/>
<path d="M145.255 126.322C145.354 126.322 145.356 126.574 145.356 126.603V145.293C145.356 145.82 144.956 146.513 144.499 146.777L62.8629 193.933C62.7331 194.008 62.6517 194.016 62.6226 194.016C62.5236 194.016 62.5208 193.764 62.5208 193.735V175.045C62.5208 174.518 62.9212 173.825 63.3777 173.561L145.014 126.405C145.144 126.331 145.225 126.322 145.255 126.322ZM145.255 125.808C145.105 125.808 144.936 125.857 144.757 125.96L63.1203 173.115C62.5049 173.471 62.006 174.335 62.006 175.045V193.735C62.006 194.239 62.2568 194.53 62.6226 194.53C62.7722 194.53 62.9416 194.481 63.1203 194.378L144.757 147.222C145.372 146.867 145.871 146.003 145.871 145.292V126.603C145.871 126.099 145.62 125.808 145.255 125.808Z" fill="#188983"/>
<path d="M77.732 171.5C78.8414 172.141 79.5272 173.514 79.5272 175.469C79.5272 179.378 76.7827 184.131 73.398 186.085C71.7057 187.063 70.1734 187.155 69.064 186.515C68.3903 186.126 67.7831 185.776 67.1099 185.387C66.0005 184.747 65.3147 183.373 65.3147 181.419C65.3147 177.51 68.0592 172.757 71.4444 170.802C73.1368 169.825 74.6691 169.732 75.7784 170.373C76.4516 170.761 77.0588 171.112 77.732 171.5Z" fill="#188983"/>
<path opacity="0.2" d="M77.732 171.5C78.8414 172.141 79.5272 173.514 79.5272 175.469C79.5272 179.378 76.7827 184.131 73.398 186.085C71.7057 187.063 70.1734 187.155 69.064 186.515C68.3903 186.126 67.7831 185.776 67.1099 185.387C66.0005 184.747 65.3147 183.373 65.3147 181.419C65.3147 177.51 68.0592 172.757 71.4444 170.802C73.1368 169.825 74.6691 169.732 75.7784 170.373C76.4516 170.761 77.0588 171.112 77.732 171.5Z" fill="black"/>
<path d="M73.3978 186.085C71.7055 187.062 70.1732 187.155 69.0638 186.514C67.9545 185.874 67.2686 184.5 67.2686 182.546C67.2686 178.637 70.0131 173.884 73.3978 171.929C75.0902 170.952 76.623 170.859 77.7318 171.499C78.8412 172.14 79.527 173.513 79.527 175.468C79.527 179.378 76.7831 184.131 73.3978 186.085Z" fill="#188983"/>
<path d="M83.747 169.861L141.231 136.66C141.989 136.223 142.603 135.049 142.603 134.039C142.603 133.029 141.989 132.565 141.231 133.002L83.747 166.204C82.9897 166.641 82.3753 167.815 82.3753 168.824C82.3753 169.834 82.9897 170.298 83.747 169.861ZM141.231 140.701L83.747 173.903C82.9897 174.34 82.3753 175.514 82.3753 176.523C82.3753 177.534 82.9897 177.998 83.747 177.56L141.231 144.359C141.989 143.922 142.603 142.748 142.603 141.738C142.603 140.728 141.989 140.264 141.231 140.701Z" fill="#E0E0E0"/>
<g opacity="0.2">
<path d="M58.5194 200.972L141.116 153.265C141.464 153.064 141.746 153.227 141.746 153.63V173.339C141.746 173.742 141.464 174.231 141.116 174.433L58.5194 222.14C58.1707 222.342 57.8885 222.178 57.8885 221.776V202.066C57.888 201.663 58.1707 201.174 58.5194 200.972Z" fill="black"/>
</g>
<path d="M145.5 155.874C145.304 155.786 145.041 155.812 144.758 155.977L63.1196 203.131C62.5074 203.487 62.008 204.351 62.008 205.061V223.75C62.008 224.09 62.1213 224.337 62.3116 224.46C62.1213 224.336 60.4383 223.384 60.2326 223.261C60.0368 223.143 59.9136 222.896 59.9136 222.545V203.857C59.9136 203.147 60.413 202.282 61.0301 201.927L142.664 154.767C142.978 154.587 143.261 154.577 143.461 154.695C143.642 154.803 145.103 155.632 145.5 155.874Z" fill="#188983"/>
<g opacity="0.2">
<path d="M145.5 155.874C145.103 155.632 143.642 154.804 143.461 154.695C143.261 154.577 142.977 154.587 142.664 154.767L61.03 201.927C60.722 202.104 60.4432 202.408 60.2413 202.757L62.3335 203.965C62.5348 203.615 62.8131 203.309 63.1195 203.132L144.758 155.977C145.041 155.812 145.304 155.786 145.5 155.874Z" fill="white"/>
</g>
<path d="M63.1195 203.132L144.756 155.976C145.371 155.621 145.87 155.909 145.87 156.62V175.309C145.87 176.02 145.371 176.884 144.756 177.239L63.1195 224.395C62.5041 224.75 62.0052 224.462 62.0052 223.751V205.062C62.0052 204.351 62.5041 203.487 63.1195 203.132Z" fill="#FAFAFA"/>
<path d="M62.3332 203.965L60.241 202.757C60.038 203.107 59.9126 203.501 59.9126 203.857V222.545C59.9126 222.895 60.0364 223.142 60.2316 223.261C60.4373 223.385 62.1203 224.337 62.3106 224.46C62.1203 224.336 62.007 224.089 62.007 223.75V205.061C62.0076 204.707 62.1324 204.313 62.3332 203.965Z" fill="#188983"/>
<path opacity="0.15" d="M62.3332 203.965L60.241 202.757C60.038 203.107 59.9126 203.501 59.9126 203.857V222.545C59.9126 222.895 60.0364 223.142 60.2316 223.261C60.4373 223.385 62.1203 224.337 62.3106 224.46C62.1203 224.336 62.007 224.089 62.007 223.75V205.061C62.0076 204.707 62.1324 204.313 62.3332 203.965Z" fill="black"/>
<path d="M145.255 156.339C145.354 156.339 145.356 156.591 145.356 156.62V175.31C145.356 175.837 144.956 176.53 144.499 176.794L62.8629 223.949C62.7331 224.025 62.6517 224.032 62.6226 224.032C62.5236 224.032 62.5208 223.781 62.5208 223.751V205.062C62.5208 204.536 62.9212 203.842 63.3777 203.578L145.014 156.423C145.144 156.347 145.225 156.339 145.255 156.339ZM145.255 155.824C145.105 155.824 144.936 155.873 144.757 155.977L63.1203 203.132C62.5049 203.487 62.006 204.351 62.006 205.062V223.751C62.006 224.255 62.2568 224.546 62.6226 224.546C62.7722 224.546 62.9416 224.497 63.1203 224.394L144.757 177.238C145.372 176.883 145.871 176.019 145.871 175.309V156.619C145.871 156.116 145.62 155.824 145.255 155.824Z" fill="#188983"/>
<path d="M77.732 201.517C78.8414 202.158 79.5272 203.531 79.5272 205.486C79.5272 209.394 76.7827 214.148 73.398 216.102C71.7057 217.079 70.1734 217.171 69.064 216.531C68.3903 216.142 67.7831 215.792 67.1099 215.403C66.0005 214.763 65.3147 213.389 65.3147 211.435C65.3147 207.526 68.0592 202.773 71.4444 200.818C73.1368 199.841 74.6691 199.749 75.7784 200.389C76.4516 200.778 77.0588 201.129 77.732 201.517Z" fill="#188983"/>
<path opacity="0.2" d="M77.732 201.517C78.8414 202.158 79.5272 203.531 79.5272 205.486C79.5272 209.394 76.7827 214.148 73.398 216.102C71.7057 217.079 70.1734 217.171 69.064 216.531C68.3903 216.142 67.7831 215.792 67.1099 215.403C66.0005 214.763 65.3147 213.389 65.3147 211.435C65.3147 207.526 68.0592 202.773 71.4444 200.818C73.1368 199.841 74.6691 199.749 75.7784 200.389C76.4516 200.778 77.0588 201.129 77.732 201.517Z" fill="black"/>
<path d="M73.3977 216.102C71.7053 217.08 70.173 217.172 69.0637 216.531C67.9543 215.891 67.2685 214.518 67.2685 212.563C67.2685 208.654 70.013 203.901 73.3977 201.946C75.09 200.969 76.6229 200.877 77.7317 201.517C78.841 202.158 79.5269 203.531 79.5269 205.486C79.5269 209.395 76.7829 214.148 73.3977 216.102Z" fill="#188983"/>
<path d="M83.747 199.879L141.231 166.678C141.989 166.241 142.603 165.067 142.603 164.057C142.603 163.047 141.989 162.583 141.231 163.02L83.747 196.222C82.9897 196.659 82.3753 197.833 82.3753 198.842C82.3753 199.852 82.9897 200.316 83.747 199.879ZM141.231 170.719L83.747 203.92C82.9897 204.357 82.3753 205.531 82.3753 206.541C82.3753 207.551 82.9897 208.015 83.747 207.577L141.231 174.376C141.989 173.939 142.603 172.765 142.603 171.755C142.603 170.746 141.989 170.281 141.231 170.719Z" fill="#E0E0E0"/>
<path d="M195.636 181.146L200.528 183.437L205.395 185.767L215.09 190.484L224.729 195.285L229.528 197.714L234.302 200.182L229.409 197.89L224.542 195.561L214.847 190.843L205.21 186.042L200.41 183.613L195.636 181.146Z" fill="#E0E0E0"/>
<path d="M203.516 190.851C204.614 191.337 205.695 191.847 206.785 192.344L210.029 193.875C212.189 194.9 214.327 195.957 216.477 196.996C218.607 198.064 220.748 199.116 222.869 200.199L226.045 201.83C227.095 202.387 228.152 202.931 229.195 203.499C228.097 203.013 227.016 202.503 225.925 202.006L222.681 200.475C220.522 199.45 218.383 198.394 216.234 197.354C214.104 196.285 211.962 195.234 209.842 194.15L206.666 192.519C205.617 191.962 204.559 191.418 203.516 190.851Z" fill="#E0E0E0"/>
<path d="M183.574 165.912L179.561 163.865C176.882 162.505 174.183 161.175 171.494 159.829C168.785 158.512 167.31 157.782 164.592 156.48L161.7 155.1V155.374L164.406 156.754C167.084 158.115 168.563 158.841 171.251 160.187C173.958 161.504 176.656 162.838 179.374 164.141L183.455 166.088C184.824 166.724 186.185 167.372 187.562 167.997C186.24 167.291 184.903 166.608 183.574 165.912Z" fill="#E0E0E0"/>
<path d="M163.063 161.724C163.783 162.027 164.488 162.354 165.2 162.668L167.312 163.65C168.719 164.304 170.108 164.987 171.496 165.671C172.878 166.362 174.26 167.055 175.623 167.775L177.667 168.856C178.339 169.23 179.02 169.591 179.685 169.976C178.964 169.672 178.26 169.346 177.547 169.032L175.435 168.05C174.027 167.395 172.639 166.713 171.251 166.029C169.869 165.336 168.487 164.644 167.125 163.924L165.081 162.843C164.409 162.469 163.728 162.108 163.063 161.724Z" fill="#E0E0E0"/>
<rect x="67.1301" y="91.0527" width="66" height="5.5" rx="2.75" transform="rotate(-30.2024 67.1301 91.0527)" fill="#455A64"/>
</svg>
