<svg width="38" height="34" viewBox="0 0 38 34" fill="none" xmlns="http://www.w3.org/2000/svg">
<rect width="38" height="34" rx="4" fill="#545556" fill-opacity="0.2"/>
<path d="M25.7071 11.7071C26.0976 11.3166 26.0976 10.6834 25.7071 10.2929C25.3166 9.90237 24.6834 9.90237 24.2929 10.2929L19 15.5858L13.7071 10.2929C13.3166 9.90237 12.6834 9.90237 12.2929 10.2929C11.9024 10.6834 11.9024 11.3166 12.2929 11.7071L17.5858 17L12.2929 22.2929C11.9024 22.6834 11.9024 23.3166 12.2929 23.7071C12.6834 24.0976 13.3166 24.0976 13.7071 23.7071L19 18.4142L24.2929 23.7071C24.6834 24.0976 25.3166 24.0976 25.7071 23.7071C26.0976 23.3166 26.0976 22.6834 25.7071 22.2929L20.4142 17L25.7071 11.7071Z" fill="#FAFAFA"/>
</svg>
