<svg width="38" height="34" viewBox="0 0 38 34" fill="none" xmlns="http://www.w3.org/2000/svg">
<rect width="38" height="34" rx="4" fill="#545556" fill-opacity="0.2"/>
<path fill-rule="evenodd" clip-rule="evenodd" d="M17.3092 7.24999H20.6907C20.9071 7.24985 21.0956 7.24973 21.2736 7.27816C21.9769 7.39046 22.5855 7.82912 22.9145 8.46081C22.9977 8.6207 23.0572 8.79958 23.1255 9.00491L23.2371 9.33981C23.256 9.3965 23.2614 9.41255 23.266 9.42519C23.4411 9.9093 23.8952 10.2366 24.4098 10.2496C24.4233 10.2499 24.4399 10.25 24.5 10.25H27.5C27.9142 10.25 28.25 10.5858 28.25 11C28.25 11.4142 27.9142 11.75 27.5 11.75H10.4999C10.0857 11.75 9.74988 11.4142 9.74988 11C9.74988 10.5858 10.0857 10.25 10.4999 10.25H13.5C13.56 10.25 13.5766 10.2499 13.5901 10.2496C14.1048 10.2366 14.5588 9.90932 14.7339 9.42521C14.7385 9.41248 14.7438 9.39678 14.7628 9.33981L14.8744 9.00493C14.9427 8.79961 15.0022 8.6207 15.0855 8.46081C15.4144 7.82912 16.023 7.39046 16.7263 7.27816C16.9043 7.24973 17.0928 7.24985 17.3092 7.24999ZM16.008 10.25C16.0595 10.149 16.1052 10.044 16.1445 9.93545C16.1564 9.90248 16.1681 9.86739 16.1831 9.82231L16.2829 9.52289C16.3741 9.24938 16.3951 9.1936 16.4159 9.15361C16.5255 8.94304 16.7284 8.79683 16.9628 8.75939C17.0074 8.75228 17.0669 8.75001 17.3552 8.75001H20.6447C20.933 8.75001 20.9926 8.75228 21.0371 8.75939C21.2715 8.79683 21.4744 8.94304 21.584 9.15361C21.6049 9.1936 21.6258 9.24937 21.717 9.52289L21.8168 9.82213L21.8555 9.93547C21.8947 10.044 21.9404 10.149 21.9919 10.25H16.008Z" fill="#FAFAFA"/>
<path d="M12.915 13.4501C12.8874 13.0368 12.53 12.7241 12.1167 12.7517C11.7034 12.7792 11.3907 13.1366 11.4183 13.5499L11.8817 20.5016C11.9672 21.7844 12.0363 22.8205 12.1983 23.6336C12.3667 24.4789 12.6531 25.185 13.2447 25.7384C13.8363 26.2919 14.5598 26.5307 15.4145 26.6425C16.2365 26.75 17.2749 26.75 18.5605 26.75H19.4394C20.7249 26.75 21.7634 26.75 22.5854 26.6425C23.4401 26.5307 24.1636 26.2919 24.7552 25.7384C25.3468 25.185 25.6333 24.4789 25.8017 23.6336C25.9636 22.8205 26.0327 21.7844 26.1182 20.5016L26.5816 13.5499C26.6092 13.1366 26.2965 12.7792 25.8832 12.7517C25.4699 12.7241 25.1125 13.0368 25.085 13.4501L24.625 20.3492C24.5352 21.6971 24.4711 22.6349 24.3306 23.3405C24.1942 24.025 24.0039 24.3873 23.7305 24.6431C23.4571 24.8989 23.0829 25.0647 22.3909 25.1552C21.6775 25.2485 20.7375 25.25 19.3866 25.25H18.6133C17.2624 25.25 16.3224 25.2485 15.609 25.1552C14.917 25.0647 14.5429 24.8989 14.2695 24.6431C13.996 24.3873 13.8057 24.025 13.6694 23.3405C13.5288 22.6349 13.4648 21.6971 13.3749 20.3492L12.915 13.4501Z" fill="#FAFAFA"/>
<path d="M16.4253 15.2537C16.8375 15.2125 17.205 15.5132 17.2462 15.9254L17.7462 20.9254C17.7875 21.3375 17.4868 21.7051 17.0746 21.7463C16.6624 21.7875 16.2949 21.4868 16.2537 21.0746L15.7537 16.0746C15.7125 15.6625 16.0132 15.2949 16.4253 15.2537Z" fill="#FAFAFA"/>
<path d="M21.5746 15.2537C21.9868 15.2949 22.2875 15.6625 22.2462 16.0746L21.7462 21.0746C21.705 21.4868 21.3375 21.7875 20.9253 21.7463C20.5132 21.7051 20.2125 21.3375 20.2537 20.9254L20.7537 15.9254C20.7949 15.5132 21.1624 15.2125 21.5746 15.2537Z" fill="#FAFAFA"/>
</svg>
