<svg width="20" height="21" viewBox="0 0 20 21" fill="none" xmlns="http://www.w3.org/2000/svg">
<g id="Outline / Messages, Conversation  /  Letter">
<path id="Vector" fill-rule="evenodd" clip-rule="evenodd" d="M8.28567 3.20898H11.713C13.2445 3.20897 14.4575 3.20896 15.4069 3.3366C16.3839 3.46795 17.1747 3.74472 17.7983 4.36835C18.4219 4.99199 18.6987 5.78278 18.8301 6.7598C18.9577 7.70915 18.9577 8.92217 18.9577 10.4536V10.5477C18.9577 12.0791 18.9577 13.2922 18.8301 14.2415C18.6987 15.2185 18.4219 16.0093 17.7983 16.6329C17.1747 17.2566 16.3839 17.5333 15.4069 17.6647C14.4575 17.7923 13.2445 17.7923 11.713 17.7923H8.28567C6.75421 17.7923 5.54118 17.7923 4.59183 17.6647C3.61481 17.5333 2.82402 17.2566 2.20039 16.6329C1.57675 16.0093 1.29999 15.2185 1.16863 14.2415C1.04099 13.2922 1.041 12.0791 1.04102 10.5477V10.4536C1.041 8.92217 1.04099 7.70914 1.16863 6.7598C1.29999 5.78278 1.57675 4.99199 2.20039 4.36835C2.82402 3.74472 3.61481 3.46795 4.59183 3.3366C5.54118 3.20896 6.7542 3.20897 8.28567 3.20898ZM4.75839 4.57545C3.91998 4.68817 3.43694 4.89956 3.08427 5.25224C2.73159 5.60491 2.5202 6.08795 2.40748 6.92636C2.29234 7.78275 2.29102 8.91163 2.29102 10.5007C2.29102 12.0897 2.29234 13.2186 2.40748 14.0749C2.5202 14.9134 2.73159 15.3964 3.08427 15.7491C3.43694 16.1017 3.91998 16.3131 4.75839 16.4259C5.61478 16.541 6.74367 16.5423 8.33268 16.5423H11.666C13.255 16.5423 14.3839 16.541 15.2403 16.4259C16.0787 16.3131 16.5618 16.1017 16.9144 15.7491C17.2671 15.3964 17.4785 14.9134 17.5912 14.0749C17.7064 13.2186 17.7077 12.0897 17.7077 10.5007C17.7077 8.91163 17.7064 7.78275 17.5912 6.92636C17.4785 6.08795 17.2671 5.60491 16.9144 5.25224C16.5618 4.89956 16.0787 4.68817 15.2403 4.57545C14.3839 4.46031 13.255 4.45898 11.666 4.45898H8.33268C6.74367 4.45898 5.61478 4.46031 4.75839 4.57545ZM4.51921 6.7672C4.74019 6.50203 5.13429 6.4662 5.39946 6.68718L7.19854 8.18641C7.97601 8.8343 8.51579 9.28266 8.9715 9.57576C9.41263 9.85948 9.71179 9.95471 9.99935 9.95471C10.2869 9.95471 10.5861 9.85948 11.0272 9.57576C11.4829 9.28266 12.0227 8.8343 12.8002 8.18641L14.5992 6.68718C14.8644 6.4662 15.2585 6.50203 15.4795 6.7672C15.7005 7.03238 15.6646 7.42648 15.3995 7.64746L13.5691 9.1728C12.8304 9.78834 12.2318 10.2873 11.7034 10.6271C11.153 10.9811 10.6169 11.2047 9.99935 11.2047C9.38179 11.2047 8.84574 10.9811 8.29533 10.6271C7.76695 10.2873 7.16828 9.78835 6.42965 9.1728L4.59923 7.64746C4.33406 7.42648 4.29823 7.03238 4.51921 6.7672Z" fill="#AAA6A6"/>
</g>
</svg>
