<svg width="20" height="21" viewBox="0 0 20 21" fill="none" xmlns="http://www.w3.org/2000/svg">
<g id="insta">
<path id="Vector" d="M14.4493 5.04935C14.2516 5.04935 14.0582 5.108 13.8938 5.21788C13.7293 5.32776 13.6012 5.48394 13.5255 5.66667C13.4498 5.84939 13.43 6.05046 13.4686 6.24444C13.5071 6.43842 13.6024 6.6166 13.7422 6.75646C13.8821 6.89631 14.0603 6.99155 14.2543 7.03013C14.4482 7.06872 14.6493 7.04892 14.832 6.97323C15.0148 6.89754 15.1709 6.76937 15.2808 6.60492C15.3907 6.44047 15.4493 6.24713 15.4493 6.04935C15.4493 5.78413 15.344 5.52978 15.1565 5.34224C14.9689 5.15471 14.7146 5.04935 14.4493 5.04935ZM18.2827 7.06602C18.2665 6.3746 18.137 5.69052 17.8993 5.04102C17.6875 4.48529 17.3577 3.98208 16.9327 3.56602C16.52 3.13887 16.0156 2.81116 15.4577 2.60768C14.8099 2.36282 14.1251 2.23036 13.4327 2.21602C12.5493 2.16602 12.266 2.16602 9.99935 2.16602C7.73268 2.16602 7.44935 2.16602 6.56602 2.21602C5.87364 2.23036 5.1888 2.36282 4.54102 2.60768C3.98408 2.81322 3.48013 3.14065 3.06602 3.56602C2.63887 3.97866 2.31116 4.48305 2.10768 5.04102C1.86282 5.6888 1.73036 6.37364 1.71602 7.06602C1.66602 7.94935 1.66602 8.23268 1.66602 10.4993C1.66602 12.766 1.66602 13.0493 1.71602 13.9327C1.73036 14.6251 1.86282 15.3099 2.10768 15.9577C2.31116 16.5156 2.63887 17.02 3.06602 17.4327C3.48013 17.858 3.98408 18.1855 4.54102 18.391C5.1888 18.6359 5.87364 18.7683 6.56602 18.7827C7.44935 18.8327 7.73268 18.8327 9.99935 18.8327C12.266 18.8327 12.5493 18.8327 13.4327 18.7827C14.1251 18.7683 14.8099 18.6359 15.4577 18.391C16.0156 18.1875 16.52 17.8598 16.9327 17.4327C17.3596 17.0182 17.6896 16.5145 17.8993 15.9577C18.137 15.3082 18.2665 14.6241 18.2827 13.9327C18.2827 13.0493 18.3327 12.766 18.3327 10.4993C18.3327 8.23268 18.3327 7.94935 18.2827 7.06602ZM16.7827 13.8327C16.7766 14.3617 16.6808 14.8858 16.4993 15.3827C16.3663 15.7453 16.1526 16.073 15.8743 16.341C15.6041 16.6164 15.277 16.8297 14.916 16.966C14.4191 17.1475 13.895 17.2433 13.366 17.2493C12.5327 17.291 12.2243 17.2993 10.0327 17.2993C7.84102 17.2993 7.53268 17.2993 6.69935 17.2493C6.15009 17.2596 5.60318 17.1751 5.08268 16.9993C4.7375 16.8561 4.42548 16.6433 4.16602 16.3743C3.88942 16.1066 3.67839 15.7787 3.54935 15.416C3.3459 14.912 3.23305 14.376 3.21602 13.8327C3.21602 12.9993 3.16602 12.691 3.16602 10.4993C3.16602 8.30768 3.16602 7.99935 3.21602 7.16602C3.21975 6.62523 3.31847 6.0893 3.50768 5.58268C3.65439 5.23094 3.87957 4.9174 4.16602 4.66602C4.41919 4.37949 4.73209 4.15193 5.08268 3.99935C5.59064 3.81605 6.12601 3.72025 6.66602 3.71602C7.49935 3.71602 7.80768 3.66602 9.99935 3.66602C12.191 3.66602 12.4993 3.66602 13.3327 3.71602C13.8617 3.72208 14.3858 3.81789 14.8827 3.99935C15.2614 4.13989 15.6013 4.36839 15.8743 4.66602C16.1474 4.922 16.3608 5.23496 16.4993 5.58268C16.6846 6.09013 16.7804 6.62583 16.7827 7.16602C16.8243 7.99935 16.8327 8.30768 16.8327 10.4993C16.8327 12.691 16.8243 12.9993 16.7827 13.8327ZM9.99935 6.22435C9.15419 6.226 8.32848 6.47812 7.62656 6.94886C6.92464 7.41961 6.378 8.08785 6.05571 8.86914C5.73342 9.65044 5.64995 10.5097 5.81584 11.3385C5.98174 12.1672 6.38955 12.9281 6.98775 13.5252C7.58595 14.1222 8.34769 14.5285 9.17673 14.6928C10.0058 14.8571 10.8649 14.7719 11.6456 14.4481C12.4262 14.1243 13.0934 13.5764 13.5628 12.8735C14.0322 12.1707 14.2827 11.3445 14.2827 10.4993C14.2838 9.93694 14.1737 9.37985 13.9587 8.86015C13.7437 8.34044 13.4281 7.86836 13.0301 7.47106C12.632 7.07376 12.1593 6.75908 11.6392 6.54512C11.1191 6.33117 10.5618 6.22215 9.99935 6.22435ZM9.99935 13.2743C9.45051 13.2743 8.91399 13.1116 8.45764 12.8067C8.0013 12.5018 7.64562 12.0684 7.43558 11.5613C7.22555 11.0542 7.1706 10.4963 7.27767 9.95797C7.38474 9.41968 7.64904 8.92522 8.03713 8.53713C8.42522 8.14904 8.91968 7.88474 9.45797 7.77767C9.99627 7.6706 10.5542 7.72555 11.0613 7.93558C11.5684 8.14562 12.0018 8.5013 12.3067 8.95764C12.6116 9.41399 12.7743 9.95051 12.7743 10.4993C12.7743 10.8638 12.7026 11.2246 12.5631 11.5613C12.4237 11.898 12.2193 12.2039 11.9616 12.4616C11.7039 12.7193 11.398 12.9237 11.0613 13.0631C10.7246 13.2026 10.3638 13.2743 9.99935 13.2743Z" fill="#AAA6A6"/>
</g>
</svg>
