<svg width="20" height="21" viewBox="0 0 20 21" fill="none" xmlns="http://www.w3.org/2000/svg">
<g id="linkiden">
<path id="Vector" d="M6.66602 16.3333H4.16602V8H6.66602V16.3333ZM15.8327 16.3333H13.3327V11.8817C13.3327 10.7217 12.9193 10.1442 12.1002 10.1442C11.451 10.1442 11.0393 10.4675 10.8327 11.115V16.3333H8.33268C8.33268 16.3333 8.36602 8.83333 8.33268 8H10.306L10.4585 9.66667H10.5102C11.0227 8.83333 11.8418 8.26833 12.9652 8.26833C13.8193 8.26833 14.5102 8.50583 15.0377 9.1025C15.5685 9.7 15.8327 10.5017 15.8327 11.6275V16.3333Z" fill="#AAA6A6"/>
<path id="Vector_2" d="M5.41667 7.16602C6.13003 7.16602 6.70833 6.60637 6.70833 5.91602C6.70833 5.22566 6.13003 4.66602 5.41667 4.66602C4.7033 4.66602 4.125 5.22566 4.125 5.91602C4.125 6.60637 4.7033 7.16602 5.41667 7.16602Z" fill="#AAA6A6"/>
</g>
</svg>
