<svg width="16" height="17" viewBox="0 0 16 17" fill="none" xmlns="http://www.w3.org/2000/svg">
<g id="&#217;&#138;&#217;&#138;&#217;&#138;&#217;&#138;&#217;&#138;&#217;&#138;&#217;&#138;&#217;&#138;&#217;&#138;&#217;&#138;">
<path id="Vector (Stroke)" fill-rule="evenodd" clip-rule="evenodd" d="M3.71932 4.0624C2.55695 5.18393 1.83398 6.75786 1.83398 8.50065C1.83398 11.9064 4.59489 14.6673 8.00065 14.6673C8.08566 14.6673 8.17026 14.6656 8.25444 14.6622C8.11748 14.0544 8.09889 13.2374 8.51663 12.4502C8.95135 11.631 9.85148 11.2755 10.5132 11.1128C10.86 11.0276 11.1812 10.9855 11.4147 10.9646C11.5321 10.954 11.6288 10.9487 11.6974 10.946C11.7318 10.9446 11.7591 10.9439 11.7787 10.9436L11.8019 10.9432L11.8076 10.9432C12.9226 10.9316 13.4249 10.569 13.6915 10.2231C13.9193 9.92758 14.0052 9.63207 14.0924 9.3323C14.1035 9.29417 14.1146 9.25597 14.1261 9.2177C14.1533 8.98246 14.1673 8.74319 14.1673 8.50065C14.1673 6.81793 13.4933 5.29263 12.4006 4.17997C12.3948 4.20267 12.3888 4.22505 12.3828 4.24705C12.2743 4.64236 12.099 5.04808 11.9085 5.33715C11.7379 5.59607 11.407 5.85726 11.1323 6.05461C10.9515 6.1845 10.7633 6.29485 10.5926 6.39324C10.572 6.40513 10.5516 6.41683 10.5315 6.42838C10.3795 6.51584 10.2427 6.5945 10.1111 6.68147C9.82318 6.87168 9.60045 7.0764 9.45053 7.38551C9.39803 7.49376 9.39641 7.59937 9.42745 7.71244C9.47715 7.89345 9.51104 8.09708 9.51158 8.30468C9.51269 8.73734 9.29231 9.08847 9.00907 9.31674C8.72919 9.5423 8.3634 9.67131 7.99519 9.66729C6.35834 9.64942 5.35193 8.32103 5.21919 6.84364C5.16639 6.25594 4.90873 5.66146 4.58339 5.14188C4.2846 4.66472 3.94795 4.28129 3.71932 4.0624ZM4.49735 3.42506C4.77405 3.70373 5.12121 4.11652 5.43094 4.61117C5.80262 5.20476 6.14315 5.95238 6.21518 6.75415C6.31583 7.87433 7.02391 8.65662 8.00611 8.66735C8.14115 8.66882 8.28148 8.61879 8.38157 8.53812C8.47831 8.46016 8.51176 8.37787 8.51158 8.30725C8.51131 8.20359 8.49383 8.08897 8.46314 7.9772C8.38237 7.68303 8.37082 7.32015 8.55077 6.94912C8.80744 6.41993 9.18783 6.0929 9.55983 5.84713C9.71927 5.74179 9.88462 5.64677 10.0338 5.56102C10.054 5.54946 10.0738 5.53807 10.0932 5.52685C10.2634 5.42877 10.4128 5.34024 10.5488 5.2425C10.8362 5.03602 11.018 4.87119 11.0735 4.78696C11.1951 4.60235 11.3319 4.29754 11.4185 3.98232C11.487 3.73256 11.5061 3.54089 11.4996 3.42209C10.5055 2.73586 9.30002 2.33398 8.00065 2.33398C6.69941 2.33398 5.4923 2.73702 4.49735 3.42506ZM15.1201 9.32751C15.1513 9.05621 15.1673 8.7803 15.1673 8.50065C15.1673 4.54261 11.9587 1.33398 8.00065 1.33398C4.04261 1.33398 0.833984 4.54261 0.833984 8.50065C0.833984 12.4587 4.04261 15.6673 8.00065 15.6673C11.6409 15.6673 14.6472 12.9532 15.1065 9.43826C15.1187 9.39589 15.1293 9.36068 15.1387 9.33407L15.1201 9.32751ZM13.2704 11.7051C12.8734 11.8506 12.3948 11.9371 11.818 11.9432L11.8128 11.9432V11.9432L11.811 11.9432L11.7973 11.9434C11.7843 11.9436 11.7639 11.9441 11.7369 11.9452C11.6829 11.9474 11.6029 11.9517 11.5041 11.9606C11.3054 11.9784 11.0365 12.014 10.7519 12.0839C10.1511 12.2316 9.62397 12.4968 9.39996 12.9189C9.09635 13.4911 9.13964 14.1137 9.25291 14.5401C10.9522 14.1896 12.3961 13.1399 13.2704 11.7051Z" fill="#AAA6A6"/>
</g>
</svg>
