<svg width="54" height="42" viewBox="0 0 54 42" fill="none" xmlns="http://www.w3.org/2000/svg">
<g id="Group 1">
<path id="SVGID_00000005956171460875686010000002577104239029529503_" d="M41.1395 29.9429H12.2511C5.67845 29.9429 0.242899 24.6741 0.209162 18.1014C0.173441 11.5069 5.52961 6.12891 12.1162 6.12891H17.3255C17.7363 6.12891 18.0697 6.4623 18.0697 6.87309V11.3382C18.0697 11.749 17.7363 12.0824 17.3255 12.0824H12.2114C8.94097 12.0824 6.2103 14.6781 6.16267 17.9486C6.11504 21.2706 8.80404 23.9894 12.1162 23.9894H35.9242C35.9262 23.9894 35.9302 23.9874 35.9302 23.9835C35.9282 20.9253 33.6063 18.3991 30.6336 18.0716C30.2585 18.03 29.9767 17.7105 29.9767 17.3334V12.8524C29.9767 12.4257 30.3359 12.0804 30.7626 12.1082C36.9621 12.515 41.8837 17.6886 41.8837 23.9894V29.1987C41.8837 29.6095 41.5503 29.9429 41.1395 29.9429Z" fill="#34B8DC"/>
<path id="SVGID_00000090976521023148055480000013841371256073503677_" d="M29.2737 12.0828H24.7907C24.364 12.0828 24.0187 11.7236 24.0465 11.2969C24.4533 5.09734 29.6269 0.175781 35.9277 0.175781H41.137C41.5478 0.175781 41.8812 0.509177 41.8812 0.919969V5.38509C41.8812 5.79589 41.5478 6.12928 41.137 6.12928H35.9297C32.8696 6.12928 30.3393 8.45115 30.0119 11.4259C29.9702 11.801 29.6507 12.0828 29.2737 12.0828Z" fill="#34B8DC"/>
<path id="SVGID_00000063595662554306775830000009772533760278396861_" d="M41.8828 41.0827V36.5997C41.8828 36.2227 42.1646 35.9032 42.5397 35.8615C45.5145 35.5341 47.8363 33.0058 47.8363 29.9437V24.7344C47.8363 24.3236 48.1697 23.9902 48.5805 23.9902H53.0456C53.4564 23.9902 53.7898 24.3236 53.7898 24.7344V29.9437C53.7898 36.2445 48.8702 41.4181 42.6687 41.8249C42.242 41.8527 41.8828 41.5094 41.8828 41.0827Z" fill="#34B8DC"/>
<path id="Vector" d="M23.2796 18.0355H18.8145C18.4037 18.0355 18.0703 17.7021 18.0703 17.2913V12.8262C18.0703 12.4154 18.4037 12.082 18.8145 12.082H23.2796C23.6904 12.082 24.0238 12.4154 24.0238 12.8262V17.2913C24.0238 17.7021 23.6904 18.0355 23.2796 18.0355Z" fill="#3AC7BA"/>
</g>
</svg>
